<?xml version="1.0" encoding="utf-8"?>
<!-- Generator: Adobe Illustrator 26.0.1, SVG Export Plug-In . SVG Version: 6.00 Build 0)  -->
<svg version="1.1" id="Layer_1" xmlns="http://www.w3.org/2000/svg" xmlns:xlink="http://www.w3.org/1999/xlink" x="0px" y="0px"
	 viewBox="0 0 1920 1080" style="enable-background:new 0 0 1920 1080;" xml:space="preserve">
<style type="text/css">
	.st0{display:none;}
	.st1{fill:#FEFEFE;}
</style>
<g>
	<path class="st0" d="M0,0c640,0,1280,0,1920,0c0,360,0,720,0,1080c-640,0-1280,0-1920,0C0,720,0,360,0,0z M637.6,554.8
		c13.4,13.5,26.1,26.3,38.7,39c22.7,22.9,45.4,46,68.2,68.8c23.1,23.1,46.5,46,69.7,69.2c20,19.9,39.7,40.1,59.6,60
		c19.5,19.5,39.1,38.7,58.6,58.2c27.5,27.4,54.9,54.8,82.3,82.2c20.9,20.9,41.8,41.9,62.8,62.8c21.7,21.8,43.5,43.5,65.1,65.3
		c2.9,3,4.5,3.1,7.5,0c18.9-19.4,38-38.7,57.1-58c11.9-12,23.7-24.2,36-35.8c3.4-3.2,0.7-4.8-0.6-6.2c-3-3.4-6.6-6.2-9.8-9.4
		c-19.5-19.3-38.9-38.8-58.6-58c-16.4-16.1-33.1-31.9-49.6-48c-16.1-15.7-32.2-31.5-48.2-47.3c-22.1-21.7-44.2-43.5-66.3-65.2
		c-33.2-32.6-66.5-65.2-99.8-97.8c-10.6-10.3-21.3-20.5-31.6-31c-2.7-2.8-4.6-1.8-7.1-0.5c-24,12.3-48,24.7-75.5,27.3
		c-11.5,1.1-22.8,0.4-34.7-2.1c7.8-8.3,15.1-16,22.5-23.7c12.8-13.3,25.8-26.6,38.6-39.9c19-19.8,37.8-39.7,56.9-59.5
		c16.1-16.7,32.4-33.1,48.5-49.7c15.4-15.8,30.5-31.9,45.9-47.7c9.4-9.7,19.1-19.1,28.5-28.8c12.8-13.1,25.4-26.4,38.2-39.6
		c10-10.3,20.2-20.4,30.1-30.8c9.2-9.6,18.1-19.4,27.3-28.9c13.2-13.5,26.7-26.8,39.9-40.3c23.9-24.6,47.8-49.3,71.6-74
		c10-10.4,19.9-20.9,30.1-31c2.6-2.6,3.1-3.7,0.3-6.5c-21.9-21.7-43.7-43.6-65.5-65.4c-9.9-10-19.8-20-30.3-30.6
		C974.9,206.5,806.4,380.5,637.6,554.8z"/>
	<path class="st1" d="M637.6,554.8c168.8-174.3,337.3-348.2,506.2-522.7c10.5,10.6,20.3,20.6,30.3,30.6
		c21.8,21.9,43.6,43.7,65.5,65.4c2.8,2.8,2.3,3.9-0.3,6.5c-10.2,10.1-20.1,20.6-30.1,31c-23.9,24.7-47.7,49.4-71.6,74
		c-13.2,13.5-26.7,26.8-39.9,40.3c-9.2,9.5-18.1,19.4-27.3,28.9c-10,10.3-20.1,20.5-30.1,30.8c-12.8,13.2-25.4,26.5-38.2,39.6
		c-9.4,9.7-19.1,19.1-28.5,28.8c-15.4,15.8-30.5,31.9-45.9,47.7c-16.1,16.6-32.5,33-48.5,49.7c-19,19.7-37.9,39.7-56.9,59.5
		c-12.8,13.4-25.8,26.6-38.6,39.9c-7.4,7.7-14.7,15.5-22.5,23.7c11.9,2.5,23.2,3.2,34.7,2.1c27.5-2.7,51.5-15,75.5-27.3
		c2.5-1.3,4.4-2.2,7.1,0.5c10.3,10.5,21.1,20.7,31.6,31c33.3,32.6,66.5,65.2,99.8,97.8c22.1,21.7,44.2,43.5,66.3,65.2
		c16.1,15.8,32.1,31.6,48.2,47.3c16.5,16,33.2,31.9,49.6,48c19.6,19.2,39,38.7,58.6,58c3.2,3.2,6.9,6,9.8,9.4c1.3,1.5,4,3,0.6,6.2
		c-12.3,11.6-24.1,23.8-36,35.8c-19.1,19.3-38.2,38.5-57.1,58c-3,3.1-4.6,2.9-7.5,0c-21.6-21.9-43.4-43.6-65.1-65.3
		c-20.9-20.9-41.8-41.9-62.8-62.8c-27.4-27.4-54.8-54.9-82.3-82.2c-19.5-19.4-39.1-38.7-58.6-58.2c-19.9-19.9-39.7-40.1-59.6-60
		c-23.2-23.1-46.5-46-69.7-69.2c-22.8-22.8-45.5-45.9-68.2-68.8C663.7,581,651.1,568.3,637.6,554.8z"/>
</g>
</svg>
