<?xml version="1.0" encoding="utf-8"?>
<!-- Generator: Adobe Illustrator 26.0.1, SVG Export Plug-In . SVG Version: 6.00 Build 0)  -->
<svg version="1.1" id="Layer_1" xmlns="http://www.w3.org/2000/svg" xmlns:xlink="http://www.w3.org/1999/xlink" x="0px" y="0px"
	 viewBox="0 0 1920 1080" style="enable-background:new 0 0 1920 1080;" xml:space="preserve">
<style type="text/css">
	.st0{display:none;}
	.st1{fill:#FEFEFE;}
</style>
<g>
	<path class="st0" d="M0,0c640,0,1280,0,1920,0c0,360,0,720,0,1080c-640,0-1280,0-1920,0C0,720,0,360,0,0z M1122,628.1
		c-3.6,0.5-6,0.6-8.3,1.1c-17.6,4.1-35,1.5-52-3.2c-18.2-5-35-13.6-51.5-22.5c-4-2.1-6.3-2-9.5,1.3c-17.2,17.5-34.7,34.8-52.1,52
		c-18.8,18.6-37.7,37.2-56.7,55.6c-15,14.6-30.3,29-45.2,43.6c-16.8,16.5-33.3,33.2-50.1,49.7c-16.9,16.6-34.1,32.9-51,49.4
		c-17.9,17.5-35.7,35.1-53.6,52.6c-12.4,12.1-24.8,24.1-37.1,36.3c-6.6,6.4-13,13-19.8,19.7c1.5,1.7,2.7,3.2,4.1,4.6
		c13,13.1,26.1,26.1,39.1,39.1c17.8,17.8,35.6,35.5,53.3,53.4c2.6,2.6,4,2.3,6.4-0.1c26.8-26.9,53.7-53.7,80.5-80.6
		c83.8-83.7,167.5-167.4,251.3-251.1c58-58,115.8-116,173.8-173.9c2.8-2.8,3-4.3,0.2-7.2c-11.9-12-23.6-24.1-35.3-36.3
		c-18.1-19-36.1-38.1-54.3-57.1c-16.8-17.6-33.7-35-50.6-52.5c-20.2-20.9-40.4-41.8-60.7-62.7c-10.5-10.8-21.2-21.4-31.6-32.2
		c-21.7-22.5-43.3-45.1-65.1-67.6c-17.8-18.4-35.9-36.6-53.8-55c-16.2-16.7-32.3-33.5-48.5-50.2c-9.3-9.5-18.8-18.8-28-28.4
		c-8.7-9-17.1-18.3-25.8-27.3c-11.2-11.7-22.7-23.2-34-34.7c-7.2-7.4-14.5-14.7-21.6-22.2c-1.9-2-3.2-2.2-5.3-0.2
		c-11.6,11.7-23.3,23.4-35,35.1c-7.9,7.9-15.8,15.8-23.7,23.7c-12.7,12.6-25.4,25.2-37.9,38c-0.7,0.8-0.6,3.6,0.2,4.4
		c13.5,14,27.2,27.9,40.8,41.8c19.6,20.1,39.1,40.2,58.7,60.3c22.6,23.2,45.3,46.3,67.8,69.6c12.6,12.9,24.9,26.1,37.4,39.1
		c12.4,12.8,24.8,25.5,37.3,38.2c19.3,19.8,38.8,39.4,58,59.3c17.2,17.8,34.1,36,51.2,53.9c11.9,12.4,24,24.5,35.9,36.9
		c19,19.7,38,39.4,57,59.1C1091.3,596.3,1106.1,611.6,1122,628.1z"/>
	<path class="st1" d="M1122,628.1c-15.9-16.5-30.7-31.8-45.5-47.1c-19-19.7-38-39.4-57-59.1c-11.9-12.3-24-24.5-35.9-36.9
		c-17.1-17.9-34-36-51.2-53.9c-19.2-19.9-38.6-39.6-58-59.3c-12.4-12.7-24.9-25.4-37.3-38.2c-12.5-13-24.8-26.1-37.4-39.1
		c-22.6-23.2-45.2-46.4-67.8-69.6c-19.6-20.1-39.1-40.2-58.7-60.3c-13.6-13.9-27.3-27.8-40.8-41.8c-0.8-0.8-0.9-3.7-0.2-4.4
		c12.5-12.8,25.3-25.3,37.9-38c7.9-7.9,15.8-15.8,23.7-23.7c11.7-11.7,23.4-23.3,35-35.1c2.1-2.1,3.4-1.8,5.3,0.2
		c7.1,7.5,14.4,14.8,21.6,22.2c11.3,11.6,22.8,23.1,34,34.7c8.7,9,17.1,18.3,25.8,27.3c9.2,9.6,18.8,18.9,28,28.4
		c16.2,16.7,32.3,33.5,48.5,50.2c17.9,18.4,35.9,36.6,53.8,55c21.8,22.5,43.4,45.1,65.1,67.6c10.5,10.8,21.1,21.4,31.6,32.2
		c20.3,20.9,40.5,41.8,60.7,62.7c16.9,17.5,33.8,34.9,50.6,52.5c18.2,19,36.2,38.1,54.3,57.1c11.7,12.2,23.4,24.3,35.3,36.3
		c2.8,2.8,2.6,4.4-0.2,7.2c-58,57.9-115.9,115.9-173.8,173.9c-83.7,83.7-167.5,167.4-251.3,251.1c-26.9,26.8-53.7,53.7-80.5,80.6
		c-2.4,2.4-3.8,2.7-6.4,0.1c-17.7-17.9-35.5-35.6-53.3-53.4c-13-13-26.1-26.1-39.1-39.1c-1.4-1.4-2.6-2.9-4.1-4.6
		c6.7-6.7,13.2-13.3,19.8-19.7c12.4-12.1,24.8-24.2,37.1-36.3c17.9-17.5,35.7-35.1,53.6-52.6c17-16.5,34.1-32.8,51-49.4
		c16.8-16.5,33.3-33.2,50.1-49.7c15-14.7,30.2-29,45.2-43.6c19-18.5,37.8-37,56.7-55.6c17.5-17.3,34.9-34.5,52.1-52
		c3.3-3.3,5.6-3.4,9.5-1.3c16.6,8.9,33.3,17.5,51.5,22.5c17,4.7,34.3,7.2,52,3.2C1116,628.7,1118.4,628.5,1122,628.1z"/>
</g>
</svg>
