<svg id="Layer_1" data-name="Layer 1" xmlns="http://www.w3.org/2000/svg" viewBox="0 0 439.34 484.48"><defs><style>.cls-1{fill:#fff;}</style></defs><path class="cls-1" d="M736.27,798.53c.19-3.22.39-6,.51-8.8q2.15-53.7,4.3-107.39,2.74-65.93,5.63-131.84,2.14-50.7,4.21-101.39,2.66-65.19,5.16-130.37c.14-3.81,1.55-4.68,5.12-4.68q198.74.12,397.47.08c1.3,0,2.61.17,4.67.32q6.14,242,12.27,484.07Zm50.22-47.81h339q-4.32-194.37-8.62-388.3H802.91Q794.69,556.68,786.49,750.72Z" transform="translate(-736.27 -314.06)"/><path class="cls-1" d="M866,389.56a35,35,0,0,1,33.13,23.68A34.36,34.36,0,0,1,888,451.48c-2.51,2-3.53,3.86-3,7.09,2.58,17.28,7.89,33.35,20.08,46.44,15.39,16.53,34.48,24.91,57,24.2,28.33-.9,49.82-13.93,63.94-38.66,6-10.44,8.49-22,9.87-33.76.18-1.55-1.53-3.79-3-5-14.58-12.11-17.37-33-6.25-48a35.14,35.14,0,0,1,47.7-8.29c19.9,13.08,20.76,42,1.53,56.79a8.28,8.28,0,0,0-3.68,6.91c-1.63,28.24-12.27,52.74-32.07,72.83-19.26,19.53-42.81,30.54-70.34,32.92-26.62,2.31-50.85-4.42-72.79-19.24-16.17-10.92-28.38-25.54-37.12-43-7-13.9-10.32-28.77-11.41-44.15-.22-3.07-1.47-4.66-3.69-6.38-12.14-9.42-16.77-24.84-11.86-38.88A35,35,0,0,1,866,389.56Z" transform="translate(-736.27 -314.06)"/></svg>