<?xml version="1.0" encoding="utf-8"?>
<!-- Generator: Adobe Illustrator 26.0.1, SVG Export Plug-In . SVG Version: 6.00 Build 0)  -->
<svg version="1.1" id="Layer_1" xmlns="http://www.w3.org/2000/svg" xmlns:xlink="http://www.w3.org/1999/xlink" x="0px" y="0px"
	 viewBox="0 0 1920 1080" style="enable-background:new 0 0 1920 1080;" xml:space="preserve">
<style type="text/css">
	.st0{display:none;}
	.st1{fill:#FDFEFE;}
</style>
<g>
	<path class="st0" d="M0,1080C0,720,0,360,0,0c640,0,1280,0,1920,0c0,360,0,720,0,1080C1280,1080,640,1080,0,1080z M959,635.4
		c6,6,11.6,11.6,17.2,17.1c17.5,17.3,35.1,34.5,52.6,52c15,15,29.8,30.2,44.7,45.3c16.8,17,33.8,33.9,50.7,50.8
		c13.4,13.5,26.8,26.9,40.4,40.3c12.5,12.4,25.2,24.5,37.6,37c16.7,16.6,33.1,33.4,49.8,50.1c16.8,16.9,33.6,33.7,50.5,50.6
		c18.9,18.9,37.9,37.7,56.7,56.8c2.8,2.8,4.2,3,7.1,0.1c29.7-30.1,59.4-60.1,89.4-89.8c3.2-3.2,2.2-4.3-0.1-6.5
		c-7.4-7.1-14.8-14.1-22.1-21.3c-11.1-11.1-21.9-22.5-33-33.7c-9.9-10-19.9-19.8-29.8-29.7c-8.6-8.5-17.2-17-25.8-25.5
		c-8-7.9-16-15.7-23.9-23.7c-12.3-12.4-24.4-24.9-36.7-37.3c-10-10-20.2-19.7-30.2-29.6c-11.8-11.8-23.5-23.8-35.2-35.7
		c-7.5-7.6-15-15.3-22.6-22.8c-8.1-8.1-16.3-16.1-24.4-24.1c-12.2-12.2-24.4-24.5-36.6-36.7c-9.8-9.9-19.7-19.8-29.5-29.6
		c-10.6-10.5-21.1-21-31.8-31.4c-6.2-6.1-12.6-11.9-19.4-18.4c133.1-133.1,265.2-265.2,397-397.1c-31.4-31.4-62.8-62.8-94.6-94.6
		c-132,132.1-264.3,264.4-397.8,397.9c-5.9-6.7-11.6-13.7-17.9-20.1c-14.4-14.9-29-29.6-43.6-44.3c-12.1-12.2-24.4-24.3-36.6-36.4
		c-13.5-13.5-26.8-27.1-40.3-40.6c-17.9-17.9-35.9-35.8-53.9-53.7c-15.4-15.3-30.9-30.5-46.3-45.8c-11.4-11.4-22.9-22.7-34.2-34.2
		c-15.7-15.8-31.3-31.8-47.1-47.5c-11.8-11.8-23.8-23.3-35.5-35c-14.6-14.6-29.1-29.3-43.4-44.2c-2.5-2.6-3.8-2-6,0.2
		c-8.1,8.3-16.3,16.4-24.5,24.6c-21.2,21.2-42.4,42.4-63.6,63.6c-5,5-5.1,4.9-0.1,10.1c0.5,0.5,1,0.9,1.4,1.4
		c13.7,13.5,27.6,27,41.2,40.6c13.4,13.5,26.6,27.2,40,40.6c13.7,13.7,27.8,27.2,41.5,40.9c9.3,9.2,18.2,18.8,27.4,28.1
		c10.8,10.9,21.7,21.6,32.5,32.4c13.5,13.5,26.9,27.1,40.4,40.5c8.2,8.1,16.6,15.9,24.8,24.1c12.7,12.8,25.2,25.8,38,38.6
		c14.4,14.5,29.1,28.7,43.6,43.1c13.1,13.1,26,26.5,39.2,39.6c9.4,9.4,19.1,18.6,29.2,28.4c-132.9,133-265,265.2-396.7,397
		c31.4,31.2,62.8,62.5,94.1,93.7C694.5,899.8,826.6,767.8,959,635.4z"/>
	<path class="st1" d="M959,635.4c-132.4,132.4-264.5,264.4-396.2,396.1c-31.4-31.2-62.8-62.5-94.1-93.7
		c131.6-131.7,263.8-264,396.7-397c-10.1-9.8-19.8-19-29.2-28.4c-13.1-13.1-26-26.4-39.2-39.6c-14.5-14.4-29.1-28.7-43.6-43.1
		c-12.8-12.8-25.2-25.8-38-38.6c-8.1-8.2-16.6-16-24.8-24.1c-13.5-13.5-26.9-27-40.4-40.5c-10.8-10.8-21.7-21.5-32.5-32.4
		c-9.2-9.3-18.2-18.8-27.4-28.1c-13.8-13.7-27.8-27.1-41.5-40.9c-13.5-13.4-26.6-27.2-40-40.6c-13.6-13.6-27.5-27.1-41.2-40.6
		c-0.5-0.5-1-0.9-1.4-1.4c-5-5.2-4.9-5.1,0.1-10.1c21.2-21.2,42.4-42.4,63.6-63.6c8.2-8.2,16.4-16.3,24.5-24.6
		c2.2-2.2,3.5-2.8,6-0.2c14.4,14.8,28.9,29.6,43.4,44.2c11.7,11.8,23.8,23.3,35.5,35c15.8,15.8,31.4,31.7,47.1,47.5
		c11.4,11.4,22.8,22.8,34.2,34.2c15.4,15.3,30.9,30.5,46.3,45.8c18,17.9,36,35.8,53.9,53.7c13.5,13.5,26.9,27.1,40.3,40.6
		c12.2,12.2,24.5,24.2,36.6,36.4c14.6,14.7,29.2,29.4,43.6,44.3c6.2,6.5,11.9,13.4,17.9,20.1C1092.6,312.3,1224.9,180,1356.9,48
		c31.8,31.8,63.2,63.2,94.6,94.6c-131.8,131.9-264,264-397,397.1c6.8,6.5,13.2,12.3,19.4,18.4c10.7,10.4,21.2,20.9,31.8,31.4
		c9.9,9.8,19.7,19.7,29.5,29.6c12.2,12.2,24.4,24.5,36.6,36.7c8.1,8.1,16.3,16,24.4,24.1c7.6,7.6,15,15.2,22.6,22.8
		c11.7,11.9,23.4,23.9,35.2,35.7c10,10,20.3,19.6,30.2,29.6c12.3,12.3,24.4,24.9,36.7,37.3c7.9,8,15.9,15.8,23.9,23.7
		c8.6,8.5,17.2,17,25.8,25.5c10,9.9,20,19.7,29.8,29.7c11.1,11.2,21.9,22.5,33,33.7c7.2,7.2,14.7,14.2,22.1,21.3
		c2.3,2.2,3.3,3.3,0.1,6.5c-30,29.7-59.7,59.8-89.4,89.8c-2.8,2.9-4.3,2.7-7.1-0.1c-18.8-19-37.8-37.8-56.7-56.8
		c-16.8-16.8-33.7-33.7-50.5-50.6c-16.6-16.7-33.1-33.5-49.8-50.1c-12.4-12.4-25.2-24.6-37.6-37c-13.5-13.4-26.9-26.9-40.4-40.3
		c-16.9-16.9-33.8-33.8-50.7-50.8c-15-15.1-29.7-30.3-44.7-45.3c-17.4-17.4-35.1-34.6-52.6-52C970.6,647,965,641.4,959,635.4z"/>
</g>
</svg>
