<?xml version="1.0" encoding="utf-8"?>
<!-- Generator: Adobe Illustrator 26.0.1, SVG Export Plug-In . SVG Version: 6.00 Build 0)  -->
<svg version="1.1" id="Layer_1" xmlns="http://www.w3.org/2000/svg" xmlns:xlink="http://www.w3.org/1999/xlink" x="0px" y="0px"
	 viewBox="0 0 1920 1080" style="enable-background:new 0 0 1920 1080;" xml:space="preserve">
<style type="text/css">
	.st0{display:none;}
	.st1{fill:#FDFDFD;}
	.st2{display:none;fill:#010101;}
	.st3{display:none;fill:#020201;}
	.st4{display:none;fill:#030404;}
	.st5{display:none;fill:#020202;}
	.st6{display:none;fill:#040504;}
	.st7{display:none;fill:#060606;}
	.st8{display:none;fill:#040404;}
	.st9{display:none;fill:#040403;}
	.st10{display:none;fill:#070807;}
	.st11{display:none;fill:#050505;}
	.st12{display:none;fill:#070808;}
	.st13{display:none;fill:#030303;}
</style>
<g>
	<path class="st0" d="M0,1080C0,720,0,360,0,0c640,0,1280,0,1920,0c0,360,0,720,0,1080C1280,1080,640,1080,0,1080z M1202.2,811.3
		c28.2,60.6,95.4,76.3,144,47c23.5-14.1,38.9-34.9,45.2-61.6c7.7-32.6-0.5-62.1-20-89.3c3.2-0.9,6.1-1.6,8.8-2.5
		c10.2-3.5,14.2-10,5.4-19.2c-14.2-14.8-32.4-18.9-51.6-19.3c-10.8-0.2-21.7,1.8-32.6,2.8c0-1,1.1-1.3,1.8-2
		c8.7-8.6,9.1-14.3,4.4-24.6c-7.1-15.5-15.3-30.4-23.1-45.6c-7.8-15.2-15.6-30.3-23.3-45.4c-8.1-15.8-16.2-31.7-24.3-47.5
		c-4-7.8-7.9-15.7-12-23.9c6.6,2.2,12.5,4.5,18.6,6.2c8.3,2.4,17.7-1.4,19.4-8c0.8-3,0.7-6.3,0.7-9.4c-0.1-20.4-0.2-40.9-0.4-61.3
		c-0.1-5-3.7-8.2-8.1-8.6c-5.5-0.5-11.3-0.2-16.6,1.1c-8.7,2.1-16.6,6.4-23.2,12.6c-2.5,2.4-7.1,0.8-7.9-2.3
		c-2.3-8.5-4.3-17.2-7.2-25.5c-4.2-12.4-11.8-21.6-25.5-24.2c-3.1-0.6-5.5-2.1-6.4-5.7c-0.7-2.8-2.2-5.5-3.8-8
		c-8-12.9-22-14.6-30.7-1c-9.8,15.4-9.8,32.5-0.8,48.5c6.2,11.1,19,15.1,28.8,3.5c3-3.6,5.1-7.9,7.6-11.9c5.9,3.8,9,9.6,14.6,28.4
		c-3.3,1.7-6.6,3.4-10,5c-0.8,0.4-1.8,0.5-2.7,0.4c-11.9-1.7-23.9-2.9-35.6-5.2c-12.2-2.4-24.7-4.3-36-9.2
		c-17.4-7.5-33.9-17.3-50.2-25.9c0.4-5.8,2.9-7.1,7-6.8c3.6,0.3,7.3,0.1,11,0.1c3.8,0,6.3-2,6.8-5.7c0.6-4.4,0.6-8.9,1.1-13.3
		c0.4-4,1-7.9,5.4-9.7c8.1-3.4,7.8-5.9,5.8-13.4c-2.2-8.3-5.3-16.4-8.2-25.1c2.8-1,5.5-1.9,8.2-2.9c2.6-1,3.9-2.7,2.7-5.6
		c-3.2-8-12-13.5-19.7-12.6c-2.9-5.9-4.7-12.4-8.7-17.1c-12.7-15.1-29.5-21.3-49.1-18.5c-24,3.4-42.2,20.7-46.1,45.8
		c-3.5,22.3,4.9,41.7,25.4,54.7c5.3,3.4,5.8,6.4,5,10.1c-4.2,1.6-8.8,2-10.8,4.5c-5.9,7.1-11.9,14.6-15.7,22.9
		c-9.1,20.3-9.8,42.5-12.2,64.2c-1.1,9.6-1.6,19.3-2.2,28.9c-0.9,15.1-2.7,30.2-2.4,45.3c0.4,15.3-0.7,31,7.7,45.8
		c-7.3,0.3-13.7,0.6-20.4,0.9c0-1.7,0-2.7,0-3.7c0-49.4,0.1-98.9,0-148.3c0-5.9-0.8-11.9-2.1-17.6c-0.6-2.6-3-5.7-5.3-6.6
		c-5.1-2-10.7-3.8-16-3.8c-33.6-0.3-67.3-0.3-100.9-0.1c-14,0.1-27.9,0.4-41.9,1.1c-8,0.4-13.4,5.3-14.3,13.2
		c-1.2,9.8-2,19.6-2,29.4c-0.1,28.7,0.4,57.3,0.6,86c0.1,17.2,0.1,34.4,0.1,51.6c0,7.9,4.9,13.4,12.6,13.7
		c9.4,0.5,18.8,0.6,28.2,0.9c1.4,0,2.8,0.3,2.8,0.3c1.6,10.4,2.7,20,4.5,29.4c1,5.7,3.2,11.1,9.5,13.2c1.6,0.5,3.4,0.6,5.2,0.9
		c-4.1,11.4-8.5,22.2-11.6,33.3c-1.6,5.9-4.5,10.4-9,13.9c-16.7,13.1-30.3,28.9-39.1,48.1c-6.4,14-10.7,29-16.2,44.1
		c0.3,0-0.7,0-1.7,0c-13.3,0-26.7,0-40,0c-4,0-6.6,1-6.5,5.9c0.1,4.9-0.4,9.9-0.9,14.9c-0.5,4.8,1.1,6.4,6,6.3
		c18.1-0.3,36.2,0,54.3-0.2c3,0,4.4,1.1,5.7,3.5c3.6,7,7.1,14.1,11.3,20.7c12.4,19.6,29.1,34.2,50.9,42.8
		c18.3,7.2,36.9,9.6,56.5,6.3c23.7-4,43.7-14.4,60.2-31.6c10.3-10.7,18-23.3,24.1-36.8c1.6-3.6,3.6-4.9,7.7-4.9
		c23.6,0.2,47.2,0.1,70.9,0.1c34.3,0,68.6,0.1,102.9-0.1c9.8-0.1,19.7-1.2,30.2-1.9c0.1,0.9,0.1,2.6,0.5,4.3
		c1.6,6.1,2.7,12.5,5.1,18.3c2.4,5.6,6.9,6.2,11.6,2.1C1196.8,818,1199.3,814.6,1202.2,811.3z M550.2,710
		c-16-25.4-38.4-36.4-67.5-27.4c-21.2,6.5-34.6,22.3-37.4,44.4c-3.3,26.3,7.6,46.4,31.6,58.7c-2.6,10.1-2.6,21.2,0,27.7
		c7.1,17.9,24.4,29.8,44.6,27.7c17.5-1.8,33.9-16.4,36.5-33.6c1-6.7,1.4-13.5,2.2-20.6c16,4.8,32.1,2.7,48.2,1.8
		c12.6-0.7,25.2-1,37.8-1.2c13.7-0.2,27.4,0,41.1,0c0.1-0.4,0.2-0.8,0.2-1.2c-0.9-0.4-1.7-1.1-2.7-1.2c-9.6-1.4-19.2-2.5-28.8-4.1
		c-9.8-1.6-19-5.1-26.9-11.3c-3-2.3-3.7-4-1-7.6c9.2-11.7,15.1-24.8,13.8-40.3c-1.3-14.4-8.1-26.1-19.6-34.1
		c-12.3-8.7-26.5-11.3-41.4-6.6C566.2,685.6,556.4,695.5,550.2,710z"/>
	<path class="st1" d="M1202.2,811.3c-3,3.3-5.4,6.7-8.5,9.4c-4.7,4.1-9.2,3.5-11.6-2.1c-2.5-5.8-3.6-12.2-5.1-18.3
		c-0.4-1.6-0.4-3.4-0.5-4.3c-10.5,0.7-20.4,1.9-30.2,1.9c-34.3,0.2-68.6,0.1-102.9,0.1c-23.6,0-47.2,0.1-70.9-0.1
		c-4.1,0-6.1,1.3-7.7,4.9c-6.1,13.5-13.8,26.1-24.1,36.8c-16.5,17.2-36.5,27.6-60.2,31.6c-19.6,3.3-38.2,0.9-56.5-6.3
		c-21.8-8.5-38.4-23.2-50.9-42.8c-4.2-6.6-7.7-13.7-11.3-20.7c-1.3-2.5-2.7-3.5-5.7-3.5c-18.1,0.2-36.2-0.1-54.3,0.2
		c-4.9,0.1-6.6-1.5-6-6.3c0.6-4.9,1.1-9.9,0.9-14.9c-0.1-4.9,2.4-5.9,6.5-5.9c13.3,0,26.7,0,40,0c1,0,2,0,1.7,0
		c5.5-15.1,9.8-30.1,16.2-44.1c8.8-19.2,22.4-35,39.1-48.1c4.5-3.5,7.3-8.1,9-13.9c3.1-11.1,7.5-21.9,11.6-33.3
		c-1.8-0.3-3.6-0.4-5.2-0.9c-6.3-2.1-8.5-7.5-9.5-13.2c-1.7-9.5-2.9-19-4.5-29.4c-0.1,0-1.4-0.2-2.8-0.3c-9.4-0.3-18.8-0.4-28.2-0.9
		c-7.7-0.4-12.6-5.8-12.6-13.7c-0.1-17.2,0-34.4-0.1-51.6c-0.2-28.7-0.6-57.3-0.6-86c0-9.8,0.8-19.7,2-29.4
		c1-7.9,6.4-12.8,14.3-13.2c13.9-0.7,27.9-1,41.9-1.1c33.6-0.1,67.3-0.2,100.9,0.1c5.4,0.1,11,1.8,16,3.8c2.3,0.9,4.7,4.1,5.3,6.6
		c1.3,5.7,2.1,11.7,2.1,17.6c0.1,49.4,0,98.9,0,148.3c0,1,0,2,0,3.7c6.7-0.3,13.1-0.6,20.4-0.9c-8.4-14.7-7.4-30.5-7.7-45.8
		c-0.4-15.1,1.4-30.2,2.4-45.3c0.6-9.6,1.1-19.3,2.2-28.9c2.4-21.7,3.1-43.9,12.2-64.2c3.7-8.3,9.8-15.8,15.7-22.9
		c2-2.5,6.6-2.9,10.8-4.5c0.8-3.7,0.3-6.8-5-10.1c-20.5-13-28.9-32.4-25.4-54.7c3.9-25.1,22.1-42.4,46.1-45.8
		c19.6-2.8,36.3,3.4,49.1,18.5c3.9,4.7,5.8,11.2,8.7,17.1c7.8-0.8,16.5,4.6,19.7,12.6c1.2,3-0.1,4.6-2.7,5.6c-2.7,1-5.4,1.9-8.2,2.9
		c2.9,8.7,6,16.8,8.2,25.1c2,7.5,2.2,10-5.8,13.4c-4.4,1.8-5,5.8-5.4,9.7c-0.4,4.4-0.5,8.9-1.1,13.3c-0.5,3.8-3,5.7-6.8,5.7
		c-3.7,0-7.3,0.2-11-0.1c-4.1-0.3-6.7,1-7,6.8c16.3,8.6,32.8,18.4,50.2,25.9c11.2,4.8,23.8,6.8,36,9.2c11.8,2.3,23.7,3.6,35.6,5.2
		c0.9,0.1,1.9,0,2.7-0.4c3.4-1.6,6.7-3.3,10-5c-5.6-18.8-8.6-24.6-14.6-28.4c-2.5,4-4.6,8.3-7.6,11.9c-9.7,11.6-22.6,7.6-28.8-3.5
		c-8.9-16.1-9-33.1,0.8-48.5c8.7-13.6,22.7-11.8,30.7,1c1.6,2.5,3,5.2,3.8,8c0.9,3.6,3.3,5.1,6.4,5.7c13.7,2.6,21.3,11.9,25.5,24.2
		c2.9,8.4,4.9,17,7.2,25.5c0.9,3.2,5.4,4.7,7.9,2.3c6.7-6.2,14.5-10.5,23.2-12.6c5.3-1.3,11.1-1.6,16.6-1.1c4.4,0.4,8.1,3.5,8.1,8.6
		c0.3,20.4,0.4,40.9,0.4,61.3c0,3.1,0.1,6.4-0.7,9.4c-1.7,6.6-11.1,10.4-19.4,8c-6-1.8-11.9-4-18.6-6.2c4.1,8.2,8,16.1,12,23.9
		c8.1,15.8,16.2,31.7,24.3,47.5c7.8,15.2,15.6,30.3,23.3,45.4c7.8,15.2,16,30.1,23.1,45.6c4.7,10.3,4.4,16-4.4,24.6
		c-0.7,0.7-1.8,0.9-1.8,2c10.9-1,21.8-3,32.6-2.8c19.2,0.4,37.4,4.5,51.6,19.3c8.8,9.2,4.8,15.7-5.4,19.2c-2.7,0.9-5.5,1.6-8.8,2.5
		c19.5,27.3,27.7,56.8,20,89.3c-6.3,26.7-21.7,47.4-45.2,61.6C1297.6,887.6,1230.5,871.8,1202.2,811.3z M1213.6,520.2
		c-0.4-1-0.7-2-1.6-4.3c0,2.4-0.1,3.3,0,4.2c0,0.4,0.5,0.7,0.8,1.1c0.7,4.7,1.2,9.5,2.3,14.1c6.1,26,11.5,52.1,14.1,78.8
		c1.4,14.8,1.5,29.4-1.6,43.8c-6.7,31.2-21,58.4-44.4,80.6c-18,17.1-39.3,26.1-63.5,29.5c-6,0.8-12.1,1.7-18.1,2.5
		c18.2-0.5,36.3,0,54.4-0.8c4.9-0.2,10.3-3.1,14.2-6.3c7.3-6.1,13.8-13.4,20.4-20.3c13.1-13.6,26-27.4,39-41
		c12.6-13.1,25.4-26.1,37.9-39.3c3.2-3.4,6.4-7.2,8.4-11.3c2.7-5.8-0.9-11.2-3.3-16.1c-15.2-30.3-30.6-60.3-46-90.5
		C1222.3,536.6,1217.9,528.4,1213.6,520.2z M823,426.1c-6.7,0-14.3-0.1-21.9,0c-8.6,0.2-11.2,2.3-12.1,10.8
		c-0.7,6.7-0.6,13.4-0.7,20.1c-0.2,30.6-0.4,61.1-0.2,91.7c0.1,7.5,3,10.4,10.4,10.4c16.8-0.1,33.5,0,50.3,0c16.8,0,33.6,0,50.4-0.1
		c6.4,0,9.4-2.2,9.7-7.4c0.5-8.1,0.9-16.3,0.9-24.4c0-11.9-0.5-23.8-0.6-35.6c-0.2-18.7-0.1-37.4-0.3-56.1c0-4.4-1.4-8.2-6.8-8.5
		c-9.6-0.5-19.1-0.9-28-1.4c0.3,5.1,0.5,9.6,0.9,14.2c0.3,3.1-1.3,4.2-4,4.2c-14.8,0-29.6,0.1-44.5-0.1c-1.2,0-3.3-1.3-3.3-2
		C822.9,436.7,823,431.6,823,426.1z M1063.4,455.8c-0.4,4.9-0.9,10.5-1.4,16.1c-0.9,10.9-1.7,21.7-2.8,32.6
		c-1,9.9,0.1,12.2,9.5,15.6c13,4.7,26.1,9,38.9,14c15.3,6,30.5,12.3,45.5,18.8c7.5,3.3,13.8,8.8,14.5,17.4
		c0.7,7.8,0.1,15.8-1.1,23.6c-2.8,18.4-6.3,36.7-9.7,55c-2.8,15-6,30-8.9,45c-1.1,5.9-2.1,11.8-3.1,17.6c6.2,2,12.1,4,18,5.9
		c2.1-1.8,4.9-3.4,6.5-5.7c6.7-9.6,13.6-19.2,19.4-29.3c9-15.9,11.6-33.6,11.4-51.6c-0.2-20.6-4.2-40.8-8.8-60.8
		c-8-34.9-16-69.8-23.8-104c-17.8-0.5-35.3-0.1-52.7-1.8C1097.8,462.4,1080.6,458.6,1063.4,455.8z M782.1,770.8
		c61.7,0,123.2,0,184.8,0c0-7.4,0.5-14.5-0.1-21.6c-0.6-6.6-2.2-13.2-3.7-19.8c-6.6-29.6-23.2-40.1-47.3-46.1
		c-10.3-2.6-21.5-2.1-32.2-2.3c-12.1-0.2-23.7,2.9-34.9,7.1c-12.2,4.6-22.3,12.2-31.8,21.1C798.8,726.2,787.1,746.5,782.1,770.8z
		 M1108.8,699.1c2.3,0,3.8-0.2,5.3,0c4.1,0.6,6.1-0.8,6.5-5.1c0.5-5.2,1.7-10.4,2.4-15.6c2.4-18.2,4.9-36.3,7.1-54.5
		c1.5-12.7,2.7-25.5,3.9-38.2c0.5-5.5-2.2-9.6-6.9-12c-5.6-2.8-11.4-5.6-17.4-7.6c-23.1-7.7-46.4-15.1-69.6-22.5
		c-8.8-2.8-11.4-6.1-11-15.3c0.6-12.5,1.6-24.9,2.5-37.4c0.7-9.3,1.6-18.6,2.3-28c0.5-6.8,0.6-13.6,0.9-20.1
		c-6.1-3-12.1-5.5-17.7-8.8c-11.4-6.7-23.3-13.4-21.4-29.8c0.1-1.2,0-2.4,0-3.6c-1.1,0.7-1.7,1.6-1.8,2.6c-2.7,15.7-5.9,31.2-7.8,47
		c-2.1,17.6-3.4,35.4-4,53.2c-0.5,17.9-2.2,36.1,4.8,53.4c1.2,3.1,3.3,7.3,5.9,8.1c7.7,2.4,16,3.2,23.9,5
		c15.5,3.5,30.9,7.3,46.4,10.9c14.7,3.5,29.3,7.4,44.2,10.1c9.6,1.7,11.9,6.1,10.8,15.3c-1.6,13.6-2.8,27.2-4.2,40.8
		c-0.9,8.4-2,16.8-2.8,25.2C1110.3,680.8,1109.6,689.7,1108.8,699.1z M1073.5,770.8c0-0.1,0-0.2,0-0.3c-6-0.5-12.1-0.6-18.1-1.6
		c-8.4-1.4-17.2-2.1-24.8-5.4c-19.3-8.4-29.2-23.9-29.5-45c-0.1-8.2,0.6-16.5,2-24.6c2.2-12.3,5.2-24.6,8.3-36.7
		c2.1-8.4,4.8-16.6,7.3-25.2c-47.5,0-94.3,0-141.1,0c-6.5,0-13-0.1-19.5,0.1c-1.3,0-3.2,1.1-3.6,2.1c-2.2,6-4.1,12.2-5.8,17.2
		c13.1-1.7,26.6-4.2,40.3-5.1c14.7-0.9,29.1,1.3,43.4,5.6c13.6,4.1,25.9,10.1,35.8,20.1c20.3,20.5,28.5,46.3,30.7,74.4
		c0.7,8.2,1,16.4,1.4,24.5C1024.9,770.8,1049.2,770.8,1073.5,770.8z M1085.7,730.3c-8.8-0.7-10.7-2.8-10.7-11.5c0-1-0.1-2,0.1-3
		c1.3-11.6,2.8-23.2,3.9-34.9c1.9-20.2,3.4-40.5,5.3-60.7c0.3-3-0.5-4.5-3.1-4.8c-6.2-0.6-12.5-1.4-18.7-1.3
		c-3.8,0.1-7.3,2.4-8.4,6.5c-7.7,27.7-17.4,54.7-21.4,83.4c-2.2,16.3,6.7,28.1,20.6,30.9c6.4,1.3,12.9,2.1,19.3,3.4
		C1082.2,740.5,1083.4,739.9,1085.7,730.3z M1232.1,789.9c0.5,1.2,1,2.4,1.4,3.7c4.4,13.7,12.2,25.3,23.7,33.8
		c25.7,18.9,62.3,16.9,85.6-7.7c19.7-20.8,22.8-53.7,8.7-77.8c-3.7-6.3-7.6-12.4-11.5-18.7c-4.4,2.2-9.1,4.6-14,7.1
		c21.8,14.5,29.4,39.7,21.5,63.2c-7.8,23.3-29.5,38.6-56.3,36.4c-24.2-1.9-44.9-19.6-49.5-47.2
		C1238.3,785.2,1235.2,787.5,1232.1,789.9z M1323,776.2c-0.7-17-10.8-25.3-26.3-28.2c-1.2-0.2-2.7,0-3.7,0.6
		c-6.3,3.8-12.5,7.6-18.7,11.6c-1.4,0.9-2.8,2.3-3.3,3.8c-8.2,21.5,9.1,41.9,29.9,38C1312.8,799.9,1323.1,788.4,1323,776.2z
		 M1045.4,289.7c-6.5-11.3-22.5-16-34.6-10.9c-13.5,5.7-20.4,19.9-16.8,34c3,11.7,14.7,21.3,23.3,19c0.9-9.1,2.3-18.1,2.5-27.1
		c0.2-6.4,3.2-9.2,8.7-10.6C1034.1,292.6,1039.6,291.2,1045.4,289.7z M924.3,798.6c-5.3-2.1-8.3,0.4-11.1,5
		c-2.3,3.9-5.7,7.4-9.3,10.3c-14.7,12.4-31.5,17.5-50.7,14.1c-16.5-2.9-29.7-10.9-39.1-24.5c-3.1-4.4-6.1-6.2-11.1-5.1
		c9.9,24.5,32.7,42,62,41.5C892.7,839.6,914.8,822.1,924.3,798.6z M839.3,603.3c54.7,0,109.5,0,165.4,0c-1.8-0.6-2.7-1.2-3.7-1.3
		c-5.9-0.8-11.7-1.6-17.6-2.2c-16.8-1.6-33.5-4.1-50.3-4.5c-29.1-0.8-58.2-0.3-87.3-0.4C838.6,595,838.6,595,839.3,603.3z
		 M1150.8,439.5c-6.2-0.5-12.1-1.2-18-1.5c-14.7-0.7-29-3.9-43-8.4c-20.8-6.8-39.3-18.1-58.2-28.8c-4.1-2.4-7.4-1.9-9.2,2.3
		c-2.1,5.1-2.8,6.1,3,8.9c8,3.9,16.1,8,24.4,11.3c12.4,4.9,24.9,10,37.7,13.5c19.5,5.4,39.7,6,59.8,7.1
		C1150.9,444.1,1151.3,442.4,1150.8,439.5z M1027.5,368.7c2.7-12.5,9.5-15.8,18.8-16.7c8.1-0.7,9.4-2.1,9.7-10.4
		c0.1-1.8-0.3-3.8,0.1-5.5c0.7-2.4,1.4-5.6,3.2-6.8c4.5-2.8,4.3-6.1,2.5-10c-5.6-11.6-2.9-10.8-15.6-6.9c-2.4,0.7-5.5,3.4-5.9,5.6
		c-1.6,8-2.6,16.2-3.2,24.4c-0.6,7.2-2.9,12.7-10.6,14.6c-2.8,0.7-5.5,1.6-8.1,2.4C1015.1,368.8,1023.6,366.5,1027.5,368.7z
		 M1314.6,699.5c-18.3,0.7-36.3,3.4-52,13c-15.8,9.7-27.3,23.7-35.2,40.6C1253.9,731,1283.1,713.5,1314.6,699.5z M1212.3,448
		c3.3-2.4,3.6-5.4,1.8-8.4c-3.4-5.7-8.1-10.5-15.2-9.6c-5.8,0.8-11.5,3.2-17,5.5c-5.9,2.4-6.2,3.9-4.2,10.5
		C1190.9,429.8,1203.4,430.4,1212.3,448z M1155.4,371.2c-1-3.1-1.6-6-2.8-8.6c-1.5-3.1-5.4-3.5-7.4-1.1c-3.6,4.3-3.9,13.5-0.5,18.1
		c2.7,3.6,5.9,3.5,7.9-0.6C1153.8,376.5,1154.5,373.8,1155.4,371.2z M854.7,428.8c0-4.6,0-8.7,0-13.3c-3.8-0.2-7.6-0.4-11.5-0.6
		c0,5,0,9.4,0,13.9C847.2,428.8,850.8,428.8,854.7,428.8z M1239.3,429.2c-1.3,0.3-2.1,0.5-2.8,0.7c-4.1,1.2-6.4,2.9-4.6,8
		c1.5,4.3,2,9.2,2.3,13.8c0.3,4.5,0,4.5,5.1,5.8C1239.3,448.2,1239.3,438.8,1239.3,429.2z M1112.7,739.1c9.5-2.2,18.2-4.3,26.8-6.4
		c-5.9-0.8-11.8-0.6-17.6-0.9C1117.4,731.5,1114.3,732.6,1112.7,739.1z M849.9,798.2c7.1,6,20.9,5.8,27.3,0
		C868.2,798.2,859.1,798.2,849.9,798.2z M1196.6,446.6c0.6,3.5,1.1,6.4,1.6,9.9C1202.1,450.7,1201.9,449.6,1196.6,446.6z"/>
	<path class="st1" d="M550.2,710c6.2-14.6,16-24.4,30.8-29c14.9-4.7,29.1-2,41.4,6.6c11.4,8,18.3,19.7,19.6,34.1
		c1.4,15.5-4.6,28.5-13.8,40.3c-2.8,3.5-2,5.3,1,7.6c8,6.2,17.1,9.8,26.9,11.3c9.6,1.5,19.2,2.7,28.8,4.1c0.9,0.1,1.8,0.8,2.7,1.2
		c-0.1,0.4-0.2,0.8-0.2,1.2c-13.7,0-27.4-0.1-41.1,0c-12.6,0.2-25.2,0.5-37.8,1.2c-16.1,0.9-32.2,3-48.2-1.8
		c-0.7,7.1-1.2,13.9-2.2,20.6c-2.6,17.2-19,31.8-36.5,33.6c-20.1,2.1-37.5-9.8-44.6-27.7c-2.6-6.5-2.6-17.6,0-27.7
		c-24-12.3-34.9-32.4-31.6-58.7c2.8-22.1,16.2-37.9,37.4-44.4C511.7,673.7,534.2,684.6,550.2,710z M547.4,765
		c14.1,7.4,29.2,10.4,44.9,11.9c-15.2-5.8-30.4-11.4-38.4-26.9C551.7,755.4,549.6,760.1,547.4,765z"/>
	<path class="st2" d="M823,426.1c0,5.5-0.1,10.7,0.2,15.8c0,0.8,2.1,2,3.3,2c14.8,0.1,29.6,0.1,44.5,0.1c2.8,0,4.3-1.2,4-4.2
		c-0.4-4.5-0.6-9.1-0.9-14.2c8.9,0.4,18.5,0.9,28,1.4c5.4,0.3,6.7,4.1,6.8,8.5c0.2,18.7,0.1,37.4,0.3,56.1
		c0.1,11.9,0.6,23.8,0.6,35.6c0,8.1-0.4,16.3-0.9,24.4c-0.3,5.1-3.3,7.3-9.7,7.4c-16.8,0.1-33.6,0.1-50.4,0.1
		c-16.8,0-33.5-0.1-50.3,0c-7.4,0-10.4-2.9-10.4-10.4c-0.2-30.6,0-61.1,0.2-91.7c0-6.7,0-13.5,0.7-20.1c0.9-8.4,3.5-10.6,12.1-10.8
		C808.7,425.9,816.4,426.1,823,426.1z"/>
	<path class="st2" d="M1063.4,455.8c17.2,2.9,34.4,6.6,51.7,8.3c17.4,1.7,34.9,1.3,52.7,1.8c7.8,34.2,15.8,69.1,23.8,104
		c4.6,20,8.6,40.2,8.8,60.8c0.2,18-2.5,35.7-11.4,51.6c-5.8,10.2-12.7,19.7-19.4,29.3c-1.6,2.4-4.4,3.9-6.5,5.7
		c-6-2-11.8-3.9-18-5.9c1-5.8,1.9-11.7,3.1-17.6c2.9-15,6.1-30,8.9-45c3.4-18.3,6.9-36.6,9.7-55c1.2-7.7,1.7-15.8,1.1-23.6
		c-0.7-8.6-7-14.1-14.5-17.4c-15-6.6-30.2-12.9-45.5-18.8c-12.9-5-26-9.3-38.9-14c-9.4-3.4-10.6-5.7-9.5-15.6
		c1.1-10.8,1.9-21.7,2.8-32.6C1062.5,466.3,1063,460.7,1063.4,455.8z"/>
	<path class="st2" d="M782.1,770.8c5.1-24.3,16.8-44.5,34.7-61.5c9.5-8.9,19.6-16.5,31.8-21.1c11.2-4.2,22.8-7.4,34.9-7.1
		c10.8,0.2,21.9-0.3,32.2,2.3c24.2,6,40.7,16.5,47.3,46.1c1.5,6.5,3.1,13.1,3.7,19.8c0.6,7,0.1,14.2,0.1,21.6
		C905.3,770.8,843.7,770.8,782.1,770.8z"/>
	<path class="st2" d="M1108.8,699.1c0.8-9.4,1.5-18.2,2.3-27.1c0.8-8.4,2-16.8,2.8-25.2c1.4-13.6,2.6-27.2,4.2-40.8
		c1.1-9.1-1.3-13.5-10.8-15.3c-14.9-2.7-29.5-6.7-44.2-10.1c-15.5-3.6-30.9-7.4-46.4-10.9c-8-1.8-16.2-2.6-23.9-5
		c-2.6-0.8-4.6-5-5.9-8.1c-6.9-17.3-5.3-35.5-4.8-53.4c0.5-17.8,1.9-35.5,4-53.2c1.8-15.8,5.1-31.3,7.8-47c0.2-1,0.8-1.9,1.8-2.6
		c0,1.2,0.1,2.4,0,3.6c-1.8,16.4,10,23.1,21.4,29.8c5.6,3.3,11.6,5.8,17.7,8.8c-0.3,6.6-0.5,13.3-0.9,20.1c-0.7,9.3-1.6,18.6-2.3,28
		c-0.9,12.5-2,24.9-2.5,37.4c-0.4,9.2,2.2,12.5,11,15.3c23.2,7.5,46.4,14.8,69.6,22.5c6,2,11.7,4.7,17.4,7.6c4.7,2.4,7.4,6.5,6.9,12
		c-1.2,12.7-2.4,25.5-3.9,38.2c-2.2,18.2-4.7,36.3-7.1,54.5c-0.7,5.2-1.9,10.4-2.4,15.6c-0.4,4.3-2.4,5.7-6.5,5.1
		C1112.6,698.9,1111.1,699.1,1108.8,699.1z"/>
	<path class="st3" d="M1213.6,520.2c4.3,8.2,8.7,16.4,12.9,24.7c15.4,30.1,30.9,60.2,46,90.5c2.5,4.9,6.1,10.3,3.3,16.1
		c-2,4.2-5.2,7.9-8.4,11.3c-12.5,13.2-25.3,26.2-37.9,39.3c-13.1,13.6-26,27.4-39,41c-6.6,6.9-13.1,14.1-20.4,20.3
		c-3.9,3.2-9.3,6.1-14.2,6.3c-18.1,0.7-36.2,0.3-54.4,0.8c6-0.8,12.1-1.6,18.1-2.5c24.2-3.4,45.5-12.4,63.5-29.5
		c23.4-22.3,37.7-49.5,44.4-80.6c3.1-14.3,3-29,1.6-43.8c-2.6-26.7-7.9-52.8-14.1-78.8c-1.1-4.6-1.5-9.4-2.3-14.1
		C1213.1,520.8,1213.4,520.5,1213.6,520.2z"/>
	<path class="st2" d="M1073.5,770.8c-24.3,0-48.6,0-73.1,0c-0.5-8.1-0.7-16.3-1.4-24.5c-2.3-28.1-10.4-53.8-30.7-74.4
		c-9.9-10-22.3-16-35.8-20.1c-14.2-4.3-28.7-6.5-43.4-5.6c-13.6,0.9-27.2,3.4-40.3,5.1c1.6-5,3.5-11.1,5.8-17.2
		c0.4-1,2.3-2.1,3.6-2.1c6.5-0.2,13-0.1,19.5-0.1c46.8,0,93.6,0,141.1,0c-2.5,8.6-5.2,16.8-7.3,25.2c-3,12.2-6,24.4-8.3,36.7
		c-1.4,8.1-2.1,16.4-2,24.6c0.3,21,10.2,36.6,29.5,45c7.6,3.3,16.5,4,24.8,5.4c5.9,1,12,1.1,18.1,1.6
		C1073.5,770.6,1073.5,770.7,1073.5,770.8z"/>
	<path class="st2" d="M1085.7,730.3c-2.3,9.6-3.5,10.2-13.2,8.1c-6.4-1.3-12.9-2.1-19.3-3.4c-13.9-2.8-22.8-14.7-20.6-30.9
		c4-28.7,13.7-55.8,21.4-83.4c1.1-4.1,4.6-6.4,8.4-6.5c6.2-0.2,12.5,0.6,18.7,1.3c2.6,0.3,3.4,1.8,3.1,4.8
		c-1.9,20.2-3.4,40.5-5.3,60.7c-1.1,11.6-2.6,23.3-3.9,34.9c-0.1,1,0,2-0.1,3C1075,727.5,1076.9,729.6,1085.7,730.3z"/>
	<path class="st4" d="M1232.1,789.9c3.2-2.4,6.2-4.7,9.5-7.2c4.7,27.6,25.4,45.3,49.5,47.2c26.8,2.2,48.5-13.1,56.3-36.4
		c7.9-23.5,0.3-48.7-21.5-63.2c4.9-2.5,9.6-4.9,14-7.1c3.9,6.3,7.8,12.4,11.5,18.7c14.1,24.1,11.1,57-8.7,77.8
		c-23.3,24.5-59.9,26.6-85.6,7.7c-11.5-8.5-19.3-20-23.7-33.8C1233.1,792.4,1232.6,791.2,1232.1,789.9z"/>
	<path class="st2" d="M1323,776.2c0.1,12.2-10.2,23.7-22,25.9c-20.9,3.9-38.1-16.5-29.9-38c0.6-1.5,2-2.9,3.3-3.8
		c6.1-4,12.4-7.9,18.7-11.6c1-0.6,2.6-0.9,3.7-0.6C1312.1,750.8,1322.3,759.2,1323,776.2z"/>
	<path class="st5" d="M1045.4,289.7c-5.9,1.5-11.4,2.9-16.9,4.3c-5.6,1.4-8.6,4.2-8.7,10.6c-0.2,9-1.6,18-2.5,27.1
		c-8.7,2.4-20.3-7.2-23.3-19c-3.6-14.1,3.4-28.3,16.8-34C1022.9,273.6,1038.9,278.4,1045.4,289.7z"/>
	<path class="st6" d="M924.3,798.6c-9.5,23.5-31.6,40.9-59.3,41.4c-29.3,0.5-52.1-17-62-41.5c5-1.1,8,0.6,11.1,5.1
		c9.4,13.6,22.7,21.7,39.1,24.5c19.2,3.4,36-1.7,50.7-14.1c3.5-3,6.9-6.4,9.3-10.3C916,799,918.9,796.5,924.3,798.6z"/>
	<path class="st7" d="M839.3,603.3c-0.8-8.3-0.8-8.4,6.4-8.3c29.1,0.1,58.2-0.4,87.3,0.4c16.8,0.5,33.6,2.9,50.3,4.5
		c5.9,0.6,11.8,1.4,17.6,2.2c1,0.1,1.9,0.7,3.7,1.3C948.9,603.3,894.1,603.3,839.3,603.3z"/>
	<path class="st8" d="M1150.8,439.5c0.5,2.9,0.2,4.6-3.4,4.4c-20.1-1.1-40.3-1.7-59.8-7.1c-12.8-3.5-25.3-8.6-37.7-13.5
		c-8.3-3.3-16.4-7.3-24.4-11.3c-5.8-2.8-5.1-3.8-3-8.9c1.8-4.2,5-4.7,9.2-2.3c18.8,10.7,37.4,22.1,58.2,28.8
		c13.9,4.5,28.2,7.7,43,8.4C1138.7,438.3,1144.6,439,1150.8,439.5z"/>
	<path class="st5" d="M1027.5,368.7c-3.9-2.2-12.4,0.1-9.1-9.2c2.6-0.8,5.3-1.7,8.1-2.4c7.6-1.9,10-7.4,10.6-14.6
		c0.7-8.2,1.6-16.4,3.2-24.4c0.5-2.2,3.5-4.9,5.9-5.6c12.7-3.9,10.1-4.7,15.6,6.9c1.9,3.9,2,7.2-2.5,10c-1.8,1.1-2.5,4.4-3.2,6.8
		c-0.5,1.7-0.1,3.6-0.1,5.5c-0.2,8.3-1.6,9.7-9.7,10.4C1037,352.9,1030.2,356.2,1027.5,368.7z"/>
	<path class="st9" d="M1314.6,699.5c-31.5,14.1-60.7,31.6-87.2,53.7c7.9-16.9,19.5-30.9,35.2-40.6
		C1278.3,702.9,1296.3,700.2,1314.6,699.5z"/>
	<path class="st8" d="M1212.3,448c-9-17.6-21.5-18.2-34.5-2c-2.1-6.6-1.7-8.1,4.2-10.5c5.5-2.2,11.2-4.7,17-5.5
		c7-0.9,11.7,3.9,15.2,9.6C1215.9,442.7,1215.7,445.6,1212.3,448z"/>
	<path class="st7" d="M1155.4,371.2c-0.9,2.6-1.7,5.3-2.9,7.8c-2,4-5.2,4.2-7.9,0.6c-3.3-4.5-3.1-13.8,0.5-18.1c2-2.4,5.9-2,7.4,1.1
		C1153.9,365.2,1154.4,368.1,1155.4,371.2z"/>
	<path class="st10" d="M854.7,428.8c-4,0-7.6,0-11.5,0c0-4.5,0-8.8,0-13.9c3.8,0.2,7.7,0.4,11.5,0.6
		C854.7,420.1,854.7,424.2,854.7,428.8z"/>
	<path class="st7" d="M1239.3,429.2c0,9.6,0,18.9,0,28.4c-5.1-1.3-4.8-1.4-5.1-5.8c-0.4-4.7-0.8-9.5-2.3-13.8
		c-1.8-5.1,0.5-6.8,4.6-8C1237.2,429.7,1238,429.5,1239.3,429.2z"/>
	<path class="st11" d="M1112.7,739.1c1.6-6.5,4.7-7.6,9.2-7.3c5.8,0.3,11.7,0.1,17.6,0.9C1130.8,734.8,1122.2,736.8,1112.7,739.1z"
		/>
	<path class="st8" d="M849.9,798.2c9.1,0,18.3,0,27.3,0C870.9,804,857,804.3,849.9,798.2z"/>
	<path class="st12" d="M1196.6,446.6c5.3,3.1,5.4,4.2,1.6,9.9C1197.7,452.9,1197.2,450.1,1196.6,446.6z"/>
	<path class="st3" d="M1212.8,521.2c-0.3-0.4-0.7-0.7-0.8-1.1c-0.1-0.9,0-1.9,0-4.2c0.9,2.4,1.2,3.3,1.6,4.3
		C1213.4,520.5,1213.1,520.8,1212.8,521.2z"/>
	<path class="st13" d="M547.4,765c2.2-4.9,4.2-9.6,6.6-15c7.9,15.5,23.2,21,38.4,26.9C576.7,775.4,561.5,772.4,547.4,765z"/>
</g>
</svg>
