<?xml version="1.0" encoding="utf-8"?>
<!-- Generator: Adobe Illustrator 26.0.1, SVG Export Plug-In . SVG Version: 6.00 Build 0)  -->
<svg version="1.1" id="Layer_1" xmlns="http://www.w3.org/2000/svg" xmlns:xlink="http://www.w3.org/1999/xlink" x="0px" y="0px"
	 viewBox="0 0 1920 1080" style="enable-background:new 0 0 1920 1080;" xml:space="preserve">
<style type="text/css">
	.st0{display:none;}
	.st1{fill:#FEFEFE;}
	.st2{display:none;fill:#C5C3C3;}
	.st3{display:none;fill:#C1BFBF;}
	.st4{display:none;fill:#BAB9B8;}
	.st5{display:none;fill:#B1B0AE;}
	.st6{display:none;fill:#B7B6B5;}
	.st7{display:none;fill:#B6B5B4;}
	.st8{display:none;fill:#C0BEBE;}
</style>
<g>
	<path class="st0" d="M0,1080C0,720,0,360,0,0c640,0,1280,0,1920,0c0,360,0,720,0,1080C1280,1080,640,1080,0,1080z M745.9,938.5
		c0.4,0.1,0.8,0.1,1.1,0.2c9.9,0.1,19.8,0.3,29.7,0.2c8.4,0,16.8-0.4,25.2-0.5c0.4,0.1,0.7,0.2,1.1,0.2c1.3,0,2.6,0.1,3.8,0.1
		c0.4,0,0.8,0,1.1,0c3.9,0,7.9,0,11.8,0c0.4,0,0.8,0,1.2,0c19.6,0,39.3,0,58.9,0c1,0,2.1-0.1,3.1-0.1c3,0,5.9,0,8.9,0
		c0.4,0,0.7,0,1.1,0.1c3.3,0,6.6,0,9.9-0.1c0.4,0,0.7,0,1.1,0c7.3,0,14.6,0,21.9,0c0.4,0,0.7,0,1.1,0c4,0,7.9,0,11.9,0.1
		c0.4,0,0.7,0,1.1,0c12.6,0,25.3-0.1,37.9-0.1c0.7,0,1.4,0.1,2.1,0.1c6,0,11.9-0.1,17.9-0.1c0.4,0,0.7,0,1.1,0c8,0,15.9,0,23.9,0.1
		c0.4,0,0.7,0,1.1,0c8,0,15.9,0,23.9,0c0.4,0,0.8,0,1.1,0c1.6-0.1,3.3-0.2,4.9-0.3c0.4,0,0.7,0.1,1.1,0.1c2.6,0,5.2,0,7.9-0.1
		c0.4,0,0.7,0,1.1,0c16.3,0,32.6,0,48.9,0c0.7,0,1.4,0.1,2.1,0.1c15.9,0.1,31.8,0.3,47.7,0.3c13.7,0,27.5-0.1,41.2-0.2
		c0.4,0,0.8,0,1.2,0c1.6,0,3.2-0.1,4.8-0.1c0.7,0,1.4,0,2.2,0.1c1.9,0,3.9,0,5.8,0c0.4,0,0.8,0,1.2,0c1.9,0,3.9-0.1,5.8-0.1
		c0.7,0,1.4,0,2.2,0c3.6,0,7.2-0.1,10.9-0.1c0.4,0.1,0.8,0.2,1.2,0.2c17,0.1,34.1,0.4,51.1,0.3c14.1-0.1,28.2-0.7,42.2-0.9
		c11.7-0.2,23.5,0,35.2-0.1c18.9-0.1,37.9-0.2,56.8-0.6c18-0.4,36-0.3,53.4-6.3c9.3-3.2,17-8.6,22.3-16.8c5.1-7.9,3.9-15.5-4.2-23.5
		c-10.6-10.4-21.5-20.5-32.5-30.5c-10.3-9.3-20.9-18.3-31.2-27.6c-12-10.9-23.5-22.2-35.5-33.1c-10.7-9.8-21.8-19.2-32.6-29
		c-14.8-13.3-29.5-26.8-44.3-40.2c-13.8-12.6-27.7-25.1-41.6-37.6c-18-16.3-36-32.7-54.1-49.1c-7.7-7-15.3-13.9-22.9-20.9
		c-19.3-17.6-38.4-35.3-57.9-52.7c-6.7-6-6.6-5.4-12.9-0.9c-6.6,4.6-12.5,10.2-18.6,15.5c-18.6,16.2-37,32.7-55.8,48.6
		c-16,13.5-33.7,24.2-53.7,31.1c-12.9,4.5-26,7.2-39.6,5c-20.2-3.2-38.6-11.2-55.6-22.4c-23.8-15.7-44.1-35.5-65.5-54.1
		c-9.2-8-18.2-16.2-27.6-23.9c-5.2-4.3-7.1-4-11.9,0.3c-12.5,11.2-25.1,22.3-37.5,33.6c-11.4,10.4-22.6,21.2-34,31.7
		c-8.7,8-17.7,15.7-26.4,23.6c-14,12.6-28,25.3-41.9,38c-18.7,17-37.5,34.1-56.2,51.2c-9,8.2-17.9,16.6-26.9,24.8
		c-17.4,15.8-34.8,31.5-52.2,47.2c-8.3,7.6-16.6,15.3-24.9,22.8c-17.5,16-35.3,31.7-52.5,47.9c-10.7,10.1-10.4,19.7,0,30.3
		c10.4,10.7,24.1,13.9,37.9,15.3c16.4,1.7,33,1.9,49.6,2.2c17.5,0.3,35.1,0,52.6,0.1c16.7,0.2,33.5,0.8,50.2,0.9
		c24.5,0.1,49,0,73.5-0.1C724.4,938.8,735.2,938.6,745.9,938.5z M544.6,146c-23.4,1.5-43.5,2.4-63.6,4.2c-6.4,0.6-12.8,2.8-18.7,5.3
		c-2.3,1-5,4.8-4.9,7.1c0.4,4.2,1.9,8.9,4.4,12.3c18.6,25.6,41.7,47.2,63.7,69.7c11,11.2,22.7,21.6,34.1,32.4
		c9.5,9.1,19,18.2,28.6,27.2c13.9,13.1,27.9,26.1,41.9,39.1c9.1,8.4,18.5,16.6,27.6,24.9c8.1,7.4,16.1,14.8,24.2,22.2
		c12.5,11.3,25.2,22.5,37.8,33.8c11,9.9,21.9,20,33,29.8c18,15.9,36.2,31.8,54.4,47.5c16.8,14.6,33.5,29.1,50.5,43.4
		c10.4,8.8,21.2,17.2,31.8,25.8c20.2,16.3,40.7,32.5,64.7,42.9c6,2.6,13,4,19.5,3.8c14.8-0.3,27.7-7,39.4-15.3
		c19.3-13.7,38-28.3,56.8-42.7c9.8-7.5,19.2-15.4,28.6-23.5c11.3-9.7,22.4-19.7,33.6-29.5c20-17.4,40.1-34.6,59.9-52.1
		c18.1-16,35.9-32.3,53.7-48.5c22.9-20.9,45.8-41.8,68.7-62.7c5.2-4.7,10.2-9.5,15.4-14.2c11.8-10.8,23.7-21.4,35.3-32.3
		c11.6-11,22.9-22.4,34.5-33.5c13-12.5,26.3-24.7,39-37.5c11.3-11.4,22.2-23.2,32.5-35.5c6.2-7.4,13.7-14.1,16.3-24.2
		c1.3-5,1.1-8-3.7-10.2c-4.4-2-9.1-4.2-13.9-4.7c-15.7-1.8-31.5-3.3-47.3-4c-21.7-0.9-43.5-0.9-65.2-1.1
		c-30.5-0.3-60.9-0.5-91.4-0.5c-27.5,0-54.9,0.4-82.4,0.4c-47,0.1-94.1,0-141.1,0c-28.5,0-57,0-85.5,0c-25.2,0-50.5,0-75.7,0
		c-28.2,0-56.4,0-84.6,0c-31.8,0-63.6,0-95.4,0C647.8,146,594.6,146,544.6,146z M1520,530.4C1519.9,530.4,1519.9,530.4,1520,530.4
		c0-101.8,0-203.7-0.1-305.5c0-5.4-0.9-10.8-1.9-16.2c-0.8-4.2-4.7-5.1-7.9-2.1c-7.4,7-14.8,14-22.1,21.1
		c-15.8,15.3-31.3,30.8-47.2,46c-17.3,16.6-34.8,32.9-52.1,49.4c-16.6,15.8-33.1,31.7-49.6,47.6c-7.4,7.2-14.6,14.6-22.1,21.8
		c-7.6,7.2-15.5,14.1-23,21.3c-14.7,14.1-29,28.4-43.7,42.5c-13.7,13.1-27.7,25.7-41.4,38.8c-10.3,9.8-20.2,20-30.4,30
		c-3.6,3.5-4.5,7.4-2.3,11.8c6.8,13.5,18.2,23.3,28.4,34c11.1,11.6,23.3,22.3,35,33.4c12.8,12.3,25.5,24.7,38.5,36.8
		c15.6,14.7,31.5,29.2,47.2,43.8c10.5,9.8,21,19.7,31.5,29.5c18.1,17,36.1,34,54.1,51c11.8,11.2,23.4,22.5,35.2,33.6
		c11.9,11.2,23.9,22.2,35.8,33.3c8,7.4,16,14.9,24.2,22.1c5.6,5,10.6,3.5,12-3.8c1.1-5.5,1.9-11.1,1.9-16.7
		C1520,732.7,1520,631.5,1520,530.4z M423,841.1c0.2,0,0.5,0,0.7,0c0.4,2.9,0.7,5.9,1.3,8.7c1.2,5.6,3.2,9.9,10.4,5.3
		c1.2-0.8,2.6-1.4,3.6-2.3c16-14.8,32.1-29.6,48-44.5c9.5-8.9,18.8-18.2,28.3-27.1c12.2-11.4,24.6-22.7,36.9-34.1
		c11.4-10.6,22.7-21.4,34.1-32.1c22.6-21.3,45.2-42.5,67.7-63.8c14.6-13.7,29.1-27.6,43.6-41.4c13.5-12.8,27.1-25.4,40.3-38.5
		c10.4-10.3,21.4-20.3,28.6-33.4c3-5.5,2.3-10.3-2.1-14.3c-2.5-2.3-5.2-4.4-7.6-6.8c-17.8-17.3-35.5-34.7-53.4-51.9
		c-15.8-15.2-31.9-30.1-47.8-45.2c-14.6-13.8-29.1-27.7-43.6-41.6c-17.5-16.8-35-33.7-52.5-50.5c-16.6-16-33.3-31.9-49.9-47.8
		c-25.2-24.2-50.4-48.4-75.6-72.5c-4.3-4.1-7.8-3.5-8.7,2.3c-1.3,9.1-1.9,18.4-2.1,27.6c-0.2,7.5,0.7,15,0.7,22.6
		c0.1,11.4-0.3,22.8-0.3,34.2c0,13.8,0.2,27.7,0.2,41.5c0,7.5-0.4,15-0.5,22.5c-0.1,3.9,0.3,7.8,0.2,11.7
		c-0.1,6.9-0.5,13.7-0.4,20.6c0,4.6,0.8,9.2,0.8,13.8c0,7.8-0.5,15.6-0.5,23.4c0,13.1,0.4,26.1,0.5,39.2c0,6.3-0.5,12.6-0.6,18.8
		c0,3.3,0.7,6.6,0.6,9.8c-0.1,9.9-0.7,19.9-0.7,29.8c0,7,0.8,14.1,0.7,21.1c-0.1,9.7-0.7,19.5-0.9,29.2c-0.2,10-0.1,20.1,0,30.1
		c0.1,5.6,0.7,11.1,0.7,16.7c0,6.8-0.7,13.6-0.7,20.3c0,8.8,0.5,17.6,0.6,26.4c0,7.6-0.6,15.2-0.6,22.8c0,7.9,0.7,15.7,0.7,23.6
		c-0.1,14.2-0.6,28.4-0.7,42.5c0,5.4,0.9,10.9,0.9,16.3c-0.1,10.4-0.7,20.8-0.9,31.2C422.9,817.4,423,829.2,423,841.1z"/>
	<path class="st1" d="M544.6,146c50,0,103.2,0,156.4,0c31.8,0,63.6,0,95.4,0c28.2,0,56.4,0,84.6,0c25.2,0,50.5,0,75.7,0
		c28.5,0,57,0,85.5,0c47,0,94.1,0.1,141.1,0c27.5,0,54.9-0.4,82.4-0.4c30.5,0,60.9,0.2,91.4,0.5c21.7,0.2,43.5,0.3,65.2,1.1
		c15.8,0.6,31.5,2.2,47.3,4c4.8,0.5,9.4,2.7,13.9,4.7c4.8,2.2,5,5.2,3.7,10.2c-2.6,10.1-10.1,16.8-16.3,24.2
		c-10.3,12.3-21.2,24.1-32.5,35.5c-12.7,12.8-26,25-39,37.5c-11.5,11.1-22.8,22.5-34.5,33.5c-11.6,10.9-23.5,21.5-35.3,32.3
		c-5.2,4.7-10.2,9.5-15.4,14.2c-22.9,20.9-45.8,41.9-68.7,62.7c-17.8,16.2-35.6,32.5-53.7,48.5c-19.8,17.5-39.9,34.7-59.9,52.1
		c-11.2,9.8-22.3,19.8-33.6,29.5c-9.4,8-18.8,15.9-28.6,23.5c-18.8,14.5-37.5,29-56.8,42.7c-11.7,8.3-24.7,14.9-39.4,15.3
		c-6.5,0.1-13.5-1.2-19.5-3.8c-24-10.5-44.5-26.6-64.7-42.9c-10.6-8.6-21.4-17-31.8-25.8c-16.9-14.3-33.7-28.9-50.5-43.4
		c-18.2-15.8-36.3-31.6-54.4-47.5c-11.1-9.8-22-19.9-33-29.8c-12.6-11.3-25.2-22.5-37.8-33.8c-8.1-7.3-16.1-14.8-24.2-22.2
		c-9.2-8.3-18.5-16.5-27.6-24.9c-14-13-28-26-41.9-39.1c-9.6-9-19.1-18.1-28.6-27.2c-11.4-10.8-23.2-21.2-34.1-32.4
		c-22-22.5-45.1-44.1-63.7-69.7c-2.5-3.4-4-8.1-4.4-12.3c-0.2-2.3,2.5-6.1,4.9-7.1c6-2.5,12.4-4.7,18.7-5.3
		C501,148.4,521.2,147.5,544.6,146z"/>
	<path class="st1" d="M1237.9,938.4c-3.6,0-7.2,0.1-10.9,0.1c-0.7,0-1.4,0-2.2,0c-1.9,0-3.9,0.1-5.8,0.1c-0.4,0-0.8,0-1.2,0
		c-1.9,0-3.9,0-5.8,0c-0.7,0-1.4,0-2.2-0.1c-1.6,0-3.2,0.1-4.8,0.1c-0.4,0-0.8,0-1.2,0c-13.7,0.1-27.5,0.3-41.2,0.2
		c-15.9,0-31.8-0.2-47.7-0.3c-0.7,0-1.4-0.1-2.1-0.1c-16.3,0-32.6,0-48.9,0c-0.4,0-0.7,0-1.1,0c-2.6,0-5.2,0-7.9,0.1
		c-0.4,0-0.7-0.1-1.1-0.1c-1.6,0.1-3.3,0.2-4.9,0.3c-0.4,0-0.8,0-1.1,0c-8,0-15.9,0-23.9,0c-0.4,0-0.7,0-1.1,0c-8,0-15.9,0-23.9-0.1
		c-0.4,0-0.7,0-1.1,0c-6,0-11.9,0.1-17.9,0.1c-0.7,0-1.4-0.1-2.1-0.1c-12.6,0-25.3,0.1-37.9,0.1c-0.4,0-0.7,0-1.1,0
		c-4,0-7.9,0-11.9-0.1c-0.4,0-0.7,0-1.1,0c-7.3,0-14.6,0-21.9,0c-0.4,0-0.7,0-1.1,0c-3.3,0-6.6,0-9.9,0.1c-0.4,0-0.7,0-1.1-0.1
		c-3,0-5.9,0-8.9,0c-1,0-2.1,0.1-3.1,0.1c-19.6,0-39.3,0-58.9,0c-0.4,0-0.8,0-1.2,0c-3.9,0-7.9,0-11.8,0c-0.4,0-0.8,0-1.1,0
		c-1.3,0-2.6-0.1-3.8-0.1c-0.4-0.1-0.7-0.2-1.1-0.2c-8.4,0.2-16.8,0.5-25.2,0.5c-9.9,0-19.8-0.1-29.7-0.2c-0.4-0.1-0.8-0.1-1.1-0.2
		c-10.8,0.1-21.6,0.3-32.3,0.4c-24.5,0.1-49,0.3-73.5,0.1c-16.7-0.1-33.5-0.8-50.2-0.9c-17.5-0.2-35.1,0.2-52.6-0.1
		c-16.5-0.3-33.2-0.5-49.6-2.2c-13.8-1.4-27.5-4.7-37.9-15.3c-10.3-10.6-10.7-20.2,0-30.3c17.3-16.2,35-31.9,52.5-47.9
		c8.3-7.6,16.6-15.3,24.9-22.8c17.4-15.8,34.8-31.5,52.2-47.2c9-8.2,17.9-16.6,26.9-24.8c18.7-17.1,37.4-34.1,56.2-51.2
		c14-12.7,27.9-25.3,41.9-38c8.8-7.9,17.7-15.6,26.4-23.6c11.4-10.5,22.6-21.2,34-31.7c12.4-11.3,24.9-22.5,37.5-33.6
		c4.8-4.3,6.7-4.6,11.9-0.3c9.4,7.7,18.4,15.9,27.6,23.9c21.4,18.6,41.7,38.4,65.5,54.1c17,11.2,35.4,19.2,55.6,22.4
		c13.6,2.2,26.7-0.6,39.6-5c19.9-6.9,37.7-17.6,53.7-31.1c18.8-15.9,37.2-32.4,55.8-48.6c6.1-5.3,12-10.8,18.6-15.5
		c6.3-4.5,6.3-5.1,12.9,0.9c19.4,17.4,38.6,35.1,57.9,52.7c7.6,7,15.3,14,22.9,20.9c18,16.4,36,32.7,54.1,49.1
		c13.9,12.6,27.7,25.1,41.6,37.6c14.8,13.4,29.4,26.9,44.3,40.2c10.8,9.7,21.9,19.2,32.6,29c11.9,10.9,23.5,22.2,35.5,33.1
		c10.3,9.4,20.9,18.3,31.2,27.6c11,10,22,20,32.5,30.5c8,8,9.3,15.6,4.2,23.5c-5.3,8.2-13.1,13.6-22.3,16.8
		c-17.3,6-35.4,5.9-53.4,6.3c-18.9,0.4-37.9,0.5-56.8,0.6c-11.7,0.1-23.5-0.1-35.2,0.1c-14.1,0.2-28.2,0.8-42.2,0.9
		c-17,0.1-34.1-0.2-51.1-0.3C1238.7,938.6,1238.3,938.5,1237.9,938.4z"/>
	<path class="st1" d="M1520,530.4c0,101.2,0,202.3-0.1,303.5c0,5.6-0.9,11.2-1.9,16.7c-1.4,7.3-6.3,8.8-12,3.8
		c-8.2-7.2-16.2-14.7-24.2-22.1c-12-11.1-24-22.1-35.8-33.3c-11.8-11.1-23.4-22.5-35.2-33.6c-18-17.1-36.1-34-54.1-51
		c-10.5-9.9-20.9-19.7-31.5-29.5c-15.7-14.6-31.6-29.1-47.2-43.8c-12.9-12.2-25.6-24.6-38.5-36.8c-11.7-11.1-23.8-21.8-35-33.4
		c-10.2-10.7-21.6-20.4-28.4-34c-2.2-4.4-1.3-8.2,2.3-11.8c10.2-9.9,20.1-20.1,30.4-30c13.7-13.1,27.7-25.7,41.4-38.8
		c14.7-14,29.1-28.4,43.7-42.5c7.5-7.2,15.5-14.1,23-21.3c7.5-7.1,14.6-14.6,22.1-21.8c16.5-15.9,33-31.8,49.6-47.6
		c17.3-16.5,34.8-32.8,52.1-49.4c15.8-15.2,31.4-30.7,47.2-46c7.3-7.1,14.7-14.1,22.1-21.1c3.2-3,7.1-2.1,7.9,2.1
		c1,5.3,1.9,10.8,1.9,16.2C1520,326.7,1519.9,428.5,1520,530.4C1519.9,530.4,1519.9,530.4,1520,530.4z"/>
	<path class="st1" d="M423,841.1c0-11.8-0.1-23.7,0-35.5c0.1-10.4,0.8-20.8,0.9-31.2c0.1-5.4-0.9-10.9-0.9-16.3
		c0.1-14.2,0.6-28.4,0.7-42.5c0-7.9-0.7-15.7-0.7-23.6c0-7.6,0.6-15.2,0.6-22.8c0-8.8-0.5-17.6-0.6-26.4c0-6.8,0.6-13.6,0.7-20.3
		c0-5.6-0.6-11.1-0.7-16.7c-0.1-10-0.2-20.1,0-30.1c0.2-9.7,0.8-19.5,0.9-29.2c0.1-7-0.7-14.1-0.7-21.1c0-9.9,0.6-19.9,0.7-29.8
		c0-3.3-0.7-6.6-0.6-9.8c0.1-6.3,0.6-12.6,0.6-18.8c0-13.1-0.5-26.1-0.5-39.2c0-7.8,0.5-15.6,0.5-23.4c0-4.6-0.8-9.2-0.8-13.8
		c0-6.9,0.4-13.7,0.4-20.6c0-3.9-0.3-7.8-0.2-11.7c0.1-7.5,0.5-15,0.5-22.5c0-13.8-0.2-27.7-0.2-41.5c0-11.4,0.3-22.8,0.3-34.2
		c0-7.5-0.9-15.1-0.7-22.6c0.3-9.2,0.8-18.5,2.1-27.6c0.8-5.7,4.4-6.4,8.7-2.3c25.2,24.2,50.4,48.4,75.6,72.5
		c16.6,16,33.3,31.9,49.9,47.8c17.5,16.8,35,33.7,52.5,50.5c14.5,13.9,29,27.8,43.6,41.6c15.9,15.1,32,30,47.8,45.2
		c17.9,17.2,35.6,34.6,53.4,51.9c2.4,2.4,5.1,4.5,7.6,6.8c4.5,4,5.1,8.8,2.1,14.3c-7.2,13.1-18.2,23-28.6,33.4
		c-13.2,13.1-26.8,25.7-40.3,38.5c-14.5,13.8-29,27.6-43.6,41.4c-22.6,21.3-45.2,42.5-67.7,63.8c-11.4,10.7-22.7,21.5-34.1,32.1
		c-12.2,11.4-24.7,22.6-36.9,34.1c-9.5,8.9-18.8,18.2-28.3,27.1c-15.9,14.9-32,29.7-48,44.5c-1,0.9-2.4,1.5-3.6,2.3
		c-7.1,4.5-9.1,0.3-10.4-5.3c-0.6-2.9-0.9-5.8-1.3-8.7C423.5,841.1,423.2,841.1,423,841.1z"/>
	<path class="st2" d="M880,938.7c1,0,2.1-0.1,3.1-0.1C882,938.6,881,938.6,880,938.7z"/>
	<path class="st3" d="M978,938.6c0.7,0,1.4,0.1,2.1,0.1C979.3,938.7,978.6,938.6,978,938.6z"/>
	<path class="st4" d="M1113,938.4c0.7,0,1.4,0.1,2.1,0.1C1114.4,938.5,1113.7,938.5,1113,938.4z"/>
	<path class="st5" d="M1209.9,938.5c0.7,0,1.4,0,2.2,0.1C1211.4,938.6,1210.6,938.6,1209.9,938.5z"/>
	<path class="st5" d="M1224.9,938.6c0.7,0,1.4,0,2.2,0C1226.4,938.6,1225.6,938.6,1224.9,938.6z"/>
	<path class="st6" d="M745.9,938.5c0.4,0.1,0.8,0.1,1.1,0.2C746.7,938.6,746.3,938.5,745.9,938.5z"/>
	<path class="st7" d="M802,938.3c0.4,0.1,0.7,0.2,1.1,0.2C802.7,938.5,802.3,938.4,802,938.3z"/>
	<path class="st7" d="M806.9,938.7c0.4,0,0.8,0,1.1,0C807.7,938.7,807.3,938.7,806.9,938.7z"/>
	<path class="st7" d="M819.9,938.6c0.4,0,0.8,0,1.2,0C820.7,938.6,820.3,938.6,819.9,938.6z"/>
	<path class="st2" d="M892,938.6c0.4,0,0.7,0,1.1,0.1C892.7,938.7,892.3,938.6,892,938.6z"/>
	<path class="st2" d="M902.9,938.6c0.4,0,0.7,0,1.1,0C903.7,938.6,903.3,938.6,902.9,938.6z"/>
	<path class="st2" d="M926,938.6c0.4,0,0.7,0,1.1,0C926.7,938.6,926.3,938.6,926,938.6z"/>
	<path class="st8" d="M938.9,938.7c0.4,0,0.7,0,1.1,0C939.7,938.6,939.3,938.6,938.9,938.7z"/>
	<path class="st3" d="M997.9,938.6c0.4,0,0.7,0,1.1,0C998.7,938.6,998.3,938.6,997.9,938.6z"/>
	<path class="st3" d="M1022.9,938.6c0.4,0,0.7,0,1.1,0C1023.7,938.6,1023.3,938.6,1022.9,938.6z"/>
	<path class="st4" d="M1047.9,938.7c0.4,0,0.8,0,1.1,0C1048.7,938.7,1048.3,938.7,1047.9,938.7z"/>
	<path class="st4" d="M1054,938.4c0.4,0,0.7,0.1,1.1,0.1C1054.7,938.5,1054.3,938.4,1054,938.4z"/>
	<path class="st4" d="M1062.9,938.4c0.4,0,0.7,0,1.1,0C1063.7,938.5,1063.3,938.4,1062.9,938.4z"/>
	<path class="st5" d="M1203.9,938.6c0.4,0,0.8,0,1.2,0C1204.7,938.6,1204.3,938.6,1203.9,938.6z"/>
	<path class="st5" d="M1217.9,938.6c0.4,0,0.8,0,1.2,0C1218.7,938.6,1218.3,938.6,1217.9,938.6z"/>
	<path class="st5" d="M1237.9,938.4c0.4,0.1,0.8,0.2,1.2,0.2C1238.7,938.6,1238.3,938.5,1237.9,938.4z"/>
</g>
</svg>
