<?xml version="1.0" encoding="UTF-8"?><svg id="Layer_1" xmlns="http://www.w3.org/2000/svg" viewBox="0 0 1920 1080"><path d="M950.62,752.87h-152.43v-205.63h152.43v205.63Z"/><path d="M987.41,547.14h142.75v205.66h-142.75v-205.66Z"/><path d="M782.57,538.69v-83.36h168.91v83.36h-168.91Z"/><path d="M987.38,538.57v-83.19h157.33v83.19h-157.33Z"/><path d="M969.26,424.54c8.71-10.44,16.56-20.59,25.21-30,7.63-8.3,15.6-16.46,24.38-23.47,19.07-15.22,49.84-.74,54.17,23.95,3.62,20.64-9.34,39.5-30.03,42.73-9.81,1.53-19.85,2.08-29.8,2.15-32.31,.23-64.62,.26-96.92-.1-11.59-.13-23.35-.68-33.83-6.84-14.59-8.57-21.27-27.44-15.42-43.42,6.04-16.51,23.75-27.39,40.32-24.26,10.65,2.01,18.46,9.12,25.42,16.77,10.86,11.94,21.16,24.39,31.69,36.63,1.5,1.75,2.92,3.56,4.81,5.87Zm-23.49,1.44c0-2.04,.14-2.48-.02-2.66-10.38-12.09-20.6-24.34-31.36-36.08-2.2-2.4-6.38-3.81-9.79-4.13-10.81-.99-19.5,6.55-21.11,17.52-1.41,9.57,5.17,19.82,15.4,21.22,15.41,2.11,31.02,2.8,46.88,4.13Zm48.58-3.39c.29,.43,.59,.86,.88,1.29,5.78,0,11.58,.34,17.33-.08,9.27-.67,18.62-1.25,27.71-2.99,7.83-1.5,12.85-8.64,13.5-16.68,.56-6.85-3.72-14.24-10.2-17.61-7.16-3.72-13.85-2.93-20.29,2.67-2.88,2.5-5.66,5.19-8.12,8.11-7.04,8.34-13.89,16.85-20.82,25.29Z"/></svg>