<?xml version="1.0" encoding="utf-8"?>
<!-- Generator: Adobe Illustrator 26.0.1, SVG Export Plug-In . SVG Version: 6.00 Build 0)  -->
<svg version="1.1" id="Layer_1" xmlns="http://www.w3.org/2000/svg" xmlns:xlink="http://www.w3.org/1999/xlink" x="0px" y="0px"
	 viewBox="0 0 1920 1080" style="enable-background:new 0 0 1920 1080;" xml:space="preserve">
<style type="text/css">
	.st0{display:none;}
	.st1{fill:#FDFDFD;}
	.st2{display:none;fill:#010101;}
</style>
<g>
	<path class="st0" d="M1920,1080c-640,0-1279.9,0-1920,0C0,720.1,0,360.1,0,0c639.9,0,1280,0,1920,0
		C1920,359.9,1920,719.9,1920,1080z M959.8,375.1c-1.7-2.9-2.8-4.9-3.9-6.9c-5.4-9.5-10.5-19.1-16.2-28.4
		c-11.2-18.5-24-36.1-39.4-51.3c-20.3-20.1-42.8-37.7-69.7-48.6c-10-4-20.1-8.1-30.4-10.8c-9.5-2.4-19.4-3.7-29.2-4.2
		c-13.8-0.7-27.9-1.4-41.6,0.2c-19,2.2-37.4,7.7-55,15.7c-17.9,8.2-34.3,18.8-49,31.5c-10.9,9.5-20.6,20.6-29.5,32.1
		c-19.3,24.7-32.3,52.7-40,83.1c-4.5,17.6-7.6,35.4-7.1,53.7c0.2,5.7-0.2,11.4,0.1,17.1c0.5,8.7,0.4,17.6,2.1,26.1
		c3.1,15.5,6.6,31,11.4,46.1c5.2,16,11.4,31.7,18.5,46.9c7.8,16.7,16.4,33.3,26.1,49c9.2,14.9,19.9,29.1,30.7,42.9
		c12.1,15.4,24.3,30.7,37.8,44.9c14,14.8,29.1,28.5,44.3,42c20.2,17.9,40.5,35.8,61.8,52.4c26.5,20.7,53.5,40.8,81.3,59.8
		c31.7,21.7,64.4,42,96.6,62.8c14.2-9.1,28-17.6,41.5-26.4c22.4-14.7,44.9-29.1,66.8-44.5c23.1-16.3,46.1-32.8,68.2-50.5
		c26.2-21,52-42.6,76.9-65.1c24-21.7,46.2-45.3,66-71c11.2-14.6,22.6-29.1,32.3-44.7c10.3-16.7,18.9-34.6,27.8-52.2
		c11.7-23,19.4-47.6,25.5-72.5c5-20.4,7.3-41.3,6.3-62.4c-0.8-14.9-1.7-30-4.5-44.6c-4.2-21.7-12.1-42.3-22.4-61.9
		c-12.6-23.9-29-44.9-49.3-62.6c-19.7-17.2-41.9-30.2-66.8-38.9c-16.1-5.6-32.5-9-49.3-10c-18.6-1.1-37.2-0.1-55.6,4.4
		c-16.4,4-32.2,9.5-47,17.4c-28,14.9-51.7,35.3-71.8,59.6c-16.4,19.8-29.5,41.8-41.3,64.6C962.2,371.6,961.3,372.8,959.8,375.1z"/>
	<path class="st1" d="M959.8,375.1c1.4-2.2,2.4-3.5,3.1-4.9c11.8-22.8,25-44.9,41.3-64.6c20.1-24.3,43.8-44.7,71.8-59.6
		c14.8-7.9,30.6-13.4,47-17.4c18.4-4.5,36.9-5.5,55.6-4.4c16.8,1,33.3,4.4,49.3,10c24.9,8.7,47.2,21.7,66.8,38.9
		c20.2,17.7,36.7,38.7,49.3,62.6c10.3,19.6,18.2,40.2,22.4,61.9c2.8,14.6,3.8,29.7,4.5,44.6c1.1,21-1.3,42-6.3,62.4
		c-6.1,25-13.8,49.5-25.5,72.5c-8.9,17.6-17.5,35.4-27.8,52.2c-9.6,15.6-21.1,30.2-32.3,44.7c-19.8,25.7-42,49.3-66,71
		c-24.9,22.5-50.6,44.2-76.9,65.1c-22.1,17.7-45.1,34.2-68.2,50.5c-21.9,15.4-44.4,29.8-66.8,44.5c-13.5,8.9-27.3,17.4-41.5,26.4
		c-32.2-20.8-64.9-41.1-96.6-62.8c-27.7-19-54.8-39.1-81.3-59.8c-21.3-16.6-41.6-34.5-61.8-52.4c-15.2-13.5-30.4-27.2-44.3-42
		c-13.4-14.2-25.7-29.5-37.8-44.9c-10.8-13.9-21.5-28-30.7-42.9c-9.7-15.7-18.2-32.2-26.1-49c-7.1-15.2-13.4-31-18.5-46.9
		c-4.9-15-8.3-30.6-11.4-46.1c-1.7-8.5-1.7-17.4-2.1-26.1c-0.3-5.7,0.1-11.4-0.1-17.1c-0.6-18.3,2.5-36.1,7.1-53.7
		c7.8-30.4,20.7-58.4,40-83.1c8.9-11.4,18.6-22.6,29.5-32.1c14.7-12.8,31.2-23.3,49-31.5c17.6-8.1,36-13.5,55-15.7
		c13.7-1.6,27.7-0.9,41.6-0.2c9.8,0.5,19.7,1.8,29.2,4.2c10.4,2.7,20.5,6.7,30.4,10.8c26.9,10.9,49.3,28.4,69.7,48.6
		c15.4,15.2,28.1,32.8,39.4,51.3c5.6,9.3,10.8,18.9,16.2,28.4C957.1,370.2,958.2,372.2,959.8,375.1z M1305.3,452.1
		c-1.2-10.5-1.7-20-3.6-29.3c-2.8-13.9-7.2-27.4-13.6-40.3c-8.5-17.2-19.8-32.2-33.9-45c-14.4-13.1-30.9-23-49.7-28.1
		c-11.6-3.1-23.7-5.2-35.8-6.2c-8.2-0.6-16.6,1.4-24.8,2.6c-25.5,3.9-47.2,15.8-65.7,33.3c-21.8,20.5-40.1,44.2-57.6,68.4
		c-19.5,26.9-38.9,53.9-58.6,80.7c-0.5,0.8-2.9,0.8-4,0.3c-1-0.4-1.6-2-2.4-3c-14.7-20.7-29-41.7-44.1-62.1
		c-14.5-19.6-29.3-39.2-45-57.8c-10.6-12.5-22.4-24.2-34.8-34.9c-11.1-9.6-24.5-15.7-38.6-20.5c-13.1-4.5-26.4-6.5-39.9-7
		c-9.1-0.3-18.5,1-27.4,3c-24.6,5.6-46,17.4-64.1,35.1c-16.7,16.2-28.6,35.4-36.8,57c-5.6,14.9-9.1,30.4-9.6,46.1
		c-0.5,14.2,1.3,28.6,3.4,42.7c3.2,20.6,9.7,40.4,18.8,59.3c6.3,13,12.2,26.3,19.5,38.7c15.2,25.7,33.5,49.3,53.8,71.1
		c12.1,13.1,24.9,25.8,38.4,37.5c23,20,46.5,39.6,70.5,58.4c19.8,15.5,40.4,29.9,61.1,44.1c25.3,17.3,51,33.8,76.6,50.5
		c1,0.6,3.1,0.6,4.2,0c10.4-6.5,20.8-13.1,31-19.9c28-18.9,56.3-37.5,83.7-57.2c22.7-16.3,44.6-33.7,66.4-51.2
		c11.3-9.1,22-19.1,32.5-29.1c12.4-11.7,25.2-23.1,36.3-36c14.4-16.7,27.6-34.5,40.7-52.2c13.6-18.5,24-38.8,32.7-60
		c7.6-18.3,13.8-37,16.7-56.7C1303.3,473.3,1304.2,462.2,1305.3,452.1z"/>
	<path class="st2" d="M1305.3,452.1c-1.1,10.1-2.1,21.3-3.7,32.3c-2.8,19.7-9.1,38.4-16.7,56.7c-8.8,21.2-19.2,41.5-32.7,60
		c-13.1,17.8-26.3,35.5-40.7,52.2c-11.1,12.9-23.9,24.3-36.3,36c-10.6,10-21.2,20-32.5,29.1c-21.8,17.5-43.7,34.9-66.4,51.2
		c-27.5,19.7-55.7,38.3-83.7,57.2c-10.2,6.9-20.6,13.4-31,19.9c-1,0.6-3.2,0.7-4.2,0c-25.6-16.7-51.4-33.3-76.6-50.5
		c-20.7-14.2-41.3-28.6-61.1-44.1c-24-18.8-47.5-38.4-70.5-58.4c-13.5-11.7-26.2-24.4-38.4-37.5c-20.3-21.9-38.6-45.4-53.8-71.1
		c-7.3-12.4-13.2-25.7-19.5-38.7c-9.1-18.8-15.6-38.6-18.8-59.3c-2.2-14.1-3.9-28.5-3.4-42.7c0.5-15.7,4-31.2,9.6-46.1
		c8.2-21.6,20.1-40.8,36.8-57c18.1-17.6,39.6-29.4,64.1-35.1c8.9-2,18.3-3.4,27.4-3c13.5,0.5,26.8,2.5,39.9,7
		c14.1,4.9,27.5,10.9,38.6,20.5c12.4,10.7,24.2,22.4,34.8,34.9c15.7,18.7,30.5,38.2,45,57.8c15.1,20.4,29.5,41.4,44.1,62.1
		c0.8,1.1,1.3,2.6,2.4,3c1.2,0.5,3.5,0.4,4-0.3c19.6-26.8,39.1-53.8,58.6-80.7c17.5-24.2,35.8-47.8,57.6-68.4
		c18.6-17.5,40.2-29.4,65.7-33.3c8.2-1.2,16.7-3.2,24.8-2.6c12,0.9,24.1,3,35.8,6.2c18.8,5.1,35.3,15,49.7,28.1
		c14.1,12.9,25.4,27.8,33.9,45c6.4,12.9,10.8,26.3,13.6,40.3C1303.6,432.1,1304.1,441.6,1305.3,452.1z"/>
</g>
</svg>
