<?xml version="1.0" encoding="utf-8"?>
<!-- Generator: Adobe Illustrator 26.0.1, SVG Export Plug-In . SVG Version: 6.00 Build 0)  -->
<svg version="1.1" id="Layer_1" xmlns="http://www.w3.org/2000/svg" xmlns:xlink="http://www.w3.org/1999/xlink" x="0px" y="0px"
	 viewBox="0 0 1920 1080" style="enable-background:new 0 0 1920 1080;" xml:space="preserve">
<style type="text/css">
	.st0{display:none;}
	.st1{fill:#74FDFD;}
	.st2{fill:#31FEFE;}
</style>
<g>
	<path class="st0" d="M0,1080C0,720,0,360,0,0c640,0,1280,0,1920,0c0,360,0,720,0,1080C1280,1080,640,1080,0,1080z M960.2,931.2
		c21.8-14,43.5-27.8,64.9-41.9c20.6-13.5,41.4-26.9,61.4-41.3c18.8-13.4,37.2-27.5,55-42.2c24.7-20.4,48.9-41.4,72.8-62.6
		c26.3-23.4,49.6-49.6,71.2-77.4c16.8-21.6,31.7-44.5,44.2-68.8c12.7-24.9,23.9-50.4,30.9-77.6c3.6-14.1,7.2-28.4,9-42.8
		c1.7-14,1.4-28.4,1.3-42.6c-0.1-8.6-1.2-17.2-2.5-25.6c-2.7-17.6-7.7-34.7-14.4-51.2c-10.2-25.2-24.3-48.1-42.7-67.9
		c-13.4-14.5-28.6-27.1-45.8-37.4c-23.7-14.2-49.2-23.5-76.5-26.8c-18.7-2.3-37.6-1.6-56.5,1.8c-25.9,4.6-49.6,14.2-71.6,28.3
		c-19.5,12.5-36.6,27.9-51.9,45.3c-15.9,18.1-28.2,38.4-40.1,59.1c-3,5.2-5.9,10.3-8.9,15.7c-5.3-9.4-10.1-18.2-15.1-26.8
		c-10.9-18.6-23-36.3-37.7-52.3c-20.8-22.6-44.4-41.3-72.4-54.4c-21.6-10.1-44.3-15.8-67.9-17.7c-19.9-1.6-39.7,0.3-59,5.3
		c-33.2,8.7-62.9,24.3-87.4,48.7c-10.4,10.4-20.5,21.5-29.2,33.3c-16.5,22.4-28.1,47.5-34.5,74.6c-3.6,15.1-5.6,30.7-7.5,46.2
		c-1,8.3-0.5,16.8-0.1,25.2c0.4,9,0.9,18.2,2.3,27.1c4.4,26.7,12,52.5,22.4,77.4c10,23.9,22.1,46.9,36.1,68.9
		c16.5,25.9,35.5,49.7,55.9,72.5c11.5,12.9,23.8,25.3,36.5,37.1c17.9,16.5,36.3,32.5,54.9,48.2c17.8,14.9,36,29.3,54.6,43.4
		c16,12.1,32.5,23.5,49.1,34.9c16.9,11.6,34.1,22.9,51.3,34C928,911,943.9,920.9,960.2,931.2z"/>
	<path class="st1" d="M960.2,931.2c-16.4-10.3-32.3-20.2-48-30.4c-17.2-11.2-34.4-22.4-51.3-34c-16.6-11.3-33.1-22.8-49.1-34.9
		c-18.5-14-36.7-28.5-54.6-43.4c-18.7-15.6-37-31.7-54.9-48.2c-12.7-11.8-25-24.1-36.5-37.1c-20.3-22.8-39.4-46.7-55.9-72.5
		c-14-22-26-44.9-36.1-68.9c-10.4-24.9-18-50.7-22.4-77.4c-1.5-8.9-1.9-18-2.3-27.1c-0.4-8.4-0.9-16.9,0.1-25.2
		c1.9-15.5,4-31,7.5-46.2c6.4-27.1,18-52.2,34.5-74.6c8.7-11.9,18.7-22.9,29.2-33.3c24.5-24.4,54.2-40,87.4-48.7
		c19.2-5.1,39-6.9,59-5.3c23.6,1.9,46.3,7.6,67.9,17.7c28,13.1,51.6,31.8,72.4,54.4c14.7,16,26.8,33.7,37.7,52.3
		c5,8.6,9.8,17.3,15.1,26.8c3.1-5.4,6-10.6,8.9-15.7c11.9-20.7,24.3-41.1,40.1-59.1c15.3-17.4,32.4-32.8,51.9-45.3
		c21.9-14.1,45.7-23.7,71.6-28.3c18.8-3.4,37.7-4.1,56.5-1.8c27.3,3.3,52.8,12.6,76.5,26.8c17.1,10.3,32.3,22.9,45.8,37.4
		c18.4,19.9,32.5,42.7,42.7,67.9c6.7,16.6,11.7,33.6,14.4,51.2c1.3,8.5,2.4,17.1,2.5,25.6c0.1,14.2,0.4,28.5-1.3,42.6
		c-1.8,14.4-5.4,28.7-9,42.8c-7,27.1-18.2,52.7-30.9,77.6c-12.4,24.3-27.4,47.3-44.2,68.8c-21.6,27.7-44.9,54-71.2,77.4
		c-23.9,21.3-48.1,42.2-72.8,62.6c-17.8,14.7-36.2,28.8-55,42.2c-20.1,14.3-40.8,27.7-61.4,41.3C1003.7,903.4,982,917.2,960.2,931.2
		z M960.2,490.7c-1.3-1.6-2.3-2.8-3.2-4.1c-9.9-13.9-19.7-28-29.8-41.8c-12.2-16.7-24.6-33.3-37-49.8
		c-13.2-17.4-26.8-34.6-42.4-50.1c-15.8-15.6-33.3-28-54.7-34.8c-14.7-4.7-29.5-7-44.9-6.5c-18.8,0.6-36.4,5.2-52.9,13.6
		c-22,11.2-39.6,27.2-53.4,47.8c-14.6,21.8-23,45.7-25.9,71.5c-2.6,23.2,0.5,46,6.6,68.5c6.2,23,15.4,44.7,26.5,65.8
		c11.9,22.4,26.2,43.2,42.2,62.7c17.9,21.8,36.9,42.7,58.6,60.9c23,19.4,46,39,69.8,57.6c19.4,15.1,39.6,29.2,59.9,43.1
		c25.7,17.5,51.8,34.4,77.8,51.4c1.2,0.8,3.8,0.6,5-0.1c11.2-7,22.4-14.3,33.5-21.6c16.5-10.8,33.2-21.2,49.3-32.6
		c21.7-15.3,43.1-31.3,64.4-47.2c30.5-22.8,59.6-47.2,85.9-74.8c12.2-12.8,23.7-26.3,35.3-39.7c15.5-17.9,28.4-37.7,39.8-58.4
		c12.7-23.2,22.6-47.7,28.7-73.5c4.4-18.7,7.5-37.7,5.1-57c-1.7-13-3.4-26.3-7.4-38.8c-7.7-24.2-20.9-45.4-39.5-62.9
		c-15.6-14.6-33.3-25.7-54.1-31c-10.8-2.8-21.9-5-33-5.7c-8.8-0.6-17.7,1.4-26.6,2.6c-19.1,2.7-36.4,10.4-51.5,22
		c-11.7,9-22.6,19.5-32.2,30.8c-17,20-33.2,40.7-49,61.7C993.7,443.1,977.5,466.6,960.2,490.7z M959.4,440.1c0.3,0,0.7,0,1,0
		c0-20.4,0-40.8,0-61.2c-0.3,0-0.7,0-1,0C959.4,399.3,959.4,419.7,959.4,440.1z"/>
	<path class="st0" d="M960.2,490.7c17.3-24.1,33.6-47.6,50.7-70.4c15.8-21,32-41.7,49-61.7c9.6-11.2,20.5-21.7,32.2-30.8
		c15-11.6,32.4-19.3,51.5-22c8.8-1.2,17.8-3.1,26.6-2.6c11.1,0.7,22.2,2.9,33,5.7c20.8,5.3,38.5,16.4,54.1,31
		c18.7,17.5,31.9,38.7,39.5,62.9c4,12.5,5.7,25.7,7.4,38.8c2.4,19.2-0.6,38.2-5.1,57c-6.1,25.8-15.9,50.3-28.7,73.5
		c-11.4,20.7-24.3,40.5-39.8,58.4c-11.6,13.4-23.1,26.9-35.3,39.7c-26.2,27.6-55.4,52-85.9,74.8c-21.3,15.9-42.7,31.9-64.4,47.2
		c-16.1,11.4-32.8,21.8-49.3,32.6c-11.1,7.3-22.2,14.5-33.5,21.6c-1.3,0.8-3.8,0.9-5,0.1c-26-17-52.1-33.9-77.8-51.4
		c-20.3-13.9-40.5-28-59.9-43.1c-23.7-18.6-46.7-38.1-69.8-57.6c-21.6-18.2-40.7-39.1-58.6-60.9c-16-19.5-30.3-40.3-42.2-62.7
		c-11.1-21-20.3-42.8-26.5-65.8c-6.1-22.5-9.1-45.3-6.6-68.5c2.9-25.8,11.3-49.7,25.9-71.5c13.8-20.6,31.4-36.6,53.4-47.8
		c16.6-8.4,34.2-13,52.9-13.6c15.4-0.5,30.2,1.8,44.9,6.5c21.4,6.8,38.9,19.2,54.7,34.8c15.6,15.5,29.2,32.6,42.4,50.1
		c12.5,16.5,24.9,33.1,37,49.8c10.1,13.8,19.8,27.9,29.8,41.8C957.9,487.9,958.9,489.1,960.2,490.7z"/>
	<path class="st2" d="M959.4,440.1c0-20.4,0-40.8,0-61.2c0.3,0,0.7,0,1,0c0,20.4,0,40.8,0,61.2C960.1,440.1,959.8,440.1,959.4,440.1
		z"/>
</g>
</svg>
