<svg id="Layer_1" data-name="Layer 1" xmlns="http://www.w3.org/2000/svg" viewBox="0 0 554.8 476.06"><defs><style>.cls-1{fill:#fff;}</style></defs><path class="cls-1" d="M948.76,409.88c5.55-8.7,11-17.25,16.46-25.77,21.68-33.78,52-54.94,91.43-63.12,35.41-7.35,69.4-3.19,101.21,13.64,23.39,12.38,40.61,31.37,52.37,55.31,13.14,26.75,18.3,54.87,14.62,84.35a158.47,158.47,0,0,1-7.41,31c-10.22,30.07-26.6,56.91-45.09,82.51-23.89,33.07-51.26,63-81,90.88-43.9,41.05-91.82,77.13-139.46,113.58-2.48,1.9-4.1,1.67-6.48-.14-52.41-39.83-105-79.45-152.13-125.65C752.39,626.37,716.1,582.52,690.37,531c-12.37-24.8-20-51.24-19.08-79.29a147.82,147.82,0,0,1,11.37-51.88c7.84-18.9,18.68-35.79,34.3-49a130.75,130.75,0,0,1,26-17.46c9.88-4.92,20.66-8.22,31.3-11.35,16.15-4.75,32.78-5.12,49.46-3.55,26.4,2.47,50.68,11,72.29,26.35,12.72,9,23.22,20.52,32.08,33.34C935.14,388.33,941.69,399,948.76,409.88Zm-.06,321.88c19.63-15.3,38.8-30,57.7-45,52-41.33,98.42-87.87,134.49-144,14.39-22.38,26.15-46.07,32.15-72.15a96.73,96.73,0,0,0,2.66-25.73,70.4,70.4,0,0,0-9.77-33.6c-5.94-9.92-14.18-17.54-23.33-23.48a98.63,98.63,0,0,0-38.78-14.9,73.65,73.65,0,0,0-39.6,4.39c-20.29,8.34-36.21,23.5-49.9,40.52-23.89,29.7-43.42,62.29-62.19,95.35-1,1.68-1.93,3.35-3.39,5.87-1.3-2.14-2.14-3.47-2.93-4.83-4.91-8.51-9.62-17.15-14.75-25.52C911.2,456.26,891.91,423.39,864,397c-12-11.32-25.3-20.45-42.19-24.15-13.5-3-26.48-1.54-38.75,2.61a83.61,83.61,0,0,0-32.28,20.19c-14,13.89-21.13,30.7-22.85,49.64-2.28,25.14,4.13,49,14.77,71.55,12.13,25.77,28.56,48.82,46.49,70.86,30.75,37.81,66.14,70.84,104.28,101C911.57,703.09,930,717.17,948.7,731.76Z" transform="translate(-671.21 -317.5)"/></svg>