<svg id="Layer_1" data-name="Layer 1" xmlns="http://www.w3.org/2000/svg" viewBox="0 0 551.63 472.6"><defs><style>.cls-1{fill:#f5210d;}</style></defs><path class="cls-1" d="M948.77,412.9c3.29-5.37,6.14-10,9-14.64,11.33-18.78,24.06-36.48,41.51-50.1A127.89,127.89,0,0,1,1034,329a166.17,166.17,0,0,1,42.28-9.24,144.67,144.67,0,0,1,41.23,2.28c24.81,4.79,47,15,65.52,32.88,14.58,14,24.94,30.72,32,49.39,4.17,11.05,7.67,22.46,8,34.52.26,10.45,1.44,21,.74,31.34-.6,8.86-2.73,17.74-5.17,26.33-8.29,29.24-23.24,55.19-40.25,80.14-28.82,42.24-63.47,79.21-101.37,113.28-34.6,31.08-71.34,59.52-108.29,87.7-5.57,4.24-11.19,8.4-16.67,12.74-2.32,1.84-4,1.94-6.55,0-52.83-40.08-105.7-80.14-153.11-126.7-31.57-31-59.88-64.85-83.59-102.31-12.2-19.28-22.64-39.66-29.39-61.41a160.08,160.08,0,0,1-6.83-37.74c-.79-12.88.86-25.17,3.52-37.41a140.62,140.62,0,0,1,28.08-59.15A118.31,118.31,0,0,1,745,333.47c11.68-5.67,23.83-10.27,36.54-12,12.47-1.7,25.25-1.1,37.9-1.5,13.37-.41,26.09,3.16,38.59,7.15,29,9.26,51.88,27.12,69.14,52.08,6.34,9.16,12,18.77,18,28.18C946.19,409,947.25,410.58,948.77,412.9Zm-.28,103.16-2.63-4.63c-16.93-29.82-34.61-59.18-55.3-86.6-13.73-18.18-28.87-34.85-49.1-46.11-2.46-1.37-4.72-3.59-7.33-4.11-11.9-2.37-23.48-5.66-36.15-3.88a82.33,82.33,0,0,0-37,14.37c-15.74,11.28-27.19,26.24-32,45.85a107.2,107.2,0,0,0-2.05,38.39c3,26.07,13.61,49.53,27.1,71.58,24.23,39.62,54.78,74.09,88.48,105.86C874.55,677,909.65,703.5,944.6,730.19c3.1,2.38,5.47,2.11,8.4-.18,16-12.49,32.23-24.75,48.21-37.3,45.12-35.42,86.64-74.5,121-120.7,21.28-28.61,40.47-58.37,49.81-93.41,3.62-13.57,6.28-27.2,3.92-41.22-1.16-6.86-2.06-13.7-5.34-20.29-4.87-9.78-11.83-17.36-19.65-24.73-8.63-8.14-19.16-13.19-29.76-16.67-13.14-4.32-27.21-7.12-41.43-3.61-5.56,1.37-11.63,1.52-16.67,3.91a133.43,133.43,0,0,0-48.43,39.27c-14.36,18.51-27.33,38.12-40.24,57.7C965.28,486.8,957.26,501.39,948.49,516.06Z" transform="translate(-672.36 -319.17)"/></svg>