<svg xmlns="http://www.w3.org/2000/svg" viewBox="0 0 522.18 522.05"><defs><style>.cls-1{fill:#fcfcfc;}</style></defs><g id="Layer_2" data-name="Layer 2"><g id="Layer_1-2" data-name="Layer 1"><path class="cls-1" d="M521.92,123c0,24.15.33,48.31-.17,72.45-.18,9-1.88,18.07-3.65,27-2.1,10.53-9.19,17.5-19.43,19.38A235.14,235.14,0,0,1,462,245.42c-20.94.49-41.9-.15-62.85-.13-19,0-38.08.63-57.12.31-13.93-.23-28,.53-41.69-3.53-9.35-2.77-15.88-8-19.38-17.23-4.59-12.1-4.24-24.79-4.47-37.34-.36-18.86,0-37.75,0-56.62.15-29.57.16-59.13.66-88.69.17-9.37,1.53-18.6,6.66-27.1A23,23,0,0,1,298.52,4.22C307.15,2.11,316.12.36,325,.29q74.22-.54,148.43,0c11,.08,22.12.81,32.35,6.36,6.52,3.54,10.58,8.84,12.08,15.48A142.18,142.18,0,0,1,521.75,50C522.28,74.34,521.93,98.66,521.92,123Z"/><path class="cls-1" d="M122.3,521.91c-24,0-48,.32-71.95-.17a140.1,140.1,0,0,1-27.48-3.59c-9.89-2.21-16.65-9-19-18.86A113.74,113.74,0,0,1,.27,473.86C0,424.08-.14,374.29.3,324.51c.1-11.08.74-22.41,6.75-32.66A23.24,23.24,0,0,1,22.9,280.34a196.29,196.29,0,0,1,32.85-3.83c22.34-.56,44.7-.15,67.05-.14,23.8,0,47.61-.32,71.39.21a145,145,0,0,1,28.41,3.73C233,282.66,239.18,290,242,300.39c3.92,14.2,3.29,28.71,3.51,43.16.27,17.45.08,34.92.07,52.37,0,22.56.35,45.12-.22,67.65a214,214,0,0,1-3.69,35.36c-1.94,9.91-8.71,17-19,19-9.21,1.81-18.58,3.6-27.91,3.81-24.14.52-48.3.17-72.46.17Z"/><path class="cls-1" d="M399.54,521.93c-24.16,0-48.33.35-72.48-.18-9.31-.2-18.69-1.94-27.86-3.84-10.11-2.1-16.9-9-18.86-18.86a218.9,218.9,0,0,1-3.65-33c-.58-13.51-.08-27.06-.1-40.59,0-17.05-.25-34.11-.16-51.17.1-19.34.26-38.68.77-58a53.34,53.34,0,0,1,6.54-24.66,21.86,21.86,0,0,1,16-11.26A247.61,247.61,0,0,1,335,276.81c21.41-.6,42.86-.46,64.29-.37,27.94.11,55.9.07,83.82,1,7.66.26,15.44,3.14,22.74,5.91C514,286.45,517.09,294,519,302c4.47,18.34,2.81,37,3,55.6.29,37.81.15,75.62-.18,113.43-.07,7.89-1.59,15.78-2.65,23.64-2.1,15.67-12.32,23-26.91,25.23a153.94,153.94,0,0,1-21.74,2C446.86,522.08,423.2,521.93,399.54,521.93Z"/><path class="cls-1" d="M122.9.1c23,0,46-.28,69,.13a176.69,176.69,0,0,1,27.61,2.94c14.19,2.53,21.6,10.63,23.17,24.06,2,17,2.31,34.24,2.73,51.39.46,18.26.29,36.54.21,54.81-.1,23.06-.27,46.13-.67,69.19-.18,10.5-1.16,21.17-8.1,29.62a29.8,29.8,0,0,1-12.88,9.23c-11.19,3.66-23,4-34.78,3.7-13.73-.36-27.47.47-41.21.47-26.44,0-52.88-.22-79.32-.38-8.91,0-17.82-.09-26.72-.31-10.21-.25-20.46-1.44-28.5-8.24-4-3.39-7.75-8.36-9.15-13.31a100.67,100.67,0,0,1-4-26.35q-.54-74.2,0-148.42A111.38,111.38,0,0,1,4.43,20.81c2.36-8.73,9.06-14.8,18-16.76A144,144,0,0,1,49.94.28C74.25-.23,98.58.11,122.9.1Z"/></g></g></svg>