<svg id="Layer_1" data-name="Layer 1" xmlns="http://www.w3.org/2000/svg" viewBox="0 0 541.84 537.07"><defs><style>.cls-1{fill:#2a2a2a;}</style></defs><path class="cls-1" d="M1136.94,618.79,1251.65,730.4c-13.72,13.59-27.18,27-41.1,40.75L1096.27,660c-49.53,37.83-105.36,55.83-167,50.33-72.34-6.46-131.32-39.44-174-98.64C681.42,509.23,699.82,372.06,794,291.23c93.38-80.15,234.29-76.07,323.27,12.67C1203.86,390.27,1209.08,526.64,1136.94,618.79Zm-188.5,40.29c104.45-.24,183.09-82.73,186.46-178.91,1.89-53.95-15.92-101-54.12-139.19-40.68-40.7-90.57-58.08-147.89-54.07-89.49,6.26-169.58,82.21-170.84,183.73C760.78,573.85,844.82,659.32,948.44,659.08Z" transform="translate(-709.81 -234.08)"/></svg>