<?xml version="1.0" encoding="utf-8"?>
<!-- Generator: Adobe Illustrator 26.0.1, SVG Export Plug-In . SVG Version: 6.00 Build 0)  -->
<svg version="1.1" id="Layer_1" xmlns="http://www.w3.org/2000/svg" xmlns:xlink="http://www.w3.org/1999/xlink" x="0px" y="0px"
	 viewBox="0 0 1920 1080" style="enable-background:new 0 0 1920 1080;" xml:space="preserve">
<style type="text/css">
	.st0{display:none;}
	.st1{fill:#FDFDFD;}
	.st2{display:none;fill:#010101;}
</style>
<g>
	<path class="st0" d="M0,0c640,0,1280,0,1920,0c0,360,0,720,0,1080c-640,0-1280,0-1920,0C0,720,0,360,0,0z M1063.5,704
		c20.1,15.4,40.2,30.8,60.6,46.4c-1.3,1.7-2.3,3.3-3.6,4.7c-4.5,5.1-4.7,10.9,0.7,15.5c6.3,5.4,12.3,11.1,18.8,16.2
		c14.7,11.5,29.7,22.7,44.4,34.1c14.1,10.9,28.1,22.1,42.2,33c17.5,13.4,35.2,26.8,52.9,39.9c11.5,8.6,23.2,17,35,25.1
		c5,3.4,9,2.9,12.6-1.8c13.5-17.7,26.7-35.7,39.8-53.6c0.8-1.1,0.8-3.1,0.5-4.6c-1.4-6.9-7.2-10.7-12.1-14.6
		c-13.9-11.2-28.3-21.6-42.4-32.5c-15.5-11.9-30.8-23.9-46.2-35.8c-16.3-12.6-32.6-25.3-49.2-37.6c-15.7-11.7-31.6-23.2-47.5-34.6
		c-4.2-3-8.7-2.2-12.1,1.6c-2.2,2.5-4.4,4.9-6.5,7.2c-19.7-15.1-39.2-30.1-59.1-45.5c33.1-48.4,49.4-102,50.9-160
		c1.4-57.9-12.7-112-42.5-162c-29.8-50.1-70.7-88.8-122.3-114.6c-73.5-36.7-151-43.3-229.3-18.1c-78.7,25.3-138,76.3-175.9,149.6
		c-38.1,73.8-44.1,152.6-18.5,231.2c25.1,77.2,75.4,136.3,147.7,174.3C813.6,826,965.2,810.9,1063.5,704z"/>
	<path class="st1" d="M1063.5,704c-98.3,106.9-249.9,122-361,63.5c-72.4-38.1-122.6-97.1-147.7-174.3
		c-25.6-78.6-19.6-157.4,18.5-231.2c37.8-73.3,97.2-124.2,175.9-149.6c78.3-25.2,155.8-18.6,229.3,18.1
		c51.7,25.8,92.5,64.5,122.3,114.6c29.8,50.1,43.9,104.1,42.5,162c-1.4,58-17.7,111.6-50.9,160c19.9,15.3,39.4,30.3,59.1,45.5
		c2.1-2.4,4.3-4.8,6.5-7.2c3.4-3.8,7.9-4.6,12.1-1.6c15.9,11.4,31.8,22.9,47.5,34.6c16.5,12.4,32.8,25,49.2,37.6
		c15.4,11.9,30.8,23.9,46.2,35.8c14.1,10.9,28.6,21.3,42.4,32.5c4.9,3.9,10.7,7.7,12.1,14.6c0.3,1.5,0.3,3.5-0.5,4.6
		c-13.2,18-26.4,35.9-39.8,53.6c-3.6,4.7-7.6,5.3-12.6,1.8c-11.8-8.1-23.5-16.5-35-25.1c-17.7-13.2-35.4-26.5-52.9-39.9
		c-14.2-10.9-28.1-22-42.2-33c-14.8-11.4-29.7-22.6-44.4-34.1c-6.5-5.1-12.5-10.8-18.8-16.2c-5.4-4.6-5.2-10.4-0.7-15.5
		c1.3-1.4,2.3-3,3.6-4.7C1103.7,734.8,1083.6,719.5,1063.5,704z M837,738c69.3-0.9,126.5-23.5,172.8-69.7
		c46.2-46.1,70.3-103,70-168.5c-0.6-132-104.1-237.8-239.8-238.3c-63.6-0.2-119.5,23.5-165,68.4c-47.1,46.3-71.5,103.8-71.5,169.4
		c0,64.2,23,121.1,68.6,167.2C718.3,713.2,775.2,736.3,837,738z"/>
	<path class="st2" d="M837,738c-61.8-1.7-118.7-24.8-164.9-71.5c-45.6-46.1-68.6-103-68.6-167.2c0-65.6,24.5-123.1,71.5-169.4
		c45.5-44.8,101.4-68.6,165-68.4c135.7,0.5,239.2,106.3,239.8,238.3c0.3,65.5-23.8,122.4-70,168.5C963.5,714.5,906.3,737.1,837,738z
		"/>
</g>
</svg>
