<?xml version="1.0" encoding="utf-8"?>
<!-- Generator: Adobe Illustrator 26.0.1, SVG Export Plug-In . SVG Version: 6.00 Build 0)  -->
<svg version="1.1" id="Layer_1" xmlns="http://www.w3.org/2000/svg" xmlns:xlink="http://www.w3.org/1999/xlink" x="0px" y="0px"
	 viewBox="0 0 1920 1080" style="enable-background:new 0 0 1920 1080;" xml:space="preserve">
<style type="text/css">
	.st0{display:none;}
	.st1{fill:#FDFDFD;}
	.st2{fill:#A59C9E;}
	.st3{display:none;fill:#010101;}
	.st4{fill:#827780;}
</style>
<g>
	<path class="st0" d="M1920,1080c-640,0-1280,0-1920,0C0,720,0,360,0,0c640,0,1280,0,1920,0C1920,360,1920,720,1920,1080z M1182,559
		c-0.7-9.6-0.8-19.2-2.1-28.7c-1.5-10.7-7.2-18.8-18.4-21.2c-7.4-1.6-14.9-2.8-22.4-3c-21.3-0.4-42.6-0.2-64-0.1
		c-3.2,0-4.8-0.7-5.2-4.1c-2.3-20.8-6.4-41.2-13.1-61.1c-9.1-27.2-24.1-50-49.8-64.5c-18.9-10.8-39-15.9-60.6-12.2
		c-32.4,5.6-56.5,23.5-72.5,52c-15.5,27.7-20,58.7-25.2,89.8c-3.3,0-6.5,0-9.7,0c-24.8,0.3-49.5,0.4-74.3,1.2
		c-7,0.2-13.6,2.9-18.6,8.8c-6.1,7.3-7.6,16-8,25c-0.7,16.3-1,32.7-1.2,49.1c-0.1,8.2,0.6,16.3,0.9,24.5c1,22,1.5,44,3.2,65.9
		c1.2,15.7,3.7,31.3,5.8,46.9c3.2,23.8,9,46.9,17.1,69.5c9.2,25.5,21.3,49.2,39,70.1c21.6,25.5,49.1,41.7,80.1,52.8
		c20.4,7.3,41.6,10.6,63.1,12.2c10.2,0.7,20.5-0.4,30.8-0.8c19.6-0.9,38.6-4.7,57.4-10.7c14.9-4.8,29.2-11,42.4-19.2
		c21.5-13.2,39.3-30.5,53.4-51.7c15.7-23.7,26-49.8,33.4-76.9c6.7-24.2,11.5-48.9,13.5-74.1c1.5-20,3.8-40,4.7-60.1
		c0.9-20.4,0.6-40.9,0.9-61.3c0-0.4,0-0.8,0-1.2c0-1.3,0-2.5,0-3.8c0-0.4,0-0.8,0-1.2c0-1.2,0-2.5,0-3.7c-0.1-0.4-0.1-0.8-0.2-1.2
		c0-1.6,0.1-3.2,0.1-4.8C1182.3,560.4,1182.2,559.7,1182,559z"/>
	<path class="st1" d="M1182.6,577.1c-0.2,20.4,0.1,40.9-0.9,61.3c-0.9,20.1-3.1,40-4.7,60.1c-1.9,25.2-6.8,49.9-13.5,74.1
		c-7.5,27.1-17.7,53.2-33.4,76.9c-14,21.2-31.9,38.5-53.4,51.7c-13.2,8.1-27.5,14.4-42.4,19.2c-18.7,6-37.8,9.8-57.4,10.7
		c-10.3,0.5-20.6,1.6-30.8,0.8c-21.4-1.6-42.7-4.9-63.1-12.2c-31-11.1-58.5-27.3-80.1-52.8c-17.7-20.8-29.9-44.6-39-70.1
		c-8.1-22.6-13.9-45.7-17.1-69.5c-2.1-15.6-4.7-31.2-5.8-46.9c-1.6-21.9-2.2-44-3.2-65.9c-0.4-8.2-1-16.3-0.9-24.5
		c0.1-16.4,0.5-32.7,1.2-49.1c0.4-8.9,1.9-17.7,8-25c4.9-5.9,11.6-8.6,18.6-8.8c24.8-0.8,49.5-0.9,74.3-1.2c3.2,0,6.4,0,9.7,0
		c5.2-31,9.7-62,25.2-89.8c16-28.5,40.1-46.4,72.5-52c21.6-3.7,41.7,1.4,60.6,12.2c25.7,14.6,40.7,37.3,49.8,64.5
		c6.6,19.8,10.7,40.3,13.1,61.1c0.4,3.4,2,4.1,5.2,4.1c21.3-0.1,42.7-0.3,64,0.1c7.5,0.1,15,1.4,22.4,3
		c11.2,2.4,16.9,10.5,18.4,21.2c1.3,9.5,1.5,19.1,2.1,28.7c0.1,0.7,0.3,1.4,0.4,2.2c0,1.6-0.1,3.2-0.1,4.8c0.1,0.4,0.1,0.8,0.2,1.2
		c0,1.2,0,2.5,0,3.7c0,0.4,0,0.8,0,1.2c0,1.3,0,2.5,0,3.8C1182.6,576.3,1182.6,576.7,1182.6,577.1z M972.2,505.4c2.9,0,5.7,0,8.6,0
		c0.5,0,1,0,1.5,0c0.9,0,1.7-0.1,2.6-0.1c0.5,0,0.9,0.1,1.4,0.1c3.9,0,7.7,0,11.6,0c0.8,0,1.6,0,2.4,0c1.2,0.1,2.4,0.2,3.7,0.2
		c0.4,0,0.9,0,1.3-0.1c0.9,0,1.8,0.1,2.7,0.1c0.4,0,0.8,0.1,1.2,0.1c7.2,0,14.4,0,22.2,0c-0.5-3-0.8-5.4-1.2-7.7
		c-2.3-11.7-4.2-23.6-7.2-35.1c-4.1-15.6-11.2-29.7-24.2-40c-13.3-10.6-28.6-16.3-45.4-13.8c-25.2,3.8-43.3,18.2-52,42.2
		c-4.7,12.8-7,26.5-10.1,39.9c-1.1,4.7-1.5,9.5-2.2,14.5c27.4,0,54.2,0,81,0C970.7,505.7,971.4,505.6,972.2,505.4z M843.4,552.2
		c-13.4,0.9-27.2,1.7-41.1,2.6c-9,0.6-14.7,5.6-16.8,14.1c-1.4,5.5-2.1,11.4-2.1,17.1c-0.1,22.9-0.3,45.8,0.6,68.6
		c0.9,21.3,2.6,42.5,5.1,63.7c1.7,14.8,4.3,29.7,8.3,44c5,18,11.3,35.7,20.5,52.2c7,12.5,15.1,24.1,25.4,34
		c14.9,14.4,32.5,24.8,51.8,31.9c15.7,5.8,32.1,9.6,48.8,10.4c12.5,0.6,25.2-0.1,37.8-1c8.8-0.6,17.8-1.6,26.1-4.3
		c12.7-4,25.1-9.1,37.2-14.7c12.7-5.9,23.7-14.5,33.5-24.4c12.5-12.7,21.6-27.7,29.3-43.7c12.5-26,18.7-53.8,23-82
		c2.8-18.1,3.9-36.5,5.1-54.8c0.9-13.6,1-27.2,1-40.8c0-15.7,0.1-31.5-1.1-47.1c-1.1-14-2.9-21.3-19.6-23.8
		c-12.2-1.8-24.8-1-37.3-1.4c-3.5-0.1-2.9,2.6-2.8,4.6c0.6,9,1.2,18.1,2,27.1c0.2,1.7,1,3.9,2.2,5c12.4,10.9,16.2,24.6,10.7,41.4
		c-5.3,16.1-22.4,24.9-37.3,22.7c-20.6-2.9-31-16.5-32.3-34.2c-0.8-11.3,3.5-22.1,13.3-29.7c1.3-1,2.2-3.1,2.3-4.7
		c0.2-5.2,0.2-10.3-0.2-15.5c-0.4-5.6-1.3-11.2-2-16.7c-12.4,0-24.3,0-36.1,0c-36.5,0-73,0.1-109.5-0.1c-4.2,0-5.3,1.2-5.3,5.3
		c0,9.3-0.7,18.5-0.9,27.8c0,1.2,0.5,3.1,1.4,3.7c10.4,7.1,13.7,17.2,13.9,29.4c0.4,22.6-23.4,40.9-46.9,33.3
		c-14.6-4.7-23.4-15.8-25.1-31.3c-1.3-12.7,4-23.3,13.4-31.4c2.1-1.8,2.3-3.1,2.3-5.1C842.4,574.2,842.9,563.8,843.4,552.2z"/>
	<path class="st2" d="M1182.4,561.1c-0.1-0.7-0.3-1.4-0.4-2.2C1182.2,559.7,1182.3,560.4,1182.4,561.1z"/>
	<path class="st2" d="M1182.6,567.1c-0.1-0.4-0.1-0.8-0.2-1.2C1182.4,566.3,1182.5,566.7,1182.6,567.1z"/>
	<path class="st2" d="M1182.7,572.1c0-0.4,0-0.8,0-1.2C1182.6,571.3,1182.6,571.7,1182.7,572.1z"/>
	<path class="st2" d="M1182.6,577.1c0-0.4,0-0.8,0-1.2C1182.6,576.3,1182.6,576.7,1182.6,577.1z"/>
	<path class="st3" d="M843.4,552.2c-0.5,11.6-1,22-1.5,32.3c-0.1,2-0.3,3.3-2.3,5.1c-9.4,8.1-14.7,18.7-13.4,31.4
		c1.6,15.6,10.4,26.6,25.1,31.3c23.5,7.6,47.3-10.7,46.9-33.3c-0.2-12.2-3.4-22.3-13.9-29.4c-0.9-0.6-1.4-2.4-1.4-3.7
		c0.2-9.3,0.9-18.5,0.9-27.8c0-4.1,1.2-5.3,5.3-5.3c36.5,0.2,73,0.1,109.5,0.1c11.8,0,23.7,0,36.1,0c0.7,5.5,1.6,11.1,2,16.7
		c0.4,5.1,0.4,10.3,0.2,15.5c-0.1,1.6-1.1,3.7-2.3,4.7c-9.7,7.6-14.1,18.4-13.3,29.7c1.3,17.7,11.7,31.3,32.3,34.2
		c15,2.1,32-6.7,37.3-22.7c5.5-16.7,1.7-30.4-10.7-41.4c-1.3-1.1-2.1-3.3-2.2-5c-0.8-9-1.5-18.1-2-27.1c-0.1-2-0.7-4.7,2.8-4.6
		c12.4,0.4,25.1-0.4,37.3,1.4c16.8,2.5,18.5,9.7,19.6,23.8c1.2,15.6,1.1,31.4,1.1,47.1c0,13.6-0.1,27.2-1,40.8
		c-1.2,18.3-2.3,36.7-5.1,54.8c-4.3,28.2-10.5,56-23,82c-7.7,16-16.7,31-29.3,43.7c-9.8,10-20.9,18.6-33.5,24.4
		c-12.1,5.6-24.5,10.7-37.2,14.7c-8.3,2.6-17.3,3.6-26.1,4.3c-12.5,0.9-25.2,1.5-37.8,1c-16.7-0.8-33.1-4.6-48.8-10.4
		c-19.3-7.1-37-17.5-51.8-31.9c-10.2-9.9-18.4-21.6-25.4-34c-9.2-16.5-15.5-34.2-20.5-52.2c-4-14.3-6.5-29.2-8.3-44
		c-2.5-21.1-4.2-42.4-5.1-63.7c-0.9-22.8-0.7-45.7-0.6-68.6c0-5.7,0.7-11.5,2.1-17.1c2.1-8.5,7.8-13.5,16.8-14.1
		C816.2,553.9,830,553.1,843.4,552.2z"/>
	<path class="st3" d="M1007.9,505.8c-0.9,0-1.8-0.1-2.7-0.1c-0.4,0-0.9,0-1.3,0.1c-1.2-0.1-2.4-0.2-3.7-0.2c-0.8,0-1.6,0-2.4,0
		c-3.9,0-7.7,0-11.6,0c-0.5,0-0.9-0.1-1.4-0.1c-0.9,0-1.7,0.1-2.6,0.1c-0.5,0-1,0-1.5,0c-2.9,0-5.7,0-8.6,0
		c-0.8,0.1-1.5,0.3-2.3,0.4c-26.8,0-53.5,0-81,0c0.7-5,1.1-9.8,2.2-14.5c3.1-13.4,5.4-27.1,10.1-39.9c8.7-24.1,26.8-38.5,52-42.2
		c16.7-2.5,32.1,3.3,45.4,13.8c13,10.3,20.1,24.4,24.2,40c3,11.5,4.8,23.4,7.2,35.1c0.5,2.4,0.8,4.8,1.2,7.7c-7.7,0-15,0-22.2,0
		C1008.7,505.9,1008.3,505.8,1007.9,505.8z"/>
	<path class="st4" d="M969.9,505.9c0.8-0.1,1.5-0.3,2.3-0.4C971.4,505.6,970.7,505.7,969.9,505.9z"/>
	<path class="st4" d="M997.8,505.5c0.8,0,1.6,0,2.4,0C999.4,505.5,998.6,505.5,997.8,505.5z"/>
	<path class="st4" d="M980.8,505.5c0.5,0,1,0,1.5,0C981.7,505.5,981.3,505.5,980.8,505.5z"/>
	<path class="st4" d="M984.8,505.4c0.5,0,0.9,0.1,1.4,0.1C985.7,505.5,985.3,505.5,984.8,505.4z"/>
	<path class="st4" d="M1003.9,505.8c0.4,0,0.9,0,1.3-0.1C1004.7,505.7,1004.3,505.7,1003.9,505.8z"/>
	<path class="st4" d="M1007.9,505.8c0.4,0,0.8,0.1,1.2,0.1C1008.7,505.9,1008.3,505.8,1007.9,505.8z"/>
</g>
</svg>
