<svg id="Layer_1" data-name="Layer 1" xmlns="http://www.w3.org/2000/svg" viewBox="0 0 436.42 481.21"><defs><style>.cls-1{fill:#fff;}</style></defs><path d="M757.83,316.06H1162q6.11,240.39,12.22,481.21H737.81Q747.82,556.84,757.83,316.06ZM785.07,752h341.86q-4.35-195.54-8.68-390.65H801.61C796.11,491.34,790.61,621.27,785.07,752Z" transform="translate(-737.81 -316.06)"/><path class="cls-1" d="M785.07,752c5.54-130.68,11-260.61,16.54-390.65h316.64q4.34,195.42,8.68,390.65ZM943.48,564.21c21.67-.06,40.25-3.92,54.85-11.83,37.25-20.19,57.81-51.49,60.78-94,.2-2.89.85-4.7,3.39-6.51a32.35,32.35,0,0,0,14.22-27.75,33.59,33.59,0,0,0-63.35-15.08c-7.12,13.45-4.27,30.48,7.62,40.42,4.23,3.53,4.92,6.61,4.13,11.75-4,26.21-16.18,46.76-39.6,60.25-25.27,14.57-62.17,11.34-84.53-7.22-17.72-14.71-26.25-33.82-29.09-56.12-.41-3.22.25-5,2.86-7a33.2,33.2,0,0,0,11-38.49A33.93,33.93,0,0,0,852.94,391c-14,.58-26.9,10.6-30.79,23.87a34.37,34.37,0,0,0,12.75,37.27,8.74,8.74,0,0,1,3,5.5c1.41,13.79,3.6,27.35,9.57,40C867.66,540.56,902,561.87,943.48,564.21Z" transform="translate(-737.81 -316.06)"/><path d="M943.48,564.21c-41.5-2.34-75.82-23.65-96-66.54-6-12.69-8.16-26.25-9.57-40a8.74,8.74,0,0,0-3-5.5,34.37,34.37,0,0,1-12.75-37.27C826,401.59,839,391.57,852.94,391a33.93,33.93,0,0,1,32.82,21.65,33.2,33.2,0,0,1-11,38.49c-2.61,2-3.27,3.81-2.86,7,2.84,22.3,11.37,41.41,29.09,56.12,22.36,18.56,59.26,21.79,84.53,7.22,23.42-13.49,35.56-34,39.6-60.25.79-5.14.1-8.22-4.13-11.75-11.89-9.94-14.74-27-7.62-40.42a33.59,33.59,0,0,1,63.35,15.08,32.35,32.35,0,0,1-14.22,27.75c-2.54,1.81-3.19,3.62-3.39,6.51-3,42.47-23.53,73.77-60.78,94C983.73,560.29,965.15,564.15,943.48,564.21Z" transform="translate(-737.81 -316.06)"/></svg>