<?xml version="1.0" encoding="utf-8"?>
<!-- Generator: Adobe Illustrator 26.0.1, SVG Export Plug-In . SVG Version: 6.00 Build 0)  -->
<svg version="1.1" id="Layer_1" xmlns="http://www.w3.org/2000/svg" xmlns:xlink="http://www.w3.org/1999/xlink" x="0px" y="0px"
	 viewBox="0 0 1920 1080" style="enable-background:new 0 0 1920 1080;" xml:space="preserve">
<style type="text/css">
	.st0{display:none;}
	.st1{fill:#FDFDFD;}
	.st2{display:none;fill:#010101;}
</style>
<g>
	<path class="st0" d="M0,1080C0,720,0,360,0,0c640,0,1280,0,1920,0c0,360,0,720,0,1080C1280,1080,640,1080,0,1080z M1101.9,269
		c-1.7-9.5-3.2-18.4-4.8-27.2c-3.2-17.9-8.6-35.2-17.8-50.9c-15.3-26.1-38.2-43.1-66-53.7c-23.6-9-48.1-12.2-73.5-8.3
		c-24.9,3.8-47.4,12.5-67.7,27.4c-23.3,17.1-37.5,40.3-44.8,67.7c-3.7,13.7-5.5,28-8.3,42c-0.2,1.1-1.1,2.7-2,2.8
		c-2.2,0.4-4.4,0.2-6.7,0.2c-16.8,0-33.6,0-50.5,0c-18.4,0.1-36.9,0.1-55.3,0.5c-12.4,0.2-16.8,3.2-19.1,12.4
		c-0.7,2.7-1.2,5.5-1.3,8.3c-0.8,15.9-1.5,31.7-2.1,47.6c-0.4,12-0.7,23.9-1,35.9c-0.1,2.8,0.1,5.5,0,8.3c-0.9,22.2-2,44.3-2.8,66.5
		c-0.8,19.4-1.4,38.8-2,58.3c-1,31.9-2,63.7-3,95.6c-0.7,22.2-1.4,44.3-2,66.5c-0.4,13.6-0.7,27.3-1,40.9
		c-0.6,24.9-1.3,49.8-1.9,74.7c-0.5,19.7-0.8,39.4-1.1,59.1c-0.2,12.2-0.3,24.3-0.6,36.5c-0.3,10.9,4.3,19.5,13.3,23.2
		c3.9,1.6,7.9,3.2,12,3.7c21.1,2.9,42.3,5.8,63.5,8c19.8,2.1,39.7,3.5,59.6,5.1c14.2,1.1,28.5,2.1,42.7,2.9
		c15.3,0.8,30.7,1.7,46,1.9c28,0.3,55.9,0.5,83.9,0.2c20.9-0.2,41.7-1.2,62.6-1.9c11.7-0.4,23.4-0.9,35.2-1.7c16-1,32-2.1,47.9-3.5
		c15.8-1.4,31.6-3,47.3-4.9c17.5-2.1,35-4.1,52.3-7.2c12.9-2.3,20-7.1,20.4-24.2c0.2-7.5,0.2-15,0-22.5c-0.6-26.9-1.4-53.8-2-80.6
		c-0.6-28-1.1-56-1.7-84c-0.3-13-0.4-26.1-0.8-39.1c-0.7-20-1.8-40-2.5-60c-0.7-20.7-0.9-41.4-1.6-62c-1-29.5-2.3-59.1-3.3-88.6
		c-0.7-22.1-1-44.3-1.7-66.4c-0.8-24.6-1.8-49.1-2.7-73.7c-0.2-5.3-0.2-10.6-1-15.9c-2.2-14.3-3-16.9-14.9-18.3
		c-13.9-1.7-28.1-1.7-42.2-1.9c-14.2-0.2-28.3,0.4-42.5,0.6c-6,0.1-12,0-18,0C1112.7,269,1107,269,1101.9,269z"/>
	<path class="st1" d="M1101.9,269c5.2,0,10.8,0,16.4,0c6,0,12,0.1,18,0c14.2-0.2,28.3-0.8,42.5-0.6c14.1,0.2,28.2,0.2,42.2,1.9
		c11.9,1.4,12.6,4,14.9,18.3c0.8,5.2,0.8,10.6,1,15.9c0.9,24.6,1.9,49.1,2.7,73.7c0.7,22.1,1,44.3,1.7,66.4
		c1,29.5,2.3,59.1,3.3,88.6c0.7,20.7,0.9,41.4,1.6,62c0.7,20,1.8,40,2.5,60c0.5,13,0.6,26.1,0.8,39.1c0.6,28,1,56,1.7,84
		c0.6,26.9,1.4,53.8,2,80.6c0.2,7.5,0.2,15,0,22.5c-0.4,17.1-7.5,21.9-20.4,24.2c-17.3,3.1-34.8,5.1-52.3,7.2
		c-15.7,1.9-31.5,3.5-47.3,4.9c-16,1.4-31.9,2.5-47.9,3.5c-11.7,0.7-23.4,1.2-35.2,1.7c-20.9,0.7-41.7,1.7-62.6,1.9
		c-28,0.3-55.9,0.2-83.9-0.2c-15.3-0.2-30.7-1.1-46-1.9c-14.3-0.8-28.5-1.8-42.7-2.9c-19.9-1.6-39.8-3-59.6-5.1
		c-21.2-2.3-42.3-5.1-63.5-8c-4.1-0.6-8.2-2.1-12-3.7c-8.9-3.7-13.6-12.3-13.3-23.2c0.3-12.2,0.4-24.3,0.6-36.5
		c0.4-19.7,0.7-39.4,1.1-59.1c0.6-24.9,1.3-49.8,1.9-74.7c0.4-13.6,0.6-27.3,1-40.9c0.6-22.2,1.3-44.3,2-66.5c1-31.9,2-63.7,3-95.6
		c0.6-19.4,1.2-38.8,2-58.3c0.9-22.2,1.9-44.3,2.8-66.5c0.1-2.8,0-5.5,0-8.3c0.3-12,0.6-23.9,1-35.9c0.6-15.9,1.3-31.7,2.1-47.6
		c0.1-2.8,0.6-5.6,1.3-8.3c2.3-9.3,6.7-12.2,19.1-12.4c18.4-0.3,36.9-0.4,55.3-0.5c16.8-0.1,33.6,0,50.5,0c2.2,0,4.5,0.2,6.7-0.2
		c0.8-0.2,1.7-1.8,2-2.8c2.8-14,4.6-28.3,8.3-42c7.4-27.4,21.5-50.6,44.8-67.7c20.3-14.9,42.8-23.7,67.7-27.4
		c25.4-3.8,49.9-0.7,73.5,8.3c27.7,10.6,50.7,27.6,66,53.7c9.2,15.8,14.6,33,17.8,50.9C1098.6,250.6,1100.2,259.5,1101.9,269z
		 M813,323c-1.4,0.1-3.2,0.4-4.9,0.5c-19.1,0.2-38.3,0.3-57.4,0.6c-7,0.1-11.2,3.8-11.6,10c-0.8,12.2-1.5,24.4-2,36.7
		c-0.3,7.9,0,15.8-0.3,23.7c-0.8,17.5-2,35-2.6,52.5c-0.9,21.6-1.3,43.2-2,64.8c-0.6,19.1-1.3,38.2-2,57.2
		c-0.6,16.7-1.3,33.5-2,50.2c-0.6,15.9-1.4,31.8-2,47.8c-1.1,27.8-2.1,55.6-3.1,83.4c-0.3,8.5-0.7,16.9-1.1,25.4
		c-0.9,18.8-2.5,37.7-2.6,56.5c-0.1,11.4,2.1,17.4,17,20.7c7.3,1.6,14.8,3,22.2,4.1c23.5,3.4,47.1,7.1,70.7,9.8
		c17.9,2.1,35.9,3,53.9,4.1c18,1.1,36,2,54,2.8c6.8,0.3,13.6,0.1,20.4,0c18.5-0.3,37-0.4,55.5-1.1c13.2-0.5,26.4-1.7,39.7-2.7
		c12.4-0.9,24.8-1.8,37.1-3.1c18.2-2,36.3-4.3,54.4-6.9c13.7-2,27.3-4.4,40.8-7.1c6.8-1.3,13.1-4.4,14.8-12
		c1.1-4.8,1.2-9.9,1.1-14.8c-0.3-10.5-1.2-20.9-1.8-31.3c-0.7-13.7-1.4-27.5-2-41.2c-0.7-16.1-1.4-32.2-2-48.4
		c-0.6-15.3-1.4-30.5-2-45.7c-0.7-19.5-1.4-38.9-2.1-58.4c-0.4-13-0.5-25.9-1.1-38.9c-0.8-19.6-2-39.3-2.8-58.9
		c-0.8-20.5-1.4-41-2.1-61.5c-0.7-20.2-1.2-40.3-2-60.5c-0.6-15-1.3-30.1-2.1-45.1c-0.4-8.7-3.5-11.9-12-12.2
		c-16-0.5-32.1-0.7-48.1-1c-4.9-0.1-9.9,0-13.9,0c0,11.2-0.1,21.3,0.1,31.4c0,1.3,1.2,2.8,2.3,3.7c14,11.5,20.3,26.3,16.3,44.1
		c-7.1,31-43.8,42.2-67.1,24.3c-20.9-16.1-22.3-47.7-3.1-64.7c1.1-1,2.4-2.7,2.4-4c-0.1-11.5-0.6-23.1-0.9-34.5
		c-65.1,0-129.4,0-195.1,0c0,11.1-0.1,22,0.1,32.8c0,2,1.2,4.5,2.6,5.8c10.9,10.1,15.3,22.8,13,37c-5.4,33.5-44,47.4-70,25.6
		c-19.9-16.7-19.5-49.9,2.1-65.2c1.4-1,3-2.7,3-4.1C813.1,344.7,813,334.1,813,323z M1053.9,268.6c-3.4-12.7-6.4-24.8-9.8-36.9
		c-5.1-18.4-16.6-32.1-32.7-41.8c-17.9-10.8-37.3-15.6-58.3-14.1c-15.7,1.1-30.2,5.5-43.6,13.5c-15.3,9.2-27.1,21.8-32.6,39
		c-4.2,13.1-7.3,26.6-10.9,40.2C929.2,268.6,990.9,268.6,1053.9,268.6z"/>
	<path class="st2" d="M813,323c0,11.1,0.1,21.7-0.1,32.3c0,1.4-1.7,3.2-3,4.1c-21.6,15.3-22,48.5-2.1,65.2c26,21.8,64.5,8,70-25.6
		c2.3-14.2-2.1-26.9-13-37c-1.5-1.4-2.6-3.8-2.6-5.8c-0.3-10.9-0.1-21.8-0.1-32.8c65.7,0,130,0,195.1,0c0.3,11.4,0.8,22.9,0.9,34.5
		c0,1.3-1.3,3-2.4,4c-19.3,17.1-17.8,48.6,3.1,64.7c23.3,18,60,6.7,67.1-24.3c4-17.7-2.3-32.5-16.3-44.1c-1.1-0.9-2.3-2.5-2.3-3.7
		c-0.2-10.1-0.1-20.2-0.1-31.4c4,0,9-0.1,13.9,0c16,0.3,32.1,0.5,48.1,1c8.5,0.3,11.6,3.5,12,12.2c0.8,15,1.5,30.1,2.1,45.1
		c0.8,20.2,1.3,40.3,2,60.5c0.7,20.5,1.3,41,2.1,61.5c0.8,19.6,2,39.3,2.8,58.9c0.5,12.9,0.7,25.9,1.1,38.9
		c0.6,19.5,1.3,38.9,2.1,58.4c0.6,15.3,1.3,30.5,2,45.7c0.7,16.1,1.3,32.2,2,48.4c0.6,13.7,1.3,27.5,2,41.2
		c0.5,10.4,1.4,20.9,1.8,31.3c0.2,4.9,0,10-1.1,14.8c-1.7,7.6-8,10.6-14.8,12c-13.5,2.7-27.2,5.1-40.8,7.1
		c-18.1,2.6-36.2,4.9-54.4,6.9c-12.3,1.4-24.7,2.2-37.1,3.1c-13.2,1-26.4,2.2-39.7,2.7c-18.5,0.7-37,0.8-55.5,1.1
		c-6.8,0.1-13.6,0.3-20.4,0c-18-0.8-36-1.7-54-2.8c-18-1.1-36-2.1-53.9-4.1c-23.6-2.7-47.1-6.4-70.7-9.8c-7.4-1.1-14.9-2.4-22.2-4.1
		c-14.9-3.3-17.1-9.3-17-20.7c0.1-18.8,1.7-37.7,2.6-56.5c0.4-8.5,0.8-16.9,1.1-25.4c1-27.8,2-55.6,3.1-83.4
		c0.6-15.9,1.3-31.8,2-47.8c0.7-16.7,1.4-33.5,2-50.2c0.7-19.1,1.4-38.2,2-57.2c0.7-21.6,1.2-43.2,2-64.8c0.7-17.5,1.9-35,2.6-52.5
		c0.3-7.9,0-15.8,0.3-23.7c0.5-12.2,1.2-24.5,2-36.7c0.4-6.2,4.6-9.8,11.6-10c19.1-0.3,38.3-0.4,57.4-0.6
		C809.8,323.4,811.6,323.1,813,323z"/>
	<path class="st2" d="M1053.9,268.6c-63,0-124.7,0-187.8,0c3.6-13.6,6.7-27.1,10.9-40.2c5.5-17.3,17.2-29.9,32.6-39
		c13.4-8,27.9-12.4,43.6-13.5c21-1.5,40.4,3.3,58.3,14.1c16.1,9.7,27.6,23.4,32.7,41.8C1047.5,243.8,1050.5,255.9,1053.9,268.6z"/>
</g>
</svg>
