<svg id="Layer_1" data-name="Layer 1" xmlns="http://www.w3.org/2000/svg" viewBox="0 0 471.65 526.08"><defs><style>.cls-1{fill:#eee;}.cls-2{fill:#ededed;}</style></defs><path class="cls-1" d="M749.39,383c-7.67-1.07-14.77-1.72-21.71-3.14-6.25-1.29-10.29-5.51-12.73-11.5-3.29-8.12-3.28-25.91,5.34-30.9,4-2.32,8.9-4.18,13.45-4.29,26-.68,52-.85,77.94-1,18.16-.13,36.31,0,54.58,0,1.13-7.19,1.89-14.27,3.38-21.19,5-23.1,20.28-37.15,41.79-44.24,24.52-8.07,49.77-8.29,74.21-.09,28.4,9.52,41.53,28.06,44.27,56.76.26,2.79.64,5.57,1,8.76h23.6c32.33,0,64.66-.08,97,.13a113.16,113.16,0,0,1,18.79,2c6.58,1.16,10.83,5.32,12.73,11.86a35.25,35.25,0,0,1-.12,21.08c-3.52,11-12.52,13.83-22.62,14.68-3.94.32-7.93.05-12.1.05-2.11,18.5-4.19,36.48-6.22,54.47q-4.74,42.18-9.45,84.35-3.73,33.24-7.56,66.48-4.87,42.91-9.75,85.82c-2.41,21.33-4.72,42.67-7.22,64-1.24,10.6-3.1,20.91-11,29.23-6.36,6.72-14.35,10.32-22.78,12.48-29.64,7.58-60.08,7.45-90.34,7.75-35.15.35-70.32-.06-105.47-.84-19.11-.42-38.48-1.5-56.76-7.33-18.66-6-28.2-12.84-31.25-35-4.11-29.83-7-59.83-10.38-89.75-2.85-25-5.78-49.92-8.61-74.89-3.17-28-6.23-55.91-9.38-83.86q-4.74-42.17-9.55-84.32C751.4,401.14,750.37,391.74,749.39,383ZM800,382.2c.79,8,1.48,15.45,2.26,22.89q3.79,36,7.64,72,4.2,40,8.34,79.93,4.32,41.22,8.7,82.41c2.27,21.18,4.43,42.37,7,63.51,1.75,14.25,9.93,24.06,23.72,27.66a155,155,0,0,0,33.37,5.29c29.12,1,58.28,1.15,87.43,1.2,20.14,0,40.3-.54,59.89-6.06,11.55-3.25,20.83-9.67,23.4-22,2.5-12,3.83-24.28,5.18-36.5,3-27.12,5.66-54.28,8.52-81.42q4.73-44.94,9.54-89.86,4.85-45.92,9.65-91.85c.94-9,1.77-18,2.67-27.21Zm196.55-50.29c-.71-6.47-1-12.74-2.15-18.87s-5.28-10.15-11-11.84a120.36,120.36,0,0,0-69.33,0c-5.59,1.65-9.8,5.48-10.92,11.29-1.22,6.28-1.46,12.73-2.17,19.41Z" transform="translate(-712.92 -260.55)"/><path class="cls-2" d="M998.78,674.08c-3.5,0-7,0-10.5,0-6-.07-7.42-1.3-7.06-7.42.52-9,1.32-17.94,2.28-26.88q4.69-44.19,9.61-88.35,5.37-48.12,11-96.22c.93-7.95,2.56-9.1,10.65-9.1,6.33,0,12.67,0,19,0,6.16.05,7.5,1.12,7.17,7.37-.5,9.63-1.36,19.25-2.37,28.85q-4.72,44.94-9.72,89.84-5.26,46.88-10.88,93.69c-.85,7.12-2.26,8.17-9.17,8.24-3.33,0-6.66,0-10,0Z" transform="translate(-712.92 -260.55)"/><path class="cls-2" d="M898.39,674.1c-3.67,0-7.35-.22-11,0-4.92.34-7-2.42-7.63-6.64-1.32-8.71-2.62-17.43-3.6-26.18-3-26.62-5.85-53.25-8.73-79.88Q863.17,522,859,482.52c-1-9.1-1.74-18.22-2.51-27.34-.66-7.75.59-9.05,8.46-9.09q9.73-.06,19.49,0c6.07.06,7.66,1.14,8.51,7.37q3.24,24,5.94,48,4.49,39.69,8.67,79.4c2.93,28,5.81,56,8.38,84,.81,8.72-.14,9.25-9,9.23Z" transform="translate(-712.92 -260.55)"/></svg>