<svg id="Layer_1" data-name="Layer 1" xmlns="http://www.w3.org/2000/svg" viewBox="0 0 394.7 469.46"><path d="M949,582.87c33.46,1,66.95,1.55,100.38,3.22,23.44,1.17,46.81,3.89,68.83,13,14,5.79,24.2,16,27.18,30.78,1.72,8.48.33,18-1.48,26.69-4,19.17-13.12,36.45-24.71,51.9-8.71,11.62-19.22,22.13-30.1,31.81-17.33,15.41-37.79,26.29-59.44,34.1a241.94,241.94,0,0,1-53.69,12.86c-22.07,2.61-43.95,1.46-65.7-1.48a154.9,154.9,0,0,1-36.14-9.36,382.69,382.69,0,0,1-46.19-22.09c-18.63-10.46-34.18-25.14-46.81-42.2-8.43-11.38-15.18-24.2-21.31-37-6.28-13.13-9.63-27.37-7.89-42.14,1.06-9,4.57-17.24,11.55-23.46,14.2-12.66,31.88-16.54,49.88-19.46,35-5.68,70.31-6,105.62-6.22,10-.07,20,0,30,0Zm-.32,42.45v.12c-35.65,0-71.31-.19-107,.11-12.27.11-24.63.82-36.15,6.1-5.6,2.57-9.56,7.47-10,12.7-.48,6.16,1.37,12.87,3.62,18.81,4.65,12.26,12.56,22.64,21.06,32.52a155.6,155.6,0,0,0,49.26,38.47c28.43,14,58.71,19.63,90.47,17.81a172.58,172.58,0,0,0,69.4-18.48,158.88,158.88,0,0,0,60.11-53.67c6.41-9.55,12.28-19.81,12.49-32.11.11-5.89-4.77-13.81-10.19-16.13-13.38-5.7-27.55-6.07-41.67-6.17C1016.28,625.15,982.46,625.32,948.63,625.32Z" transform="translate(-751.42 -319.18)"/><path d="M1059.1,429.38c-.65,61.16-48.18,110.3-110.19,110.35-62.43.06-110.63-48.88-110.47-110.44.16-62.4,49.14-110.1,110.32-110.11C1010.46,319.18,1058.36,368,1059.1,429.38ZM948,505.23c41.14,1.07,76-32.62,76.45-75.33.43-40.49-31.09-75.53-75.05-76.18A75.42,75.42,0,0,0,873,427.5C871.9,469.89,904.92,504.12,948,505.23Z" transform="translate(-751.42 -319.18)"/></svg>