<?xml version="1.0" encoding="utf-8"?>
<!-- Generator: Adobe Illustrator 26.0.1, SVG Export Plug-In . SVG Version: 6.00 Build 0)  -->
<svg version="1.1" id="Layer_1" xmlns="http://www.w3.org/2000/svg" xmlns:xlink="http://www.w3.org/1999/xlink" x="0px" y="0px"
	 viewBox="0 0 1920 1080" style="enable-background:new 0 0 1920 1080;" xml:space="preserve">
<style type="text/css">
	.st0{display:none;}
	.st1{fill:#FDFDFD;}
	.st2{fill:#81827E;}
	.st3{fill:#8A8E87;}
	.st4{fill:#83867E;}
	.st5{fill:#8E908C;}
	.st6{display:none;fill:#010101;}
</style>
<g>
	<path class="st0" d="M0,1080C0,720,0,360,0,0c640,0,1280,0,1920,0c0,360,0,720,0,1080C1280,1080,640,1080,0,1080z M961.2,981.3
		c4-0.3,10.3-1,16.5-1.2c16-0.6,31.9-1.3,47.6-5c10.5-2.5,21.4-3.5,31.6-6.7c24.7-7.7,49.5-15.4,72.2-28.3
		c5.9-3.4,12.5-5.6,18.3-9.2c9.1-5.6,17.5-12.2,26.6-17.7c18.2-11.1,33.8-25.4,49.4-39.6c13.7-12.4,25.8-26.7,38-40.7
		c19.7-22.6,35.4-47.9,46.1-75.9c4.8-12.6,8-26,10.8-39.2c3.1-14.7,5.1-29.5,2.9-44.7c-2.1-14.2-8-26.1-18.9-35.2
		c-16.6-13.8-36.8-20.2-57.6-23.5c-19.1-3-38.6-4-58-5.2c-13.7-0.9-27.5-1-41.2-1c-66.8-0.1-133.6-0.2-200.4,0
		c-64.4,0.2-128.8,0.7-193.2,0.9c-24.3,0.1-48.6,1.1-72.6,5c-18.3,2.9-35.9,7.5-51.9,17.1c-19.6,11.8-28.9,29.4-29.3,52.1
		c-0.3,16.6,2.4,32.9,6.7,48.7c3.5,12.9,7.8,25.8,13.6,37.8c7.1,14.9,15.1,29.6,24.6,43.1c12.3,17.3,25.7,34,41.6,48.4
		c14.9,13.5,29.1,28.1,45.1,40.1c17.4,13.1,36.3,24.3,55,35.5c10.9,6.5,22.4,12.7,34.4,16.7c20.8,7,41.4,14.7,63.2,19.1
		C907.6,977.7,933.1,980.2,961.2,981.3z M1151.2,344.6c-0.8-44-20.7-90.7-60.8-128.2c-40.1-37.5-88.3-54.2-142.7-51.2
		c-48.3,2.7-90.2,22.2-124,56.3c-36.5,36.8-55.3,82.5-55.3,134.4c0,52,18.5,97.7,55.3,134.9c35.5,35.9,79.3,55.3,129.7,56.9
		c53.7,1.7,101-16.2,139.7-53.7C1131.9,456.3,1151.2,409.8,1151.2,344.6z"/>
	<path class="st1" d="M961.2,981.3c-28-1.1-53.5-3.6-79-8.7c-21.8-4.4-42.4-12.1-63.2-19.1c-12-4-23.5-10.2-34.4-16.7
		c-18.7-11.2-37.6-22.4-55-35.5c-16-12.1-30.1-26.7-45.1-40.1c-15.9-14.4-29.3-31-41.6-48.4c-9.5-13.4-17.5-28.2-24.6-43.1
		c-5.8-12-10-24.9-13.6-37.8c-4.3-15.9-7-32.1-6.7-48.7c0.4-22.7,9.7-40.3,29.3-52.1c16-9.7,33.7-14.2,51.9-17.1
		c24.1-3.9,48.3-4.9,72.6-5c64.4-0.2,128.8-0.8,193.2-0.9c66.8-0.2,133.6-0.1,200.4,0c13.7,0,27.5,0.2,41.2,1
		c19.4,1.3,38.9,2.2,58,5.2c20.8,3.3,40.9,9.7,57.6,23.5c10.9,9.1,16.8,21,18.9,35.2c2.2,15.2,0.2,30-2.9,44.7
		c-2.8,13.3-6,26.6-10.8,39.2c-10.7,28-26.4,53.3-46.1,75.9c-12.2,14-24.3,28.2-38,40.7c-15.6,14.1-31.2,28.5-49.4,39.6
		c-9.1,5.5-17.5,12.1-26.6,17.7c-5.8,3.6-12.4,5.8-18.3,9.2c-22.7,12.9-47.5,20.6-72.2,28.3c-10.2,3.2-21.1,4.2-31.6,6.7
		c-15.7,3.7-31.6,4.5-47.6,5C971.4,980.3,965.2,981,961.2,981.3z M1017,677c-3.6,0-7.3,0.1-10.9,0.1c-0.8,0.1-1.5,0.3-2.3,0.4
		c-8.5,0-17.1-0.1-25.6-0.1c-0.4,0-0.9-0.1-1.3-0.1c-0.6,0-1.1,0.1-1.7,0.1c-0.4,0-0.9-0.1-1.3-0.1c-0.9,0.1-1.8,0.2-2.7,0.3
		c-1.1-0.2-2.2-0.4-3.2-0.5c-7.3,0-14.6,0-21.9,0c-0.4,0.1-0.8,0.1-1.2,0.2c-0.5,0.1-1.1,0.2-1.6,0.3c-0.8,0-1.6,0.1-2.4,0.1
		c-12.2,0.1-24.5,0.2-36.7,0.3c-0.4-0.2-0.8-0.4-1.3-0.6c-2.2,0.1-4.4,0.2-6.7,0.3c-0.5,0-0.9-0.1-1.4-0.1c-1.5,0-3.1,0-4.6,0
		c-0.8-0.1-1.6-0.1-2.4-0.2c-2.9,0-5.8,0.1-8.6,0.1c-0.5,0-0.9-0.1-1.4-0.1c-1.9,0.1-3.7,0.1-5.6,0.2c-0.8-0.1-1.5-0.3-2.3-0.4
		c-20.5,0.3-40.9,0.5-61.4,1c-25.3,0.5-50.6,1-75.9,2.1c-16.2,0.7-32.4,3.6-46.8,11.2c-6,3.2-11.7,9.6-14.5,15.9
		c-5.9,12.7-0.2,25.4,4.3,37.5c2.6,7,6.8,13.6,11.2,19.6c8.8,12.2,18,24.2,27.6,35.8c15.3,18.5,33.2,34.4,52.4,48.6
		c15,11.1,31.7,20.2,48,29.5c9.2,5.3,18.7,10.1,28.7,13.6c19.7,6.9,39.4,14.1,60.3,16.7c15.6,1.9,31.2,4,46.9,5.4
		c6.8,0.6,13.8-0.4,20.8-0.8c9.9-0.6,19.8-0.8,29.5-2.2c13.6-2,27.3-3.9,40.4-7.9c19.2-5.8,38.9-10.6,56.3-21.6
		c8.1-5.1,17.6-7.8,25.8-12.8c21.3-12.9,41.2-27.7,59.3-44.8c13.4-12.7,26.2-26.2,37.4-41c13.3-17.5,25.3-35.5,30-57.3
		c1.7-8.1,0.9-16.2-3.7-23.1c-8.1-12.3-21.6-15.9-34.8-18.9c-20.7-4.6-41.9-4.7-62.9-5.4c-19.5-0.6-39,0-58.5-0.1
		c-10.1-0.1-20.2-0.6-30.3-0.9c-0.4,0.1-0.8,0.1-1.1,0.2c-2.9,0.1-5.8,0.1-8.7,0.2c-0.4,0-0.9,0-1.3-0.1c-4.2,0.1-8.5,0.2-12.7,0.3
		c-0.4-0.1-0.9-0.2-1.3-0.3c-4.9,0-9.8,0-14.7-0.1C1019.1,677.2,1018,677.1,1017,677z"/>
	<path class="st1" d="M1151.2,344.6c0,65.2-19.3,111.7-58.1,149.3c-38.7,37.5-86,55.4-139.7,53.7c-50.4-1.6-94.2-21-129.7-56.9
		c-36.8-37.2-55.3-82.9-55.3-134.9c0-51.8,18.9-97.5,55.3-134.4c33.8-34.2,75.7-53.7,124-56.3c54.4-3,102.7,13.7,142.7,51.2
		C1130.5,253.9,1150.3,300.6,1151.2,344.6z M969.9,485.2c28-0.4,60.8-14.4,86.4-43.3c24.9-28.1,35.4-61.3,31.8-98.8
		c-3-30.8-15.8-57.1-37.5-78.6c-25.2-24.9-56.5-37.8-92-37.2c-69.8,1.1-132.3,57.5-127.2,139C835.2,428.3,887,484.7,969.9,485.2z"/>
	<path class="st0" d="M1006.1,677.1c3.6,0,7.3-0.1,10.9-0.1c1.1,0.1,2.1,0.2,3.2,0.3c4.9,0,9.8,0,14.7,0.1c0.4,0.1,0.9,0.2,1.3,0.3
		c4.2-0.1,8.5-0.2,12.7-0.3c0.4,0,0.9,0,1.3,0.1c2.9-0.1,5.8-0.1,8.7-0.2c0.4-0.1,0.8-0.1,1.1-0.2c10.1,0.3,20.2,0.8,30.3,0.9
		c19.5,0.1,39-0.5,58.5,0.1c21,0.6,42.2,0.8,62.9,5.4c13.2,2.9,26.6,6.6,34.8,18.9c4.6,6.9,5.4,14.9,3.7,23.1
		c-4.7,21.9-16.7,39.8-30,57.3c-11.3,14.9-24,28.3-37.4,41c-18.1,17.1-38,31.9-59.3,44.8c-8.2,5-17.7,7.7-25.8,12.8
		c-17.4,11-37.1,15.9-56.3,21.6c-13.1,3.9-26.8,5.9-40.4,7.9c-9.7,1.4-19.7,1.6-29.5,2.2c-6.9,0.4-13.9,1.4-20.8,0.8
		c-15.7-1.4-31.3-3.5-46.9-5.4c-20.9-2.6-40.6-9.8-60.3-16.7c-9.9-3.5-19.5-8.4-28.7-13.6c-16.3-9.3-32.9-18.4-48-29.5
		c-19.2-14.2-37.1-30.1-52.4-48.6c-9.6-11.6-18.8-23.6-27.6-35.8c-4.4-6.1-8.6-12.7-11.2-19.6c-4.5-12-10.1-24.7-4.3-37.5
		c2.9-6.3,8.5-12.7,14.5-15.9c14.4-7.6,30.6-10.5,46.8-11.2c25.3-1.1,50.6-1.5,75.9-2.1c20.5-0.4,40.9-0.6,61.4-1
		c0.8,0.1,1.5,0.3,2.3,0.4c1.9-0.1,3.7-0.1,5.6-0.2c0.5,0,0.9,0.1,1.4,0.1c2.9,0,5.8-0.1,8.6-0.1c0.8,0.1,1.6,0.1,2.4,0.2
		c1.5,0,3.1,0,4.6,0c0.5,0,0.9,0.1,1.4,0.1c2.2-0.1,4.4-0.2,6.7-0.3c0.4,0.2,0.8,0.4,1.3,0.6c12.2-0.1,24.5-0.2,36.7-0.3
		c0.8,0,1.6-0.1,2.4-0.1c0.5-0.1,1.1-0.2,1.6-0.3c0.4-0.1,0.8-0.1,1.2-0.2c7.3,0,14.6,0,21.9,0c1.1,0.2,2.2,0.4,3.2,0.5
		c0.9-0.1,1.8-0.2,2.7-0.3c0.4,0,0.9,0.1,1.3,0.1c0.6,0,1.1-0.1,1.7-0.1c0.4,0,0.9,0.1,1.3,0.1c8.5,0,17.1,0.1,25.6,0.1
		C1004.6,677.4,1005.3,677.3,1006.1,677.1z"/>
	<path class="st2" d="M971.2,677.6c-1.1-0.2-2.2-0.4-3.2-0.5C969,677.2,970.1,677.4,971.2,677.6z"/>
	<path class="st3" d="M1020.2,677.3c-1.1-0.1-2.1-0.2-3.2-0.3C1018,677.1,1019.1,677.2,1020.2,677.3z"/>
	<path class="st4" d="M872.2,677.5c-0.8-0.1-1.5-0.3-2.3-0.4C870.7,677.2,871.5,677.4,872.2,677.5z"/>
	<path class="st4" d="M890.2,677.5c-0.8-0.1-1.6-0.1-2.4-0.2C888.6,677.4,889.4,677.4,890.2,677.5z"/>
	<path class="st5" d="M943.2,677.5c-0.8,0-1.6,0.1-2.4,0.1C941.6,677.5,942.4,677.5,943.2,677.5z"/>
	<path class="st2" d="M1006.1,677.1c-0.8,0.1-1.5,0.3-2.3,0.4C1004.6,677.4,1005.3,677.3,1006.1,677.1z"/>
	<path class="st4" d="M879.2,677.4c-0.5,0-0.9-0.1-1.4-0.1C878.3,677.4,878.7,677.4,879.2,677.4z"/>
	<path class="st4" d="M896.2,677.5c-0.5,0-0.9-0.1-1.4-0.1C895.3,677.5,895.7,677.5,896.2,677.5z"/>
	<path class="st4" d="M904.1,677.8c-0.4-0.2-0.8-0.4-1.3-0.6C903.3,677.4,903.7,677.6,904.1,677.8z"/>
	<path class="st5" d="M946,677c-0.4,0.1-0.8,0.1-1.2,0.2C945.3,677.1,945.6,677.1,946,677z"/>
	<path class="st2" d="M975.2,677.3c-0.4,0-0.9-0.1-1.3-0.1C974.3,677.3,974.7,677.3,975.2,677.3z"/>
	<path class="st2" d="M978.2,677.4c-0.4,0-0.9-0.1-1.3-0.1C977.3,677.3,977.7,677.3,978.2,677.4z"/>
	<path class="st3" d="M1036.2,677.7c-0.4-0.1-0.9-0.2-1.3-0.3C1035.3,677.5,1035.7,677.6,1036.2,677.7z"/>
	<path class="st3" d="M1050.2,677.4c-0.4,0-0.9,0-1.3-0.1C1049.3,677.3,1049.8,677.4,1050.2,677.4z"/>
	<path class="st3" d="M1060,677c-0.4,0.1-0.8,0.1-1.1,0.2C1059.3,677.2,1059.7,677.1,1060,677z"/>
	<path class="st6" d="M969.9,485.2c-82.9-0.5-134.7-56.9-138.5-118.9c-5-81.5,57.4-137.9,127.2-139c35.4-0.6,66.7,12.3,92,37.2
		c21.7,21.4,34.5,47.8,37.5,78.6c3.6,37.6-6.9,70.7-31.8,98.8C1030.7,470.8,997.9,484.8,969.9,485.2z"/>
</g>
</svg>
