<?xml version="1.0" encoding="utf-8"?>
<!-- Generator: Adobe Illustrator 26.0.1, SVG Export Plug-In . SVG Version: 6.00 Build 0)  -->
<svg version="1.1" id="Layer_1" xmlns="http://www.w3.org/2000/svg" xmlns:xlink="http://www.w3.org/1999/xlink" x="0px" y="0px"
	 viewBox="0 0 1920 1080" style="enable-background:new 0 0 1920 1080;" xml:space="preserve">
<style type="text/css">
	.st0{display:none;}
	.st1{fill:#FEFEFE;}
	.st2{display:none;fill:#010101;}
</style>
<g>
	<path class="st0" d="M0,1080C0,720,0,360,0,0c640,0,1280,0,1920,0c0,360,0,720,0,1080C1280,1080,640,1080,0,1080z M819.8,602.1
		c0-0.5,0-1,0-1.5c-6.4,0.5-12.8,0.7-19.2,1.4c-14.6,1.6-29.3,2.6-43.6,5.2c-18.2,3.3-35.5,9.6-51.6,18.9
		c-21.7,12.6-40.5,28.7-55.8,48.3c-10.1,13-19.3,26.9-27.4,41.1c-10.7,18.8-18.8,39-21.2,60.7c-1.2,11.7-1.9,23.7-0.6,35.4
		c2.3,21.2,14.2,37.3,30.7,50.1c20.1,15.6,43.4,24.8,67.8,30.9c19.8,5,40.1,8.6,60.2,12.2c14.3,2.6,28.8,4.4,43.2,6.2
		c12.5,1.6,25,2.7,37.5,3.8c16.4,1.5,32.8,2.8,49.3,3.9c7.9,0.5,15.9,0.6,23.8,0.6c31.2-0.1,62.5-0.3,93.7-0.6
		c11.1-0.1,22.2-0.6,33.2-1c5.6-0.2,11.2-0.5,16.7-1.1c15.4-1.5,30.8-3.1,46.2-4.8c11.8-1.3,23.6-2.4,35.3-4.3
		c16.3-2.6,32.5-5.9,48.7-8.7c19.1-3.4,37.7-8.8,55.7-15.9c16.6-6.6,31.9-15,45.4-27c9.7-8.6,16.8-19,20.9-31
		c6.7-19.7,5.4-39.9,0.5-60c-5.7-23.5-15.5-45.3-28.4-65.7c-18.5-29.4-42-53.9-71.9-72.1c-17.5-10.6-36.7-17.1-56.5-21.2
		c-20.9-4.3-42.3-4.6-63.5-5.2c-8.2-0.2-16.5,0.5-24.7,0.9c-14.1,0.6-28.2,1.3-42.2,2c-13.7,0.7-27.4,1.8-41.1,1.9
		c-19.6,0.1-39.2-0.2-58.8-0.9c-18.8-0.6-37.7-2.2-56.5-2.8C850.3,601.7,835,602.1,819.8,602.1z M975.8,157.5
		c-71.7,0.3-115.5,18.4-151.2,54.1c-35.5,35.5-54,79.1-54.7,129.8c-1.4,103.2,84.1,191.9,193.7,187.7
		c95.4-3.6,177.9-81.8,178.3-185.9C1142.4,241.8,1058.2,155.6,975.8,157.5z"/>
	<path class="st1" d="M819.8,602.1c15.3,0,30.5-0.4,45.8,0.1c18.8,0.6,37.7,2.2,56.5,2.8c19.6,0.7,39.2,1,58.8,0.9
		c13.7-0.1,27.4-1.2,41.1-1.9c14.1-0.7,28.2-1.3,42.2-2c8.2-0.4,16.5-1.1,24.7-0.9c21.3,0.6,42.6,0.9,63.5,5.2
		c19.9,4.1,39,10.5,56.5,21.2c29.9,18.1,53.3,42.7,71.9,72.1c12.9,20.4,22.7,42.2,28.4,65.7c4.8,20.1,6.2,40.3-0.5,60
		c-4,11.9-11.1,22.4-20.9,31c-13.5,11.9-28.8,20.4-45.4,27c-18,7.1-36.6,12.6-55.7,15.9c-16.2,2.9-32.4,6.1-48.7,8.7
		c-11.7,1.9-23.5,3-35.3,4.3c-15.4,1.7-30.8,3.3-46.2,4.8c-5.6,0.5-11.2,0.9-16.7,1.1c-11.1,0.4-22.2,0.9-33.2,1
		c-31.2,0.3-62.5,0.5-93.7,0.6c-7.9,0-15.9-0.1-23.8-0.6c-16.4-1.1-32.9-2.5-49.3-3.9c-12.5-1.1-25-2.3-37.5-3.8
		c-14.5-1.8-28.9-3.6-43.2-6.2c-20.2-3.6-40.4-7.2-60.2-12.2c-24.4-6.1-47.7-15.3-67.8-30.9c-16.5-12.8-28.4-29-30.7-50.1
		c-1.3-11.6-0.6-23.7,0.6-35.4c2.3-21.8,10.4-41.9,21.2-60.7c8.2-14.3,17.3-28.2,27.4-41.1c15.3-19.7,34.1-35.8,55.8-48.3
		c16.1-9.3,33.4-15.6,51.6-18.9c14.4-2.6,29.1-3.6,43.6-5.2c6.4-0.7,12.8-0.9,19.2-1.4C819.7,601.1,819.8,601.6,819.8,602.1z
		 M849.9,666c0-0.4,0-0.9,0-1.3c-3.8,0.4-7.5,1.1-11.3,1.2c-16.6,0.2-33.3,1-49.4,5.2c-11.7,3-23.5,6.5-34.6,11
		c-17.1,7-31.7,17.9-44.9,30.9c-16.2,15.9-29.5,33.8-35.1,56.2c-5.3,21.5,1,38,20.4,50.3c10.8,6.9,22.4,12.2,34.9,14.9
		c18.7,4.1,37.4,8,56.2,11.5c9.4,1.7,18.9,2.4,28.4,3.4c14.7,1.6,29.4,3.2,44.1,4.6c6.4,0.6,12.9,0.8,19.4,1.1
		c17,0.9,33.9,2.5,50.9,2.7c20.1,0.3,40.2-0.4,60.3-0.8c8.8-0.2,17.5-0.5,26.3-1c16.6-0.9,33.2-1.9,49.9-3c5.1-0.3,10.2-1,15.2-1.7
		c8.5-1.1,16.9-2.3,25.4-3.3c7.8-0.9,15.8-0.8,23.5-2.3c16.7-3.2,33.2-7,49.8-10.8c15.6-3.5,30.3-9.3,43.1-19.1
		c13.6-10.3,19.3-24.5,16.4-41c-3.6-20.9-14.7-38.5-28.7-54.1c-8.8-9.8-18.1-18.9-29.9-25.3c-8.9-4.8-17.2-11.2-26.5-15.2
		c-20.3-8.8-41.9-12.5-63.9-14.1c-14.7-1-29.5-1.1-44.3-1c-13.5,0.1-26.9,1.3-40.4,1.8c-19.8,0.7-39.7,1.6-59.5,1.4
		c-17.7-0.1-35.3-1.8-53-2.3C878.4,665.7,864.1,666,849.9,666z"/>
	<path class="st1" d="M975.8,157.5c82.4-1.9,166.6,84.3,166.2,185.7c-0.4,104.1-82.9,182.3-178.3,185.9
		C854,533.3,768.5,444.6,770,341.4c0.7-50.7,19.2-94.3,54.7-129.8C860.3,175.9,904.1,157.8,975.8,157.5z M829.9,343.1
		c-0.7,70.6,57,126.8,126.3,126.7c69.6-0.2,126-56.4,126-126.5c0-69.9-56.8-127-127.9-126.2C886.1,217.8,829.5,273.8,829.9,343.1z"
		/>
	<path class="st2" d="M849.9,666c14.2,0,28.5-0.3,42.7,0.1c17.7,0.5,35.3,2.2,53,2.3c19.8,0.1,39.7-0.8,59.5-1.4
		c13.5-0.4,26.9-1.7,40.4-1.8c14.8-0.2,29.6-0.1,44.3,1c21.9,1.6,43.6,5.3,63.9,14.1c9.3,4,17.5,10.3,26.5,15.2
		c11.8,6.4,21.2,15.6,29.9,25.3c14,15.6,25,33.2,28.7,54.1c2.9,16.5-2.8,30.7-16.4,41c-12.8,9.7-27.5,15.5-43.1,19.1
		c-16.6,3.7-33.1,7.6-49.8,10.8c-7.7,1.5-15.7,1.4-23.5,2.3c-8.5,0.9-16.9,2.2-25.4,3.3c-5.1,0.6-10.2,1.3-15.2,1.7
		c-16.6,1.1-33.2,2.1-49.9,3c-8.8,0.5-17.5,0.8-26.3,1c-20.1,0.4-40.2,1.1-60.3,0.8c-17-0.3-33.9-1.8-50.9-2.7
		c-6.5-0.4-12.9-0.5-19.4-1.1c-14.7-1.4-29.4-3-44.1-4.6c-9.5-1-19-1.7-28.4-3.4c-18.8-3.5-37.5-7.4-56.2-11.5
		c-12.5-2.7-24.1-8-34.9-14.9c-19.4-12.4-25.8-28.8-20.4-50.3c5.6-22.4,18.9-40.3,35.1-56.2c13.2-12.9,27.8-23.9,44.9-30.9
		c11.2-4.6,22.9-8,34.6-11c16.2-4.2,32.8-5,49.4-5.2c3.8-0.1,7.5-0.8,11.3-1.2C849.9,665.1,849.9,665.6,849.9,666z"/>
	<path class="st2" d="M829.9,343.1c-0.4-69.3,56.2-125.3,124.3-126.1c71.1-0.8,127.9,56.3,127.9,126.2c0,70.1-56.3,126.4-126,126.5
		C886.9,470,829.2,413.7,829.9,343.1z"/>
</g>
</svg>
