<svg id="Layer_1" data-name="Layer 1" xmlns="http://www.w3.org/2000/svg" viewBox="0 0 397.59 476.61"><defs><style>.cls-1{fill:#fff;}</style></defs><path class="cls-1" d="M948.84,581.47c32,.88,64,1.16,95.9,2.82,25.4,1.33,50.86,3.72,74.7,13.81,13.9,5.88,24,16.17,27.12,30.95,1.75,8.2.81,17.37-.76,25.77a93.23,93.23,0,0,1-8.65,25.94,270.92,270.92,0,0,1-21.71,34.57c-13.3,18-30.61,32.18-49.79,43.35A229.84,229.84,0,0,1,1015,780.54a230.77,230.77,0,0,1-124.16,2.36,226,226,0,0,1-56.27-22.6,178.58,178.58,0,0,1-42.32-33,185.63,185.63,0,0,1-31-44.47c-8-16.16-13.24-33.78-10.71-52A36.07,36.07,0,0,1,762.77,608c15.47-13.16,34.27-17,53.42-19.91,36.51-5.54,73.35-5.56,110.15-6,7.49-.08,15,0,22.49,0C948.83,581.91,948.84,581.69,948.84,581.47Zm-.35,45.46c-35.66,0-71.32-.12-107,.09a113.69,113.69,0,0,0-23.33,2.12c-5.76,1.25-11.86,3.68-16.36,7.36-8.33,6.82-5.51,16.39-2.27,24.37,9.53,23.45,26.29,41.7,46,56.78,23.4,17.91,50.37,28.23,79.7,31.8,30.08,3.66,59.37.58,87.81-10.38a158.64,158.64,0,0,0,41.46-23.63,149.7,149.7,0,0,0,31.77-33.68c6.77-10,13.36-20.23,14-33a17.14,17.14,0,0,0-10.1-16.25c-10.36-4.43-21.32-5.36-32.27-5.44C1021.47,626.76,985,626.93,948.49,626.93Z" transform="translate(-749.91 -313.66)"/><path class="cls-1" d="M832.89,428.87c.86-65.51,52.73-115.7,116.17-115.21,66.39.51,115.63,52.39,115.44,115.91-.2,66.28-52.25,115.87-116.14,115.68C883.47,545.07,832,492.17,832.89,428.87ZM1023.11,430c.48-40.64-32.7-74.39-73.76-75-40.63-.63-75.05,32.81-75.05,74.22,0,40.91,31.44,73.87,74,74.75C988.78,504.77,1022.63,471,1023.11,430Z" transform="translate(-749.91 -313.66)"/></svg>