<?xml version="1.0" encoding="UTF-8"?>
<svg id="Layer_1" data-name="Layer 1" xmlns="http://www.w3.org/2000/svg" viewBox="0 0 1364 1473">
  <defs>
    <style>
      .cls-1 {
        fill: #4093a4;
      }
    </style>
  </defs>
  <path class="cls-1" d="m682.54,1278.78c-7.33,12.52-14.3,25.78-22.57,38.17-9.05,13.56-21.72,23.2-37,29.29-22.96,9.17-46.21,7.49-69.69,2.43-27.85-6-54.23-16.19-80.17-27.62-39.99-17.62-78.8-37.68-116.31-60.04-25.58-15.25-50.54-31.65-74.97-48.68-20.78-14.49-39.42-31.66-53.67-52.98-1.89-2.82-2.87-6.26-4.24-9.43-.26-.6-.26-1.33-.6-1.86-13.52-21.79-12.48-44.66-4.56-67.8,6.76-19.75,18.88-36.64,29.85-54.13,23.46-37.41,46.54-75.05,70.4-112.2,26.14-40.69,54.32-79.96,87.14-115.6,15.54-16.88,32.33-32.6,48.54-48.85.22-.22.31-.58.73-1.4-6.12-2.45-12.15-5.03-18.33-7.18-1.04-.36-3.02.82-4.05,1.82-6.33,6.11-12.35,12.56-18.79,18.56-11.4,10.62-23.62,20.08-36.95,28.34-21.1,13.08-43.93,21.42-68.06,25.86-15.82,2.91-32.01,4.28-48.17,1.85-11-1.65-22.07-3.06-32.93-5.42-19.53-4.25-37.43-12.55-54.58-22.8-22.1-13.21-39.88-31.01-55.58-51.05-3.19-4.07-4.74-9.39-7.4-13.94-1.37-2.35-3.87-4.03-5.22-6.39-10.36-18.05-17.46-37.34-21.28-57.8-3.46-18.56-4.23-37.17-2.63-56.09,2.05-24.31,8.91-47.11,19.45-68.78,8.18-16.8,18.98-32.01,31.81-45.74,27.49-29.42,60.66-48.77,100.02-57.72,12.75-2.9,25.51-3.91,38.51-4.56,19.11-.95,37.57,1.66,55.97,6.37,23.88,6.11,45.79,16.71,65.43,31.12,13.18,9.67,24.47,21.98,36.25,33.48,5.81,5.67,5.41,6,12.87,3.07,5.83-2.29,11.72-4.43,18.11-6.84-1.62-1.84-3.07-3.59-4.61-5.25-15.09-16.21-31.13-31.66-45.06-48.82-16.33-20.1-31.62-41.16-45.91-62.77-17.54-26.54-33.2-54.32-45.69-83.65-15.28-35.89-23.27-73.41-20.37-112.52,1.98-26.73,8.1-53.02,21.02-76.53,8.27-15.04,18.34-29.39,33.16-40.03,12-8.62,24.76-14.54,38.28-19.87,12-4.73,24.43-5.06,36.79-5.61,22.31-1,43.32,4.35,63.45,14.26,25.41,12.51,45.24,31.19,62.72,52.98,18.96,23.61,32.76,50.06,44.28,77.87,17.56,42.4,28.62,86.61,36.01,131.74,4.57,27.9,8.3,55.95,11.7,84.03,2.16,17.8,3.06,35.75,4.45,53.64.7,9.1,1.29,18.21,1.77,27.32.18,3.43,2.05,3.95,4.95,3.91,9.51-.12,19.03-.06,28.54-.06,7.32,0,14.65-.13,21.96.07,3.48.1,4.41-1.2,4.73-4.59,4.24-45.56,7.77-91.21,13.36-136.61,3.25-26.36,9.51-52.39,15.11-78.41,7.98-37.09,20.25-72.87,37.02-106.85,10.9-22.08,24.29-42.73,40.55-61.58,11.9-13.8,25.36-25.88,40.31-35.5,16.11-10.36,34.01-17.66,53.64-20.64,25.78-3.91,50.34-1.24,74.13,8.96,18.97,8.14,34.35,20.6,47.06,37.19,12.48,16.29,20,34.74,25.47,53.82,4.31,15.04,5.74,31.06,7.09,46.76,1.99,23.11-1.43,46-7.32,68.25-3.81,14.39-9.37,28.45-15.44,42.08-14.9,33.47-33.44,64.98-53.58,95.55-15.99,24.27-34.17,46.81-54.12,67.93-10.27,10.88-20.62,21.69-31.57,33.2,3.06.9,5.53,1.46,7.89,2.34,4.49,1.67,9.08,3.19,13.31,5.4,3.94,2.06,5.9.08,8.45-2.38,11.13-10.74,21.96-21.88,33.81-31.77,15.31-12.77,32.88-21.98,51.6-28.95,17.57-6.54,35.65-10.53,54.36-12.13,25.62-2.19,50.64,1.1,74.85,8.96,24.72,8.02,47.18,20.48,67.11,37.6,19.52,16.77,35.19,36.55,46.89,59.14,11.06,21.36,17.77,44.26,20.35,68.5,2.9,27.31.22,53.92-7.62,79.92-5.19,17.22-13.19,33.39-23.18,48.53-17.68,26.79-40.35,48.1-68.38,63.68-23.73,13.19-49.06,20.92-76.14,23.86-26.83,2.91-52.9-.28-78.4-7.96-17.85-5.38-34.66-13.57-50.14-24.2-14.99-10.29-29.06-21.66-40.87-35.59-8.4-9.9-8.35-9.97-20.47-5.2-2.9,1.14-5.73,2.48-6.67,2.5,5.22,6.26,10.17,12.77,15.72,18.72,11.78,12.66,24.31,24.66,35.76,37.61,46.56,52.66,84.26,111.56,120.52,171.5,15,24.8,31.08,48.94,46.37,73.58,8.98,14.47,17.47,29.47,19.48,46.68,1.98,17.07,1.68,34.03-6.13,50.28-10.91,22.71-28.05,39.9-46.97,55.65-33.32,27.74-70.24,50.1-108.26,70.6-28.73,15.49-57.76,30.48-87.23,44.49-32.39,15.4-65.85,28.28-101.49,34.22-21.07,3.51-42.02,2.63-61.61-6.58-16.3-7.66-29.24-19.63-38.17-35.49-5.6-9.93-10.9-20.03-15.91-29.28Zm49.57-346.46c.57-24.08-3.96-46.73-15.42-67.98-10.74-19.9-25.55-36.22-43.59-49.36-23.64-17.23-49.97-28.76-79.41-31.37-12.18-1.08-24.76-1.58-36.76.25-20.64,3.15-40.12,10.43-56.85,23.54-10.31,8.08-21.13,15.71-30.43,24.85-11.91,11.71-23.47,24.03-33.51,37.34-23.05,30.57-45.75,61.46-67.33,93.07-17.74,25.98-33.77,53.13-50.35,79.89-11.53,18.63-24.72,36.42-28.75,58.83-1.69,9.37.07,18.07,4.67,25.65,9.16,15.1,22.69,26.21,37.7,35.05,34.16,20.11,68.17,40.56,103.2,59.06,30.42,16.06,61.93,30.15,93.43,44.06,15.07,6.65,31.18,10.41,48.2,9.21,16.46-1.17,28.65-8.69,38.18-21.74,13.18-18.06,19.95-39.42,30.55-58.82,7.07-12.94,12.11-26.97,18.27-40.41,4.01-8.75,8.73-17.17,12.52-26.01,3.58-8.35,6.41-17.03,9.46-25.61,11.07-31.05,22.75-61.9,32.91-93.24,8.01-24.71,13.4-50.17,13.31-76.26Zm12.66-149.66c.93,1.11,1.75,2.09,2.56,3.07,10.11,12.13,20.41,24.11,30.27,36.44,10.09,12.62,17.14,27.11,22.31,42.23,9.84,28.8,8.64,58.45,3.69,87.92-5.58,33.23-13.96,65.87-25.28,97.59-10.73,30.05-22.42,59.77-34.45,89.33-6.55,16.09-14.82,31.47-22.01,47.31-1.25,2.76-2.24,6.68-1.24,9.25,4.31,11.07,9.26,21.91,14.27,32.7,3.13,6.72,6.1,13.69,10.37,19.67,5.44,7.63,11.54,14.58,20.17,19.55,9.88,5.69,20.74,7.88,30.85,6.56,14.25-1.87,28.37-6.59,41.9-11.77,35.82-13.72,70.19-30.75,103.86-49.04,25.76-13.99,51.18-28.67,76.25-43.87,14.38-8.72,28.99-17.42,40.6-30.04,14.44-15.7,18.99-33.76,10.45-53.41-5.87-13.51-13.6-26.29-21.32-38.9-26.77-43.77-53.31-87.7-83.44-129.31-23.17-31.99-46.77-63.61-75.9-90.62-12.14-11.25-25.04-21.46-39.71-29.21-16.34-8.64-33.57-14.84-52.23-15.33-17.12-.46-34.26-.1-51.98-.1Zm-62.82-87.8c0,.38.01.76.02,1.14,47.12-1.04,94.25-1.66,141.35-3.32,17.22-.61,34.51-2.58,51.08-8.32,9.5-3.29,17.24-11.39,17.32-20.38.25-27.99.27-55.98-.03-83.97-.07-6.21-2.81-11.56-8.31-15.66-8.55-6.38-18.59-8.94-28.44-9.91-26.14-2.58-52.4-4.66-78.65-5.2-43.27-.9-86.57-.64-129.86-.46-31.81.13-63.64.39-95.42,1.59-20.4.77-40.97,1.95-60.56,8.72-11.18,3.86-18.36,10.69-18.35,23.13.01,26.33-.12,52.65.06,78.98.09,13.48,5.6,18.8,15.87,22.2,14.21,4.71,29.26,7.82,44.17,9.23,20.34,1.93,40.89,1.95,61.36,2.17,29.46.32,58.93.08,88.4.08Zm273.8-72.71c0,14.83-.22,29.66.17,44.48.09,3.36,2.05,6.79,3.66,9.93,1.11,2.16,3.2,3.8,4.66,5.8,12.93,17.69,27.03,34.41,44.91,47.23,25.4,18.21,53.86,27.15,85.35,25.37,31.43-1.78,59.26-12.62,82.16-34.37,8.6-8.17,16.35-17.51,23.08-27.29,14.59-21.18,20.82-45.35,20.93-70.8.09-19.82-4.23-39-12.91-57.01-9.96-20.66-24.03-38.16-42.77-51.2-25.45-17.71-53.84-26.35-85.19-24.36-35.24,2.24-64.99,16.54-89.27,41.63-11.65,12.03-21.58,25.75-32.01,38.92-1.68,2.12-2.6,5.41-2.65,8.17-.26,14.49-.12,28.99-.12,43.49Zm-547.51.37c0-14.5.17-28.99-.14-43.48-.06-3.07-1.19-6.57-2.96-9.07-5.87-8.28-12.02-16.4-18.49-24.21-10.01-12.09-21.09-23.22-34.05-32.13-18.68-12.85-39.35-20.57-62.02-23.16-19.74-2.25-38.91-.08-57.51,6.42-29.97,10.48-53.39,29.25-70.07,56.47-16.1,26.29-22.21,54.73-18.51,85.12,4.11,33.78,19.45,61.81,44.95,84.4,14.1,12.49,30.29,21.23,48.12,26.58,24.58,7.38,49.43,7.76,74.37.84,23.04-6.39,43.12-18.07,59.58-35.02,12.36-12.73,22.98-27.16,34.12-41.04,1.6-1.99,2.46-5.12,2.5-7.74.23-14.66.11-29.32.11-43.98Zm157.93-136.66c4.4,0,7.42-.22,10.4.05,4.39.39,5.87-1.23,5.56-5.7-1.58-22.74-2.31-45.56-4.47-68.25-3.67-38.43-8.41-76.74-16.66-114.54-8.29-38-18.32-75.36-36.78-109.98-9.48-17.78-20.8-34.08-35.47-47.94-19.43-18.36-41.46-30.96-69.26-28.25-7.71.75-15.88,3.26-22.53,7.18-11.96,7.05-19.49,18.56-24.07,31.52-7.52,21.23-9,43.21-6.29,65.47,3.08,25.26,12.92,48.12,25.67,69.82,30.47,51.86,67.25,99,107.93,143.17,14.78,16.05,29.97,31.72,44.68,47.83,6.24,6.84,12.51,12.56,21.28,9.62Zm233.17-.27c8.21,2.75,13.3-2.11,18.07-7.85,2.87-3.45,5.81-6.84,8.87-10.11,18.82-20.15,37.99-39.99,56.42-60.49,10.77-11.97,20.57-24.83,30.47-37.55,10.7-13.75,21.26-27.62,31.39-41.79,6.96-9.73,13.4-19.87,19.51-30.17,5.75-9.7,11.15-19.65,15.97-29.84,4.81-10.16,9.57-20.49,12.85-31.2,6.1-19.97,7.18-40.55,4.18-61.25-3.01-20.8-8.86-40.19-26.27-54.18-6.91-5.55-14.88-8.7-23.1-9.86-22.89-3.23-43.2,4.59-61.05,18.18-24.83,18.9-41.65,44.39-54.29,72.43-12.54,27.84-21.59,57.02-27.41,87.01-5.23,26.93-9.86,54-13.89,81.14-2.48,16.74-3.53,33.71-4.89,50.6-1.61,20.04-2.9,40.11-4.2,60.18-.3,4.55,1.9,6.3,6.29,5.79,3.61-.42,7.25-.68,11.08-1.04Z"/>
  <path class="cls-1" d="m286.85,1315.16c-.13-12.54,1.71-23.3,7.22-33.14,7.25-12.94,16.12-17.82,30-11.1,8.06,3.9,15.82,8.51,23.39,13.32,17.92,11.38,36.89,20.6,56.5,28.63,5.67,2.32,11.13,5.27,16.43,8.37,13.34,7.78,13.6,18.42,7.06,30.34-12.92,23.55-33.49,35.67-60.22,37.66-39.39,2.93-74.23-25.68-79.96-65.47-.47-3.28-.34-6.65-.43-8.6Z"/>
  <path class="cls-1" d="m993.86,1393.41c-27.89-1.54-50.28-12.69-64.39-37.76-1.97-3.51-2.91-7.8-3.5-11.84-1.15-7.89,3.07-13.6,9.34-17.38,7.1-4.29,14.52-8.19,22.18-11.37,19.31-8.02,37.58-17.86,55.16-29.14,6.98-4.48,14.16-8.92,21.78-12.09,14.23-5.91,21.61-.26,27.65,10.88,15.97,29.5,7.96,67.21-17.32,89.59-12.66,11.2-32.66,19.55-50.88,19.11Z"/>
</svg>