<?xml version="1.0" encoding="UTF-8"?>
<svg id="Layer_1" data-name="Layer 1" xmlns="http://www.w3.org/2000/svg" viewBox="0 0 1115 1080">
  <defs>
    <style>
      .cls-1 {
        fill: #3d3d3d;
      }
    </style>
  </defs>
  <path class="cls-1" d="m557.27,771.84c-128.24-119.87-254.67-241.52-385.16-359.36,19.62-18.32,39.07-36.46,58.81-54.89,11.01,9.9,21.89,19.65,32.74,29.44,31.79,28.68,63.56,57.38,95.35,86.06,17.78,16.04,35.59,32.05,53.37,48.08,39.29,35.42,78.61,70.8,117.82,106.31,6.71,6.07,12.83,12.79,19.36,19.06,1.92,1.84,4.17,3.46,6.53,4.66.85.43,2.78-.3,3.68-1.1,8.94-7.9,17.78-15.92,26.63-23.92,10.22-9.23,20.47-18.43,30.64-27.71,12.55-11.46,24.94-23.12,37.58-34.48,19.36-17.4,38.98-34.52,58.32-51.95,26.9-24.24,53.58-48.74,80.48-72.98,29.99-27.04,60.13-53.92,90.21-80.86.11-.1.31-.09.98-.28,19.24,17.95,38.68,36.1,57.64,53.8-128.32,120.04-256.5,239.94-384.98,360.12Z"/>
</svg>