<?xml version="1.0" encoding="UTF-8"?>
<svg id="Layer_1" data-name="Layer 1" xmlns="http://www.w3.org/2000/svg" viewBox="0 0 1115 1080">
  <defs>
    <style>
      .cls-1 {
        fill: #3c3c3c;
      }
    </style>
  </defs>
  <path class="cls-1" d="m298.48,878.15c112.21-112.18,224.07-224,336.24-336.15-112.49-112.48-224.3-224.29-335.77-335.76,30.6-30.53,61.08-60.93,92.91-92.69.7,1.06,1.74,3.45,3.45,5.17,49.78,49.88,99.64,99.7,149.48,149.53,86.47,86.46,172.93,172.93,259.4,259.4,2.71,2.71,5.41,5.43,8.1,8.16,4.73,4.79,4.71,6.36-.23,11.3-20.83,20.84-41.67,41.67-62.51,62.51-23.56,23.57-47.12,47.13-70.66,70.71-1.4,1.41-2.53,3.08-3.95,4.48-9.99,9.85-20.09,19.6-30.04,29.49-17.14,17.03-34.2,34.15-51.29,51.22-16.8,16.78-33.63,33.54-50.42,50.34-49.9,49.93-99.79,99.87-149.69,149.8-1.27,1.27-2.62,2.45-4.25,3.97-15.3-15.55-30.27-30.86-45.35-46.05-15.14-15.26-30.39-30.4-45.43-45.42Z"/>
</svg>