<?xml version="1.0" encoding="UTF-8"?>
<svg id="Layer_1" data-name="Layer 1" xmlns="http://www.w3.org/2000/svg" viewBox="0 0 1115 1080">
  <defs>
    <style>
      .cls-1 {
        fill: #3c3c3c;
      }
    </style>
  </defs>
  <path class="cls-1" d="m815.59,876.33c-1.7,9.04-10.39,11.18-15.56,16.59-19.52,20.44-39.81,40.15-59.81,60.14-5.17,5.17-10.3,10.39-16.1,16.25-10.12-10.34-19.91-20.47-29.83-30.45-18.32-18.43-36.71-36.78-55.08-55.16-24.04-24.04-48.08-48.08-72.12-72.12-14.34-14.34-28.72-28.63-43-43.03-11.94-12.05-23.63-24.36-35.67-36.3-7.82-7.75-16.28-14.85-24.08-22.62-12.2-12.15-24.02-24.68-36.15-36.91-2.75-2.77-6.38-4.68-9.13-7.46-3.9-3.94-7.15-8.53-11.06-12.47-25.58-25.78-51.26-51.47-76.91-77.18-9.36-9.39-18.74-18.77-28.1-28.15-4.38-4.39-4.49-8.38-.02-12.79,8.99-8.87,18.24-17.48,27.15-26.43,15.61-15.69,30.94-31.65,46.56-47.32,38.77-38.9,77.63-77.71,116.46-116.54,20.33-20.34,40.64-40.7,61.04-60.97,10.85-10.78,22.01-21.26,32.8-32.1,32.88-33.03,65.65-66.17,98.48-99.25,12.9-13,25.86-25.96,38.6-38.75,30.73,30.72,61.21,61.19,90.34,90.31-111.62,111.95-223.46,224.11-335.28,336.26,112.98,112.97,224.84,224.82,336.49,336.46Z"/>
</svg>