<?xml version="1.0" encoding="UTF-8"?>
<svg id="Layer_1" data-name="Layer 1" xmlns="http://www.w3.org/2000/svg" viewBox="0 0 1115 1080">
  <defs>
    <style>
      .cls-1 {
        fill: #3c3c3c;
      }
    </style>
  </defs>
  <path class="cls-1" d="m128.99,374.96c31.52-31.48,61.92-61.84,92.63-92.51,111.82,111.54,223.8,223.24,335.72,334.89,111.35-111.39,223.15-223.22,334.63-334.74,31.16,31.23,61.57,61.7,92.54,92.74-9.03,8.91-18.75,18.41-28.37,28-22.17,22.11-44.31,44.26-66.45,66.41-23.22,23.23-46.42,46.48-69.64,69.7-57.1,57.1-114.22,114.19-171.32,171.29-27.38,27.38-54.76,54.77-82.13,82.15-1.72,1.72-3.54,3.35-5.13,5.19-2.96,3.41-5.37,2.88-8.43-.18-70.26-70.41-140.59-140.76-210.91-211.11-11.33-11.33-22.65-22.67-33.99-34-58.04-58.03-116.09-116.07-174.16-174.07-1.4-1.4-3.19-2.41-4.99-3.75Z"/>
</svg>