<?xml version="1.0" encoding="UTF-8"?>
<svg id="Layer_1" data-name="Layer 1" xmlns="http://www.w3.org/2000/svg" viewBox="0 0 1115 1080">
  <defs>
    <style>
      .cls-1 {
        fill: #3e3e3e;
      }
    </style>
  </defs>
  <path class="cls-1" d="m986.46,681.96c-17.04,23.26-33.75,46.08-50.78,69.34-7.45-6.14-14.74-12.09-21.96-18.11-76.29-63.55-152.56-127.1-228.84-190.66-18.11-15.09-36.2-30.19-54.31-45.28-9.58-7.98-19.2-15.93-28.78-23.92-13.59-11.32-27.25-22.56-40.7-34.05-2.71-2.31-4.31-2.37-7.06-.06-37.8,31.66-75.69,63.21-113.57,94.76-51.2,42.64-102.43,85.26-153.64,127.9-34.43,28.67-68.85,57.36-103.28,86.04-1.28,1.06-2.6,2.07-4.19,3.33-16.87-23-33.66-45.9-49.94-68.11,142.85-113.45,285.53-226.76,428.59-340.37,142.1,113.18,283.04,228.62,428.48,339.19Z"/>
</svg>