<?xml version="1.0" encoding="UTF-8"?>
<svg id="Layer_1" data-name="Layer 1" xmlns="http://www.w3.org/2000/svg" viewBox="0 0 835 753">
  <defs>
    <style>
      .cls-1 {
        fill: #d43727;
      }
    </style>
  </defs>
  <path class="cls-1" d="m249.82,558.77v-125.41h76.99v246.65H79.53v-77.43h111.44c-5.48-6.86-10.3-12.93-15.16-18.97-20.26-25.13-36.88-52.57-50.24-81.86-5.37-11.78-8.92-24.45-12.57-36.93-3.36-11.47-6.21-23.13-8.42-34.87-1.82-9.64-2.75-19.49-3.39-29.29-.77-11.74-1.72-23.58-.97-35.28,1.02-16.03,2.61-32.15,5.72-47.88,3.29-16.66,7.85-33.17,13.33-49.24,4.03-11.83,11.08-22.6,15.61-34.29,5.63-14.53,14.26-27.18,23.04-39.73,6.2-8.87,13.41-17.07,20.52-25.25,7.32-8.42,14.7-16.84,22.74-24.55,6.65-6.37,14.11-11.95,21.53-17.45,10.83-8.01,21.78-15.88,33-23.32,5.75-3.81,12.06-6.87,18.36-9.71,14.39-6.47,28.61-13.55,43.51-18.58,13.85-4.68,28.46-7.12,42.77-10.37,16.93-3.85,34.17-4.87,51.48-5.04,17.5-.17,34.98-.17,52.2,3.8,4.9,1.13,10.05,1.12,14.96,2.21,10.4,2.3,20.84,4.56,31.05,7.58,16.66,4.93,32.63,11.61,48.26,19.32,22.24,10.96,43.02,23.92,62.09,39.82,25,20.86,46.16,44.95,63.91,72.24,14.78,22.71,26.33,46.97,34.59,72.61,5.01,15.54,8.25,31.76,10.94,47.89,2.37,14.21,3.13,28.72,4.13,43.13,1.36,19.59-.87,38.94-3.63,58.37-2.4,16.89-6.31,33.35-11.67,49.35-8.59,25.64-19.32,50.53-35.11,72.68-12.06,16.91-25.12,33.12-38.07,49.37-4.63,5.81-9.98,11.1-15.45,16.14-5.29,4.87-11.13,9.15-16.77,13.64-8.32,6.62-16.24,13.89-25.14,19.61-9.81,6.3-20.43,11.38-30.91,16.55-7.75,3.82-9.72,2.98-13.07-4.63-5.25-11.92-10.2-23.98-15.42-35.91-2.23-5.1-4.5-10.22-7.33-14.99-2.52-4.24-.98-6.13,2.79-8,7.65-3.8,15.45-7.42,22.67-11.94,10.05-6.3,20.19-12.68,29.22-20.3,7.65-6.45,13.73-14.76,20.61-22.15,3.44-3.7,7.47-6.9,10.59-10.83,3.79-4.77,7.13-9.93,10.27-15.16,7.27-12.13,15.24-23.96,21.17-36.73,6.46-13.92,12.03-28.46,15.95-43.27,3.8-14.34,5.57-29.31,7.19-44.12,1.24-11.34,1.54-22.89.99-34.28-.56-11.58-1.97-23.23-4.25-34.6-10.06-50.3-35.3-96.76-76.02-133.68-23.63-21.43-50.65-37.66-80.8-48.51-16.43-5.91-33.27-10-50.58-12.17-7.64-.96-15.26-2.5-22.92-2.74-9.4-.3-18.84.28-28.25.82-22.41,1.29-44.1,6.15-65.26,13.59-17.75,6.25-34.45,14.58-50.29,24.75-23.63,15.18-43.97,33.87-61.34,55.94-13.26,16.85-24.15,35.2-32.39,54.82-7.24,17.22-12.81,35.13-15.86,53.82-2.77,17.02-4.43,34.05-3.75,51.21.81,20.46,3.61,40.71,10.08,60.26,3.84,11.6,6.8,23.74,12.41,34.46,8.52,16.26,18.58,31.76,28.79,47.05,6.88,10.31,14.3,20.37,23.1,29.25,1,1.01,1.88,2.13,2.82,3.2l1.49-.66Z"/>
</svg>