<?xml version="1.0" encoding="UTF-8"?>
<svg id="Layer_1" data-name="Layer 1" xmlns="http://www.w3.org/2000/svg" viewBox="0 0 835 753">
  <path d="m418.2,114.59c151.9,3.09,261.84,122.82,260.72,262.99-1.21,150.49-121.1,261.18-261.88,260.38-151.63-.86-262.24-122.06-260.95-262.79,1.39-151.48,122.44-259.5,262.11-260.58Zm-.88,36.7c-128.63,3.16-224.68,101.85-224.37,225.26.33,129.27,102.11,225.26,224.97,224.53,130.62-.78,224.76-103.58,224.13-224.88-.68-129.62-102.34-222.59-224.73-224.91Z"/>
  <path d="m387.54,376.23c-36.47-36.45-72.6-72.56-108.33-108.28,10.21-10.21,19.81-19.81,29.55-29.55,35.62,35.65,71.82,71.87,108.24,108.33,36.9-36.9,73.03-73.04,109.09-109.1,9.93,10.06,19.49,19.74,29.25,29.63-35.71,35.69-71.83,71.8-108.18,108.14,36.79,36.78,73.01,72.99,108.84,108.81-10.29,10.35-19.88,20-29.58,29.75-35.87-35.9-71.97-72.05-107.98-108.1-36.64,36.69-72.72,72.82-108.28,108.43-10.53-10.55-20.2-20.23-30.34-30.39,35.34-35.33,71.46-71.43,107.72-107.67Z"/>
</svg>