<?xml version="1.0" encoding="UTF-8"?>
<svg id="Layer_1" data-name="Layer 1" xmlns="http://www.w3.org/2000/svg" viewBox="0 0 1115 1080">
  <defs>
    <style>
      .cls-1 {
        fill: #3c3b3b;
      }
    </style>
  </defs>
  <path class="cls-1" d="m1085.61,934.78c-44.51,44.52-88.77,88.79-133.45,133.49-11.53-11.63-23.21-23.47-34.97-35.24-55.48-55.52-110.98-111.03-166.48-166.53-39.24-39.24-78.5-78.47-117.76-117.7-9.87-9.87-19.78-19.69-29.61-29.6-14.49-14.62-28.88-29.34-43.42-43.9-2.7-2.7-5.74-.5-7.49,1.3-6.36,6.55-12.15,13.65-18.45,20.27-7.01,7.36-14.28,14.48-21.54,21.6-5.52,5.41-11.3,10.54-16.77,15.99-5.59,5.56-10.83,11.47-16.46,16.98-3.7,3.63-7.97,6.67-11.71,10.27-1.85,1.78-2.83,4.46-4.65,6.3-10.37,10.47-20.88,20.81-31.34,31.2-4.08,4.05-7.63,8.9-12.34,12-5.73,3.77-8.93,9.52-13.54,14.11-12.35,12.3-24.65,24.64-36.98,36.97-68.52,68.47-137.04,136.95-205.57,205.42-.11.11-.29.16.01,0-44.31-44.37-88.51-88.64-133.24-133.42,130.77-130.76,262.4-262.39,394.47-394.45C292.19,407.72,160.69,276.28,27.9,143.55,72.32,99.05,116.52,54.78,161.09,10.12c132.96,132.96,264.51,264.5,396.41,396.39C689.35,274.63,820.86,143.09,952.79,11.13c44.52,44.55,88.73,88.78,133.34,133.41-1.39,1.5-2.64,2.95-3.99,4.3-47.96,47.97-95.92,95.92-143.89,143.88-57.01,57-114.01,114.01-171.02,171.01-17.42,17.42-34.79,34.87-52.26,52.23-7.06,7.02-14.33,13.82-21.55,20.69-1.79,1.71-2.77,3.21-.46,5.34,2.98,2.75,5.76,5.71,8.63,8.58,66.19,66.2,132.37,132.41,198.57,198.6,60.58,60.57,121.17,121.12,181.76,181.68,1.4,1.4,2.72,2.87,3.71,3.92Z"/>
</svg>