<?xml version="1.0" encoding="UTF-8"?>
<svg id="Layer_1" data-name="Layer 1" xmlns="http://www.w3.org/2000/svg" viewBox="0 0 1364 1473">
  <defs>
    <style>
      .cls-1 {
        fill: #4093a4;
      }
    </style>
  </defs>
  <path class="cls-1" d="m1210.86,44.48c48.73,48.69,97.12,97.05,145.61,145.5-176.52,176.94-353.35,354.18-530.56,531.82,6.31,6.58,12.39,13.11,18.68,19.43,14.5,14.59,29.11,29.07,43.67,43.6,2.11,2.1,4.24,4.17,6.35,6.27,23.46,23.46,46.97,46.87,70.37,70.4,13.3,13.37,26.31,27.02,39.64,40.36,6.22,6.22,12.89,11.99,19.35,17.98,1.46,1.36,2.89,2.77,4.29,4.2,11.84,12.07,23.56,24.27,35.54,36.21,25.32,25.24,50.81,50.3,76.15,75.51,20.91,20.8,41.76,41.66,62.56,62.58,14.64,14.72,29.08,29.65,43.72,44.36,8.15,8.19,16.62,16.07,24.8,24.23,28.3,28.2,56.49,56.51,84.84,84.65,3.52,3.5.81,5.11-1.26,7.18-34.64,34.66-69.3,69.31-103.95,103.96-11.2,11.2-22.39,22.4-33.6,33.58-1.39,1.39-2.9,2.67-4.65,4.28-1.71-1.53-3.24-2.77-4.62-4.16-70.85-70.81-141.69-141.64-212.53-212.46-8.96-8.95-18.02-17.8-26.82-26.9-7.58-7.84-14.71-16.11-22.31-23.91-3.68-3.77-8.24-6.68-11.99-10.4-24.8-24.67-49.31-49.62-74.27-74.12-14.61-14.34-28.67-29.21-43.3-43.52-14.89-14.57-29.51-29.42-44.24-44.15-14.61-14.61-29.23-29.23-43.84-43.85-14.61-14.61-29.23-29.22-43.84-43.84-5.21-5.21-5.23-5.24-10.35-.12-74.38,74.36-148.69,148.78-223.13,223.08-100.14,99.96-200.37,199.82-300.57,299.72-1.05,1.04-2.18,2-2.44,2.24-48.51-48.46-96.81-96.71-145.23-145.08,176.14-176.09,353.18-353.07,531.06-530.9-3.71-3.55-6.69-6.32-9.59-9.18-5.22-5.15-10.38-10.36-15.57-15.55-30.99-31.01-61.97-62.04-92.97-93.04-90.28-90.28-180.57-180.55-270.86-270.82-10.58-10.58-21.15-21.16-31.73-31.74-32.99-32.99-65.99-65.98-98.97-98.98-4.5-4.5-8.9-9.09-12.81-13.09,48.71-48.76,97.23-97.32,146.56-146.7,3.12,3.33,6.77,7.38,10.59,11.26,10.82,11,21.74,21.89,32.54,32.91,4.17,4.26,7.91,8.94,12.15,13.11,10.05,9.88,20.37,19.48,30.39,29.38,4.6,4.54,8.64,9.65,13.15,14.28,4.61,4.73,9.57,9.11,14.22,13.8,7.24,7.29,14.22,14.85,21.55,22.05,5.57,5.46,11.74,10.31,17.25,15.82,16.37,16.37,32.47,33.02,48.82,49.41,13.08,13.11,26.51,25.87,39.56,39.01,9.82,9.89,19.19,20.23,28.94,30.2,5.81,5.94,12.04,11.46,17.94,17.32,15.33,15.23,30.57,30.54,45.85,45.82,12.07,12.07,24.13,24.13,36.2,36.2,15.62,15.62,31.2,31.28,46.87,46.85,10.12,10.04,20.49,19.84,30.56,29.93,12.76,12.79,25.27,25.84,38.02,38.64,8.31,8.34,16.88,16.41,25.28,24.65,5.81,5.7,11.75,11.31,17.21,17.33,3.32,3.66,5.29,3.88,8.99.16,37.21-37.51,74.63-74.82,111.99-112.18,28.52-28.52,57-57.08,85.59-85.54,9.48-9.44,19.35-18.48,28.79-27.94,11.86-11.89,23.36-24.14,35.23-36.02,11.9-11.9,24.14-23.47,36.1-35.32,5.54-5.5,10.64-11.44,16.14-16.99,14.25-14.38,28.54-28.71,42.93-42.94,8.72-8.63,17.76-16.93,26.44-25.59,7.27-7.25,14.11-14.92,21.34-22.21,17.82-17.96,35.75-35.8,53.64-53.69,21.69-21.69,43.37-43.37,65.07-65.05,1.17-1.17,2.4-2.28,3.45-3.28Z"/>
</svg>