<?xml version="1.0" encoding="UTF-8"?>
<svg id="Layer_1" data-name="Layer 1" xmlns="http://www.w3.org/2000/svg" viewBox="0 0 1115 1080">
  <defs>
    <style>
      .cls-1 {
        fill: #3c3b3b;
      }
    </style>
  </defs>
  <path class="cls-1" d="m465.16,538.28c-111.85-111.81-223.68-223.59-335.64-335.5,30.75-30.94,61.12-61.51,91.98-92.56,112.1,112.08,224.01,223.97,336.4,336.35,5.15-5.25,9.98-10.22,14.88-15.13,13.37-13.41,26.72-26.84,40.19-40.15,2.18-2.15,5.11-3.54,7.32-5.66,1.62-1.56,2.37-4.01,3.97-5.61,40.38-40.45,80.83-80.84,121.25-121.25,48.08-48.07,96.14-96.16,144.21-144.24,1.17-1.17,2.4-2.28,3.54-3.36,30.49,30.53,60.84,60.9,90.77,90.86-111.67,111.77-223.54,223.74-336.62,336.92,112.68,112.72,224.6,224.68,336.27,336.38-29.27,29.17-59.75,59.55-90.12,89.81-111.1-111.11-222.93-222.96-335.41-335.45-112.59,112.59-224.35,224.36-336,336.01-30.72-30.79-61.24-61.37-92.12-92.32,111.38-111.37,223.06-223.02,335.14-335.09Z"/>
</svg>