<?xml version="1.0" encoding="UTF-8"?>
<svg id="Layer_1" data-name="Layer 1" xmlns="http://www.w3.org/2000/svg" viewBox="0 0 1115 1080">
  <defs>
    <style>
      .cls-1 {
        fill: #3c3c3c;
      }
    </style>
  </defs>
  <path class="cls-1" d="m580.82,1007.03c-17.18,0-36.33.34-55.46-.13-10.84-.27-21.68-1.66-32.47-2.91-12.74-1.48-25.57-2.67-38.12-5.2-20.32-4.09-40.44-9.15-60.64-13.82-6.78-1.57-13.49-3.48-20.32-4.74-6.65-1.23-13.18-.1-19.38,2.65-23.69,10.53-47.33,21.15-71.06,31.58-28.14,12.37-56.54,24.19-86.68,30.8-11.39,2.5-23.13,4.03-34.77,4.52-8.73.37-17.43-2.07-24.81-7.5-6.6-4.86-9.85-11.85-11.9-19.43-3.76-13.89-3.6-27.81-1.6-42.11,3.61-25.88,10.24-50.97,17.61-75.91,5.54-18.76,11.71-37.32,17.37-56.04,2.95-9.76,3.94-19.36-1.91-28.83-12.63-20.45-25.56-40.76-37.02-61.86-11.05-20.34-21.58-41.13-30.21-62.58-11.62-28.88-20.26-58.86-25.6-89.64-2.53-14.55-5.56-29.11-6.73-43.79-1.47-18.35-1.58-36.83-1.67-55.26-.06-12.78.33-25.62,1.59-38.32,1.44-14.52,3.71-28.99,6.23-43.37,4.5-25.6,11.48-50.64,20.19-75.05,6.48-18.16,14.49-35.84,22.8-53.27,15.91-33.36,36.1-64.09,59.47-92.71,53.62-65.66,119.78-114.32,198.31-146.17,29.42-11.93,59.72-21.01,90.95-26.61,16.39-2.94,33-5.12,49.6-6.31,20.32-1.47,40.76-2.21,61.13-2,14.24.15,28.51,2.08,42.68,3.88,14.7,1.86,29.49,3.7,43.9,7.04,17.54,4.06,34.81,9.35,52.02,14.7,43.75,13.59,84.1,34.28,121.71,60.23,74.21,51.2,130.66,117.62,168.2,199.64,9.37,20.48,17.29,41.77,24.07,63.26,6.07,19.25,10.13,39.19,14.16,59.01,2.41,11.84,3.51,24,4.4,36.07,1.36,18.31,2.67,36.66,2.78,55,.09,14.55-1.22,29.14-2.64,43.65-2.41,24.74-6.74,49.18-13.06,73.25-15.34,58.46-40.38,112.4-75.47,161.61-30.28,42.47-66.31,79.36-108.38,110.26-2.8,2.06-6.25,3.21-9.12,5.19-2.07,1.42-3.42,3.93-5.53,5.21-6.04,3.67-12.4,6.8-18.45,10.44-4.14,2.5-7.77,5.88-11.99,8.23-12.95,7.21-25.83,14.61-39.18,21.01-12.54,6.01-25.48,11.28-38.52,16.13-28.14,10.46-57.04,18.33-86.69,23.18-15.86,2.6-31.83,4.51-49.82,7.03Zm368.05-559.77c0-1.64.33-3.36-.05-4.91-2.18-8.87-4.51-17.71-6.84-26.55-2.71-10.28-4.99-20.7-8.34-30.77-3.24-9.74-7.46-19.17-11.49-28.63-21.89-51.48-52.98-96.63-93.43-135.27-20.33-19.42-42.33-36.65-66.19-51.61-26.98-16.92-62.39-32.85-85.85-40.48-2.84-.93-5.62-2.06-8.49-2.91-7.72-2.29-15.48-4.45-23.21-6.71-4.09-1.2-8.08-3.04-12.25-3.63-11.25-1.6-22.6-2.53-33.86-4.02-9.22-1.22-18.29-3.53-27.74-2.99-3.92.22-7.9-.92-11.84-.8-16.22.49-32.49.67-48.65,2.05-15.74,1.34-31.6,2.91-47,6.27-106.12,23.11-190.77,79-253.13,168.03-29.15,41.62-49.53,87.39-60.94,136.96-3.86,16.78-7.1,33.76-9.42,50.82-1.63,11.98-1.49,24.24-1.68,36.38-.32,21.53.05,43.08,3.85,64.35,2.85,15.93,6.02,31.83,9.79,47.57,5.22,21.81,13.66,42.56,22.63,63.04,3.43,7.84,7.8,15.29,12.06,22.73,13.13,22.93,26.27,45.86,39.69,68.62,7.92,13.42,16.63,26.38,24.49,39.84,2.46,4.21,4.51,9.35,4.59,14.09.07,4.86-1.78,10.13-4.06,14.57-7.51,14.58-15.84,28.73-23.4,43.29-9.88,19.02-19.88,38.01-24.69,59.21-2.07,9.14,2.97,14.95,11.91,12.4,6.34-1.81,13.01-3.47,18.59-6.79,20.43-12.18,40.55-24.87,60.6-37.67,11.5-7.34,22.31-15.79,34.06-22.68,4.78-2.8,11.26-4.01,16.86-3.75,7.11.34,14.17,2.69,21.14,4.57,10.5,2.83,20.82,6.41,31.39,8.95,12.9,3.09,26.01,5.32,38.99,8.14,6.6,1.43,13.04,3.59,19.66,4.92,8.64,1.73,17.37,2.99,26.07,4.39,3.38.54,6.79.86,10.18,1.38,4.84.74,9.63,1.91,14.5,2.28,9.58.73,19.19,1.16,28.8,1.5,8.26.29,16.52.43,24.78.37,6.45-.05,12.89-.41,19.33-.8,4.11-.25,8.24-.62,12.31-1.24,12.41-1.87,24.84-3.61,37.16-5.96,7.17-1.37,14.1-3.96,21.21-5.71,27.41-6.73,53.63-16.61,78.72-29.5,7.96-4.09,15.73-8.56,23.64-12.76,5.22-2.78,10.89-4.89,15.71-8.22,7.96-5.5,15.43-11.72,23.05-17.7,5.72-4.48,11.71-8.69,16.96-13.68,14.59-13.85,29.69-27.3,43.1-42.24,43.95-48.96,73.58-105.78,89.7-169.52,3.59-14.21,6.19-28.76,7.99-43.31,2.3-18.65,4.37-37.45,4.59-56.2.2-17.31-2.09-34.65-3.44-51.96-.46-5.92-1.4-11.81-2.11-17.72Z"/>
</svg>