<?xml version="1.0" encoding="UTF-8"?>
<svg id="Layer_1" data-name="Layer 1" xmlns="http://www.w3.org/2000/svg" viewBox="0 0 1364 1473">
  <defs>
    <style>
      .cls-1 {
        fill: #4093a4;
      }
    </style>
  </defs>
  <path class="cls-1" d="m1307.24,821.8c-1.24,24.26-1.67,42.92-3.29,61.48-1.71,19.71-3.71,39.47-7.07,58.95-7.66,44.46-20.31,87.58-37.44,129.36-12.39,30.22-25.92,59.91-43.15,87.71-14.5,23.39-30.52,45.78-49.18,66.05-15.9,17.28-32.07,34.37-48.98,50.65-23.76,22.88-48.19,45.1-75.47,63.84-5.46,3.75-11.55,6.61-17.52,9.54-3.86,1.89-8.83-1.63-9.15-6.01-.8-10.93,2.99-21.01,5.85-31.24,5.78-20.68,12.57-41.14,17.21-62.07,5.03-22.71,5.24-46,2.19-69.1-2.69-20.43-5.68-40.85-9.52-61.09-5.51-29.11-14.82-57.17-25.7-84.69-13.76-34.79-30.84-67.95-49.8-100.16-17.51-29.74-35.54-59.16-58.04-85.5-4.18-4.89-9.29-9.06-14.32-13.12-3.91-3.15-10.85-1.99-12.69,2.64-3.59,9.05-6.91,18.34-8.97,27.82-9.63,44.26-25.18,86.1-51.29,123.32-11.14,15.89-24.65,30.1-36.68,45.4-10.47,13.32-23.56,23.8-36.53,34.33-5.52,4.48-12.54,7.78-19.41,9.64-3.37.91-8.78-1.8-11.83-4.5-7.38-6.53-9.71-16.11-12.5-25.16-6.49-21-11.34-42.64-19.48-62.96-10.83-27.01-23.12-53.57-36.7-79.32-16.7-31.65-34.68-62.69-53.42-93.18-13.15-21.39-28.32-41.55-42.98-61.98-3.74-5.22-8.94-9.41-13.56-13.98-1.04-1.03-2.39-1.8-3.72-2.47-4.54-2.3-7.12-1.06-9.09,3.64-2.15,5.12-2.7,10.13-.98,15.51.57,1.78-.15,3.93-.01,5.89.7,9.65,1.55,19.28,2.22,28.93.26,3.76,0,7.55.26,11.31.36,5.18,1.24,10.33,1.43,15.51.28,7.66.68,15.37.06,22.98-.81,9.9-2.2,19.79-4,29.57-2.16,11.73-4.27,23.56-7.71,34.96-7.88,26.13-19.77,50.54-34.01,73.78-12.49,20.38-26.8,39.4-43.8,56.26-19.64,19.47-39.53,38.67-59.16,58.15-22.01,21.84-38.34,47.5-49.29,76.4-4.57,12.05-8.34,24.58-10.73,37.23-3.06,16.2-1.46,32.51,1.95,48.73,2.36,11.2,4.97,22.21,8.87,32.98,3.97,10.99,7.31,22.21,10.76,33.38,1.36,4.41,2.78,8.9,3.26,13.45.31,2.93-.84,6.09-1.8,9-.21.63-2.69,1.2-3.67.76-5.45-2.41-11.2-4.5-16.04-7.87-40.42-28.13-75.29-62.48-109.11-98.01-21.33-22.4-40.7-46.41-56.79-72.77-12.03-19.72-22.95-40.2-33.08-60.97-19.33-39.68-33.4-81.36-43.92-124.19-6.68-27.18-11.82-54.7-13.88-82.66-1.55-21.08-3.42-42.19-3.57-63.3-.37-52.11,4.65-103.75,17.71-154.34,7.59-29.4,17.91-57.86,30.93-85.39,22.01-46.52,50.36-89.01,81.75-129.52,22.26-28.73,46.01-56.25,73.67-80.04,6.15-5.29,13.14-9.74,20.24-13.69,3.1-1.72,7.43-1.37,11.23-1.59.96-.06,2.62,1.12,2.91,2.05,1.35,4.42,3.49,9.01,3.25,13.43-.98,18.1-2,36.25-4.44,54.19-1.63,12-2.56,23.77-2.07,35.89.66,16.24,5.57,31.07,12.17,45.56,2.55,5.6,4.31,11.46,8.63,16.36,6.93,7.87,15.65,10.6,26.7,8.42,22.67-4.47,41.53-16.69,59.87-29.65,9.36-6.62,17.94-14.43,26.42-22.19,17.49-16,33.58-33.43,46.52-53.29,10.22-15.69,19.37-32.16,27.87-48.86,12.89-25.31,21.39-52.3,28.69-79.74,9.26-34.82,15.7-70.13,19.62-105.9,2.71-24.65,4.48-49.4,7.05-74.07.72-6.91,2.14-13.92,4.48-20.44,1.44-3.99,5.19-7.19,8.06-10.6.48-.57,1.85-.75,2.71-.58,6.66,1.3,13.17,2.41,19.16,6.44,20.88,14.05,37.32,32.44,52.92,51.82,21.69,26.95,40.08,56.03,56.89,86.19,24.29,43.59,44.65,88.96,61.19,136.01,8.55,24.33,16.3,48.94,24.29,73.45,4.98,15.27,9.61,30.66,14.67,45.91,2.53,7.63,6.65,14.85,8.31,22.63,3.05,14.3,11.72,25.85,17.89,38.53,3.81,7.82,11.68,13.67,17.73,20.4.11.12.34.14.42.27,4,6.41,10.03,6.93,16.96,6.98,6.65.05,12.9.87,19.49-1.91,9.42-3.98,18.15-8.72,26.51-14.65,12.97-9.19,24.21-20.18,34.81-31.81,9.44-10.36,18.37-21.23,27.02-32.27,4.27-5.44,7.32-11.82,11.07-17.68,9.95-15.53,17.59-32.17,23.62-49.55,3.2-9.23,6.33-18.5,8.95-27.9,3.33-11.92,6.73-23.88,9-36.03,4.71-25.19,8.24-50.6,13.17-75.75,2.31-11.79,6.36-23.3,10.43-34.65,1.3-3.64,5.13-6.41,7.96-9.43.54-.58,1.96-.79,2.81-.56,6,1.67,11.63,3.21,17.02,7.41,16.71,13.03,30.28,28.95,44.01,44.74,11.35,13.06,22.07,26.68,32.95,40.15,32.47,40.17,59.69,83.67,82.79,129.86,25.75,51.49,46.6,104.81,58.34,161.21,6.3,30.26,10.77,60.99,14.16,91.73,3.48,31.57,4.64,63.39,6.44,89.58Zm-1189.96,9.2c.6,18.15.74,36.32,1.93,54.43,1.09,16.59,2.68,33.21,5.15,49.65,4,26.7,10.08,52.97,18.44,78.7,13.38,41.17,30.01,80.89,52.17,118.16,7.67,12.89,15.74,25.53,28.02,34.8,4.41,3.33,9.47,5.21,14.38,3.44,5.43-1.96,9.67-6.2,12.44-11.65,8.5-16.7,17.26-33.27,25.62-50.04,4.94-9.91,10.33-19.35,17.39-28.04,13.41-16.5,28.6-31.14,44.26-45.38,21.34-19.41,42.73-38.89,59.56-62.46,12.64-17.71,24.36-36.15,35.46-54.87,4.96-8.36,7.57-18.14,10.95-27.38,8.48-23.2,12.87-47.23,12.87-71.89,0-14.35-1.2-28.69-1.89-43.04-.39-8.17-.81-16.3-1.65-24.47-1.61-15.53-2.02-31.23-2.07-46.87-.04-13.42,2.57-26.41,9.72-38.2,7.24-11.94,17.94-18.05,31.58-18.64,17.88-.77,32.93,7.08,46.97,17.08,21.44,15.28,38.1,35.31,53.72,56.1,32.37,43.12,60.07,89.27,86.76,136.03,4.83,8.46,8.57,17.53,13.23,26.1,7.37,13.54,15.12,26.86,22.66,40.31,6.58,11.73,12.94,23.59,19.7,35.22,3.01,5.17,8.31,6.96,13.18,3.8,4.62-3,8.99-6.99,12.17-11.47,15.8-22.25,26.66-46.94,33.16-73.34,6.21-25.21,10.53-50.9,17.2-75.98,5.4-20.3,14.19-39.35,33.26-51.06,7.44-4.56,15.97-5.82,24.45-4.37,18.82,3.22,32.58,15.67,45.74,27.92,11.76,10.95,21.7,23.89,32.13,36.21,7.8,9.22,15.47,18.59,22.51,28.39,6,8.36,10.8,17.57,16.5,26.15,29.38,44.28,54.6,90.77,74.73,139.96,14.89,36.38,24.49,74.45,35.45,112.09,4.6,15.79,8.77,31.82,17.97,45.9,3.99,6.11,12.34,8.22,18.81,5.19,10.4-4.87,16.87-13.78,22.6-22.72,10.05-15.68,18.8-32.2,27.81-48.52,4.48-8.13,8.94-16.37,12.3-25,7.03-18.04,13.9-36.18,19.78-54.62,6.36-19.94,12.31-40.08,17.03-60.46,7.27-31.39,10.16-63.41,10.76-95.62.72-38.92-.35-77.76-4.24-116.51-.52-5.19-.95-10.4-1.67-15.57-2.74-19.55-5.64-39.08-8.36-58.64-4.65-33.46-13.25-65.97-24.55-97.7-18.35-51.52-42.7-100.19-72-146.36-8.57-13.49-17.21-26.99-30.75-36.34-4.92-3.4-13.03-2.38-16.1,2.59-4.03,6.53-8.83,12.26-10.84,20.38-3.16,12.78-8.77,24.98-13.58,37.34-4.64,11.91-8.83,24.07-14.59,35.43-5.78,11.4-13.28,21.93-19.99,32.87-11.41,18.59-25.21,35.35-40.12,51.15-9.4,9.96-19.46,19.32-29.61,28.53-8.82,8-17.91,15.75-27.39,22.93-7.6,5.76-16.72,9.33-23.56,16.35-1.97,2.02-5.15,2.93-7.87,4.14-3.32,1.48-6.88,2.46-10.1,4.14-13.23,6.88-26.65,12.84-42.15,10.95-.82-.1-1.67,0-2.5.07-10.09.8-19.74.06-28.34-6.29-3.86-2.85-8.23-5.08-12.54-7.25-6.27-3.15-11.07-7.57-14.82-13.59-7.83-12.57-17.68-24.14-23.87-37.44-10.62-22.84-19.88-46.41-28.23-70.19-11.13-31.71-20.9-63.9-31.16-95.91-5.32-16.6-10.26-33.33-15.73-49.88-2.44-7.39-5.85-14.45-8.65-21.72-11.52-29.84-23.12-59.55-41.61-86.13-5.63-8.1-12.78-12.13-21.27-15.18-1.05-.38-3.02-.29-3.58.39-5.05,6.12-11.81,11.7-14.44,18.79-12.83,34.65-24.99,69.56-36.47,104.68-6.86,20.98-16.56,40.66-26.98,59.78-9.92,18.19-21.33,35.7-34.58,51.98-15.38,18.9-31.98,36.56-49.8,53.05-8.7,8.06-18.42,15.07-28,22.11-7.55,5.55-15.54,10.5-23.43,15.57-10.16,6.52-19.94,13.86-30.73,19.1-16.9,8.2-34.33,15.91-53.33,17.5-8.14.68-17.11.1-24.61-2.77-6.37-2.45-12.4-8.17-16.38-13.95-6.53-9.5-11.49-20.12-16.73-30.47-6.14-12.15-10.84-25.11-21.5-34.46-4.15-3.64-12.23-4.48-17.07-2.02-11.57,5.89-19.33,15.73-26.64,25.81-13.15,18.12-23.7,37.78-33.13,58.08-16.18,34.84-27.09,71.33-33.34,109.11-5.79,35.05-8.21,70.44-7.93,106.01Z"/>
</svg>