<?xml version="1.0" encoding="utf-8"?>
<!-- Generator: Adobe Illustrator 27.3.1, SVG Export Plug-In . SVG Version: 6.00 Build 0)  -->
<svg version="1.1" id="Layer_1" xmlns="http://www.w3.org/2000/svg" xmlns:xlink="http://www.w3.org/1999/xlink" x="0px" y="0px"
	 viewBox="0 0 1364 1473" style="enable-background:new 0 0 1364 1473;" xml:space="preserve">
<style type="text/css">
	.st0{display:none;fill:#B2B2B2;}
	.st1{fill:#4093A4;}
</style>
<g>
	<path class="st0" d="M0,1473C0,982,0,491,0,0c454.67,0,909.33,0,1364,0c0,491,0,982,0,1473C909.33,1473,454.67,1473,0,1473z
		 M1279.1,762.04c-1.66-26.57-3.02-53.17-5.07-79.71c-2.98-38.54-8.9-76.69-16.66-114.56c-13.05-63.68-34.42-124.5-63-182.82
		c-4.07-8.3-9.41-15.97-13.67-24.19c-4.22-8.14-7.39-16.84-11.8-24.86c-6.4-11.64-13.82-22.73-20.25-34.36
		c-10.54-19.05-22.7-36.9-35.75-54.36c-10-13.38-19.93-26.58-32.61-37.46c-6.92-5.93-14.01-11.66-23.78-12.66
		c-6.74-0.68-12.3,1.85-15.55,6.88c-3.81,5.89-6.73,12.69-8.47,19.49c-3.11,12.13-5.39,24.51-7.38,36.89
		c-2.08,12.94-3.31,26.02-5.11,39.01c-3.02,21.82-5.62,43.72-9.41,65.41c-8.33,47.7-24.57,92.63-49.24,134.39
		c-5.07,8.58-10.23,17.19-19.04,22.73c-5.55,3.49-12.03,2.33-16.29-2.74c-9.08-10.8-13.99-23.74-19.02-36.59
		c-12.75-32.58-25.1-65.31-38.06-97.8c-4.74-11.88-10.9-23.19-16.14-34.88c-3.24-7.24-5.68-14.85-9.02-22.04
		c-2.86-6.15-6.67-11.84-9.73-17.9c-3.81-7.53-7.08-15.35-10.97-22.84c-5.14-9.89-10.4-19.73-16.05-29.33
		c-10.36-17.61-20.63-35.29-31.67-52.48c-15.96-24.84-33.63-48.44-54.63-69.37c-14.93-14.88-30.52-28.75-51.18-35.37
		c-5.28-1.69-12.62-0.06-14.89,4.93c-3.19,7.03-6.25,14.42-7.56,21.96c-8.85,51.13-17.44,102.32-31.18,152.43
		c-6.14,22.38-13.35,44.48-20.2,66.66c-2.21,7.16-4.6,14.29-7.35,21.26c-4.26,10.79-8.57,21.59-13.43,32.12
		c-18.62,40.31-42.42,77.35-71.03,111.32c-12.58,14.94-25.6,29.37-42.2,40.09c-10.09,6.52-20.48,10.41-32.2,4.37
		c-2.32-1.19-4.61-2.58-6.59-4.25c-9.93-8.42-16.93-19.22-23.75-30.08c-20.52-32.64-41.66-64.76-71.36-90.14
		c-16.85-14.39-35.37-25.91-57.44-29.67c-18.24-3.11-26.86,0.4-34.87,18.54c-4.16,9.42-7.06,19.39-10.52,29.12
		c-11.76,33.12-22.86,66.49-35.45,99.29c-13.88,36.16-33.83,69.44-51.84,103.63c-21.08,40.02-36.86,81.74-40.17,127.42
		c-0.55,7.59-3.08,15.07-3.33,22.64c-0.62,18.63-0.63,37.28-0.46,55.93c0.04,4.51,2.19,8.97,2.52,13.51
		c0.5,6.95-0.39,14.03,0.48,20.9c1.74,13.66,3.69,27.35,6.59,40.8c9.09,42.24,22.21,83.21,40.91,122.24
		c16.3,34.05,35.44,66.41,59.57,95.58c13.65,16.5,29.08,31.3,47.21,42.78c15.18,9.61,30.83,18.55,46.63,27.11
		c16.4,8.89,33.17,17.11,51.8,20.54c19.67,3.63,38.05,1.05,54.4-11.24c8.55-6.42,9.23-15.79,1.72-23.31
		c-10.72-10.73-24.05-17.69-36.94-25.27c-15.5-9.11-31.32-17.72-46.45-27.4c-19.31-12.35-34.93-28.94-49.95-46.06
		c-5-5.7-9.94-11.48-14.55-17.5c-7.22-9.45-14.58-18.85-21.06-28.81c-6.01-9.25-11.09-19.11-16.28-28.87
		c-4.55-8.57-9-17.22-12.88-26.11c-3.3-7.57-5.96-15.46-8.48-23.34c-5.34-16.7-10.84-33.36-15.43-50.27
		c-3.19-11.72-5.32-23.77-7.28-35.78c-1.85-11.38-3.64-22.86-4.06-34.35c-0.65-17.79-0.47-35.63,0.07-53.43
		c0.3-9.86,1.4-19.81,3.3-29.49c2.41-12.29,5.26-24.6,9.28-36.44c5.39-15.89,11.17-31.78,18.41-46.88
		c9.79-20.41,21.28-40,31.77-60.08c14.79-28.33,24.57-58.63,34.85-88.76c3.36-9.84,8.08-19.27,12.84-28.55
		c2.8-5.45,8.76-6.3,14-3.35c8.64,4.88,14.18,12.84,18.75,20.99c15.13,27.03,29.48,54.49,44.19,81.75
		c10.13,18.78,20.15,37.67,36.83,51.76c7.6,6.41,16.47,8.61,26.35,7.55c12.21-1.3,22.54-7.09,32.25-13.82
		c31.7-21.98,61.17-46.65,87.74-74.69c36.45-38.47,66.57-81.47,91.71-128.02c24-44.45,37.49-92.45,47.57-141.6
		c4.21-20.54,7.96-41.23,16.4-60.65c3.92-9.03,10.7-11.84,18.97-7.17c2.66,1.5,5.19,3.69,7.03,6.13
		c6.52,8.67,13.69,16.84,18.23,26.96c3.2,7.13,8,13.53,11.52,20.54c3.61,7.19,6.62,14.69,9.74,22.12
		c9.34,22.27,19.61,44.21,27.72,66.93c22.89,64.18,44.86,128.68,67.23,193.04c4.76,13.7,9.41,27.63,18.53,39.09
		c4.28,5.39,10.04,10.84,16.28,13.17c10.77,4.01,22.25,1.36,32.67-2.83c22.35-8.99,40.86-23.79,57.1-41.22
		c20.09-21.55,36.19-46.03,50.52-71.75c23.19-41.6,39.03-85.67,46.05-132.87c1.63-11,3.7-21.95,6.19-32.79
		c0.71-3.08,3.75-8.01,5.53-7.93c3.18,0.14,6.21,3.45,9.3,5.45c0.13,0.08,0.2,0.26,0.29,0.41c5.54,9.66,11.65,19.04,16.5,29.03
		c17.48,36.02,31.71,73.39,44.91,111.16c10.07,28.82,18.63,58.11,23.7,88.22c4.53,26.9,8.79,53.91,11.47,81.04
		c3.25,32.94,5.13,66.03,6.76,99.1c0.78,15.77,0.06,31.65-0.82,47.44c-0.92,16.6-2.05,33.27-4.48,49.7
		c-6.75,45.65-18.84,89.9-36.6,132.58c-13.37,32.13-29.77,62.54-49.87,90.94c-19.55,27.61-41.69,52.8-70.92,70.5
		c-17.21,10.42-35.51,19.02-52.98,29.04c-9.61,5.51-18.74,11.95-27.63,18.58c-6.68,4.99-7.27,15.36-1.97,21.14
		c11.51,12.56,26.74,16.88,42.81,17.18c14.86,0.28,28.91-5.09,42.18-11.44c15.92-7.61,31.54-15.87,47-24.39
		c26.08-14.37,49-32.77,67.86-55.91c16.88-20.71,31.36-43.02,44.29-66.42c19.35-35.02,34.6-71.76,45.63-110.12
		C1269.16,904.97,1278.39,834.16,1279.1,762.04z"/>
	<path class="st1" d="M1279.1,762.04c-0.71,72.12-9.94,142.92-29.87,212.17c-11.04,38.35-26.28,75.09-45.63,110.12
		c-12.93,23.4-27.41,45.72-44.29,66.42c-18.86,23.14-41.78,41.54-67.86,55.91c-15.45,8.52-31.08,16.78-47,24.39
		c-13.27,6.35-27.32,11.72-42.18,11.44c-16.07-0.3-31.3-4.62-42.81-17.18c-5.3-5.78-4.71-16.16,1.97-21.14
		c8.89-6.64,18.02-13.07,27.63-18.58c17.47-10.02,35.77-18.62,52.98-29.04c29.23-17.7,51.37-42.89,70.92-70.5
		c20.1-28.4,36.5-58.82,49.87-90.94c17.76-42.68,29.85-86.93,36.6-132.58c2.43-16.43,3.56-33.1,4.48-49.7
		c0.88-15.79,1.59-31.67,0.82-47.44c-1.63-33.07-3.51-66.16-6.76-99.1c-2.68-27.13-6.94-54.14-11.47-81.04
		c-5.07-30.11-13.63-59.4-23.7-88.22c-13.19-37.77-27.43-75.14-44.91-111.16c-4.85-9.99-10.96-19.37-16.5-29.03
		c-0.08-0.14-0.16-0.32-0.29-0.41c-3.09-2-6.12-5.3-9.3-5.45c-1.78-0.08-4.82,4.85-5.53,7.93c-2.5,10.83-4.56,21.79-6.19,32.79
		c-7.01,47.2-22.86,91.27-46.05,132.87c-14.33,25.71-30.43,50.19-50.52,71.75c-16.24,17.43-34.76,32.23-57.1,41.22
		c-10.42,4.19-21.89,6.84-32.67,2.83c-6.24-2.32-12-7.78-16.28-13.17c-9.11-11.47-13.76-25.39-18.53-39.09
		c-22.38-64.36-44.34-128.86-67.23-193.04c-8.1-22.72-18.37-44.66-27.72-66.93c-3.12-7.43-6.13-14.93-9.74-22.12
		c-3.52-7.01-8.32-13.41-11.52-20.54c-4.54-10.12-11.71-18.29-18.23-26.96c-1.84-2.44-4.37-4.62-7.03-6.13
		c-8.27-4.67-15.05-1.86-18.97,7.17c-8.44,19.42-12.19,40.12-16.4,60.65c-10.08,49.16-23.57,97.15-47.57,141.6
		c-25.14,46.55-55.26,89.55-91.71,128.02c-26.57,28.04-56.04,52.71-87.74,74.69c-9.71,6.73-20.04,12.52-32.25,13.82
		c-9.88,1.06-18.75-1.14-26.35-7.55c-16.69-14.09-26.7-32.99-36.83-51.76c-14.71-27.26-29.06-54.72-44.19-81.75
		c-4.56-8.15-10.1-16.1-18.75-20.99c-5.24-2.96-11.2-2.11-14,3.35c-4.76,9.28-9.48,18.71-12.84,28.55
		c-10.27,30.13-20.06,60.44-34.85,88.76c-10.49,20.08-21.98,39.67-31.77,60.08c-7.24,15.11-13.02,30.99-18.41,46.88
		c-4.01,11.84-6.86,24.15-9.28,36.44c-1.9,9.68-3,19.63-3.3,29.49c-0.54,17.8-0.72,35.64-0.07,53.43
		c0.42,11.49,2.21,22.98,4.06,34.35c1.96,12.01,4.09,24.05,7.28,35.78c4.59,16.91,10.09,33.57,15.43,50.27
		c2.52,7.88,5.18,15.76,8.48,23.34c3.88,8.89,8.33,17.54,12.88,26.11c5.18,9.76,10.27,19.62,16.28,28.87
		c6.47,9.96,13.83,19.36,21.06,28.81c4.6,6.02,9.55,11.8,14.55,17.5c15.02,17.12,30.64,33.72,49.95,46.06
		c15.13,9.68,30.95,18.29,46.45,27.4c12.89,7.58,26.21,14.54,36.94,25.27c7.52,7.52,6.83,16.89-1.72,23.31
		c-16.35,12.29-34.73,14.87-54.4,11.24c-18.62-3.44-35.4-11.66-51.8-20.54c-15.8-8.56-31.45-17.5-46.63-27.11
		c-18.13-11.48-33.56-26.28-47.21-42.78c-24.13-29.17-43.26-61.53-59.57-95.58c-18.69-39.04-31.81-80-40.91-122.24
		c-2.9-13.45-4.85-27.14-6.59-40.8c-0.87-6.88,0.02-13.96-0.48-20.9c-0.33-4.54-2.48-9-2.52-13.51c-0.17-18.64-0.16-37.3,0.46-55.93
		c0.25-7.57,2.78-15.05,3.33-22.64c3.32-45.68,19.09-87.4,40.17-127.42c18.01-34.19,37.96-67.46,51.84-103.63
		c12.59-32.8,23.69-66.17,35.45-99.29c3.45-9.73,6.36-19.7,10.52-29.12c8.02-18.14,16.63-21.65,34.87-18.54
		c22.08,3.76,40.6,15.28,57.44,29.67c29.7,25.38,50.84,57.49,71.36,90.14c6.82,10.86,13.82,21.66,23.75,30.08
		c1.98,1.68,4.28,3.06,6.59,4.25c11.72,6.04,22.11,2.15,32.2-4.37c16.59-10.72,29.61-25.15,42.2-40.09
		c28.61-33.97,52.41-71.01,71.03-111.32c4.86-10.53,9.17-21.32,13.43-32.12c2.75-6.97,5.14-14.1,7.35-21.26
		c6.86-22.18,14.07-44.28,20.2-66.66c13.74-50.11,22.33-101.3,31.18-152.43c1.31-7.55,4.37-14.93,7.56-21.96
		c2.27-4.99,9.6-6.62,14.89-4.93c20.66,6.62,36.25,20.49,51.18,35.37c21,20.93,38.66,44.52,54.63,69.37
		c11.04,17.18,21.31,34.86,31.67,52.48c5.65,9.6,10.92,19.44,16.05,29.33c3.89,7.49,7.16,15.31,10.97,22.84
		c3.07,6.06,6.88,11.75,9.73,17.9c3.34,7.19,5.78,14.8,9.02,22.04c5.24,11.69,11.4,23,16.14,34.88
		c12.96,32.49,25.31,65.22,38.06,97.8c5.03,12.85,9.94,25.79,19.02,36.59c4.26,5.07,10.74,6.24,16.29,2.74
		c8.81-5.55,13.97-14.15,19.04-22.73c24.67-41.76,40.9-86.69,49.24-134.39c3.79-21.69,6.39-43.59,9.41-65.41
		c1.8-12.99,3.02-26.07,5.11-39.01c1.99-12.38,4.27-24.75,7.38-36.89c1.74-6.8,4.66-13.6,8.47-19.49c3.25-5.03,8.81-7.56,15.55-6.88
		c9.77,0.99,16.86,6.72,23.78,12.66c12.69,10.87,22.61,24.08,32.61,37.46c13.05,17.45,25.21,35.3,35.75,54.36
		c6.43,11.63,13.85,22.72,20.25,34.36c4.41,8.02,7.58,16.72,11.8,24.86c4.26,8.22,9.6,15.89,13.67,24.19
		c28.58,58.31,49.94,119.14,63,182.82c7.76,37.87,13.68,76.02,16.66,114.56C1276.09,708.88,1277.44,735.47,1279.1,762.04z"/>
</g>
</svg>
