<?xml version="1.0" encoding="UTF-8"?>
<svg id="Layer_1" data-name="Layer 1" xmlns="http://www.w3.org/2000/svg" viewBox="0 0 1459 1473">
  <defs>
    <style>
      .cls-1 {
        fill: #4093a4;
      }
    </style>
  </defs>
  <path class="cls-1" d="m263.14,908.2c9.68-4.11,19.02-8.07,28.35-12.04,32.04-13.63,65.1-23.69,99.75-27.88,30.18-3.64,60.34-4.34,90.68-.8,35.7,4.16,68.99,15.92,101.72,29.86,24.21,10.31,47.87,22.27,73.66,28.13,18.29,4.15,36.99,6.61,55.57,9.36,11.96,1.77,24.03,2.81,36.07,3.98,6.27.61,12.58.76,18.86,1.16,15.16.96,30.32,2.02,45.48,2.9,7.94.46,15.91.46,23.84.99,12.73.84,25.45,1.97,38.17,2.93,6.11.46,12.24,1.17,18.35,1.12,21.6-.17,42.5,3.57,62.79,10.76,10.45,3.7,21.02,7.22,31.02,11.93,7.42,3.49,14.01,8.76,20.96,13.24,1.92,1.24,3.74,2.71,5.79,3.68,6.61,3.14,9.31,9.6,13.24,15.05,5.53,7.66,11,15.38,16.83,22.8.88,1.11,3.98,1.62,5.42.98,20.99-9.27,41.86-18.83,62.79-28.23,31.9-14.33,63.81-28.62,95.74-42.85,13.36-5.95,26.72-11.92,40.25-17.45,8.38-3.42,17.08-6.06,25.66-8.97,7.33-2.48,14.55-5.88,22.1-7.03,12.84-1.95,25.76-3.83,38.86.25,8.21,2.56,17.4,2.09,25.52,4.84,20.82,7.07,39.08,18.73,54.04,34.93,5.88,6.37,11.43,13.45,15.38,21.11,3.51,6.83,5.53,14.8,6.37,22.46.41,3.75-2.56,8.72-5.43,11.81-5.67,6.12-11.86,12.03-18.69,16.77-17.27,11.99-35.02,23.3-52.59,34.85-16.86,11.08-33.78,22.09-50.63,33.2-12.09,7.97-24.01,16.19-36.16,24.06-28.96,18.75-58.04,37.34-87.04,56.03-27.29,17.59-54.46,35.39-81.85,52.82-23.12,14.71-46.41,29.17-69.79,43.47-17.15,10.5-34.37,20.93-51.92,30.73-18.68,10.43-37.85,19.99-56.7,30.11-24.54,13.17-50.47,22.47-77.72,27.95-29.58,5.94-59.36,7.82-89.36,3.21-40.75-6.27-80.44-17.08-120.12-27.88-65.35-17.79-130.58-36.03-195.91-53.88-18.15-4.96-36.62-8.77-54.73-13.84-26.46-7.41-51.48-3.84-75.54,8.52-15.85,8.14-31.58,16.55-47.21,25.12-1.51.83-2.71,3.6-2.75,5.5-.29,13.49.26,27.02-.46,40.49-.62,11.59-2.43,23.14-4.01,34.66-.62,4.54-11.45,12.76-16.45,12.8-42.31.41-84.63.8-126.94,1.11-15.17.11-30.33.14-45.5-.04-7.99-.09-15.97-.64-23.94-1.15-4.79-.31-14.03-9.78-15.01-14.47-4.04-19.39-4.05-39.02-4.04-58.69.1-149.83.03-299.65.35-449.48.02-11.39,2.4-22.8,4.05-34.14.73-5.06,11.61-12.98,17.32-13.03,45.98-.39,91.96-.88,137.94-1.02,18.48-.06,36.96.63,55.44,1.05,6.89.16,15.78,8.77,17.17,15.47,3.75,18.08,4.17,36.34,3.88,54.68-.02,1.33.04,2.67.16,3.99.04.45.37.87.89,1.99Zm-.41,338.9c3.53-1.82,5.84-3.09,8.21-4.23,17.57-8.42,34.82-17.58,52.8-25.01,23.14-9.55,47.52-13.99,72.35-8.45,38.67,8.64,77.24,17.81,115.6,27.71,79.27,20.47,158.37,41.64,237.59,62.3,9.71,2.53,19.75,5.05,29.68,5.24,18.53.37,37.23,2.44,55.64-1.77,8.89-2.03,17.95-3.54,26.58-6.36,11.04-3.6,21.98-7.75,32.49-12.66,10.51-4.91,20.51-10.93,30.61-16.68,20.92-11.9,41.86-23.78,62.59-36.01,10.68-6.3,20.87-13.42,31.37-20.02,22.2-13.97,44.42-27.89,66.69-41.74,16.2-10.08,32.6-19.86,48.73-30.05,10.97-6.93,21.57-14.46,32.46-21.53,18.13-11.76,36.36-23.37,54.56-35.03,18.24-11.69,36.48-23.37,54.72-35.06,23.81-15.27,47.61-30.53,71.39-45.83,1.16-.74,2.11-1.8,3.18-2.73-12.54-12.89-34.35-15.65-53.48-12.28-18.5,3.26-34.78,12.86-51.95,19.79-17.18,6.94-33.62,15.71-50.36,23.74-24.89,11.93-49.8,23.82-74.62,35.9-15.83,7.7-31.47,15.78-47.29,23.49-3.47,1.69-4.79,4.16-5.13,7.76-.91,9.74-1.88,19.48-3.04,29.2-1.23,10.3-5.32,14.29-15.75,15.29-5.62.54-11.29.83-16.94.84-65.5.06-130.99.14-196.49,0-36.99-.07-73.97-.46-110.95-.85-13.68-.15-19.77-4.8-23.37-17.97-1.21-4.41-1.99-9.28-1.44-13.76,2.26-18.51,9.29-30.73,30.46-29.67,15.55.78,31.16.01,46.74.34,20.45.44,40.89,1.48,61.34,1.88,15.79.3,31.6-.28,47.38.04,20.62.41,41.22,1.6,61.84,1.94,14.29.23,28.6-.39,42.91-.65,1.5-.03,3.29.31,4.41-.39,1.16-.72,2.68-3.02,2.31-3.72-4.39-8.37-8.5-16.98-13.91-24.67-4.55-6.47-10.7-11.81-16.15-17.65-13.06-14-30.17-21.03-47.89-26.14-10.2-2.94-21.15-3.72-31.83-4.41-35.54-2.3-71.1-4.36-106.68-6.05-24.78-1.18-49.65-.93-74.39-2.61-15.85-1.08-32.02-2.89-47.19-7.29-20.08-5.83-39.57-13.95-58.88-22.09-42.83-18.05-86.09-33.86-133.2-36.64-31.44-1.85-62.19.73-92.39,9.62-36.86,10.85-71.93,26.31-107.11,41.48-3.3,1.42-4.28,3.44-4.26,6.89.14,18.48.06,36.97.06,55.46,0,64.83,0,129.66,0,194.49,0,1.8,0,3.59,0,6.58Zm-56.6-129.86c0-64.65.08-129.29-.09-193.94-.02-8.29-1.19-16.59-2.06-24.86-.42-3.98-5.86-9.88-9.09-10.3-3.3-.42-6.62-.98-9.93-.96-29.64.2-59.29.45-88.93.84-5.9.08-11.37,5.19-11.94,11.14-.92,9.6-2.06,19.24-2.07,28.86-.14,125.82-.14,251.64,0,377.46.01,9.79,1.19,19.59,2.06,29.36.42,4.74,5.67,10.63,9.44,11.06,3.47.4,6.96.96,10.44.94,29.48-.2,58.96-.47,88.43-.85,5.57-.07,11.07-5.24,11.63-10.9.9-9.1,2.01-18.24,2.04-27.36.17-63.49.09-126.99.08-190.48Z"/>
  <path class="cls-1" d="m968.53,908.24c-14.43-.04-28.6-1.42-41.88-7.39-13.05-5.87-27.34-24.44-26.8-39.9.26-7.35,4.22-11.82,10.16-13.81,7.64-2.56,15.74-4.07,23.76-5.09,13.19-1.68,26.5-2.41,39.72-3.93,8.76-1,17.1-4.06,23.5-10.11,3.82-3.61,6.71-8.64,8.78-13.56,5.8-13.82,6.5-28.74,8.16-43.41,1.82-16.04,3.13-32.15,5.48-48.1.59-3.97,3.56-8.37,6.72-11.06,16.97-14.49,34.63-28.18,51.45-42.83,7.19-6.27,13.9-13.58,19.07-21.56,7.48-11.54,5.26-24.29-.52-35.84-8.42-16.81-17.82-33.14-26.86-49.64-3.44-6.28-6.79-12.64-10.69-18.64-4.19-6.46-4.18-12.91-2.22-20.05,5.28-19.27,10.45-38.59,15.14-58.01,1.9-7.87,2.72-16.04,3.56-24.13,1.84-17.69-7.69-29.13-22.03-36.98-12.1-6.62-24.77-12.22-37.3-18.04-10.81-5.03-21.72-9.88-32.69-14.54-6.56-2.79-10.66-7.29-13.19-14.02-7.09-18.87-14.4-37.66-22.1-56.29-3.29-7.96-7.3-15.73-11.83-23.05-6.9-11.14-17.24-16.34-30.55-16.45-17.22-.14-33.61,4.41-50.25,7.66-12.25,2.39-24.51,4.82-36.67,7.65-5.52,1.29-10.07.13-14.64-2.81-18.04-11.6-36.08-23.2-54.28-34.55-5.77-3.6-11.91-6.67-18.09-9.54-17.2-7.97-32.48-3.7-45.15,9.11-17.2,17.39-34.05,35.19-50.12,53.64-6.72,7.71-14.06,10.61-23.73,11.06-21.78,1.01-43.55,2.34-65.27,4.16-10.25.86-20.95,1.7-29.31,8.76-4.08,3.45-8.01,7.65-10.48,12.32-4.49,8.5-6.11,18.07-7.18,27.59-2.56,22.82-4.73,45.68-7.54,68.46-.4,3.23-2.83,6.89-5.4,9.08-16.87,14.35-34.35,28-50.97,42.62-7.79,6.85-15.19,14.66-20.87,23.29-7.84,11.89-4.95,24.97,1.17,36.7,11.25,21.55,23,42.85,35.25,63.85,4.79,8.22,6.12,15.71,3.6,25-6.45,23.77-12.59,47.67-17.55,71.79-1.74,8.48-.71,17.95,1.05,26.57.89,4.39,5.53,8.89,9.63,11.57,10.24,6.68,21.04,12.52,31.79,18.38,11.31,6.17,24.07,9.74,33.61,19.1,6.75,6.63,8.23,13.36,3.46,21.48-5.1,8.68-12.64,15.05-21.8,19.13-17.95,8-35.49,4.29-52.67-2.78-13.82-5.69-27.71-11.3-41.14-17.82-8.77-4.26-17.06-9.71-25.06-15.35-10.09-7.12-15.03-17.73-16.36-29.69-.68-6.04-.38-12.46.91-18.4,4.07-18.83,8.7-37.54,13.31-56.24,3.47-14.04,7.61-27.93,10.68-42.06.87-4.02.19-9.25-1.77-12.85-11.51-21.19-23.9-41.9-35.4-63.09-6.08-11.21-11.58-22.82-16.28-34.67-6.94-17.5-2.86-33.49,9.79-46.96,7.32-7.79,15.54-14.76,23.63-21.79,10.28-8.95,20.81-17.62,31.28-26.35,7.03-5.86,13.83-12.07,21.32-17.27,9.06-6.29,12.21-14.64,13.31-25.3,3.08-29.95,6.89-59.83,10.9-89.66,1.52-11.34,5.49-22.31,13.72-30.46,4.78-4.73,11.34-8.13,17.68-10.67,5.56-2.23,11.89-2.79,17.95-3.47,14.14-1.6,28.31-3,42.49-4.17,13.6-1.12,27.22-2.13,40.85-2.67,26.16-1.03,20.49-1.75,36.57-18.39,8.64-8.95,16.76-18.4,25.07-27.67,7.44-8.3,14.23-17.3,22.38-24.82,11.17-10.3,22.12-21.51,37.98-24.7,10.76-2.16,21.25.16,30.39,5.41,22.64,13.02,44.79,26.88,67.09,40.49,7.53,4.6,14.9,9.48,22.36,14.19,4.4,2.78,8.99,3.74,14.28,2.63,27.21-5.71,54.41-11.57,81.76-16.54,11.05-2.01,22.52-2.86,33.74-2.44,12.13.46,22.09,6.7,29.5,16.53,10.26,13.63,16.08,29.47,22.26,45.11,7.77,19.68,15.49,39.38,23.05,59.14,2.34,6.1,6.03,10.45,12.13,13.11,15.41,6.74,30.75,13.67,46.01,20.76,13.84,6.43,27.65,12.94,41.25,19.85,10.36,5.26,19.42,12.57,25.02,22.81,3,5.48,4.63,12.18,5.13,18.46,1.2,15.16-3.18,29.7-6.84,44.22-4.51,17.9-9.29,35.74-13.95,53.61-1.35,5.16-2.56,10.35-4.06,15.46-1.62,5.48-.74,10.48,2.05,15.36,12.72,22.28,25.6,44.47,37.99,66.94,4.97,9.01,9.62,18.36,12.89,28.07,2.49,7.4,3.85,15.7,3.33,23.44-.41,6.1-3.6,12.5-7.05,17.8-8.64,13.27-20.95,23.15-33.12,33.02-17.58,14.25-35.25,28.37-52.82,42.64-7.77,6.31-8.11,15.45-9.17,24.43-3.52,29.73-6.99,59.48-11.1,89.13-1.47,10.62-5.37,20.93-13.16,28.62-4.48,4.42-10.28,8.39-16.21,10.24-10.25,3.2-20.98,5.29-31.66,6.56-13.04,1.56-26.23,1.8-39.36,2.61Z"/>
  <path class="cls-1" d="m645.23,756.7c2.11-5.19,3.88-10.55,6.39-15.54,7.95-15.83,16.12-31.56,24.3-47.27,5.6-10.77,11.36-21.45,17.05-32.17,11.94-22.49,23.87-45,35.84-67.48,32-60.1,63.99-120.2,96.08-180.25,5.57-10.42,11.65-20.57,17.49-30.85.33-.58.65-1.16,1.01-1.73,5.24-8.34,8.98-9.39,17.62-4.79,12.06,6.41,24.09,12.87,36.12,19.34,8.54,4.59,9.78,7.95,5.4,16.89-8.44,17.19-16.91,34.38-25.8,51.34-15.39,29.35-31.12,58.51-46.68,87.76-24.88,46.76-49.7,93.54-74.65,140.27-13.94,26.1-28.04,52.11-42.14,78.13-2.14,3.95-4.57,7.75-7.09,11.47-4.55,6.69-8.62,7.61-15.64,3.84-3.23-1.73-6.46-3.46-9.69-5.19-9.55-5.1-19.16-10.09-28.61-15.37-3.05-1.7-6.99-3.17-7-8.39Z"/>
  <path class="cls-1" d="m618.79,418.02c-.7-43.93,36.59-80.72,80.79-80.37,43.67.34,80.57,36.34,80.24,80.39-.35,45.7-35.38,80.5-80.65,80.73-45.69.23-81-37.17-80.38-80.75Zm111.22-.12c1.58-18.88-14.98-31.7-31.17-31.7-17.21,0-31.77,15-31.66,32.28.11,17.14,14.52,31.21,31.72,31.57,14.8.3,33.05-12.33,31.11-32.15Z"/>
  <path class="cls-1" d="m868.82,638.83c43.04-.23,80.51,33.67,80.71,80.02.19,44.53-33.89,80.73-80.17,80.97-45.49.24-80.69-34.74-81.07-80.19-.38-44.87,35.74-80.71,80.54-80.8Zm.34,48.93c-17.87-.31-32.05,12.88-32.08,31.3-.03,19.94,13.68,31.48,31.89,31.9,17.6.41,31.8-13.98,31.92-31.53.12-17.42-14.09-31.61-31.73-31.67Z"/>
</svg>