<?xml version="1.0" encoding="UTF-8"?>
<svg id="Layer_1" data-name="Layer 1" xmlns="http://www.w3.org/2000/svg" viewBox="0 0 1459 1473">
  <defs>
    <style>
      .cls-1 {
        fill: #4093a4;
      }
    </style>
  </defs>
  <path class="cls-1" d="m237.02,749.51c.03-52.56,9.62-103.13,29.29-151.75,17.64-43.61,41.39-83.91,67.66-122.79,24.18-35.8,49.54-70.69,80.51-101.07,3.96-3.89,8.19-7.77,12.95-10.53,10.03-5.82,18.2-2.6,20.95,8.57,3.13,12.75,5.02,25.79,7.68,38.66,5.73,27.62,14.71,54.02,30.6,77.59,3.68,5.45,8.28,10.45,13.14,14.91,9.6,8.79,21.26,8.4,31-.39,9.56-8.64,14.94-19.86,19.25-31.67,7.16-19.63,11.46-39.96,12.87-60.76,1.47-21.72,2.77-43.49,2.89-65.25.14-27.38-3.14-54.51-8.44-81.42-5.43-27.52-13.69-54.08-24.46-79.97-6.43-15.47-12.17-31.25-17.81-47.04-1.29-3.6-1.45-7.85-1.13-11.72.57-6.73,4.73-8.57,11.29-6.97,27.75,6.79,50.48,23.19,73.47,38.74,14.61,9.88,27.96,21.63,41.77,32.69,8.86,7.1,17.81,14.15,26.18,21.81,8.55,7.82,16.5,16.29,24.61,24.57,46.57,47.53,85.73,100.52,116.64,159.47,7.54,14.38,14.46,29.14,20.74,44.11,12.07,28.77,23.32,57.89,35.28,86.71,2.91,7.02,6.73,13.81,11.04,20.08,11.74,17.04,26.99,19.75,44.41,8.34,19.1-12.5,33.98-29.33,47.56-47.35,15.79-20.95,27.07-44.2,35.42-69.07,4.54-13.53,10.21-26.71,16.07-39.74,3.44-7.64,10.27-12.49,18.71-11.66,5.63.55,11.42,3.36,16.34,6.44,17.01,10.63,30.41,25.31,43.2,40.5,36.02,42.8,63.96,90.56,85.9,141.85,21.32,49.85,35.99,101.66,44.27,155.26,5.65,36.6,7.72,73.43,5.96,110.37-2.42,50.76-12.95,99.96-30.71,147.59-12.79,34.31-28.75,67.01-48.87,97.67-25.99,39.59-59.72,70.94-100.23,95.17-34.59,20.68-71.15,37.12-109.14,50.48-17.93,6.3-36.01,12.05-54.95,14.55-1.16.15-2.3.39-3.46.46-9.87.66-13.87-4.75-8.83-13.14,5.9-9.82,12.47-19.31,19.49-28.36,20.46-26.4,39.5-53.66,54.02-83.87,14.33-29.81,24.39-60.9,27.6-93.95,3.36-34.6-1.02-68.47-10.72-101.7-7.73-26.5-18.21-51.86-33.31-75.07-7.27-11.18-15.35-21.75-27.99-27.7-3.88-1.83-15.39-1.2-18.66,2.21-7.68,7.99-14.96,16.34-22.57,24.4-3.05,3.23-6.34,6.28-9.84,9-3.09,2.4-6.81,1.98-8.65-1.37-3.08-5.62-6.36-11.47-7.73-17.62-5.02-22.59-5.33-45.48-2.56-68.45.98-8.11,1.76-16.26,2.24-24.42.55-9.33,1.2-18.71.85-28.03-.42-10.93-7.43-15.62-18.06-12.99-13.33,3.3-24.9,10.25-36.11,17.8-25.56,17.2-48.64,37.18-68.19,61.12-17.06,20.87-28.25,44.64-35.54,70.43-4.17,14.74-8.48,29.44-12.9,44.11-.85,2.84-2.29,5.55-3.75,8.15-6.34,11.23-14.54,13.4-25.85,7.02-12.57-7.09-21.55-17.76-28.95-29.77-5.5-8.92-10.2-18.34-15.26-27.53-.32-.58-.63-1.18-.99-1.74-7.86-12.38-16.64-13.57-27.45-3.59-15.8,14.59-26.61,32.78-36.49,51.55-15.19,28.85-25.66,59.39-29.77,91.74-2,15.76-3.4,31.96-2.1,47.71,2.7,32.82,13.6,63.44,31.49,91.11,12.74,19.7,27.01,38.41,40.32,57.75,4.6,6.69,8.94,13.67,12.39,21,2.88,6.11-.22,10.45-6.77,9.14-12.34-2.45-24.89-4.98-36.54-9.54-48.99-19.19-93.05-46.77-133.2-80.66-39.03-32.94-72.14-71.03-98.39-114.85-17.35-28.96-30.67-59.81-41.07-91.98-12.05-37.23-20.11-75.29-24.35-114.11-2.22-20.33-2.89-40.83-4.27-61.25Z"/>
</svg>