<?xml version="1.0" encoding="UTF-8"?>
<svg id="Layer_1" data-name="Layer 1" xmlns="http://www.w3.org/2000/svg" viewBox="0 0 1079 1082">
  <defs>
    <style>
      .cls-1 {
        fill: #fff;
      }
    </style>
  </defs>
  <path d="m795.55,303.54c-.68,16.73-1.37,32.86-1.97,48.98-1.22,32.64-1.84,65.32-3.74,97.92-1.62,27.76-4.77,55.42-7.1,83.14-.53,6.3-.71,12.65-.6,18.97.51,31.23-2.22,62.29-5.73,93.24-3.11,27.42-7.62,54.69-11.79,81.99-.78,5.13-2.41,10.24-4.4,15.05-4.15,9.99-13.15,12.68-22.77,13.39-8.46.63-16.99.51-25.48.5-105.82-.13-211.65-.32-317.47-.42-12.82-.01-25.65.46-38.47.7-1.33.03-2.67.03-4,.01-16.82-.19-23.81-5.58-26.96-21.86-4.73-24.49-9.71-48.97-13.34-73.64-2.91-19.74-4.19-39.73-5.8-59.65-3.96-48.98-7.06-98.03-11.71-146.94-4.56-47.93-5.79-95.77-1.37-143.74.23-2.55,1.05-3.56,3.59-3.48,15.29.53,30.58.99,45.87,1.53,1.31.05,2.73.26,3.89.82,8.73,4.21,17.27,3.11,26.08-.05,14.51-5.2,29.75-5.19,44.92-5.38,7.33-.09,14.66-.38,21.99-.28,3.4.04,4.7-1.17,4.97-4.55,1.08-13.45,2.02-26.93,3.67-40.31,2.67-21.63,5.46-43.27,8.94-64.78,2.89-17.88,6.08-35.79,10.52-53.34,5.82-23.03,9.78-46.64,19.75-68.49,5.76-12.63,12.43-24.67,21.7-35.13,8.44-9.52,19.02-15.73,31.52-16.55,14.51-.94,27.07,4.82,36.55,16.09,9.4,11.18,14.38,24.77,18.73,38.37,9.08,28.35,18.13,56.75,25.88,85.49,5.75,21.33,10.33,43.09,13.76,64.91,3.12,19.86,3.9,40.09,5.89,60.14,1.45,14.6,2.38,15.34,17.21,15.85,17.64.61,35.31.92,52.92,1.99,4.56.28,8.9,3.17,13.48,4.35,2.67.69,5.69.85,8.4.38,5.01-.87,9.86-3.12,14.87-3.47,14.62-1.02,29.29-1.38,43.94-1.98,1.12-.05,2.26.12,3.66.2Zm-308.6-29.37c-.23,0-.46,0-.69,0,0,7.83.08,15.65-.04,23.48-.05,3.32.89,4.67,4.61,4.54,15.48-.55,30.97-.82,46.46-.99,1.92-.02,3.9,1.13,5.78,1.92,5.28,2.23,10.46,4.73,15.83,6.74,1.3.49,3.28-.25,4.74-.89,10.63-4.68,21.09-9.78,33.2-9.16,3.46.18,4.91-1.5,4.37-5.32-1.78-12.52-3.16-25.1-4.84-37.64-3.6-26.89-7.53-53.75-10.86-80.67-3.47-28.09-6.2-56.27-9.65-84.37-1.84-15-3.9-29.96-11.13-43.77-4.41-8.42-11.58-11.57-19.88-13.28-6.95-1.43-12.49,1.96-17.7,6.25-18.33,15.13-23.9,36.56-27.46,58.3-3.49,21.32-5.39,42.97-6.82,64.56-2.45,36.73-4,73.53-5.92,110.3Zm-20.26,203.81c.11,0,.21,0,.32,0,0,3.5-.21,7.01.04,10.49.9,12.86,3.02,25.53,9.54,36.84,15.24,26.45,38.27,38.76,68.79,36.87,28.61-1.78,54.89-24.14,61.92-52.1,3.5-13.9,3.9-27.96,3.91-42.13,0-2.13.76-4.55,1.93-6.34,7.33-11.18,5.75-25.05-4.11-34-9.46-8.59-24.19-8.77-33.82-.41-10.09,8.76-12.09,22.61-4.9,33.82.79,1.24,2.16,2.59,2.09,3.82-.69,11.61-.65,23.38-2.75,34.75-2.81,15.2-15.16,24.39-30.32,24.58-15.4.19-27.86-8.83-31.05-24.27-2.04-9.85-1.81-20.16-2.66-30.25-.3-3.52.3-6.48,2.34-9.67,6.8-10.6,4.47-24.1-5.08-32.55-9.18-8.12-23.06-8.56-32.68-1.04-10.13,7.92-13.5,21.82-6.8,32.59,2.89,4.65,3.53,9.01,3.31,13.99-.07,1.66-.01,3.33-.01,5Zm73.9,182.46c22.95-.71,41.23-21.38,38.62-45.23-2.28-20.88-22.03-37.82-43.04-35.92-23.91,2.16-39.03,21.63-37.85,42.33,1.32,23.21,20.87,40.66,42.27,38.82Z"/>
  <g>
    <path class="cls-1" d="m824.24,1082H254.76v-320.33h569.48v320.33Zm-285.15-206.46c-.11-.02-.22-.03-.34-.05,0-.51,0-1.03,0-1.54.09-4.2.2-8.39.28-12.59.07-3.26-1.42-5.62-4.38-6.92-4.48-1.98-8.96-1.67-13.33.39-2.82,1.33-4.39,3.57-4.51,6.75-.08,2.22-.22,4.44-.26,6.66-.12,7.7-.25,15.4-.28,23.11-.02,5.18.11,10.37.23,15.55.09,3.76-.11,7.48-.87,11.19-2.1,10.24-4.48,20.37-9.81,29.52-.68,1.17-1.91,2.05-2.97,2.96-.22.19-1.06.06-1.22-.18-.69-1.05-1.47-2.13-1.8-3.31-1.79-6.44-1.92-13.09-1.94-19.69-.04-11.7.29-23.4.55-35.1.09-4.29.4-8.58.63-12.86.36-6.6.71-13.2,1.13-19.79.25-3.93-2.44-6.38-5.26-7.35-3.81-1.32-7.58-1.1-11.31.31-2.5.95-4.3,2.58-5.57,5.01-2.68,5.09-3.51,10.64-4.56,16.17-2.01,10.57-3.97,21.15-6.3,31.65-1.18,5.31-3.32,10.35-7.11,14.48-1.19,1.3-2.46,1.26-3.33-.24-.44-.75-.88-1.6-.99-2.44-.48-3.71-1.09-7.44-1.17-11.17-.13-5.52,0-11.06.29-16.58.28-5.42.81-10.82,1.36-16.22.43-4.27,1.07-8.51,1.59-12.77.3-2.44-.88-4.14-2.93-5.17-5.23-2.63-10.36-1.84-15.3.84-2.6,1.41-4.05,3.71-4.37,6.66-.52,4.76-1.05,9.51-1.45,14.28-.64,7.63-.64,15.28.02,22.91.16,1.84-.27,3.37-1.42,4.8-2.14,2.65-4.13,5.42-6.33,8.01-1.41,1.66-3.09,3.1-4.94,4.92-.19-.98-.31-1.45-.36-1.92-.84-7.9-1.68-15.8-2.49-23.7-1.09-10.65-2.17-21.3-3.2-31.96-.36-3.78-1.98-5.9-5.7-6.75-5.08-1.16-9.75-.04-13.83,3.1-1.22.94-2.24,2.45-2.76,3.91-.98,2.78-1.69,5.68-2.24,8.58-1.56,8.24-2.98,16.51-4.47,24.77-1.24,6.86-2.55,13.7-5.28,20.16-1.23,2.92-2.67,5.73-4.93,8.03-1.38,1.4-2.57,1.27-3.51-.48-.37-.69-.71-1.45-.81-2.21-.45-3.27-1.08-6.55-1.14-9.83-.1-6.27-.03-12.55.3-18.8.33-6.1,1.03-12.19,1.64-18.28.34-3.38.92-6.74,1.24-10.13.21-2.26-.97-3.87-2.94-4.89-4.37-2.26-8.81-1.82-13.2-.17-3.81,1.43-6.17,4.13-6.57,8.34-.22,2.36-.7,4.69-.84,7.05-.39,6.75-.84,13.5-.92,20.25-.05,4.38.34,8.78.8,13.14.8,7.6,2.14,15.1,6.59,21.57,1.89,2.75,4.34,4.76,7.86,5.52,2.83.61,5.34-.03,7.99-.61,3.72-.81,6.54-2.89,8.85-5.79,3.32-4.17,5.45-8.97,6.81-14.04,2.17-8.1,4.01-16.3,6-24.45.08-.33.22-.65.47-1.39.19,1.09.33,1.71.41,2.34,1.52,13.33,3.01,26.67,4.6,40,.17,1.43-.28,2.03-1.48,2.59-9.74,4.49-18.84,10-26.91,17.11-6.63,5.84-12.16,12.54-15.79,20.67-4.26,9.56-5.56,19.32-1.7,29.34,2.52,6.53,6.74,11.58,13.25,14.45,5.19,2.29,10.67,2.89,16.25,2.05,13.68-2.06,24.07-9.07,30.8-21.16,6.03-10.83,8.04-22.74,8.53-34.93.26-6.4.11-12.83,0-19.24-.08-4.64-.45-9.27-.6-13.9-.02-.61.37-1.39.82-1.83,3.13-3.07,6.36-6.04,9.49-9.11,1.04-1.01,1.88-2.22,2.93-3.47.21.48.37.73.44,1,1.05,4.71,2.5,9.31,5.47,13.15,1.43,1.85,3.36,3.79,5.48,4.54,5.73,2.06,11.2.67,16.04-2.88,3.15-2.31,5.06-5.64,6.7-9.1,2.86-6.02,4.54-12.41,6.04-18.87.14-.58.32-1.16.48-1.74.36.39.41.72.42,1.04.21,6.96.3,13.92.64,20.86.34,7.12,1.32,14.16,3.42,21,1.74,5.66,3.94,11.12,8.45,15.23,4.07,3.7,8.81,4.68,14.14,3.19,2.5-.7,4.38-2.24,6.13-3.97,3.99-3.93,6.4-8.87,8.38-13.99,1.33-3.45,2.33-7.03,3.42-10.56.29-.94.67-1.27,1.69-1.02,2.96.71,5.92.41,8.76-.55,5.36-1.81,9.01-4.87,8.41-11.37-.21-2.25-.49-4.58-.18-6.79,1.61-11.5,3.78-22.9,7.11-34.04,1.09-3.63,2.38-7.23,4.03-10.63,1-2.07,2.75-3.84,4.4-5.5,1.32-1.33,2.91-.85,3.73.86.36.75.75,1.55.84,2.36.52,4.85,1.2,9.7,1.34,14.56.17,5.87-.09,11.75-.26,17.62-.1,3.5-.33,7-.63,10.49-.8,9.4-1.43,18.81-1.06,28.25.2,5.1.98,10.11,3.19,14.82,3.43,7.32,10.83,11.08,18.78,9.76,7.65-1.26,12.83-5.68,16.62-12.13,3.52-5.99,5.96-12.46,8.4-18.94.21-.57.49-1.11.84-1.9,1.65,2.09,3.62,3.16,5.99,3.29,1.61.09,3.27.17,4.85-.1,4.26-.73,8.15-2.25,10.31-6.36.53-1.01.95-2.31.79-3.39-.56-3.79.6-7.35,1.17-10.99.08-.53.24-1.06.36-1.58.74,3.96,1.23,7.87,1.9,11.75,1.86,10.8,5.48,20.91,12.07,29.8,3.63,4.89,8.24,8.31,14.36,9.45,9.55,1.79,15.96-1.22,20.18-9.95,2.01-4.16,3.5-8.59,5.18-12.91.49-1.25.84-2.55,1.26-3.82.5,1.04.69,2.05.89,3.06,1.43,6.92,3.48,13.58,7.94,19.26,3.48,4.43,8.17,6.29,13.55,5.82,4.35-.37,7.76-3.03,10.42-6.44,4.83-6.19,7.69-13.38,9.52-20.89,1.98-8.14,3.49-16.41,5-24.65.75-4.07,1.05-8.22,1.52-12.34.12-1.08.19-2.17-.88-2.95-1.79-1.3-6.14-.51-6.55,2.63-.87,6.75-1.99,13.48-3.2,20.18-2.04,11.3-4.54,22.49-10.43,32.56-.63,1.09-1.79,1.88-2.77,2.73-.19.17-.86.13-1.02-.06-.64-.73-1.43-1.48-1.7-2.37-.58-1.93-1.06-3.92-1.27-5.93-1.02-9.48-1.32-18.99-.96-28.53.32-8.58.43-17.17.7-25.76.14-4.39.45-8.77.67-13.16.27-5.22.56-10.44.79-15.67.13-2.96-1.38-5-3.94-6.23-4.33-2.07-8.73-1.78-13.07,0-2.86,1.17-4.91,3.13-5.39,6.34-.14.97-.13,1.97-.17,2.95-.48,10.5-.94,21-1.44,31.5-.15,3.1-.21,6.22-.62,9.29-1.46,10.92-3.31,21.77-6.21,32.41-1.26,4.63-2.58,9.26-5.24,13.32-.8,1.22-1.98,2.42-3.27,3.05-1.58.78-3.68-.24-4.71-2.13-1.31-2.42-2.65-4.88-3.46-7.49-3.93-12.62-5.27-25.69-6.42-38.78-.48-5.5-.65-11.03-1.02-16.55-.15-2.24-.21-2.2,1.98-2.79,4.91-1.32,9.56-3.22,13.53-6.47,3.5-2.87,5.87-6.48,6.19-11.07.43-6.23-3.82-11.62-10.23-13.3-6.73-1.76-12.45.2-17.47,4.77-4,3.64-6.91,8.09-9.73,12.63-.62,1-1.5,1.94-2.46,2.62-2.68,1.89-4.34,4.27-4.26,7.66.03,1.09.17,2.21-.03,3.25-.41,2.12-1.02,4.21-1.55,6.31l-.49-.09c-.08-.62-.21-1.25-.23-1.87-.21-10.32-.54-20.63-.58-30.95-.09-21.39-.03-42.78-.03-64.16,0-.64.04-1.28.05-1.92.07-4.64.21-9.28.18-13.92-.02-2.91-1.65-4.91-4.24-6.07-4.01-1.8-8.08-1.64-12.11-.11-3.4,1.29-5.71,3.55-5.8,7.43-.21,9.13-.54,18.26-.55,27.39-.02,21.09.1,42.18.22,63.27.04,7.95.23,15.9.35,23.85,0,.3.02.59.04.89.41,5.48.29,10.82-1.46,16.21-3.13,9.68-5.71,19.53-9.96,28.82-1.82,3.97-3.95,7.75-7.1,10.85-1.69,1.67-3,1.42-3.44-.87-.46-2.4-.72-4.91-.59-7.34.35-6.45.82-12.9,1.48-19.33,1.09-10.66,1.92-21.33,1.71-32.06-.12-6.4-.87-12.7-2.77-18.83-2.39-7.7-6.62-13.8-14.31-17.14-9.47-4.12-19.48-.86-24.39,8.19-1.24,2.29-2.24,4.72-3.25,7.14-.78,1.89-1.4,3.84-2.09,5.77Zm80.67,120.31c.47-.06.77,0,.9-.13,1.3-1.15,2.19-2.58,2.26-4.34.04-1.11-.57-1.98-1.76-1.98-1.01,0-2.1.12-3.01.52-3.87,1.71-5.14,5.7-2.99,9.47.78,1.36.88,2.18-.44,3.32-.99.84-1.73,2.18-2.14,3.45-.69,2.13.67,3.84,2.78,3.89,3.16.08,5.73-2.44,5.59-5.59-.05-1.01-.45-2.01-.62-3.02-.06-.37-.03-1.04.14-1.11,1.28-.5,2.6-.88,4.12-1.36-.09.77-.16,1.11-.17,1.45-.07,2.21-.37,4.45-.12,6.62.33,2.76,2.39,3.73,4.87,2.48.98-.49,1.79-1.35,2.63-2.1.46-.41.81-.94,1.27-1.5.49,3.53.98,4.02,3.75,3.77-.88.8-1.68,1.51-2.46,2.25-3.17,2.97-5.91,6.27-7.45,10.38-.58,1.54-1,3.24-1.01,4.88-.03,3.06,2.2,4.75,5.23,4.33,2.13-.3,3.92-1.28,5.47-2.74,2.28-2.14,3.99-4.73,4.91-7.67,1.61-5.12,2.91-10.34,4.34-15.52.14-.52.15-1.23.5-1.51,1.51-1.21,3.13-2.3,4.68-3.41,0,2.03-.12,3.85.02,5.65.27,3.47,2.8,4.72,5.72,2.85.93-.6,1.68-1.51,2.46-2.32.43-.45.77-1,1.19-1.56.13.24.23.35.27.48.98,3.75,2.98,4.81,6.57,3.45.64-.24,1.28-.55,1.86-.91,3.63-2.26,6.15-5.51,8.13-9.23.18-.35.22-.77.32-1.16-.16-.09-.32-.18-.47-.27-.38.48-.86.92-1.13,1.45-1.39,2.77-3.18,5.26-5.59,7.2-1.01.82-2.22,1.5-3.45,1.92-1.58.54-2.89-.28-2.94-1.93-.07-2.19.15-4.41.41-6.59.05-.42.81-.85,1.33-1.11,1.67-.82,3.58-1.29,5.01-2.4,1.2-.93,2.15-2.45,2.67-3.9.61-1.71-.49-2.85-2.32-2.9-2.83-.08-4.88,1.35-6.53,3.48-1.94,2.51-3,5.41-3.72,8.48-.59,2.48-2.08,4.47-3.92,6.14-1.22,1.11-2.2.76-2.56-.84-.19-.85-.31-1.79-.17-2.64.81-5.11,1.69-10.22,2.62-15.31.08-.44.67-.99,1.13-1.14,3.74-1.2,6.54-3.61,8.84-6.68,2.04-2.73,3.61-5.69,3.69-9.2.06-2.54-1.57-3.99-4.01-3.3-1.66.47-3.32,1.32-4.67,2.39-2.61,2.07-4.19,4.95-5.38,8.03-2.14,5.51-3.24,11.28-4.23,17.07-.17,1.02-.07,2.37-.69,2.96-1.36,1.32-3.1,2.25-5.01,3.57.69-4.04,1.32-7.58,1.87-11.13.09-.55-.18-1.15-.29-1.73-.69.14-1.49.12-2.04.48-.46.31-.71,1.04-.91,1.63-.65,1.97-1.05,4.04-1.9,5.92-1.47,3.27-3.18,6.43-4.87,9.6-.22.41-.93.56-1.41.82-.13-.5-.43-1.03-.37-1.5.33-2.39.67-4.79,1.18-7.15.6-2.75,1.41-5.45,2.08-8.18.35-1.41-.23-2.02-1.51-1.43-.78.36-1.64,1.19-1.89,1.98-.96,3.16-1.42,6.49-2.59,9.56-.85,2.23-2.37,4.28-3.89,6.16-1.02,1.26-2.18.81-2.49-.8-.21-1.1-.38-2.29-.19-3.37,1.38-7.92,2.86-15.82,4.28-23.73.2-1.14.66-1.3,1.73-.96,2.4.75,4.81,1.52,7.28,1.96,4.43.8,8.73-1.12,10.74-4.65.5-.88.68-1.93,1.01-2.9-.18-.13-.36-.26-.54-.38-.5.3-1.06.52-1.47.91-.42.4-.73.93-1.04,1.43-1.87,2.96-4.58,4-7.9,3.23-2.69-.62-5.31-1.53-7.96-2.28-.74-.21-.89-.61-.68-1.32.45-1.56.87-3.14,1.22-4.73.1-.47.09-1.23-.19-1.45-.31-.25-1.11-.23-1.48,0-.57.37-1.13.95-1.38,1.57-.43,1.04-.71,2.16-.9,3.28-.23,1.32-.87,1.48-2.08,1.25-2.37-.44-4.77-.9-7.17-.97-3.45-.1-6.67.8-9.15,3.43-.52.55-.85,1.27-1.27,1.91.16.14.32.28.48.43.46-.35,1.01-.64,1.38-1.07,1.21-1.41,2.71-2.26,4.52-2.61,3.72-.71,7.25.29,10.8,1.14,1.11.27,1.4.68,1.15,1.84-1.17,5.4-2.38,10.8-3.26,16.25-.36,2.22-.98,3.45-3.37,3.93-2.83.56-2.79.8-3.94-1.88-.19-.45-.45-.96-.39-1.41.15-1.24.23-2.58.79-3.63.31-.58,1.56-.65,2.39-.95.08.81.34,1.67.18,2.43-.17.81-.75,1.53-1.25,2.48Zm-145.3,10.44c1.15,3.77,4.28,4.56,7.25,1.75.64-.6,1.28-1.3,1.65-2.08.91-1.91,1.76-3.85,2.42-5.85.38-1.15,1.01-1.6,2.04-1.3,1.11.33.88,1.16.53,2.04-.77,1.95-1.27,3.96-.78,6.07.48,2.09,1.93,3.02,4.06,2.65,1.84-.32,3.26-1.38,4.1-2.91,1.16-2.1,2.18-4.31,2.92-6.59.43-1.33,1.27-1.34,2.21-1.44,1.4-.15,1.34,1.22,1.89,1.94.64.83-.15,1.2-.64,1.65-1.44,1.28-2.59,2.74-2.65,4.77-.06,1.83,1.06,2.98,2.88,3.04,3.21.11,5.85-2.52,5.64-5.72-.06-.97-.5-1.9-.63-2.87-.06-.41.11-1.14.38-1.27,1-.46,2.08-.72,3.32-1.11-.24,1.51-.5,2.7-.6,3.91-.19,2.3-.28,4.73,1.94,6.15,2.28,1.46,4.51.36,6.52-.86,3.66-2.22,6.15-5.51,8.12-9.22.18-.34.2-.76.29-1.15-.16-.09-.32-.17-.48-.26-.38.5-.83.95-1.11,1.49-1.51,2.94-3.42,5.56-6.06,7.57-.81.62-1.75,1.14-2.71,1.46-1.88.62-3.21-.22-3.28-2.19-.07-1.91.15-3.83.3-5.74.08-1,.68-1.45,1.67-1.75,1.5-.45,2.99-1.04,4.33-1.83,1.6-.94,2.83-2.32,3.26-4.23.4-1.76-.47-2.93-2.25-3.04-2.05-.12-3.87.56-5.23,2-1.21,1.27-2.38,2.71-3.09,4.28-.79,1.74-1.82,2.64-3.68,3.09-2.84.69-2.81.84-3.95-1.86-.23-.54-.44-1.12-.5-1.7-.16-1.43.04-2.85,1.25-3.75.54-.4,1.42-.33,2.15-.47.08.69.37,1.43.2,2.05-.24.91-.81,1.73-1.45,3.01.71-.33,1.17-.39,1.32-.64.66-1.08,1.44-2.16,1.78-3.35.51-1.77-.55-2.9-2.39-2.76-2.15.16-3.83,1.2-5.09,2.93-1.16,1.59-1.54,3.38-1.13,5.4-.69.13-1.25.24-1.97.38,0-1.59.15-3.02-.03-4.41-.54-4.18-3.76-5.59-7.3-3.24-2.21,1.47-3.5,3.58-3.93,6.19-.15.88-.39,1.51-1.39,1.26-.17-1.9-.17-3.74-.52-5.5-.39-1.94-1.72-2.92-3.53-3.02-4.51-.24-8.73,5.84-6.92,9.93.13.29.22.68.14.97-.73,2.66-1.96,5.06-3.98,6.98-.43.4-1.07.58-1.62.86-.16-.59-.53-1.2-.45-1.76.32-2.39.77-4.77,1.16-7.15.36-2.19.88-4.37.98-6.57.13-2.83-1.27-3.73-3.99-2.84-1.97.64-3.17,2.17-4.12,3.86-1.03,1.84-1.87,3.79-2.93,5.96.72-3.7,1.34-7.15,2.1-10.56.13-.57.79-1.23,1.35-1.45,6.31-2.4,10.06-7.07,12.04-13.34.28-.87.33-1.85.33-2.78-.01-2.17-1.42-3.5-3.54-3.11-1.37.25-2.78.79-3.94,1.56-3.34,2.22-5.26,5.55-6.65,9.22-2.33,6.13-3.47,12.54-4.48,18.98-.78,4.98-4.05,7.97-8.3,10.02-1.85.89-3.09.07-3.39-1.96-.68-4.63.67-8.79,3.3-12.56.61-.87,1.43-1.68,2.33-2.24.56-.35,1.69-.49,2.1-.16.41.33.47,1.47.25,2.09-.28.79-1,1.43-1.55,2.12-.29.36-.63.66-1.16,1.21.58.04.86.15,1.02.05,1.58-1.01,2.9-2.27,3.26-4.19.38-2.07-.56-3.1-2.68-3.03-2.31.08-4.19,1.07-5.67,2.8-2.07,2.41-3.52,5.17-4.01,8.3-.32,2.01-.51,4.14-.19,6.12.4,2.5,2.44,3.5,4.92,2.95,3.14-.7,5.48-2.61,7.56-4.94.4-.44.79-.9,1.18-1.34.04,1.72-.2,3.28-.32,4.84-.04.47.11,1.19.43,1.39.35.23,1.15.19,1.49-.08.52-.42.99-1.07,1.17-1.71,1.29-4.77,2.54-9.55,5.04-13.87.51-.89,1.16-1.72,1.86-2.46.32-.33.96-.54,1.41-.47.22.03.5.83.46,1.26-.23,2.15-.54,4.3-.87,6.44-.42,2.73-1.08,5.43-1.29,8.17-.23,3.04,1.7,4.17,4.35,2.6,1.37-.81,2.49-2.04,3.79-3.13Zm76.57-3.93c.06-.65.07-.94.12-1.21.56-3.36,1.16-6.71,1.68-10.07.07-.46-.04-1.29-.3-1.4-.46-.2-1.29-.19-1.63.11-.59.51-1.1,1.26-1.32,2-1.54,5.06-3.03,10.14-6.11,14.54-.49.7-1.33,1.17-2.01,1.74-.13-.87-.52-1.8-.36-2.61.98-4.73,2.1-9.43,3.14-14.15.1-.48.15-1.23-.12-1.45-.32-.26-1.12-.29-1.49-.06-.66.41-1.31,1-1.67,1.68-.41.76-.55,1.68-.73,2.55-.84,4.05-1.84,8.08-2.42,12.16-.37,2.66.38,3.28,3.12,3.93-.29.37-.74.59-1.09.9-3.16,2.81-5.94,5.93-7.81,9.77-1,2.06-1.81,4.17-1.68,6.52.16,2.89,2.21,4.61,5.08,4.23,2.8-.37,4.97-1.82,6.76-3.92,2.18-2.56,3.71-5.51,4.64-8.7,1.3-4.5,2.38-9.06,3.56-13.59.12-.47.19-1.09.51-1.34,1.48-1.15,3.04-2.2,4.65-3.34-.28,1.68-.65,3.13-.72,4.59-.07,1.54.09,3.15,1.69,3.99,1.67.88,3.31.46,4.72-.62.84-.65,1.69-1.45,2.18-2.37.99-1.86,1.84-3.81,2.57-5.79.63-1.72.98-2.03,2.87-1.58-.28,2.19-.64,4.38-.8,6.59-.12,1.64,0,3.35,1.87,4.14,1.32.56,3.15-.29,4.43-1.98.48-.63.88-1.31,1.31-1.97.26-.39.51-.79.97-1.5.04.89.05,1.41.1,1.93.14,1.56.35,3.12,2.08,3.77,1.67.63,2.95-.26,4.17-1.26.3-.25.58-.54.84-.84.52-.61,1.02-1.23,1.81-2.19-.2,1.39-.35,2.31-.45,3.23-.14,1.28.69,1.96,1.73,1.22.79-.56,1.45-1.6,1.71-2.55,1.36-5.13,2.84-10.19,6.03-14.54.48-.65,1.05-1.23,1.58-1.84.13.05.26.11.39.16,0,.5.07,1.02-.01,1.51-.37,2.34-.82,4.66-1.16,7.01-.15,1.06-.08,2.18,1.29,2.45,1.56.31,5.39-2.29,6-4.27-.75.53-1.27.92-1.82,1.29-.59.4-1.19.77-1.79,1.15l-.4-.23c.15-.94.28-1.88.45-2.82.31-1.75.72-3.48.93-5.24.26-2.23-1.11-3.34-3.19-2.49-1.04.43-2.07,1.24-2.72,2.15-1.47,2.05-2.7,4.26-4.09,6.51.45-2.51.91-4.92,1.3-7.35.19-1.18-.42-1.64-1.56-1.33-1.06.3-1.45,1.09-1.62,2.08-.5,2.77-.92,5.55-1.56,8.29-.68,2.95-2.26,5.45-4.39,7.58-.33.32-1.06.59-1.42.44-.38-.16-.73-.84-.74-1.31-.05-1.47-.14-3,.14-4.42.75-3.72,1.71-7.39,2.54-11.1.11-.47.11-1.34-.11-1.44-.46-.21-1.19-.21-1.64.03-.51.26-.98.82-1.21,1.36-.39.9-.52,1.91-.86,2.83-1.34,3.54-2.67,7.09-4.11,10.59-.38.94-1.09,1.76-1.75,2.55-.28.34-.8.49-1.21.72-.22-.46-.58-.91-.64-1.4-.09-.77-.08-1.59.07-2.36.88-4.25,1.82-8.48,2.7-12.72.1-.48.1-1.33-.15-1.46-.43-.24-1.2-.23-1.63.01-.54.31-1.05.91-1.26,1.5-.51,1.44-.85,2.94-1.23,4.42-.55,2.1-.64,2.17-3.07,2.01,0-.47.03-.95,0-1.42-.09-1.28-.05-2.58-.33-3.82-.57-2.54-2.47-3.64-5.02-3.07-3.6.8-6.58,5.32-5.96,8.96.06.37,0,.98-.23,1.15-1.24.93-2.56,1.76-4.1,2.79Zm146.06-153.9c3.2.12,6.3-1.1,9.03-3.16,3.08-2.33,3.6-5.76,2.93-9.23-.58-3-3.11-4.4-5.9-4.92-5.19-.96-10.01-.06-14.1,3.54-3.07,2.7-3.24,7.96-.39,10.9,2.24,2.32,5.06,2.89,8.43,2.86Zm-151.4,201.1c.62-.03,1.15-.07,1.68-.07,1.63-.01,3.26.04,4.89-.05.38-.02.99-.49,1.05-.83.31-1.91-1.2-4.32-3-4.98-2.05-.75-4.3-.02-5.47,1.78-1.26,1.94-1.25,5.29.06,7.19,1.13,1.65,2.76,2.22,4.65,1.89,1.71-.29,2.93-1.25,3.48-2.99-1-.74-1.46-.14-2.01.5-.99,1.15-2.36,1.46-3.61.82-1.25-.64-1.84-1.69-1.72-3.26Zm95.18,1.97c-1.02-.72-1.46-.2-1.99.41-1.72,1.96-4.46,1.41-5.29-1.01-.35-1.01-.13-1.48,1.02-1.45,1.78.05,3.56.05,5.33-.03.41-.02,1.06-.41,1.14-.74.43-1.77-1.1-4.35-2.88-5.05-2.02-.8-4.32-.1-5.51,1.66-1.37,2.04-1.33,5.46.12,7.43,1.11,1.5,2.66,2.01,4.44,1.76,1.74-.25,2.94-1.25,3.62-2.98Zm-29.95-2.5c.01-2.93-1.25-4.99-3.49-5.52-1.79-.42-3.49-.14-4.71,1.36-1.69,2.07-1.76,4.44-.84,6.84.65,1.7,1.96,2.69,3.81,2.84,3.16.26,5.22-1.93,5.24-5.52Zm-135.66-5.66c-2.91,0-4.81,2.18-4.82,5.55-.01,3.39,1.84,5.61,4.72,5.65,2.95.04,4.94-2.23,4.93-5.62,0-3.34-1.94-5.57-4.83-5.57Zm104.36,3.64c.1-.15.21-.29.31-.44-.37-2.28-2.22-3.5-4.79-3.17-1.74.22-2.97,1.33-3.15,2.84-.17,1.4.61,2.41,2.45,3.05,1.07.37,2.21.57,3.23,1.02.44.19.96.84.95,1.27,0,.44-.52,1.04-.97,1.27-1.47.74-3.31.21-4.15-1.16-.38-.62-.79-1.18-1.44-.66-.24.19-.12,1.12.12,1.55,1.27,2.27,5.64,2.73,7.44.84,1.15-1.2.98-3.06-.48-3.94-.78-.48-1.72-.69-2.6-1.01-.69-.25-1.45-.37-2.07-.73-.4-.24-.87-.83-.84-1.23.04-.48.47-1.09.9-1.36,1.16-.74,2.68-.28,3.68.88.36.42.93.67,1.4.99Zm-89.41-2.58c-.55-.33-.92-.56-1.29-.78-.21.38-.6.75-.61,1.14-.05,2.76-.06,5.53,0,8.29.01.42.53.82.81,1.23.24-.4.68-.79.7-1.2.08-1.82,0-3.65.07-5.47.07-1.83,1.21-2.89,2.91-2.85,1.49.04,2.24.92,2.29,2.84.05,1.87-.01,3.75.07,5.62.02.36.45.71.7,1.06.28-.36.79-.71.81-1.08.09-1.77.05-3.55.04-5.33-.01-1.7-.3-3.33-2-4.15-1.68-.81-3.26-.42-4.5.68Zm39,.08c-.51-.34-.89-.6-1.26-.86-.19.39-.54.78-.54,1.18-.05,2.76-.05,5.52,0,8.28,0,.4.44.8.68,1.19.28-.42.78-.82.8-1.25.1-1.82,0-3.65.1-5.47.09-1.87,1.2-2.87,2.93-2.81,1.47.05,2.24.98,2.28,2.87.04,1.77-.03,3.55.05,5.32.02.46.45.89.69,1.34.28-.47.79-.92.81-1.4.1-1.77.08-3.55.02-5.32-.05-1.64-.42-3.19-2.14-3.9-1.66-.68-3.19-.36-4.42.83Zm63.82,9.87c.14-.1.54-.4.94-.7-.41-.24-.8-.66-1.23-.7-1.09-.1-1.44-.66-1.43-1.65.02-1.67.04-3.35-.01-5.02-.03-.95.31-1.3,1.27-1.33.47-.01.93-.43,1.39-.67-.44-.25-.87-.68-1.34-.72-.89-.07-1.36-.3-1.36-1.3,0-.35-.44-.7-.68-1.05-.28.37-.56.74-.85,1.11-.32.41-.63.84-.95,1.24-.19.24-.58.45-.58.68,0,.24.34.65.57.68.99.13.96.82.96,1.53,0,1.72-.04,3.45.04,5.17.09,1.86.98,2.65,3.23,2.74Zm-87.44-7.76s.03,0,.05,0c0,1.92-.07,3.85.02,5.77.07,1.36,1.03,2.11,2.27,1.93.28-.04.69-.28.74-.5.06-.22-.23-.75-.41-.78-1.22-.14-1.13-1-1.13-1.86,0-3.31.03-6.61-.03-9.92,0-.41-.43-.82-.66-1.23-.29.42-.8.82-.82,1.25-.09,1.77-.04,3.55-.04,5.33Zm115.18-2.28c-.24-.16-.63-.42-1.03-.68-.16.41-.46.82-.46,1.23-.04,2.81-.04,5.63.02,8.44,0,.32.49.64.75.96.22-.31.61-.62.63-.94.07-1.53.03-3.06.04-4.59.02-2.68.27-2.99,2.8-3.86.28-.09.44-.52.65-.79-.26-.17-.55-.53-.77-.49-.88.17-1.74.46-2.63.72Zm-102.38,4.6c0-1.43.05-2.87-.03-4.29-.02-.35-.46-.68-.71-1.02-.27.33-.76.66-.76,1-.06,2.86-.07,5.73,0,8.59,0,.37.53.72.82,1.08.23-.35.64-.7.66-1.06.08-1.43.03-2.86.03-4.29Zm.45-7.79c-.6-.47-.92-.73-1.24-.98-.26.34-.68.65-.72,1.02-.03.26.44.82.7.82.32,0,.65-.41,1.27-.86Z"/>
    <path d="m539.09,875.54c.69-1.92,1.31-3.88,2.09-5.77,1-2.41,2-4.84,3.25-7.14,4.91-9.05,14.92-12.3,24.39-8.19,7.69,3.34,11.92,9.44,14.31,17.14,1.9,6.13,2.65,12.43,2.77,18.83.2,10.73-.62,21.4-1.71,32.06-.66,6.43-1.14,12.88-1.48,19.33-.13,2.44.13,4.94.59,7.34.44,2.28,1.74,2.53,3.44.87,3.15-3.1,5.28-6.88,7.1-10.85,4.26-9.29,6.83-19.14,9.96-28.82,1.75-5.39,1.86-10.73,1.46-16.21-.02-.3-.03-.59-.04-.89-.12-7.95-.3-15.9-.35-23.85-.11-21.09-.23-42.18-.22-63.27,0-9.13.33-18.26.55-27.39.09-3.88,2.4-6.14,5.8-7.43,4.03-1.53,8.11-1.69,12.11.11,2.59,1.16,4.22,3.17,4.24,6.07.03,4.64-.11,9.28-.18,13.92,0,.64-.05,1.28-.05,1.92,0,21.39-.06,42.78.03,64.16.04,10.32.37,20.63.58,30.95.01.63.15,1.25.23,1.87l.49.09c.53-2.1,1.14-4.19,1.55-6.31.2-1.05.06-2.17.03-3.25-.08-3.39,1.58-5.77,4.26-7.66.96-.68,1.84-1.62,2.46-2.62,2.82-4.54,5.74-8.99,9.73-12.63,5.02-4.57,10.74-6.53,17.47-4.77,6.41,1.67,10.65,7.07,10.23,13.3-.31,4.59-2.69,8.2-6.19,11.07-3.97,3.26-8.62,5.16-13.53,6.47-2.19.59-2.13.55-1.98,2.79.37,5.51.54,11.04,1.02,16.55,1.15,13.09,2.49,26.16,6.42,38.78.81,2.61,2.15,5.07,3.46,7.49,1.02,1.89,3.13,2.91,4.71,2.13,1.29-.63,2.47-1.83,3.27-3.05,2.66-4.06,3.98-8.69,5.24-13.32,2.9-10.64,4.75-21.5,6.21-32.41.41-3.07.47-6.19.62-9.29.5-10.5.96-21,1.44-31.5.05-.99.03-1.98.17-2.95.48-3.22,2.54-5.18,5.39-6.34,4.34-1.77,8.74-2.07,13.07,0,2.56,1.23,4.08,3.27,3.94,6.23-.23,5.22-.52,10.45-.79,15.67-.23,4.39-.53,8.77-.67,13.16-.28,8.58-.38,17.18-.7,25.76-.36,9.54-.06,19.05.96,28.53.22,2,.69,4,1.27,5.93.27.89,1.05,1.64,1.7,2.37.17.19.83.23,1.02.06.98-.85,2.14-1.65,2.77-2.73,5.89-10.07,8.38-21.26,10.43-32.56,1.21-6.7,2.34-13.43,3.2-20.18.4-3.14,4.76-3.93,6.55-2.63,1.07.78,1.01,1.87.88,2.95-.47,4.12-.78,8.27-1.52,12.34-1.51,8.25-3.02,16.51-5,24.65-1.83,7.51-4.69,14.7-9.52,20.89-2.66,3.41-6.07,6.07-10.42,6.44-5.37.46-10.07-1.39-13.55-5.82-4.46-5.69-6.51-12.34-7.94-19.26-.21-1-.39-2.01-.89-3.06-.42,1.28-.77,2.57-1.26,3.82-1.69,4.32-3.17,8.74-5.18,12.91-4.22,8.74-10.63,11.74-20.18,9.95-6.13-1.15-10.73-4.56-14.36-9.45-6.59-8.89-10.21-19-12.07-29.8-.67-3.88-1.16-7.79-1.9-11.75-.12.53-.28,1.05-.36,1.58-.57,3.64-1.73,7.19-1.17,10.99.16,1.08-.26,2.38-.79,3.39-2.16,4.11-6.05,5.63-10.31,6.36-1.58.27-3.24.2-4.85.1-2.37-.14-4.33-1.21-5.99-3.29-.35.78-.63,1.33-.84,1.9-2.44,6.47-4.88,12.94-8.4,18.94-3.79,6.45-8.98,10.87-16.62,12.13-7.95,1.31-15.35-2.45-18.78-9.76-2.21-4.71-2.98-9.72-3.19-14.82-.38-9.44.26-18.85,1.06-28.25.3-3.49.52-6.99.63-10.49.17-5.87.43-11.75.26-17.62-.14-4.86-.83-9.71-1.34-14.56-.09-.81-.48-1.61-.84-2.36-.82-1.71-2.41-2.19-3.73-.86-1.66,1.66-3.4,3.43-4.4,5.5-1.65,3.4-2.94,7-4.03,10.63-3.33,11.14-5.5,22.54-7.11,34.04-.31,2.21-.03,4.54.18,6.79.6,6.5-3.05,9.56-8.41,11.37-2.84.96-5.8,1.26-8.76.55-1.02-.25-1.4.08-1.69,1.02-1.09,3.54-2.09,7.12-3.42,10.56-1.98,5.13-4.39,10.06-8.38,13.99-1.75,1.73-3.63,3.27-6.13,3.97-5.33,1.49-10.07.52-14.14-3.19-4.51-4.11-6.71-9.56-8.45-15.23-2.1-6.84-3.08-13.88-3.42-21-.34-6.95-.43-13.91-.64-20.86,0-.32-.07-.65-.42-1.04-.16.58-.34,1.15-.48,1.74-1.5,6.45-3.18,12.85-6.04,18.87-1.64,3.46-3.55,6.79-6.7,9.1-4.84,3.55-10.31,4.94-16.04,2.88-2.11-.76-4.05-2.69-5.48-4.54-2.97-3.84-4.42-8.44-5.47-13.15-.06-.27-.22-.52-.44-1-1.05,1.25-1.89,2.46-2.93,3.47-3.13,3.07-6.36,6.04-9.49,9.11-.45.44-.84,1.22-.82,1.83.15,4.64.52,9.27.6,13.9.12,6.41.26,12.84,0,19.24-.5,12.19-2.5,24.1-8.53,34.93-6.74,12.09-17.13,19.1-30.8,21.16-5.58.84-11.05.24-16.25-2.05-6.51-2.87-10.73-7.92-13.25-14.45-3.86-10.02-2.56-19.78,1.7-29.34,3.62-8.14,9.15-14.83,15.79-20.67,8.07-7.11,17.17-12.62,26.91-17.11,1.2-.55,1.65-1.16,1.48-2.59-1.59-13.33-3.07-26.67-4.6-40-.07-.63-.22-1.25-.41-2.34-.25.74-.38,1.06-.47,1.39-1.99,8.15-3.83,16.34-6,24.45-1.36,5.07-3.49,9.87-6.81,14.04-2.32,2.91-5.13,4.98-8.85,5.79-2.65.58-5.16,1.22-7.99.61-3.51-.76-5.96-2.77-7.86-5.52-4.45-6.47-5.8-13.97-6.59-21.57-.46-4.36-.85-8.76-.8-13.14.08-6.75.53-13.5.92-20.25.14-2.36.62-4.7.84-7.05.4-4.21,2.76-6.9,6.57-8.34,4.39-1.65,8.84-2.09,13.2.17,1.97,1.02,3.15,2.63,2.94,4.89-.32,3.38-.9,6.74-1.24,10.13-.61,6.09-1.32,12.17-1.64,18.28-.33,6.26-.41,12.54-.3,18.8.05,3.28.69,6.56,1.14,9.83.1.76.44,1.52.81,2.21.94,1.75,2.12,1.88,3.51.48,2.27-2.29,3.7-5.11,4.93-8.03,2.73-6.46,4.04-13.31,5.28-20.16,1.49-8.26,2.91-16.53,4.47-24.77.55-2.9,1.25-5.8,2.24-8.58.52-1.46,1.54-2.97,2.76-3.91,4.07-3.14,8.75-4.26,13.83-3.1,3.72.85,5.34,2.97,5.7,6.75,1.02,10.66,2.11,21.31,3.2,31.96.81,7.9,1.65,15.8,2.49,23.7.05.47.17.93.36,1.92,1.85-1.83,3.53-3.26,4.94-4.92,2.2-2.59,4.2-5.37,6.33-8.01,1.15-1.43,1.58-2.95,1.42-4.8-.66-7.63-.66-15.28-.02-22.91.4-4.77.93-9.52,1.45-14.28.32-2.94,1.77-5.25,4.37-6.66,4.95-2.68,10.07-3.47,15.3-.84,2.05,1.03,3.23,2.73,2.93,5.17-.53,4.26-1.16,8.51-1.59,12.77-.55,5.4-1.08,10.8-1.36,16.22-.28,5.52-.42,11.06-.29,16.58.09,3.73.7,7.45,1.17,11.17.11.84.55,1.69.99,2.44.88,1.5,2.14,1.54,3.33.24,3.79-4.13,5.93-9.17,7.11-14.48,2.33-10.5,4.29-21.08,6.3-31.65,1.05-5.53,1.88-11.08,4.56-16.17,1.28-2.43,3.07-4.06,5.57-5.01,3.73-1.41,7.5-1.63,11.31-.31,2.82.97,5.51,3.42,5.26,7.35-.42,6.59-.77,13.19-1.13,19.79-.23,4.29-.53,8.57-.63,12.86-.26,11.7-.59,23.4-.55,35.1.03,6.59.15,13.25,1.94,19.69.33,1.18,1.11,2.26,1.8,3.31.16.24,1,.37,1.22.18,1.06-.91,2.28-1.79,2.97-2.96,5.33-9.14,7.71-19.28,9.81-29.52.76-3.71.96-7.42.87-11.19-.12-5.18-.25-10.37-.23-15.55.03-7.7.16-15.41.28-23.11.03-2.22.18-4.44.26-6.66.11-3.18,1.69-5.43,4.51-6.75,4.37-2.06,8.85-2.38,13.33-.39,2.96,1.31,4.44,3.66,4.38,6.92-.09,4.2-.19,8.39-.28,12.59-.01.51,0,1.03,0,1.54.11.02.22.03.34.05Zm-139.15,61.03c-.57.19-.86.24-1.12.37-11.13,5.47-21.37,12.17-29.44,21.75-6.78,8.04-10.81,17.18-10.57,27.88.13,5.75,2.13,10.71,6.77,14.36,4.41,3.47,9.42,4.59,14.92,3.63,5.05-.88,9.28-3.16,12.01-7.6,1.36-2.21,2.51-4.61,3.35-7.07,3.34-9.78,3.93-20.02,4.39-30.22.28-6.26.07-12.54.03-18.81,0-1.37-.2-2.73-.33-4.3Zm243.57-66.19c3.11,1.15,5.98,1.42,8.6.88,5.17-1.08,8.75-5.28,8.78-10.32.02-2.32-1.24-3.43-3.5-2.9-1.19.28-2.35.77-3.43,1.34-4.69,2.45-7.61,6.6-10.45,11.01Z"/>
    <path d="m619.76,995.85c.5-.95,1.08-1.67,1.25-2.48.16-.76-.1-1.62-.18-2.43-.83.3-2.07.37-2.39.95-.57,1.05-.64,2.39-.79,3.63-.06.45.2.96.39,1.41,1.15,2.67,1.12,2.44,3.94,1.88,2.39-.47,3.01-1.71,3.37-3.93.89-5.45,2.1-10.85,3.26-16.25.25-1.16-.03-1.58-1.15-1.84-3.56-.85-7.08-1.85-10.8-1.14-1.81.35-3.31,1.2-4.52,2.61-.37.43-.92.72-1.38,1.07-.16-.14-.32-.28-.48-.43.42-.64.75-1.36,1.27-1.91,2.48-2.63,5.7-3.53,9.15-3.43,2.4.07,4.8.52,7.17.97,1.21.23,1.86.07,2.08-1.25.19-1.11.47-2.24.9-3.28.26-.62.81-1.2,1.38-1.57.37-.24,1.17-.25,1.48,0,.28.22.3.98.19,1.45-.35,1.59-.77,3.17-1.22,4.73-.21.72-.07,1.11.68,1.32,2.66.76,5.28,1.66,7.96,2.28,3.32.77,6.04-.27,7.9-3.23.32-.5.62-1.04,1.04-1.43.41-.39.97-.61,1.47-.91.18.13.36.26.54.38-.33.97-.51,2.03-1.01,2.9-2.01,3.53-6.31,5.44-10.74,4.65-2.46-.44-4.88-1.21-7.28-1.96-1.07-.33-1.52-.17-1.73.96-1.42,7.91-2.9,15.81-4.28,23.73-.19,1.08-.03,2.27.19,3.37.31,1.61,1.47,2.06,2.49.8,1.52-1.88,3.04-3.93,3.89-6.16,1.17-3.07,1.63-6.4,2.59-9.56.24-.79,1.1-1.62,1.89-1.98,1.28-.6,1.86.02,1.51,1.43-.68,2.73-1.48,5.43-2.08,8.18-.51,2.36-.85,4.75-1.18,7.15-.07.47.24,1,.37,1.5.48-.27,1.19-.42,1.41-.82,1.69-3.17,3.4-6.33,4.87-9.6.85-1.88,1.24-3.95,1.9-5.92.2-.59.44-1.32.91-1.63.54-.36,1.35-.34,2.04-.48.11.58.38,1.18.29,1.73-.55,3.55-1.18,7.09-1.87,11.13,1.91-1.32,3.65-2.25,5.01-3.57.61-.59.51-1.94.69-2.96.99-5.79,2.09-11.56,4.23-17.07,1.2-3.08,2.77-5.96,5.38-8.03,1.35-1.07,3.01-1.92,4.67-2.39,2.44-.69,4.08.76,4.01,3.3-.09,3.5-1.65,6.47-3.69,9.2-2.29,3.07-5.1,5.48-8.84,6.68-.46.15-1.05.69-1.13,1.14-.93,5.09-1.81,10.2-2.62,15.31-.14.85-.02,1.79.17,2.64.35,1.6,1.33,1.95,2.56.84,1.84-1.68,3.34-3.66,3.92-6.14.72-3.06,1.79-5.96,3.72-8.48,1.64-2.13,3.7-3.56,6.53-3.48,1.83.05,2.92,1.19,2.32,2.9-.51,1.45-1.47,2.98-2.67,3.9-1.43,1.11-3.34,1.58-5.01,2.4-.52.25-1.28.69-1.33,1.11-.26,2.19-.48,4.4-.41,6.59.05,1.65,1.36,2.48,2.94,1.93,1.23-.42,2.43-1.1,3.45-1.92,2.42-1.95,4.2-4.43,5.59-7.2.27-.54.75-.97,1.13-1.45.16.09.32.18.47.27-.1.39-.14.81-.32,1.16-1.98,3.71-4.5,6.96-8.13,9.23-.58.36-1.22.67-1.86.91-3.59,1.36-5.58.3-6.57-3.45-.03-.13-.13-.25-.27-.48-.42.56-.76,1.11-1.19,1.56-.78.81-1.52,1.72-2.46,2.32-2.92,1.88-5.44.62-5.72-2.85-.14-1.8-.02-3.62-.02-5.65-1.55,1.11-3.17,2.2-4.68,3.41-.35.28-.36.99-.5,1.51-1.43,5.18-2.74,10.4-4.34,15.52-.92,2.93-2.63,5.53-4.91,7.67-1.55,1.46-3.34,2.44-5.47,2.74-3.03.43-5.25-1.27-5.23-4.33.01-1.63.43-3.33,1.01-4.88,1.54-4.11,4.28-7.41,7.45-10.38.78-.73,1.59-1.45,2.46-2.25-2.78.25-3.26-.25-3.75-3.77-.46.55-.81,1.09-1.27,1.5-.84.75-1.65,1.61-2.63,2.1-2.48,1.25-4.54.27-4.87-2.48-.26-2.17.05-4.41.12-6.62.01-.34.08-.67.17-1.45-1.52.48-2.84.86-4.12,1.36-.17.07-.2.74-.14,1.11.17,1.01.58,2.01.62,3.02.14,3.16-2.43,5.67-5.59,5.59-2.11-.05-3.47-1.77-2.78-3.89.41-1.26,1.15-2.6,2.14-3.45,1.33-1.13,1.22-1.96.44-3.32-2.15-3.78-.87-7.77,2.99-9.47.91-.4,2-.52,3.01-.52,1.18,0,1.8.87,1.76,1.98-.07,1.76-.95,3.19-2.26,4.34-.14.12-.44.07-.9.13Zm22.52,11.3c-3.87,2.71-7.49,5.67-10.33,9.44-2.1,2.78-3.77,5.81-4,9.4-.09,1.47.08,2.96,1.61,3.7,1.6.77,3.18.35,4.36-.86,1.12-1.15,2.18-2.45,2.92-3.87,2.88-5.57,4.29-11.62,5.45-17.81Zm15.42-20.68c.74-.28,1.52-.47,2.19-.85,4.73-2.68,7.63-6.73,8.8-12.02.13-.61.11-1.29,0-1.91-.26-1.57-1.11-2.2-2.61-1.68-1.07.37-2.24.97-2.92,1.83-3.29,4.18-4.49,9.23-5.69,14.27,0,.03.05.08.22.35Zm7.33,11.17c3.01-.51,5.43-1.55,6.82-4.15.32-.61.05-1.53.06-2.31-.82.05-1.83-.18-2.42.21-2.14,1.43-3.47,3.55-4.45,6.25Zm-48.02,5.12c-1.71.65-2.65,2.39-2.31,3.97.2.93.71,1.52,1.74,1.45,1.01-.08,1.39-.83,1.3-1.66-.13-1.25-.47-2.48-.73-3.76Zm26.81-3.02c-1.33,2.54-2.59,4.92-3.76,7.15,3.48-1.03,3.22-4.21,3.76-7.15Z"/>
    <path d="m474.46,1006.29c-1.29,1.09-2.42,2.32-3.79,3.13-2.65,1.57-4.58.43-4.35-2.6.21-2.74.87-5.44,1.29-8.17.33-2.14.64-4.29.87-6.44.05-.42-.24-1.22-.46-1.26-.45-.07-1.09.14-1.41.47-.71.74-1.35,1.58-1.86,2.46-2.5,4.32-3.75,9.1-5.04,13.87-.17.64-.65,1.3-1.17,1.71-.33.27-1.13.31-1.49.08-.32-.21-.47-.92-.43-1.39.12-1.57.36-3.13.32-4.84-.39.45-.78.9-1.18,1.34-2.08,2.32-4.42,4.23-7.56,4.94-2.48.56-4.51-.45-4.92-2.95-.32-1.98-.12-4.11.19-6.12.49-3.13,1.94-5.89,4.01-8.3,1.48-1.73,3.37-2.73,5.67-2.8,2.12-.07,3.07.96,2.68,3.03-.36,1.93-1.68,3.18-3.26,4.19-.15.1-.44-.01-1.02-.05.53-.54.87-.85,1.16-1.21.56-.68,1.27-1.33,1.55-2.12.22-.63.16-1.76-.25-2.09-.41-.33-1.55-.19-2.1.16-.9.56-1.72,1.36-2.33,2.24-2.63,3.77-3.98,7.93-3.3,12.56.3,2.04,1.54,2.85,3.39,1.96,4.25-2.04,7.52-5.04,8.3-10.02,1.01-6.44,2.15-12.85,4.48-18.98,1.39-3.66,3.31-7,6.65-9.22,1.15-.77,2.57-1.31,3.94-1.56,2.12-.39,3.52.94,3.54,3.11,0,.93-.05,1.9-.33,2.78-1.98,6.27-5.73,10.94-12.04,13.34-.57.22-1.23.88-1.35,1.45-.76,3.41-1.38,6.85-2.1,10.56,1.05-2.17,1.89-4.12,2.93-5.96.95-1.69,2.15-3.21,4.12-3.86,2.71-.89,4.12,0,3.99,2.84-.1,2.2-.63,4.38-.98,6.57-.39,2.38-.84,4.76-1.16,7.15-.07.56.29,1.17.45,1.76.54-.28,1.19-.46,1.62-.86,2.02-1.92,3.25-4.31,3.98-6.98.08-.29-.02-.68-.14-.97-1.81-4.1,2.41-10.18,6.92-9.93,1.81.1,3.15,1.08,3.53,3.02.35,1.77.36,3.6.52,5.5,1.01.25,1.25-.38,1.39-1.26.43-2.61,1.71-4.72,3.93-6.19,3.53-2.35,6.76-.94,7.3,3.24.18,1.39.03,2.82.03,4.41.73-.14,1.28-.24,1.97-.38-.41-2.02-.03-3.81,1.13-5.4,1.26-1.73,2.94-2.77,5.09-2.93,1.84-.14,2.9.99,2.39,2.76-.34,1.19-1.12,2.26-1.78,3.35-.15.25-.6.31-1.32.64.64-1.28,1.2-2.1,1.45-3.01.17-.62-.12-1.36-.2-2.05-.73.14-1.61.07-2.15.47-1.21.9-1.42,2.32-1.25,3.75.07.58.28,1.15.5,1.7,1.14,2.7,1.11,2.55,3.95,1.86,1.87-.45,2.9-1.35,3.68-3.09.71-1.58,1.88-3.01,3.09-4.28,1.37-1.44,3.19-2.13,5.23-2,1.78.11,2.65,1.28,2.25,3.04-.43,1.91-1.66,3.28-3.26,4.23-1.34.79-2.83,1.39-4.33,1.83-1,.3-1.6.74-1.67,1.75-.14,1.91-.37,3.83-.3,5.74.07,1.97,1.4,2.81,3.28,2.19.96-.32,1.9-.84,2.71-1.46,2.64-2.02,4.55-4.64,6.06-7.57.28-.54.74-1,1.11-1.49.16.09.32.17.48.26-.09.39-.11.81-.29,1.15-1.98,3.71-4.47,7.01-8.12,9.22-2.02,1.22-4.24,2.32-6.52.86-2.22-1.42-2.13-3.85-1.94-6.15.1-1.21.37-2.41.6-3.91-1.24.39-2.32.66-3.32,1.11-.27.13-.44.85-.38,1.27.13.97.57,1.91.63,2.87.21,3.2-2.43,5.82-5.64,5.72-1.83-.06-2.94-1.21-2.88-3.04.06-2.04,1.22-3.49,2.65-4.77.5-.44,1.29-.81.64-1.65-.55-.72-.49-2.09-1.89-1.94-.95.1-1.78.11-2.21,1.44-.73,2.28-1.76,4.49-2.92,6.59-.85,1.53-2.26,2.59-4.1,2.91-2.13.36-3.58-.56-4.06-2.65-.48-2.12.02-4.13.78-6.07.35-.88.57-1.71-.53-2.04-1.03-.31-1.66.14-2.04,1.3-.66,2-1.52,3.94-2.42,5.85-.37.78-1.01,1.47-1.65,2.08-2.97,2.81-6.1,2.02-7.25-1.75Zm-10.99-20.14c.12.12.23.23.35.35.9-.37,1.86-.63,2.68-1.13,4.34-2.65,7.09-6.49,8.28-11.42.17-.7.16-1.48.07-2.21-.18-1.54-1.14-2.31-2.56-1.73-1.26.51-2.6,1.31-3.4,2.37-3.07,4.07-3.98,9.03-5.42,13.76Zm13.14,12.21c.47-.71.8-1.36,1.27-1.89.57-.65,1.19-1.3,1.92-1.73.33-.2,1.07,0,1.43.27.17.13.03.91-.18,1.29-.51.93-1.13,1.8-1.71,2.7l.24.44c1.65-.34,3.31-.65,4.95-1.05.23-.06.53-.52.52-.78-.1-1.84-.06-3.74-.54-5.49-.22-.78-1.5-1.66-2.4-1.78-3.29-.43-6.82,4.62-5.5,8.03Zm15.66.56c.1.16.2.32.29.48,1.57-.31,3.16-.59,4.72-.97.29-.07.69-.55.68-.83-.05-1.71.04-3.48-.37-5.11-.53-2.09-2.33-2.77-4.34-1.9-2.51,1.08-3.6,3.25-4.15,5.76-.08.38.13.82.21,1.23.38-.23.81-.4,1.12-.7.74-.69,1.37-1.53,2.18-2.12.3-.22.98.08,1.48.14-.06.48,0,1.03-.2,1.44-.47.9-1.07,1.72-1.62,2.58Zm5.43.41c-2.12.36-3.92.65-5.7,1-.28.06-.66.36-.73.63-.49,1.69-1.05,3.38-1.28,5.1-.09.72.46,2.05.97,2.19.78.21,2-.11,2.64-.66,2.42-2.09,3.31-5.01,4.1-8.27Zm-12.81,0c-2.26.39-4.14.7-5.99,1.07-.22.04-.48.39-.55.64-.46,1.64-1.03,3.28-1.21,4.96-.08.76.48,2.09,1.04,2.28.73.24,1.97-.15,2.61-.71,2.36-2.06,3.2-4.94,4.11-8.23Zm29.92-1.71c2.95-.43,5.27-1.48,6.67-3.89.38-.66.5-1.97.1-2.5-.73-.97-1.82-.3-2.59.31-1.93,1.52-3.24,3.51-4.18,6.08Zm-10.86,4.98c-1.93,1.24-2.8,2.91-2.19,4.26.26.57,1.08,1.18,1.67,1.22.41.02,1.26-.93,1.25-1.42-.04-1.32-.45-2.62-.73-4.06Z"/>
    <path d="m551.03,1002.36c1.54-1.03,2.86-1.86,4.1-2.79.24-.18.3-.78.23-1.15-.62-3.64,2.36-8.16,5.96-8.96,2.55-.57,4.45.53,5.02,3.07.28,1.23.24,2.54.33,3.82.03.47,0,.95,0,1.42,2.43.15,2.52.09,3.07-2.01.39-1.48.73-2.98,1.23-4.42.21-.59.72-1.18,1.26-1.5.43-.25,1.2-.25,1.63-.01.25.14.25.98.15,1.46-.88,4.25-1.83,8.48-2.7,12.72-.16.76-.16,1.58-.07,2.36.05.48.42.93.64,1.4.41-.24.93-.38,1.21-.72.65-.8,1.36-1.62,1.75-2.55,1.44-3.5,2.77-7.05,4.11-10.59.35-.92.47-1.93.86-2.83.23-.54.7-1.09,1.21-1.36.45-.23,1.18-.24,1.64-.03.22.1.22.97.11,1.44-.83,3.7-1.79,7.38-2.54,11.1-.29,1.43-.2,2.95-.14,4.42.02.47.37,1.15.74,1.31.36.15,1.09-.11,1.42-.44,2.13-2.13,3.71-4.63,4.39-7.58.63-2.74,1.06-5.52,1.56-8.29.18-.99.56-1.78,1.62-2.08,1.13-.32,1.74.15,1.56,1.33-.39,2.43-.85,4.84-1.3,7.35,1.39-2.25,2.62-4.46,4.09-6.51.65-.91,1.68-1.73,2.72-2.15,2.08-.85,3.45.26,3.19,2.49-.21,1.76-.62,3.49-.93,5.24-.16.94-.3,1.88-.45,2.82l.4.23c.6-.38,1.2-.75,1.79-1.15.54-.36,1.07-.75,1.82-1.29-.61,1.98-4.43,4.58-6,4.27-1.37-.27-1.44-1.39-1.29-2.45.33-2.34.79-4.67,1.16-7.01.08-.49.01-1.01.01-1.51-.13-.05-.26-.11-.39-.16-.53.61-1.11,1.19-1.58,1.84-3.19,4.36-4.67,9.42-6.03,14.54-.25.95-.92,1.99-1.71,2.55-1.04.74-1.87.05-1.73-1.22.1-.92.26-1.84.45-3.23-.79.96-1.29,1.59-1.81,2.19-.26.3-.53.59-.84.84-1.21.99-2.5,1.88-4.17,1.26-1.73-.65-1.94-2.21-2.08-3.77-.05-.52-.05-1.03-.1-1.93-.46.71-.71,1.11-.97,1.5-.43.66-.84,1.34-1.31,1.97-1.28,1.69-3.11,2.54-4.43,1.98-1.86-.78-1.98-2.49-1.87-4.14.15-2.2.52-4.39.8-6.59-1.89-.45-2.24-.15-2.87,1.58-.72,1.98-1.57,3.93-2.57,5.79-.49.92-1.34,1.72-2.18,2.37-1.41,1.08-3.04,1.5-4.72.62-1.6-.84-1.76-2.46-1.69-3.99.07-1.46.44-2.9.72-4.59-1.61,1.14-3.17,2.19-4.65,3.34-.32.25-.39.87-.51,1.34-1.18,4.53-2.26,9.1-3.56,13.59-.93,3.19-2.45,6.14-4.64,8.7-1.79,2.1-3.96,3.55-6.76,3.92-2.87.38-4.92-1.34-5.08-4.23-.13-2.35.68-4.47,1.68-6.52,1.87-3.84,4.65-6.97,7.81-9.77.36-.32.8-.53,1.09-.9-2.75-.65-3.5-1.28-3.12-3.93.58-4.09,1.58-8.12,2.42-12.16.18-.87.32-1.79.73-2.55.37-.67,1.01-1.27,1.67-1.68.37-.23,1.17-.2,1.49.06.27.22.22.98.12,1.45-1.04,4.72-2.16,9.42-3.14,14.15-.17.81.22,1.74.36,2.61.68-.57,1.52-1.04,2.01-1.74,3.08-4.4,4.57-9.48,6.11-14.54.23-.74.74-1.49,1.32-2,.34-.3,1.17-.31,1.63-.11.26.11.37.94.3,1.4-.52,3.36-1.12,6.72-1.68,10.07-.05.28-.06.56-.12,1.21Zm-4.26,4.72c-5.8,4.36-11.45,8.8-13.83,16.06-.35,1.06-.58,2.22-.57,3.33.01,3.14,2.7,4.62,5.3,2.86,1.14-.78,2.18-1.91,2.88-3.1,3.47-5.9,4.9-12.48,6.21-19.14Zm12.86-8.15c.09.16.19.32.28.47,1.58-.31,3.16-.59,4.72-.96.28-.07.68-.53.67-.81-.02-1.66.1-3.38-.27-4.97-.5-2.15-2.16-2.86-4.23-2.14-2.39.83-4.68,4.43-4.4,6.96.03.25.22.48.42.89.52-.77.87-1.42,1.35-1.96.58-.64,1.22-1.26,1.95-1.71.3-.19,1.06-.05,1.31.22.21.23.11.93-.09,1.29-.5.94-1.13,1.81-1.71,2.7Zm5.53.39c-2.24.38-4.08.68-5.91,1.03-.24.05-.53.34-.6.58-.49,1.64-1.1,3.28-1.31,4.96-.1.77.43,2.11,1.01,2.35.7.28,1.99-.08,2.63-.63,2.42-2.08,3.26-5.03,4.19-8.29Zm-20.52,7.41c2.7-1.17,3.75-3.23,3.35-6.41-1.09,2.08-2.21,4.23-3.35,6.41Z"/>
    <path d="m697.09,848.46c-3.37.02-6.19-.54-8.43-2.86-2.84-2.95-2.68-8.2.39-10.9,4.1-3.6,8.91-4.5,14.1-3.54,2.79.52,5.33,1.92,5.9,4.92.67,3.46.14,6.9-2.93,9.23-2.73,2.07-5.83,3.29-9.03,3.16Z"/>
    <path d="m545.69,1049.56c-.13,1.57.47,2.62,1.72,3.26,1.25.64,2.62.34,3.61-.82.55-.64,1-1.25,2.01-.5-.55,1.73-1.77,2.7-3.48,2.99-1.9.32-3.53-.24-4.65-1.89-1.3-1.91-1.32-5.26-.06-7.19,1.17-1.8,3.43-2.53,5.47-1.78,1.8.66,3.31,3.07,3,4.98-.06.34-.67.81-1.05.83-1.62.09-3.26.04-4.89.05-.53,0-1.06.04-1.68.07Zm5.9-1.48c-.29-2.16-1.19-3.17-2.7-3.29-1.4-.11-2.73.85-3.12,2.22-.2.68-.05,1.07.71,1.07,1.66,0,3.32,0,5.11,0Z"/>
    <path d="m640.87,1051.53c-.68,1.73-1.88,2.73-3.62,2.98-1.78.26-3.34-.25-4.44-1.76-1.45-1.97-1.49-5.39-.12-7.43,1.19-1.76,3.49-2.46,5.51-1.66,1.77.7,3.3,3.28,2.88,5.05-.08.33-.74.72-1.14.74-1.77.08-3.55.08-5.33.03-1.16-.03-1.37.43-1.02,1.45.83,2.42,3.57,2.97,5.29,1.01.53-.61.98-1.13,1.99-.41Zm-1.48-3.55c-.28-2.17-1.38-3.27-3.01-3.18-1.69.09-2.79,1.31-2.77,3.18h5.78Z"/>
    <path d="m610.92,1049.02c-.01,3.59-2.08,5.78-5.24,5.52-1.85-.15-3.17-1.14-3.81-2.84-.91-2.4-.84-4.77.84-6.84,1.22-1.49,2.92-1.78,4.71-1.36,2.24.53,3.5,2.59,3.49,5.52Zm-1.58.13c0-2.41-.77-3.75-2.32-4.23-1.28-.4-2.64.08-3.38,1.19-1.05,1.57-1.01,4.5.16,5.89.92,1.1,2.13,1.41,3.47.87,1.78-.71,2-2.28,2.06-3.73Z"/>
    <path d="m475.26,1043.36c2.89,0,4.82,2.23,4.83,5.57,0,3.39-1.98,5.67-4.93,5.62-2.88-.04-4.73-2.26-4.72-5.65.01-3.37,1.91-5.55,4.82-5.55Zm-3.25,5.33c.06.67.07,1.12.14,1.55.28,1.68,1.39,2.77,2.91,2.88,1.53.11,2.84-.8,3.15-2.52.21-1.17.16-2.46-.1-3.63-.3-1.38-1.38-2.15-2.83-2.16-1.44-.01-2.45.71-2.91,2.08-.22.64-.28,1.34-.37,1.81Z"/>
    <path d="m579.62,1047c-.47-.33-1.04-.57-1.4-.99-1-1.15-2.52-1.62-3.68-.88-.43.28-.87.88-.9,1.36-.03.4.44.99.84,1.23.62.36,1.38.48,2.07.73.88.31,1.82.53,2.6,1.01,1.46.89,1.62,2.74.48,3.94-1.8,1.89-6.17,1.43-7.44-.84-.24-.43-.35-1.36-.12-1.55.66-.52,1.06.03,1.44.66.83,1.37,2.68,1.9,4.15,1.16.45-.23.96-.83.97-1.27,0-.44-.51-1.08-.95-1.27-1.03-.45-2.17-.65-3.23-1.02-1.84-.64-2.61-1.64-2.45-3.05.18-1.51,1.41-2.61,3.15-2.84,2.58-.33,4.42.89,4.79,3.17-.1.15-.21.29-.31.44Z"/>
    <path d="m490.21,1044.42c1.24-1.1,2.83-1.49,4.5-.68,1.7.82,1.99,2.45,2,4.15.01,1.78.05,3.55-.04,5.33-.02.37-.53.72-.81,1.08-.24-.35-.68-.7-.7-1.06-.08-1.87-.02-3.75-.07-5.62-.05-1.92-.8-2.8-2.29-2.84-1.7-.04-2.84,1.02-2.91,2.85-.07,1.82.01,3.65-.07,5.47-.02.41-.46.8-.7,1.2-.28-.41-.8-.81-.81-1.23-.07-2.76-.06-5.53,0-8.29,0-.38.4-.76.61-1.14.37.22.73.45,1.29.78Z"/>
    <path d="m529.21,1044.5c1.23-1.19,2.77-1.51,4.42-.83,1.72.71,2.09,2.26,2.14,3.9.06,1.77.08,3.55-.02,5.32-.03.48-.53.93-.81,1.4-.24-.45-.67-.88-.69-1.34-.08-1.77-.01-3.55-.05-5.32-.04-1.89-.81-2.81-2.28-2.87-1.72-.06-2.83.94-2.93,2.81-.09,1.82,0,3.65-.1,5.47-.02.43-.52.84-.8,1.25-.24-.4-.67-.79-.68-1.19-.06-2.76-.05-5.52,0-8.28,0-.39.35-.78.54-1.18.38.26.76.51,1.26.86Z"/>
    <path d="m593.02,1054.36c-2.25-.09-3.14-.89-3.23-2.74-.09-1.72-.04-3.45-.04-5.17,0-.71.02-1.39-.96-1.53-.23-.03-.57-.44-.57-.68,0-.23.39-.44.58-.68.33-.41.64-.83.95-1.24.28-.37.56-.74.85-1.11.24.35.68.7.68,1.05,0,1,.47,1.23,1.36,1.3.46.04.89.47,1.34.72-.46.24-.92.65-1.39.67-.96.03-1.3.38-1.27,1.33.05,1.67.03,3.35.01,5.02-.01.99.34,1.56,1.43,1.65.43.04.82.45,1.23.7-.4.3-.81.6-.94.7Z"/>
    <path d="m505.58,1046.61c0-1.78-.05-3.55.04-5.33.02-.43.53-.83.82-1.25.23.41.65.81.66,1.23.06,3.3.04,6.61.03,9.92,0,.86-.09,1.71,1.13,1.86.18.02.47.55.41.78-.05.22-.46.46-.74.5-1.24.18-2.2-.58-2.27-1.93-.09-1.92-.02-3.85-.02-5.77-.02,0-.03,0-.05,0Z"/>
    <path d="m620.77,1044.33c.89-.25,1.74-.55,2.63-.72.22-.04.51.32.77.49-.21.27-.38.69-.65.79-2.53.87-2.78,1.18-2.8,3.86-.01,1.53.03,3.06-.04,4.59-.01.32-.41.63-.63.94-.26-.32-.75-.63-.75-.96-.06-2.81-.06-5.63-.02-8.44,0-.41.3-.82.46-1.23.39.26.78.52,1.03.68Z"/>
    <path d="m518.39,1048.93c0,1.43.05,2.87-.03,4.29-.02.37-.43.71-.66,1.06-.29-.36-.81-.72-.82-1.08-.07-2.86-.06-5.73,0-8.59,0-.34.5-.66.76-1,.25.34.69.67.71,1.02.08,1.43.03,2.86.03,4.29Z"/>
    <path d="m518.83,1041.15c-.61.44-.94.86-1.27.86-.25,0-.73-.56-.7-.82.04-.36.46-.68.72-1.02.32.25.64.51,1.24.98Z"/>
  </g>
</svg>