<?xml version="1.0" encoding="UTF-8"?>
<svg id="Layer_1" data-name="Layer 1" xmlns="http://www.w3.org/2000/svg" viewBox="0 0 400 400">
  <path d="m61.11,274.5c0-28.5-.02-56.99,0-85.49,0-8.02.1-8.07,8.09-8.07,37.5-.01,74.99-.02,112.49-.02,7.27,0,7.36.01,7.75,7.38.24,4.49.21,9,.21,13.49,0,50.33.16,100.66-.11,150.98-.1,19.34,1.16,15.77-15.62,15.87-34.83.21-69.66.06-104.49.04-7.74,0-8.3-.52-8.3-8.19-.02-28.66,0-57.33,0-85.99h-.02Z"/>
  <path d="m338.86,274.77c0,28.5.01,57,0,85.49,0,7.97-.49,8.41-8.56,8.41-36.33.01-72.66.01-108.99.02-10.48,0-10.71.01-10.78-10.71-.18-28-.17-55.99-.18-83.99,0-27.66,0-55.33.13-82.99.05-10.1.24-10.1,10.11-10.1,37,0,73.99.01,110.99.03,6.92,0,7.29.32,7.3,7.34.03,28.83.01,57.66.01,86.49h-.03Z"/>
  <path d="m108.37,158.92c-24.98,0-49.97-.11-74.95.1-4.67.04-6.29-1.71-6.25-6.02.07-6.66.01-13.32.04-19.99.01-3.53,1.37-5.35,5.35-5.34,50.63.08,101.27.05,151.9-.04,3.36,0,5,1.27,5.02,4.53.05,7.32.04,14.65.03,21.97,0,3.83-1.93,4.92-5.7,4.89-25.15-.16-50.3-.08-75.45-.08v-.04Z"/>
  <path d="m291.59,158.96c-24.99,0-49.98-.14-74.96.12-4.78.05-6.26-1.82-6.26-5.98,0-6.66.02-13.33.03-19.99,0-3.78,1.47-5.52,5.67-5.5,50.31.14,100.61.14,150.92.06,4.01,0,5.85,1.41,5.82,5.39-.04,6.83,0,13.66-.02,20.49,0,3.81-1.48,5.51-5.74,5.48-25.15-.19-50.31-.09-75.46-.09v.03Z"/>
  <path d="m191.72,89.39c-3.94-9.08-7.34-18.45-11.96-27.18-6.31-11.93-16.03-20.81-28.35-26.41-3.82-1.74-8.24-2.83-12.43-2.99-13.37-.53-20.38,8.15-16.36,21.01,1.87,5.98,5.45,11.78,9.46,16.67,10.31,12.59,23.23,22.35,36.7,31.36,1.5,1,2.97,2.05,4.24,3.43-21.49-8.57-43.53-16.39-59.08-34.86-10.28-12.2-11.58-26.2-5.16-40.65,6.64-14.93,17.71-16.81,32.04-14.19,25.57,4.68,43.5,23.47,48.03,49.1,1.44,8.15,2.33,16.4,3.47,24.6l-.6.1Z"/>
  <path d="m167.23,114.51c-15.77,1.77-29.84-3.46-43.45-10.36-5.92-3-11.83-6.13-17.37-9.76-17.55-11.51-36.32-12.42-55.94-7.1-3.18.86-6.36,1.69-10.01,1.93,4.92-4.43,9.83-8.86,15.95-14.37-7.99-1.46-14.62-2.67-21.62-3.95,12.76-9.47,38.07-15.03,54.72-2.78,7.89,5.8,15.32,12.25,22.81,18.57,16.11,13.59,33.94,23.71,54.91,27.81Z"/>
  <path d="m219.58,101.54c11.3-7.53,22.13-15.28,30.24-26.02,2.75-3.64,4.63-8.45,5.36-12.97.94-5.83-2.79-9.84-8.69-9.57-4.46.2-9.34,1.24-13.17,3.43-10.56,6.03-17.29,15.35-20.33,27.22-.81,3.15-1.71,6.27-2.69,9.85-5.46-11.5.94-35.36,12.34-45.4,7.73-6.8,16.71-10.83,26.93-11.8,12.95-1.23,23.5,12.26,21.07,26.45-1.52,8.89-5.94,16.23-13.31,20.87-9.78,6.16-20.25,11.25-30.56,16.54-2.09,1.07-4.78.98-7.2,1.42Z"/>
  <path d="m366.01,88.71c-6.54.33-13.08.66-21,1.06,5.15,6.13,9.38,11.16,13.6,16.19-.13.23-.26.46-.38.69-3.51-1.42-7.04-2.8-10.54-4.27-18.66-7.88-37.01-8.28-56.02-.16-12.26,5.24-25.33,9.02-38.38,11.84-7.89,1.7-16.44.31-24.65-.22,9.08-1.74,18.31-2.94,27.22-5.34,13.94-3.76,26.28-11.07,38.25-18.99,9.14-6.05,18.15-12.56,29.3-14.45,16.37-2.77,30.21,3.13,42.59,13.66Z"/>
</svg>