<?xml version="1.0" encoding="UTF-8"?>
<svg id="Layer_1" data-name="Layer 1" xmlns="http://www.w3.org/2000/svg" viewBox="0 0 1364 1256.73">
  <defs>
    <style>
      .cls-1 {
        fill: #4093a4;
      }
    </style>
  </defs>
  <path class="cls-1" d="m1364,119.87v41c-.67,2.74-1.4,5.46-2,8.22-1.23,5.69-1.69,11.66-3.71,17.05-9.3,24.82-23.93,46.64-42.77,64.83-12.8,12.36-26.52,24.39-42.78,32.6-4.43,2.23-9.53,3.46-13.4,6.38-9.07,6.82-19.31,10.86-29.72,14.91-29.03,11.3-59.07,18.96-89.75,23.42-29.45,4.29-59.15,7.17-88.83,9.61-28.02,2.31-56.15,3.24-84.26,4.79,3.9,0,7.79,0,11.68,0,101.16.02,202.31.04,303.47.08,7.83,0,15.69-.24,23.49.26,14.72.94,15.57,2.07,15.58,16.85,0,75.83.01,151.66.01,227.49,0,24.17.05,48.33-.06,72.5-.04,9.25-1.85,11.13-10.67,12.27-2.64.34-5.29.81-7.94.83-25.48.18-50.96.28-76.44.39-8.31.03-8.33,0-8.33,8.26,0,126.16.12,252.32-.08,378.48-.06,41.1-.86,82.2-1.64,123.29-.06,3.16-1.83,7.54-4.25,9.1-3.05,1.96-7.59,2.15-11.49,2.16-36.5.15-72.99.1-109.49.1-81.49,0-162.98,0-244.47,0q-7.32,0-7.34,6.99c-.05,12,.24,24.01-.26,35.99-.71,17.21-2.79,18.98-19.96,18.99-51.49.02-102.99.02-154.48.01-40.83,0-81.66.03-122.49-.06-12.14-.03-14.99-2.16-15.66-13.75-.82-14.29-.69-28.64-.74-42.96-.01-3.82-1.19-5.66-5.18-5.23-1.32.14-2.66.02-4,.02-116.49,0-232.98,0-349.46-.01-3.16,0-6.33-.11-9.49-.27-5.41-.28-8.77-2.98-9.29-8.53-.57-6.13-1.33-12.28-1.34-18.42-.09-84.65-.07-169.3-.08-253.95,0-77.83,0-155.66,0-233.49,0-6.37-.34-6.69-6.85-6.71-22.5-.04-45,.05-67.49-.14-6.98-.06-13.96-.79-20.92-1.34-4.37-.35-7.05-2.82-7.66-7.19-.34-2.46-.46-4.98-.46-7.47-.02-99.49-.02-198.99,0-298.48,0-2.66.1-5.35.52-7.96.66-4.1,3.22-6.51,7.4-6.87,5.3-.45,10.62-.98,15.93-1.05,24.47-.32,48.94-.05,73.4-.07,74.49-.08,148.98-.02,223.48-.02,11.14,0,22.28,0,33.43,0-7.65-.61-15.29-1.05-22.93-1.51-28.76-1.73-57.58-2.76-86.25-5.41-26.16-2.42-52.34-5.61-78.2-10.23-38.32-6.85-75.47-17.64-109.75-37.07-22.77-12.91-43.62-27.97-60.71-47.91-6.07-7.08-13.11-13.74-17.42-21.82-8.79-16.5-18.89-32.72-20.39-52.18-.15-1.95-1-3.84-1.52-5.76,0-14,0-28,0-42,.25-.61.58-1.2.74-1.84,4.46-17.62,10.37-34.37,20.74-49.79,11.71-17.41,27.15-30.59,44.67-40.63,16.61-9.52,34.75-16.38,53.92-20.53C142.79,1.17,165.54-.65,188.51,1.05c24.89,1.83,49.21,7.46,72.16,17.14,22.68,9.57,44.84,20.46,66.81,31.61,24.54,12.45,47.92,26.96,70.11,43.28,36.59,26.92,69.73,57.85,102.51,89.16,8.84,8.45,17.57,17,26.67,25.81,2.96-6.83,8.69-6.94,14.21-6.96,23.5-.11,46.99-.08,70.49-.08,70.16,0,140.31.01,210.47.03,6.06,0,12.15.04,15.27,6.49,15.94-15.09,31.63-30.02,47.41-44.85,27.33-25.7,55.16-50.88,85.85-72.53,38.65-27.27,79.82-50.27,123.66-68.08,16.76-6.8,34.16-12.48,51.74-16.66,21.75-5.16,44.21-6.83,66.5-4.14,16.64,2.01,33.54,4.45,49.4,9.59,20.03,6.49,39.57,15.04,55.64,29.58,3.69,3.34,8.54,5.64,11.54,9.46,11.9,15.16,24.46,30.01,29.24,49.45,1.7,6.9,3.87,13.68,5.83,20.52Zm-771.94,785.58c0,92.84,0,185.67,0,278.51q0,9.3,9.48,9.42c.5,0,1,.01,1.5.01,52.83,0,105.66,0,158.49-.02,2.16,0,4.54.33,6.42-.44,1.6-.66,3.06-2.5,3.81-4.16.63-1.39.17-3.28.17-4.94,0-145.62,0-291.25,0-436.87,0-61.67,0-123.34,0-185,0-93.5,0-187,0-280.51,0-14.01-.47-14.51-14.65-14.56-17.33-.06-34.67-.04-52-.03-34,.01-68,0-102,.08-9.73.02-11.12,1.57-11.21,11.45,0,.5-.01,1-.01,1.5,0,102.93,0,205.86-.01,308.79,0,14.11,0,28.21,0,42.32,0,21.65,0,43.3,0,64.95,0,69.83,0,139.67,0,209.5Zm-66.88-3.86c0-71.67,0-143.34,0-215.01,0-13.36-.01-13.47-13.54-13.48-97.5-.05-195-.06-292.5-.07-6.96,0-6.97.02-6.97,7.32,0,87.13,0,174.26-.01,261.39,0,58.67,0,117.34.01,176.01,0,9.13,1.56,10.72,10.79,11.06,5.5.2,11,.38,16.49.38,92.67.04,185.33.06,278,.08,7.72,0,7.73-.02,7.73-7.66,0-73.34,0-146.67,0-220.01Zm313.65-.11c0,72.49-.02,144.97.02,217.46,0,11.26-1.29,10.3,10.07,10.31,29.83.03,59.65.05,89.48,0,67.15-.11,134.3-.23,201.45-.46,10.57-.04,11.65-1.42,11.65-11.97,0-61.98,0-123.95,0-185.93,0-83.82,0-167.64.01-251.46,0-6.41.02-6.42-6.63-6.42-60.99,0-121.97-.01-182.96,0-36.99,0-73.98,0-110.97.09-12.08.03-12.09.14-12.09,11.9,0,72.15,0,144.31,0,216.46Zm205.21-493.58v-.08c-65.82,0-131.64,0-197.46,0q-7.75,0-7.75,7.57c0,60.99-.01,121.98.01,182.98,0,9.9-1.24,9.49,9.42,9.49,126.81.03,253.62.03,380.42.02,5.66,0,11.35.09,16.98-.38,9.51-.8,10.24-1.79,10.24-11.44,0-58.82,0-117.65,0-176.47,0-1-.05-2-.01-3,.17-4.82-2.03-7.59-6.94-7.92-4.32-.3-8.64-.72-12.96-.72-63.99-.05-127.97-.03-191.96-.03ZM106.84,477.24c.47,2.94,1.18,5.37,1.19,7.8.07,36.15.05,72.31.06,108.46,0,2.16.06,4.33.13,6.49.14,4.36,2.31,6.79,6.75,7.05,4.65.27,9.3.79,13.95.79,93.3.07,186.59.08,279.89.09,35.65,0,71.3-.05,106.96-.03,9.42,0,9.41.09,9.41-9.24,0-60.98,0-121.96,0-182.94,0-7.86,0-7.88-7.91-7.88-123.62,0-247.23-.02-370.85.02-9.49,0-18.99.07-28.46.67-8.94.57-9.83,1.82-9.85,10.7-.05,17.49.02,34.99-.09,52.48-.01,2.09-.87,4.18-1.17,5.53Zm383.18-205.09c.44-.76.87-1.52,1.31-2.28-1.41-.86-2.97-1.53-4.19-2.6-19.93-17.46-39.73-35.06-59.72-52.44-53.72-46.69-110.32-89.31-173.42-122.79-33.47-17.75-68.41-27.7-106.67-22.07-23.35,3.43-45.22,9.95-61.35,28.78-11.24,13.12-14.69,28.67-12.78,45.23,2.79,24.22,16.03,43.26,33.31,59.28,16.52,15.33,36.38,25.92,57.25,34.05,26.31,10.25,53.92,15.98,81.71,20.49,46.93,7.61,94.3,11,141.75,12.76,32.13,1.19,64.31,1.1,96.47,1.58,2.11.03,4.22,0,6.33,0Zm383.05-.56c1.99.26,3.12.55,4.24.53,33.98-.49,67.99-.32,101.94-1.7,39.5-1.61,78.97-4.07,118.18-9.61,24.69-3.49,49.27-7.5,73.32-14.21,28.4-7.93,55.54-18.53,78.96-37.2,20.84-16.61,36.25-36.58,40.73-63.55,2.5-15.05-.39-29.41-8.45-42.14-7.49-11.82-18.89-19.82-31.67-25.08-23.12-9.51-47.5-11.78-72.15-9.35-23.34,2.29-44.97,10.69-65.62,21.51-43.96,23.04-85.54,49.92-123.92,81.31-38.54,31.52-75.91,64.48-113.77,96.84-.57.49-.88,1.28-1.79,2.65Z"/>
</svg>