<?xml version="1.0" encoding="UTF-8"?>
<svg id="Layer_1" data-name="Layer 1" xmlns="http://www.w3.org/2000/svg" viewBox="0 0 1364 1080">
  <defs>
    <style>
      .cls-1 {
        fill: #4093a4;
      }
    </style>
  </defs>
  <path class="cls-1" d="m182.68,731.8c.03-18.18.09-36.36.07-54.54,0-2.46-.39-4.92-.6-7.38.02-.25.02-.5,0-.75.21-19.28.44-38.55.6-57.83.02-1.8-.39-3.61-.6-5.42.01-.25.01-.51,0-.76,0-21.08,0-42.16,0-63.24.02-.25.02-.51,0-.76.12-18.1.27-36.19.33-54.29.02-6.63-.17-13.27-.34-19.9-.2-7.45-1.48-9.01-8.69-10.15-3.1-.49-6.27-.55-9.41-.81-.71-.9-1.41-1.8-2.12-2.7-.99.88-1.98,1.76-2.97,2.64-44.83-.02-89.65,0-134.48-.09-4.65,0-9.29-.53-13.94-.9-4.28-.34-6.68-2.43-6.66-7.03.07-14.83.07-29.66,0-44.49-.02-4.02,1.66-6.37,5.66-6.79,3.47-.37,6.96-.73,10.44-.73,98.98-.06,197.97-.1,296.95-.02,4.93,0,8.84-1.07,12.65-4.45,16.56-14.7,33.32-29.18,50.13-43.6,20.04-17.2,40.32-34.12,60.26-51.43,10.63-9.22,23.13-12.13,36.59-12.15,51.99-.09,103.98-.28,155.97.1,13.25.1,25.82,4.05,36.97,11.77,4.76,3.3,9.72,6.33,14.72,9.25.98.57,2.91.59,3.85,0,3.6-2.26,6.81-5.16,10.48-7.29,9.81-5.68,19.14-12.74,31.39-12.18,1.7-.32,3.4-.65,5.09-.97,15.63-.25,31.26-.51,46.89-.77.14.25.28.49.42.74.27-.25.53-.49.8-.74,33.63.01,67.25-.08,100.88.1,11.33.06,22.4,2.01,32.34,7.92,2.95,1.75,5.51,4.2,8.15,6.44,14.24,12.03,28.4,24.14,42.67,36.12,17.63,14.81,35.4,29.46,52.97,44.34,5.9,5,11.35,10.52,17.01,15.8.95.28,1.89.56,2.84.84,85.64.03,171.28.05,256.92.08,14.83,0,29.66-.05,44.49.08,4.46.04,8.94.44,13.35,1.05,3.24.45,5.39,2.33,5.38,6.02-.03,15.16,0,30.32-.03,45.48,0,4.01-2.2,6.15-6.09,6.49-4.64.4-9.29.89-13.93.91-46.15.15-92.3.14-138.45.41-3.62.02-7.39,1.38-10.79,2.84-4.44,1.9-6.3,5.71-7.02,10.62-1.96,13.33-3.65,26.63-2.25,40.15.27,2.62-.31,5.31-.31,7.97-.02,71.98-.19,143.95.11,215.93.07,16.42,1.51,32.86,2.85,49.24.57,7.03,6.37,12.01,13.41,12.11,29.14.43,58.28.69,87.43.89,19.16.13,38.32.03,57.48.11,2.98.01,5.98.3,8.94.68,8.31,1.06,8.68,1.49,8.71,10.08.06,13,.05,25.99.06,38.99-.04.75-.07,1.5-.11,2.25-.19,3.82-2.33,5.71-6.02,5.98-4.64.34-9.29.9-13.93.91-54.16.05-108.32.15-162.49-.11-9.6-.05-19.26-1.2-28.76-2.67-17.62-2.71-21.89-11.61-24.89-26.77-1.15-5.82-1.05-11.92-1.17-17.91-.07-3.3-.95-4.79-4.56-4.77-27.33.12-54.66.09-81.99.14-1.27,0-2.54.33-4.09.55.32,2.82.61,5.26.88,7.71,1.88,17.63-6.46,31.75-16.66,44.59-7.27,9.16-15.68,17.78-24.92,24.92-19.64,15.18-41.07,27.53-65.38,33.89-4.44,1.16-9.31,1.91-13.81,1.39-20.51-2.35-35.01,7.34-47.53,22.11-10.88,12.83-23.52,23.35-39.42,29.9-10.71,4.41-21.29,6.53-32.59,3.63-17.22-4.43-32.94-.38-47.93,8.16-11.14,6.35-22.21,12.84-33.5,18.93-11.8,6.36-24.14,7.81-37.14,3.57-6.79-2.22-13.79-3.95-20.82-5.22-12.23-2.2-23.91.57-34.92,5.75-12.81,6.02-25.18,12.99-38.09,18.77-8,3.58-16.49,6.38-25.04,8.31-18.32,4.14-34.46-2.08-47.17-14.63-16.55-16.35-31.93-33.93-47.19-51.52-25.96-29.91-51.42-60.26-77.11-90.4-16.04-18.81-32.08-37.61-48.24-56.32-3.03-3.51-6.2-7.19-10.03-9.66-3.46-2.23-7.89-4.02-11.94-4.1-20.49-.44-40.99-.18-61.49-.4-3.27-.03-6.53-1.25-10.44-2.05-.11.96-.37,2.96-.58,4.97-.89,8.42-1.41,16.9-2.72,25.25-1.8,11.42-9.14,18.28-20.03,20.97-6.57,1.62-13.42,2.88-20.16,2.9-59.99.22-119.99.14-179.98.08-2.98,0-5.96-.54-8.92-.94-3.46-.46-5.4-2.47-5.41-6.01-.03-15-.06-30,.01-44.99.02-4.1,2.59-5.91,6.46-6.06,9.14-.34,18.29-.89,27.44-.91,42.33-.12,84.66-.09,126.99-.11,1.5,0,3.02.13,4.5-.06,8.48-1.06,13.12-1.25,12.96-12.77-.22-16.3.22-32.61.38-48.91,0-.8,0-1.6,0-2.4Zm939.57-231.63c0-.78-.01-1.55-.02-2.33-.04-4.83.08-9.66-.17-14.48-.29-5.64-.67-11.29-1.42-16.88-.93-6.96-4.65-10.33-11.69-10.37-28.46-.17-56.92-.09-85.38-.32-2.58-.02-5.74-.85-7.63-2.47-34.26-29.4-68.45-58.89-102.48-88.55-14.01-12.21-28.25-23.51-48.45-21.77-.34,0-.68-.01-1.02-.02-7.32-.02-14.65-.05-21.97-.07-1.34-2.21-2.68-2.21-4.02,0-12.99,0-25.98,0-38.98,0-1.67-2.79-3.35-1.5-5.02,0-13.68.1-27.36.2-41.04.3-2.47-3.85-5.27-3.46-10.18,1.44-7.54,1.43-14.29,4.43-20.53,9.03-9.29,6.86-19.06,13.07-28.39,19.88-6.53,4.76-12.54,10.23-19.03,15.06-13.4,9.99-27.07,19.62-40.43,29.67-29.08,21.88-58.13,43.8-87,65.95-12.61,9.68-25,19.67-37,30.1-9.81,8.52-15.17,19.29-14.45,32.92.67,12.69,3.87,24.6,8.73,36.18,8.85,21.12,22.25,38.34,42.05,50.49,14.85,9.11,29.12,9.16,43.37-.77,12.7-8.85,25.43-17.67,37.97-26.74,15.66-11.32,31.44-22.49,46.61-34.44,15.02-11.84,31.26-21.92,46.3-33.78,18.37-14.49,37.83-27.6,56.91-41.19,5.83-4.15,11.9-2.96,16.08,2.64.88,1.18,1.97,2.2,2.96,3.31,6.49,7.32,13.23,14.43,19.33,22.05,2.67,3.33,4.23,7.41-.69,11.17-4.92,3.75-9.25,8.27-13.14,11.83,12.93,13.53,25.88,27.01,38.75,40.58,5.86,6.18,11.75,12.37,17.29,18.84,10.31,12.05,23.24,21.84,31.08,36.02.35.64,1.27.96,1.92,1.42,1.85,1.33,3.99,2.38,5.5,4.02,28.1,30.49,56.09,61.09,84.29,91.5,1.76,1.9,5.07,3.32,7.67,3.34,29.66.22,59.32.12,88.97.1.74,0,1.48,0,2.22,0,12.31.02,24.63-.08,36.94.11,3.78.06,5.28-.97,5.28-5.03,0-19.43.38-38.86.43-58.29.08-34.23.09-68.47,0-102.7-.07-25.93-.33-51.86-.5-77.79Zm-880.94,247.6v49.27c.55,0,1.1,0,1.65,0v-49.07c1.8-4.03,5.51-3.9,8.97-3.91,27.33-.04,54.66-.05,81.99.09,2.91.02,6.35.33,8.62,1.87,5.86,3.96,11.91,8.02,16.62,13.2,24.11,26.44,47.83,53.24,71.67,79.93,19.06,21.33,38.02,42.73,57.16,63.99,11.93,13.24,23.96,26.39,36.21,39.34,9.84,10.4,21.19,18.47,36.51,15.3,20.85-4.31,41.93-8.23,60.28-20.13,8.88-5.76,18.5-6.94,28.76-5.05,13.52,2.49,26.7.77,39.48-3.99,3.51-1.31,6.85-3.17,10.06-5.13,9.75-5.95,19.22-12.37,29.13-18.03,7.09-4.05,15.1-5.51,23.22-4.03,9.14,1.66,18.14,4.03,27.26,5.84,8.81,1.74,17.71.86,24.84-4.46,8.75-6.53,16.48-14.44,24.65-21.74,5.52-4.93,9.98-11.43,17.97-12.77,5.55-.93,11.16-1.62,16.77-2.14,16.65-1.56,33.19-3.24,49.38-8.1,11.46-3.44,22.24-7.85,31.48-15.28,5.51-4.43,10.75-9.56,14.88-15.27,4.94-6.82,2.57-14.08-2.19-20.23-9.78-12.64-19.33-25.51-29.9-37.47-44.32-50.16-89-100-133.48-150.01-11.37-12.78-22.51-25.76-34.12-39.08-1.17.66-3.34,1.56-5.13,2.94-10.55,8.16-20.9,16.57-31.52,24.64-27.57,20.96-55.34,41.67-82.85,62.71-15.71,12.02-31.95,22.88-51.25,28.39-9.94,2.84-20.08,3.89-30.16,2.06-32.75-5.95-58.9-23.61-80.2-48.27-24.36-28.21-38.18-61.5-42.65-98.49-1.83-15.18-.72-30.34,5.03-44.66,5.47-13.6,14.02-25.5,24.69-35.37,11.77-10.89,24.43-20.86,37.09-30.73,14.27-11.13,28.97-21.71,43.49-32.51,26.21-19.51,52.43-39,78.61-58.54,2.56-1.91,4.87-4.13,7.3-6.21-.11-.55-.22-1.1-.33-1.65-5.34-.62-10.67-1.75-16.01-1.76-40.99-.14-81.99-.08-122.98-.03-10.83.01-20.67,2.96-29,10.21-38.21,33.21-76.42,66.42-114.75,99.49-1.92,1.66-4.96,2.86-7.48,2.87-27.33.2-54.66.12-81.99.11-3.87-3.58-5.64-3.56-8.1.1-7.66.78-8.77,1.93-9.15,9.48-.2,3.99-.58,7.97-.59,11.96-.06,18.32-.03,36.65-.03,54.97.03,71.79.06,143.59.09,215.38Z"/>
  <path class="cls-1" d="m92.05,751.12c-19.27-.01-34.73-15.46-34.63-34.6.1-19.03,15.87-34.57,34.96-34.46,18.75.11,34.44,15.85,34.43,34.53-.01,19.1-15.56,34.54-34.77,34.53Z"/>
  <path class="cls-1" d="m1271.61,751.12c-18.92-.07-34.34-15.47-34.43-34.39-.09-18.81,15.87-34.72,34.8-34.69,18.99.03,34.56,15.67,34.65,34.82.09,18.9-15.68,34.33-35.02,34.26Z"/>
</svg>