<?xml version="1.0" encoding="utf-8"?>
<!-- Generator: Adobe Illustrator 27.3.1, SVG Export Plug-In . SVG Version: 6.00 Build 0)  -->
<svg version="1.1" id="Layer_1" xmlns="http://www.w3.org/2000/svg" xmlns:xlink="http://www.w3.org/1999/xlink" x="0px" y="0px"
	 viewBox="0 0 1115 1080" style="enable-background:new 0 0 1115 1080;" xml:space="preserve">
<style type="text/css">
	.st0{display:none;fill:#D1D1D1;}
	.st1{fill:#3C3C3C;}
</style>
<g>
	<path class="st0" d="M0,0c371.63,0,743.26,0,1115,0c0,359.91,0,719.87,0,1080c-371.59,0-743.3,0-1115,0C0,720.11,0,360.08,0,0z
		 M557.02,234.52c-3.31-7.12-5.81-13.64-9.22-19.63c-8.64-15.15-17.03-30.49-26.69-44.99c-36.79-55.26-85.27-95.45-149.67-115.06
		c-20.48-6.24-41.37-9.56-62.57-10.78c-11.37-0.65-22.87,0.23-34.27,0.97c-10.35,0.67-20.78,1.42-30.96,3.27
		c-36.61,6.65-70.92,19.55-102.82,38.86C81.48,123.08,45.9,176.77,25.11,241.51c-2.63,8.19-4.31,16.68-6.41,25.03
		c-4.94,19.7-8.65,39.72-9.43,59.95c-0.84,21.9-0.32,43.91,0.9,65.8c0.91,16.37,2.95,32.81,6.17,48.89
		c3.57,17.83,8.63,35.4,13.81,52.85c8.71,29.32,20.23,57.62,34.84,84.47c11.32,20.81,23.3,41.34,36.38,61.07
		c12.03,18.16,25.33,35.56,39.09,52.47c38.54,47.34,82.44,89.43,128.73,129.07c35.97,30.8,73.37,59.76,111.93,87.26
		c55.9,39.87,114.25,75.89,173.08,111.18c2.46,1.47,4.18,1.55,6.69,0.05c62.18-37.18,123.71-75.37,182.39-117.95
		c16.18-11.74,32.21-23.72,47.95-36.04c13.79-10.8,27.08-22.23,40.59-33.39c9.72-8.03,19.82-15.64,29.05-24.19
		c22-20.36,43.93-40.84,65.23-61.93c13.36-13.23,25.91-27.34,38.13-41.64c12.11-14.18,23.84-28.73,34.83-43.79
		c11.08-15.18,21.61-30.84,31.34-46.92c9.52-15.71,18.21-31.98,26.41-48.42c14.24-28.54,25.46-58.35,33.29-89.26
		c4.5-17.75,7.98-35.8,10.91-53.88c2.49-15.38,4.18-30.97,5.06-46.53c1.28-22.56,0.88-45.15-2.93-67.54
		c-2.84-16.69-5.07-33.52-8.87-49.99c-5.2-22.51-13.36-44.08-23.62-64.85c-36.42-73.71-96.61-117.73-174.49-139.27
		c-14.25-3.94-29.18-5.46-43.79-8.09c-23.62-4.25-47.35-2.72-70.82,0.36c-14.84,1.95-29.57,5.92-43.87,10.49
		C686.9,73,645.84,103.56,612.34,144.44c-16.51,20.15-30.2,42.32-42.41,65.35C565.74,217.67,561.66,225.62,557.02,234.52z"/>
	<path class="st1" d="M557.02,234.52c4.64-8.91,8.72-16.85,12.9-24.74c12.21-23.03,25.9-45.2,42.41-65.35
		c33.5-40.88,74.56-71.44,125.31-87.66c14.3-4.57,29.04-8.55,43.87-10.49c23.47-3.08,47.2-4.61,70.82-0.36
		c14.61,2.63,29.54,4.15,43.79,8.09c77.88,21.54,138.08,65.56,174.49,139.27c10.26,20.77,18.41,42.34,23.62,64.85
		c3.81,16.47,6.03,33.3,8.87,49.99c3.81,22.38,4.21,44.98,2.93,67.54c-0.88,15.56-2.57,31.14-5.06,46.53
		c-2.93,18.08-6.41,36.13-10.91,53.88c-7.84,30.92-19.06,60.72-33.29,89.26c-8.2,16.45-16.89,32.71-26.41,48.42
		c-9.74,16.08-20.26,31.73-31.34,46.92c-10.99,15.05-22.72,29.61-34.83,43.79c-12.22,14.31-24.77,28.41-38.13,41.64
		c-21.3,21.09-43.22,41.56-65.23,61.93c-9.23,8.55-19.34,16.16-29.05,24.19c-13.51,11.16-26.8,22.59-40.59,33.39
		c-15.74,12.32-31.77,24.3-47.95,36.04c-58.68,42.59-120.21,80.78-182.39,117.95c-2.51,1.5-4.23,1.42-6.69-0.05
		C495.35,984.25,437,948.23,381.1,908.36c-38.55-27.5-75.96-56.46-111.93-87.26c-46.3-39.64-90.19-81.73-128.73-129.07
		c-13.76-16.9-27.06-34.31-39.09-52.47c-13.07-19.74-25.06-40.27-36.38-61.07c-14.61-26.85-26.13-55.15-34.84-84.47
		C24.95,476.57,19.9,459,16.33,441.18c-3.22-16.07-5.26-32.52-6.17-48.89c-1.22-21.89-1.74-43.9-0.9-65.8
		c0.78-20.22,4.49-40.25,9.43-59.95c2.1-8.36,3.78-16.85,6.41-25.03c20.8-64.74,56.37-118.43,115.72-154.35
		c31.9-19.31,66.21-32.21,102.82-38.86c10.19-1.85,20.61-2.6,30.96-3.27c11.4-0.74,22.9-1.62,34.27-0.97
		c21.21,1.21,42.09,4.54,62.57,10.78c64.4,19.61,112.87,59.81,149.67,115.06c9.65,14.5,18.05,29.84,26.69,44.99
		C551.22,220.88,553.72,227.4,557.02,234.52z M557.36,500.04c-2.78-7.24-5.29-13.3-7.46-19.49c-6.3-18-12.54-36.02-18.64-54.08
		c-4.27-12.62-7.91-25.47-12.5-37.97c-6.2-16.87-13.15-33.45-19.59-50.23c-10.44-27.19-22.56-53.59-37.1-78.83
		c-5.72-9.94-11.43-20-18.28-29.15c-9.71-12.98-19.89-25.72-31.02-37.48c-6.43-6.79-14.97-11.65-22.82-17.01
		c-22.85-15.6-48.33-24.24-75.79-25.53c-15.64-0.74-31.57,0.06-47.07,2.25c-25.36,3.58-49.06,12.68-71.26,25.62
		c-36.27,21.15-60.87,52.23-75.5,90.99c-10.51,27.85-16.63,56.92-16.57,86.91c0.03,15.24-0.05,30.59,1.66,45.69
		c1.85,16.35,4.87,32.68,8.91,48.63c6.15,24.31,13.44,48.32,26.36,70.2c4.23,7.17,7.18,15.09,11.23,22.38
		c15.85,28.6,34.65,55.22,55.2,80.6c40.96,50.59,87.93,95.13,138.06,136.45c66.22,54.6,137.28,102.39,209.21,148.97
		c2.5,1.62,4.24,1.48,6.61-0.18c5.35-3.75,10.94-7.16,16.4-10.75c12.53-8.22,25.08-16.41,37.57-24.7
		c52.54-34.88,103.94-71.34,152.61-111.5c16.89-13.94,33.48-28.27,49.73-42.95c31.44-28.41,60.88-58.79,87.68-91.66
		c26.94-33.03,51.23-67.81,69.7-106.42c10.9-22.78,19.96-46.21,26.33-70.66c5.57-21.37,8.37-43.18,10.17-65.13
		c1.66-20.25-0.64-40.28-2.8-60.39c-2.35-21.9-8.33-42.75-17-62.67c-5.97-13.71-13.9-26.71-22.15-39.25
		c-8.45-12.84-19.81-23.27-32.11-32.55c-19.46-14.67-40.98-25.07-64.36-32.02c-14.94-4.44-30.13-7.2-45.54-7.99
		c-10.91-0.56-21.87-0.85-32.97,0.47c-17.73,2.11-34.89,6.35-50.61,14.12c-13.24,6.54-25.7,15.31-37.03,24.85
		c-10.47,8.81-19.75,19.35-28.18,30.19c-13.01,16.74-23.93,34.89-33.48,53.96c-18.81,37.55-34.95,76.16-48.97,115.7
		c-4.48,12.65-9.9,25.01-13.59,37.87C575.39,451.62,567.2,475.43,557.36,500.04z"/>
	<path class="st0" d="M557.36,500.04c9.84-24.61,18.03-48.42,25.01-72.71c3.7-12.86,9.11-25.23,13.59-37.87
		c14.02-39.54,30.16-78.16,48.97-115.7c9.55-19.07,20.47-37.22,33.48-53.96c8.43-10.85,17.71-21.38,28.18-30.19
		c11.33-9.54,23.79-18.31,37.03-24.85c15.72-7.76,32.88-12,50.61-14.12c11.1-1.32,22.06-1.04,32.97-0.47
		c15.41,0.8,30.6,3.55,45.54,7.99c23.38,6.95,44.9,17.35,64.36,32.02c12.3,9.27,23.66,19.71,32.11,32.55
		c8.25,12.53,16.18,25.53,22.15,39.25c8.67,19.92,14.66,40.77,17,62.67c2.16,20.12,4.46,40.15,2.8,60.39
		c-1.8,21.95-4.61,43.76-10.17,65.13c-6.37,24.45-15.43,47.89-26.33,70.66c-18.47,38.61-42.76,73.39-69.7,106.42
		c-26.8,32.86-56.24,63.25-87.68,91.66c-16.25,14.68-32.84,29.02-49.73,42.95c-48.67,40.16-100.07,76.62-152.61,111.5
		c-12.49,8.29-25.03,16.48-37.57,24.7c-5.47,3.59-11.05,7-16.4,10.75c-2.37,1.66-4.11,1.79-6.61,0.18
		C482.43,862.4,411.37,814.6,345.15,760c-50.12-41.33-97.1-85.86-138.06-136.45c-20.55-25.38-39.34-52-55.2-80.6
		c-4.04-7.29-6.99-15.21-11.23-22.38c-12.92-21.88-20.21-45.89-26.36-70.2c-4.03-15.95-7.06-32.28-8.91-48.63
		c-1.71-15.1-1.63-30.45-1.66-45.69c-0.07-29.99,6.06-59.07,16.57-86.91c14.63-38.76,39.23-69.84,75.5-90.99
		c22.2-12.94,45.9-22.05,71.26-25.62c15.51-2.19,31.44-2.98,47.07-2.25c27.47,1.29,52.95,9.93,75.79,25.53
		c7.85,5.36,16.39,10.22,22.82,17.01c11.13,11.76,21.31,24.5,31.02,37.48c6.85,9.15,12.56,19.21,18.28,29.15
		c14.53,25.24,26.66,51.64,37.1,78.83c6.44,16.78,13.39,33.37,19.59,50.23c4.59,12.5,8.23,25.35,12.5,37.97
		c6.11,18.06,12.35,36.08,18.64,54.08C552.06,486.74,554.57,492.8,557.36,500.04z"/>
</g>
</svg>
