<?xml version="1.0" encoding="UTF-8"?>
<svg id="Layer_1" data-name="Layer 1" xmlns="http://www.w3.org/2000/svg" viewBox="0 0 1115 1080">
  <defs>
    <style>
      .cls-1 {
        fill: #fff;
      }
    </style>
  </defs>
  <path class="cls-1" d="m557.32,250.3c5.58-12.76,10.9-25.33,16.54-37.76,11.46-25.25,25.23-49.13,41.99-71.3,13.06-17.28,28.34-32.37,45.16-45.8,19.38-15.48,41.03-27.35,64.15-36.29,20.45-7.9,41.56-13.52,63.52-15.16,13.21-.98,26.48-2.18,39.69-1.83,21.81.58,43.32,3.94,64.57,9.22,27.72,6.88,53.85,17.7,78.42,31.94,12.67,7.34,24.51,16.36,35.88,25.67,29.24,23.93,50.74,53.96,67.03,87.89,12.7,26.45,21.43,54.22,26.62,83.03,2.78,15.41,4.9,31.03,5.94,46.64,1.17,17.65,1.9,35.48.78,53.1-1.26,19.68-3.91,39.39-7.63,58.76-4.01,20.91-9.02,41.75-15.3,62.09-8.15,26.43-19.11,51.89-31.66,76.58-17.9,35.21-39.19,68.29-63.44,99.45-20.65,26.53-42.51,52.07-66.75,75.38-24.94,23.98-49.8,48.14-76.12,70.56-28.26,24.08-57.91,46.55-87.41,69.13-35.9,27.47-73.63,52.35-111.84,76.46-28.56,18.02-57.57,35.34-86.34,53.03-2.68,1.65-4.81,1.69-7.61-.03-21.26-13.03-42.9-25.45-63.91-38.87-30.24-19.31-60.42-38.75-89.91-59.18-27.03-18.73-53.78-38-79.42-58.56-32.5-26.06-64.27-53.08-95.34-80.82-19.05-17.01-36.62-35.75-54.07-54.44-15.03-16.1-29.67-32.67-43.22-50.02-22.51-28.84-42.73-59.25-60-91.65-13.71-25.72-25.73-52.14-34.8-79.73-6.75-20.53-11.6-41.71-16.76-62.73-2.62-10.66-4.3-21.57-5.92-32.44-1.15-7.65-1.84-15.42-2.11-23.15-.58-16.1-1.46-32.25-.9-48.33.78-22.7,2.61-45.43,8.52-67.49,5.43-20.26,11.01-40.51,17.6-60.4,3.23-9.75,8.83-18.73,13.51-27.98,9.16-18.15,20.71-34.74,34.01-50.02,20.08-23.07,43.62-42.09,70.81-56.08,15.47-7.96,31.59-14.82,47.87-20.99,17.85-6.78,36.49-11.29,55.54-13.07,17.3-1.62,34.71-3.06,52.04-2.8,13.74.21,27.59,2.34,41.12,5.02,13.48,2.67,27.05,5.97,39.81,10.97,24.88,9.74,48.14,22.62,68.93,39.79,15.73,12.99,30.57,26.91,42.22,43.59,11.62,16.64,22.43,33.93,32.42,51.59,7.44,13.16,13.09,27.35,19.38,41.16,2.35,5.16,4.25,10.53,6.39,15.88Zm473.32,97.05c-.21-.02-.43-.04-.64-.06-.25-2.44-.53-4.88-.76-7.33-1.11-11.65-1.18-23.52-3.56-34.9-3.55-16.99-7.88-33.92-13.4-50.36-10.3-30.64-27.47-57.15-51.69-78.77-21.24-18.96-45.76-32.22-72.74-41.14-17.97-5.94-36.35-9.95-55.22-10.6-17.2-.59-34.31-.28-51.44,3.58-17.6,3.96-34.11,9.96-49.4,19.21-25.14,15.21-44.99,36.09-60.87,60.53-9.5,14.61-17.66,30.11-26.03,45.43-5.35,9.8-10.61,19.75-14.81,30.07-11.9,29.23-23.49,58.59-34.7,88.09-6.93,18.23-12.6,36.94-19.57,55.15-2.97,7.75-7.36,15.09-11.97,22.05-2.88,4.35-10.65,4.09-13.48-.19-3.6-5.46-6.9-11.27-9.29-17.34-3.61-9.16-6.12-18.74-9.46-28.01-5.06-14.07-10.33-28.07-15.68-42.03-8.08-21.08-15.74-42.34-24.66-63.07-8.28-19.24-17.84-37.93-27.09-56.74-12.29-24.98-28.04-47.54-47.68-67.37-26.35-26.61-57.96-42.96-94.98-48.27-17.46-2.51-35.14-2.19-52.65-.03-20.17,2.49-39.52,8.28-58.38,15.81-24.74,9.88-46.57,24.2-65.02,43.38-18.5,19.22-31.92,41.71-41.66,66.52-13.06,33.28-18.13,68.01-18.58,103.47-.39,30.31,4.23,60.03,11.5,89.47,8.78,35.54,23.09,68.77,40.65,100.65,14.06,25.53,30.37,49.68,48.42,72.55,12.94,16.39,25.95,32.84,40.22,48.04,21.09,22.47,42.35,44.97,65.31,65.46,33.16,29.58,67.47,57.94,102.16,85.74,24.77,19.85,50.72,38.27,76.59,56.71,27.3,19.46,55.18,38.12,82.66,57.32,3.55,2.48,5.87,2.57,9.48.03,25.24-17.73,50.84-34.95,75.99-52.82,22.06-15.67,43.99-31.54,65.41-48.07,27.56-21.28,55-42.78,81.65-65.18,21.96-18.46,43.09-37.97,63.88-57.76,24.77-23.58,47.96-48.75,69.11-75.62,14.72-18.7,28.92-37.9,42.08-57.73,21.27-32.06,38.03-66.46,50.41-102.99,7.46-22,12.81-44.52,15.96-67.4,2.52-18.33,2.72-36.98,3.95-55.49Z"/>
</svg>