<?xml version="1.0" encoding="UTF-8"?>
<svg id="Layer_1" data-name="Layer 1" xmlns="http://www.w3.org/2000/svg" viewBox="0 0 1364 1473">
  <defs>
    <style>
      .cls-1 {
        fill: #4093a4;
      }
    </style>
  </defs>
  <path class="cls-1" d="m681.19,292.89c-17.76,1.04-35.63,1.19-53.26,3.32-25.93,3.14-51.63,8.16-76.49,16.43-17.82,5.93-35.67,12.01-52.86,19.52-15.17,6.63-29.65,14.95-44.05,23.21-24.73,14.19-47.27,31.46-68.71,50.21-19.15,16.74-37.02,34.74-52.11,55.24-12.28,16.69-24.78,33.38-35.36,51.15-20.05,33.69-35.49,69.53-45.39,107.62-5.22,20.08-9.54,40.31-12.18,60.93-3.33,25.92-4.72,51.92-3.52,77.96,1.15,24.98,3.85,49.89,5.29,74.86,1.21,20.93,2.57,41.95,1.96,62.87-.4,13.58-4.52,27.46-18.57,33.69-7.52,3.33-16.35,4.51-24.69,4.99-10.89.63-21.95-1.37-32.79-.45-11.81,1.01-23.18-.55-34.61-2.5-21.77-3.71-41.59-12.46-56.49-28.7-8.83-9.62-15.68-21.66-21.12-33.66-13.49-29.74-19.6-61.53-21.29-94.01-1.15-22.08-1.71-44.28-.93-66.37,1.29-36.5,7.69-72.13,21.94-106.08,15.53-36.99,43.62-57.84,82.85-62.91,18.41-2.38,37.2-1.96,55.82-2.35,4.74-.1,7.4-1.65,10.08-5.47,23.38-33.39,46.29-67.14,70.8-99.68,14.47-19.21,30.83-37.18,47.71-54.36,27.14-27.63,57.2-52.03,90.56-71.83,20.52-12.18,41.67-23.47,63.29-33.55,35.4-16.5,72.7-27.71,111.14-34.54,18.43-3.27,37.18-5.06,55.86-6.48,18.36-1.4,36.84-2.3,55.23-1.95,32.36.61,64.31,5.22,95.9,12.39,28.16,6.39,55.44,15.43,82.13,26.33,8.28,3.38,16.31,7.38,24.5,10.97,2.25.98,4.77,1.33,7.01,2.34,2.14.96,4.04,2.42,6.07,3.62,4.71,2.79,9.36,5.68,14.16,8.3,24.47,13.38,47.41,29.02,69.12,46.52,4.11,3.31,8.88,5.8,13.35,8.68.55.35,1.19.64,1.61,1.11,3.25,3.62,6.32,7.42,9.71,10.91,13.1,13.48,26.52,26.67,39.38,40.37,6.21,6.62,11.41,14.17,17.13,21.26,9.21,11.42,18.74,22.59,27.6,34.27,7.26,9.58,13.7,19.78,20.57,29.65,4.82,6.93,9.92,13.67,14.62,20.68,5.35,7.97,10.5,16.08,15.52,24.26,2.43,3.96,5.06,6.39,10.28,6.17,10.27-.43,20.6-.55,30.85.05,19.37,1.13,38.87,2.15,56.76,10.98,12.09,5.97,24.33,12.13,32.81,22.9,8.44,10.73,16.25,22,20.14,35.53,2.31,8.05,6.41,15.6,8.5,23.69,3.55,13.72,6.64,27.6,8.98,41.57,2.02,12.04,2.85,24.29,3.94,36.48.41,4.63.04,9.32.06,13.98.04,12.45.58,24.93.07,37.36-1.56,37.33-7.38,73.83-21.88,108.61-14.81,35.52-41.08,56.23-78.87,63.15-20.03,3.67-40.16,2.81-60.29,2.86-4.49.01-7.22,1.34-9.77,5.16-23.94,35.88-47.88,71.74-74.92,105.44-40.01,49.86-86.52,92.33-141.25,125.5-47.97,29.08-99.32,50-154.11,62.28-5.68,1.27-11.4,2.51-17.16,3.29-3.17.43-4.78,1.91-5.5,4.74-2.49,9.8-7.05,18.61-13.32,26.45-5.9,7.38-12.65,13.69-21.22,18.33-8.41,4.56-16.8,8.6-26.3,10.08-16.27,2.54-31.91.56-46.66-6.93-50.83-25.84-57.2-95.81-10.27-130.3,11.41-8.39,24.39-13.47,38.45-13.84,16.67-.43,33.22,1.77,47.33,11.79,8.31,5.9,16.51,12.21,21.65,21.44,1.74,3.12,4.18,2.56,6.87,1.63,21.44-7.35,42.95-14.47,64.32-22.01,40.66-14.35,78.46-34.4,113.23-59.73,16.91-12.31,32.79-26.22,48.04-40.57,13.9-13.09,27.35-26.94,39.19-41.89,31.04-39.16,55.54-82.23,72.2-129.49,11.73-33.26,19.79-67.43,23.1-102.59,1.15-12.24,1.47-24.56,2.03-36.85,1.8-39.33-3.17-78.01-12.45-116.1-9.33-38.34-23.92-74.69-43.1-109.23-13.13-23.64-28.27-45.89-45.38-66.76-16.79-20.49-35.31-39.35-55.72-56.31-7.85-6.53-15.04-13.99-23.41-19.74-13.68-9.39-27.89-18.09-42.24-26.45-42.13-24.54-87.32-41.04-135.06-50.8-25-5.11-58.9-8.5-86.42-8.68Z"/>
  <path class="cls-1" d="m655.29,340.79c12.11,0,25.07-.2,38.02.04,33.15.61,65.72,5.56,97.44,15.12,24.95,7.52,49.78,15.78,72.55,28.75,17.08,9.73,34.41,19.34,50.15,31.01,17.07,12.66,33.11,26.93,48.3,41.82,13.53,13.26,26.14,27.69,37.61,42.78,10.88,14.33,20.47,29.77,29.31,45.47,11.21,19.91,21.01,40.63,27.72,62.58,3.91,12.8,7.24,25.8,10.33,38.83,2.85,12.04,6.02,24.14,7.28,36.4,2.06,20.08,3.61,40.31,3.7,60.48.12,25.48-3.52,50.68-8.79,75.69-6.4,30.41-16.52,59.51-29.75,87.47-10.08,21.31-22.3,41.44-36.11,60.66-13.42,18.68-28.25,36.07-44.62,52.09-19.47,19.04-40.75,35.83-63.83,50.49-19.87,12.62-40.48,23.59-62.17,32.54-31.24,12.89-63.69,21.11-97.12,26.33-22.32,3.48-44.62,4.04-67,3.37-30.54-.92-60.59-5.9-90.31-12.88-11.58-2.72-23.08-5.86-34.75-8.15-5.09-1-10.61-.97-15.75-.18-3.33.51-6.23,3.42-9.47,4.94-8.51,4-17.05,7.94-25.67,11.68-5.12,2.22-10.51,3.84-15.63,6.06-4.36,1.89-8.47,4.36-12.79,6.36-26.51,12.34-53.72,22.57-82.94,26.21-9.34,1.16-19.01.7-27.07-4.63-4.18-2.76-7.87-7.36-9.95-11.96-4.87-10.72-4.63-22.33-3.53-33.88,3.06-32.11,13.24-62.47,22.82-92.98,2.2-6.99,4.03-14.09,6.2-21.09,2.52-8.11.48-15.14-3.72-22.31-13.89-23.7-28.42-47.13-40.76-71.64-19.48-38.69-30.94-80.01-36.33-123.06-2.93-23.41-3.79-46.89-2.44-70.33,3.63-62.91,21.11-121.84,52.67-176.5,19.05-32.99,42.38-62.6,69.97-88.83,36.16-34.37,77.3-61.18,123.63-79.64,16.3-6.5,33.14-11.95,50.14-16.32,15.64-4.02,31.81-5.98,47.76-8.77,7.97-1.39,15.98-2.59,24.95-4.03Zm354.1,389.39c-.94-9.43-1.76-26.44-4.43-43.15-12.17-76.02-46.58-140.19-103.5-192.26-23.04-21.08-48.5-38.43-76.56-52.04-65.74-31.88-134.68-41.21-206.26-27.33-75.79,14.7-139.29,51.62-188.76,111.04-60.83,73.06-85.11,157.5-74.7,251.84,4.81,43.54,19.81,83.86,41.55,121.64,14.45,25.12,29.53,49.89,44.96,74.42,6.32,10.05,6.98,19.03.96,29.3-7.66,13.07-14.8,26.47-21.69,39.97-6.58,12.89-13.33,25.79-15.54,40.38-1.14,7.57,2.84,11.5,10.17,8.92,8.43-2.96,16.99-6.25,24.52-10.95,18.37-11.45,36.5-23.34,54.1-35.94,11.77-8.42,23.12-11.56,37.73-7.58,28.09,7.65,56.55,14.11,85.09,19.95,41.7,8.53,83.6,10.19,125.69,1.6,73.32-14.96,135.36-49.61,184.68-105.94,54.1-61.79,80.65-134.32,81.98-223.87Z"/>
  <path class="cls-1" d="m454.28,724.57c-.25-2.73-.49-4.13-.49-5.53,0-15.83.1-31.65,0-47.48-.02-3.16,1.08-5.11,3.58-7.06,13.96-10.92,29.19-17.76,47.41-16.54,28.91,1.93,47.8,24.3,50.55,45.12,3.14,23.73-2.59,44.56-15.72,63.87-5.43,7.98-11.24,15.7-16.89,23.54-1.05,1.45-2.11,2.89-3.78,5.17,2.62.13,4.34.28,6.07.28,12.83.02,25.66.12,38.48-.05,3.72-.05,5.42.8,5.32,4.95-.25,10.16-.21,20.32-.04,30.48.06,3.56-1.31,4.55-4.7,4.54-36.48-.09-72.97-.1-109.45,0-3.63,0-4.37-1.44-4.54-4.73-.29-5.9,1.14-10.56,5.16-15.33,18.87-22.38,37.68-44.86,52.56-70.25,4.93-8.41,8.74-17.08,8.22-27.28-.39-7.65-2.32-14.18-9.44-17.98-7.45-3.97-14.95-2.82-21.83,1.3-9.57,5.73-15.96,14.75-22.74,23.31-2.3,2.91-4.64,5.79-7.74,9.67Z"/>
  <path class="cls-1" d="m679.97,692.76c0,12.5.22,25-.11,37.49-.13,4.79,1.59,6.28,6.01,5.69,2.47-.33,5.02-.94,7.41-.57,1.34.21,3.43,2.12,3.46,3.3.28,10.49.13,20.99.22,31.49.02,2.8-1.11,3.92-3.87,3.8-2.66-.12-5.35.15-7.99-.08-3.84-.33-5.26.99-5.2,5.05.22,13.83-.06,27.66.14,41.48.06,4.03-1.02,5.61-5.3,5.49-10.16-.27-20.33-.28-30.48,0-4.32.12-5.32-1.51-5.27-5.51.19-13.66-.1-27.33.17-40.98.09-4.51-1.45-5.64-5.75-5.59-18.66.21-37.32-.03-55.98.2-4.42.06-5.18-1.39-5.72-5.62-1.6-12.45,3.39-21.46,11.35-30.7,20.37-23.67,39.68-48.26,59.44-72.46,4.1-5.02,8.23-10.01,12.47-14.91.89-1.03,2.28-2.2,3.51-2.26,5.07-.29,10.19.11,15.25-.3,5.11-.41,6.31,2.06,6.27,6.51-.12,12.83-.04,25.66-.04,38.49h.02Zm-48.14,41.53c.21.43.42.87.63,1.3,1.97-.26,5.22.05,5.64-.9,1-2.23.65-5.07.84-7.66l-1.31-.29c-1.94,2.52-3.87,5.03-5.81,7.55Z"/>
  <path class="cls-1" d="m828.62,830.44c-11.67-5.14-22.64-9.86-33.45-14.92-.95-.44-1.65-3.45-1.12-4.68,6.87-15.87,13.97-31.64,21.03-47.43,10.19-22.78,20.41-45.56,30.58-68.35.59-1.32.88-2.77,1.52-4.86-2.39-.2-4.28-.49-6.17-.49-16.82-.04-33.64-.15-50.46.05-4.24.05-5.92-.99-5.77-5.56.32-9.98.13-19.98.06-29.98-.02-2.7.46-4.41,3.77-4.41,39.64.07,79.28.06,118.92.09.46,0,.91.28,2.13.68-26.98,59.88-53.89,119.62-81.03,179.85Z"/>
  <path class="cls-1" d="m695.96,827.82c2.99-10.81,5.69-20.71,8.47-30.59,13.48-48.03,27.04-96.03,40.37-144.1,1.16-4.2,3-5.51,7.21-5.38,9.44.29,18.9.09,29.29.09-2.24,8.11-4.23,15.43-6.28,22.73-5.98,21.31-11.94,42.63-17.99,63.92-6.08,21.4-12.25,42.78-18.38,64.17-2.46,8.59-4.79,17.21-7.43,25.74-.42,1.35-2.13,3.24-3.29,3.26-10.29.26-20.59.15-31.98.15Z"/>
</svg>