<?xml version="1.0" encoding="UTF-8"?>
<svg id="Layer_1" data-name="Layer 1" xmlns="http://www.w3.org/2000/svg" viewBox="0 0 1364 1473">
  <defs>
    <style>
      .cls-1 {
        fill: #4093a4;
      }
    </style>
  </defs>
  <path class="cls-1" d="m682.08,295.09c-221.47,0-442.94,0-664.4,0q-7.77,0-7.77-7.87c0-60.82,0-121.65,0-182.47q0-7.45,7.2-7.45c253.13,0,506.26,0,759.39,0,189.75,0,379.5,0,569.25,0,1.5,0,3,.07,4.5,0,2.69-.12,4.1.95,3.86,3.8-.08.99,0,2,0,3,0,61.32,0,122.65,0,183.97q0,7.02-7.11,7.03c-221.63,0-443.27,0-664.9,0Z"/>
  <path class="cls-1" d="m681.5,1364.81c-221.33,0-442.67,0-664,0q-7.58,0-7.59-7.56c0-61.17,0-122.33,0-183.5q0-6.77,6.84-6.77c443.5,0,886.99-.01,1330.49-.01q6.84,0,6.84,6.8c0,61.33,0,122.67,0,184q0,7.04-7.09,7.05c-221.83,0-443.66,0-665.5,0Z"/>
  <path class="cls-1" d="m682,829.97c-221.14,0-442.29,0-663.43-.02-9.53,0-8.66,1.19-8.66-8.45-.02-60.83-.01-121.65-.01-182.48q0-6.89,6.73-6.9c443.62,0,887.24,0,1330.86,0,6.58,0,6.65.01,6.58,6.54-.17,17.81-.62,35.61-.59,53.42.09,43.8.39,87.6.59,131.41.03,6.47,0,6.48-6.65,6.48-221.81,0-443.62,0-665.43,0Z"/>
</svg>