<?xml version="1.0" encoding="UTF-8"?>
<svg id="Layer_1" data-name="Layer 1" xmlns="http://www.w3.org/2000/svg" viewBox="0 0 1115 1080">
  <defs>
    <style>
      .cls-1 {
        fill: #d1b24d;
      }
    </style>
  </defs>
  <path class="cls-1" d="m499.4,456.35c8.31-3.36,10.3-11.55,14.64-17.97,2.95-4.37,6.47-8.35,9.4-12.73,6.34-9.48,11.75-19.66,18.79-28.58,21.99-27.9,44.17-55.67,67.06-82.83,12.74-15.12,26.52-29.47,40.8-43.16,11.32-10.85,23.37-21.28,36.44-29.86,15.07-9.9,31.05-19.42,49.54-21.29,16.03-1.62,31.67-.08,44.3,12.43,5.79,5.73,9.32,12.17,11.96,19.7,4.26,12.18,3.74,24.17,1.09,36.53-5.38,25-18.07,46.55-32.51,66.93-28.02,39.54-57.28,78.2-85.48,117.62-31.78,44.42-63.03,89.23-94.38,133.97-9.72,13.88-19.13,27.99-28.45,42.15-19.43,29.51-38.71,59.12-58.05,88.69-2.92,4.46-5.39,9.32-8.89,13.26-5.37,6.05-8.33,13.53-13.04,19.94-5.03,6.84-9.79,13.89-14.77,20.78-4.87,6.75-9.46,13.76-14.89,20.04-10.73,12.42-21.37,25.03-33.2,36.36-7.57,7.25-16.75,13.24-27.89,14.52-9.92,1.14-17.78-4.02-21.81-14.43-5.74-14.8-4.23-29.78-1.81-45.09,6.44-40.89,19.92-79.72,33.75-118.45,16.66-46.65,36.2-92.09,58.39-136.38,5.77-11.53,11.76-22.96,18.11-34.18,8.58-15.18,17.57-30.12,26.45-45.12,1.16-1.97,2.99-3.56,4.03-5.58.94-1.84,1.21-4.01,1.78-6.04-.45-.41-.9-.82-1.35-1.23Z"/>
  <path class="cls-1" d="m206.73,447.44c.8-23.93.61-46.47,2.55-68.83,1.94-22.32,5.74-44.5,9.21-66.66,4-25.54,10.44-50.54,18.69-75.02,6.62-19.64,14.91-38.63,28.39-54.64,13.64-16.19,30.58-27.63,52.42-28.22,15.24-.41,28.9,4.49,39.19,17.08,9.86,12.06,14.76,25.66,16.05,40.99,2.73,32.29-.19,64.31-3.85,96.35-3.44,30.08-6.35,60.21-9.32,90.34-1.84,18.64-3.47,37.31-4.94,55.99-1.19,15.09-2.07,30.21-2.94,45.32-1.69,29.36-3.29,58.73-4.89,88.09-.49,8.96-.94,17.92-1.23,26.88-.72,22.11-.84,44.24-2.11,66.32-1.5,26.03-2.81,52.21-11.91,77.09-3.88,10.6-9.36,20.19-18.83,27.01-5.68,4.09-19.05,4.17-25.21.1-10.9-7.19-18.38-17.26-24.18-28.66-22.31-43.86-32.38-91.45-41.77-139.18-3.56-18.09-6.47-36.35-8.78-54.64-2.04-16.16-3.23-32.46-4.08-48.73-1.19-22.78-1.72-45.59-2.48-66.97Z"/>
  <path class="cls-1" d="m501,914.83c-11.81.54-22.76-1.59-31.85-9.99-6.57-6.08-9.43-19.4-7.09-28.05,8.16-30.16,30.7-49.15,52.68-68.44,12.24-10.75,25.85-19.92,38.33-30.4,6.88-5.78,14.77-9.31,22.48-13.51,8.95-4.86,16.82-11.66,25.55-16.97,24.81-15.11,51.24-26.99,77.91-38.37,36.17-15.43,73.02-28.93,111.32-38,26.88-6.36,53.94-12.04,81.69-13.24,9.12-.4,18.28-1.22,27.38-.82,13.87.61,27.71,1.51,40.95,6.85,22.75,9.17,40.56,27.49,43,54.21,1.85,20.28-5.31,36.55-19.39,50.59-12.86,12.83-28.76,20.61-45.5,26.06-30.06,9.79-60.53,18.3-90.88,27.17-45.55,13.31-91.29,26.01-136.68,39.82-42.22,12.84-83.99,27.15-126.17,40.1-17.29,5.31-35.12,8.86-52.78,12.89-3.48.79-7.3.11-10.96.11Z"/>
</svg>