<?xml version="1.0" encoding="UTF-8"?>
<svg id="Layer_1" data-name="Layer 1" xmlns="http://www.w3.org/2000/svg" viewBox="0 0 1115 1080">
  <defs>
    <style>
      .cls-1 {
        fill: #fff;
      }
    </style>
  </defs>
  <path class="cls-1" d="m936.95,426.3c-.99,17.02-.96,33.39-3.13,49.46-2.8,20.77-6.38,41.56-11.44,61.88-5.37,21.59-11.87,43.01-19.66,63.84-11.14,29.8-24.42,58.75-40.55,86.27-10.43,17.81-20.51,35.88-31.97,53.01-13.51,20.2-27.65,40.07-42.77,59.09-17.37,21.84-35.77,42.89-54.33,63.75-36.27,40.78-75.92,78.21-115.79,115.38-18.38,17.14-37.24,33.74-55.74,50.75-3.13,2.88-5.15,2.97-8.29,0-14.15-13.33-28.53-26.42-42.81-39.62-18.16-16.8-36.68-33.24-54.36-50.55-21.28-20.84-42.01-42.25-62.65-63.74-13.68-14.24-27.1-28.75-40.02-43.68-10.41-12.03-20.43-24.48-29.68-37.42-18.8-26.3-37.73-52.56-55.13-79.79-12.69-19.85-24.02-40.74-34.1-62.05-10.77-22.76-20.11-46.28-28.68-69.97-8.37-23.14-15-46.92-18.88-71.32-2.45-15.43-5.6-30.84-6.7-46.37-1.36-19.37-1.51-38.89-1.07-58.31.3-13.5,1.91-27.04,3.97-40.41,1.95-12.64,4.91-25.15,8-37.57,8.48-34.16,22.23-66.29,40.16-96.41,22.47-37.76,50.58-71.04,84.56-99.05,31.56-26.01,66.46-46.3,104.77-60.99,25.6-9.81,51.83-16.85,78.74-21.36,26.26-4.4,52.86-5.3,79.37-3.84,16.55.91,33.14,3.45,49.41,6.73,17.98,3.62,35.95,7.94,53.34,13.71,31.63,10.5,61.16,25.62,88.85,44.28,28.46,19.18,53.79,41.99,75.93,68.05,18.23,21.47,33.9,44.85,46.96,69.99,12.68,24.42,23,49.69,30.15,76.25,5.38,19.99,9.2,40.28,10.79,60.94,1.02,13.25,1.87,26.52,2.75,39.08Zm-379.47,505.99c23.38-21.51,46.63-42.3,69.16-63.84,17.68-16.91,34.82-34.43,51.55-52.28,16.8-17.93,33.62-35.95,48.93-55.13,17.19-21.52,33.47-43.86,48.74-66.78,19-28.51,35.62-58.54,48.84-90.21,8.59-20.6,16.28-41.62,23.58-62.72,3.57-10.32,5.56-21.22,7.87-31.95,2.84-13.14,6.24-26.27,7.62-39.58,1.71-16.62,1.69-33.42,2.26-50.15.72-21.45-2.68-42.48-7.31-63.28-6.37-28.59-17.02-55.63-31.4-81.15-12.67-22.49-27.87-43.15-45.52-61.97-21.49-22.92-46.07-41.88-73.47-57.23-18.9-10.59-38.66-19.29-59.39-25.41-14.47-4.28-29.21-8.31-44.11-10.24-18.03-2.34-36.36-2.63-54.58-3.28-20.96-.74-41.61,2.74-61.87,7.39-24.35,5.58-47.72,14.23-70.21,25.43-41.17,20.5-75.05,49.72-103.5,85.38-16.96,21.26-31.05,44.48-41.49,69.66-5.34,12.88-10.48,26.01-13.8,39.5-3.91,15.87-5.89,32.24-8.44,48.43-3.61,22.99-2.66,46.13-.53,69.11,2.4,25.86,7.87,51.24,15.36,76.17,8.09,26.91,18.34,52.96,30.27,78.4,16.83,35.9,36.98,69.88,59.64,102.35,18.92,27.11,39.49,53.01,62.09,77.13,22.24,23.73,44.89,47.11,68.1,69.89,19.34,18.97,39.76,36.83,59.69,55.19,4,3.68,7.93,7.43,11.93,11.19Z"/>
  <path class="cls-1" d="m558.8,626.1c-116.51-.59-194.44-90.11-201.35-184.81-4.24-58.19,13.88-109.89,53.79-152.86,35.95-38.7,81.36-60.44,133.65-62.98,126.01-6.13,212.78,93.12,213.16,198.06.41,114.36-89.58,201.31-199.25,202.59Zm-2.82-330.57c-67.83.69-127.15,54.93-128.43,127.42-1.28,71.92,53.37,130.3,127.14,132.99,72.15,2.63,131.92-55.25,132.83-131.61.76-64.58-51.44-128.52-131.54-128.79Z"/>
</svg>