<?xml version="1.0" encoding="UTF-8"?>
<svg id="Layer_1" data-name="Layer 1" xmlns="http://www.w3.org/2000/svg" viewBox="0 0 1459 1473">
  <defs>
    <style>
      .cls-1 {
        fill: #4093a4;
      }
    </style>
  </defs>
  <path class="cls-1" d="m262.39,908.53c6.62-2.84,12.39-5.29,18.14-7.78,26.35-11.39,53.07-21.92,81.32-27.34,18.1-3.47,36.51-5.7,54.89-7.18,14.38-1.16,28.93-.58,43.4-.28,33.53.71,65.67,8.43,96.71,20.69,26.49,10.46,52.61,21.85,79.11,32.28,22.16,8.72,45.51,12.55,69.09,15.12,9.89,1.08,19.74,2.52,29.6,3.79.66.08,1.33.11,1.99.14,27.1,1.39,54.2,2.59,81.28,4.22,34.73,2.09,69.56,3.42,104.1,7.28,16.47,1.84,32.53,8.28,48.48,13.54,17.41,5.74,32.57,15.91,47.33,26.58,1.83,1.33,3.27,3.3,4.63,5.16,7.28,9.96,14.55,19.91,21.63,30.01,1.78,2.54,3.23,2.97,6.12,1.67,52.05-23.6,104.04-47.33,156.29-70.47,23.75-10.52,47.68-20.84,72.17-29.41,43.34-15.17,83.28-6.14,119.88,20.33,11.88,8.59,21.39,19.46,29.44,31.67,5.14,7.8,8.99,16.22,8.53,25.6-.22,4.52-2.07,9.68-4.87,13.2-4.5,5.65-9.82,11.04-15.81,15.04-36.31,24.24-72.87,48.1-109.42,71.99-16.01,10.46-32.16,20.71-48.28,31.01-79.15,50.54-157.97,101.61-237.64,151.31-32.32,20.16-66.11,38.12-99.99,55.6-29.16,15.05-60.53,24.33-93.21,28.61-32.4,4.24-64.58,2.43-96.22-5.4-47.69-11.8-95.3-23.93-142.78-36.59-62.61-16.69-124.99-34.25-187.62-50.89-13.44-3.57-27.4-5.78-41.27-6.94-16.75-1.4-32.15,5.01-46.86,12.24-16.14,7.94-31.91,16.63-47.71,25.24-1.42.77-2.6,3.33-2.63,5.08-.28,14.16.25,28.36-.48,42.49-.57,11.09-2.42,22.14-4.02,33.16-.66,4.56-11.51,12.65-16.54,12.69-42.32.41-84.63.79-126.95,1.11-15.33.11-30.67.14-46-.04-7.82-.09-15.64-.64-23.45-1.16-4.49-.3-13.99-9.64-14.8-14.16-2.89-16.27-4.13-32.61-4.14-49.18-.02-141.83-.42-283.66-.35-425.49,0-22.26-.47-44.67,4.52-66.64.36-1.58.75-3.46,1.8-4.52,5.49-5.51,10.78-10.22,19.9-10.2,57.15.14,114.3-.43,171.46-.65,6.65-.02,13.3.62,19.94,1.13,4.84.37,13.96,9.79,14.93,14.53,3.81,18.56,4.34,37.33,3.99,56.18-.03,1.47.16,2.95.33,5.64Zm1106.88,88.63c-.91-1.11-1.3-1.9-1.93-2.31-14.17-9.18-29.2-15.75-46.38-16.97-18.06-1.28-34.14,5.2-49.93,12.29-30.39,13.65-60.62,27.69-90.7,42.01-37.16,17.7-74.1,35.84-111.09,53.9-1.4.68-3.09,2.48-3.18,3.85-.73,11.25-1.44,22.52-1.48,33.79-.04,9.68-5.61,17.15-15.24,18.3-5.93.71-11.95.94-17.93.95-65.5.07-131,.14-196.5,0-36.99-.07-73.98-.47-110.96-.86-7.66-.08-15.09-1.26-19.4-8.89-7.92-14.01-8.03-28.23-.74-42.44,2.62-5.1,6.75-8.84,12.84-9.11,10.12-.44,20.26-.93,30.38-.79,40.31.55,80.62,1.36,120.93,2.01,30.82.5,61.64.89,92.46,1.34,1.66.02,3.32.32,4.98.34,11.16.11,22.33.39,33.49.16,6.05-.12,6.36-1.53,4.09-7.05-7.01-17.04-18.34-30.78-31.78-43.05-10.86-9.92-23.07-17.33-37.28-21.54-24.32-7.2-49.4-9.18-74.46-10.84-28.4-1.87-56.87-2.89-85.32-4.02-23.96-.95-47.95-1.3-71.91-2.36-20.7-.92-41.19-3.6-60.65-11.19-20.64-8.04-41.24-16.22-61.67-24.77-39.54-16.55-79.88-29.58-123.11-32.26-29.66-1.83-58.91-.38-87.73,7.07-35.34,9.13-68.52,23.9-101.61,38.94-3.57,1.62-4.86,3.56-4.83,7.5.19,21.3.09,42.59.09,63.89,0,65.5,0,131,.02,196.5,0,1.67.29,3.34.38,4.35,14.21-7.58,27.61-15.78,41.85-22.1,23.74-10.54,48.88-14.83,74.69-10.48,19.35,3.26,38.62,7.42,57.6,12.41,73.76,19.37,147.35,39.39,221.09,58.83,29.6,7.81,59.33,15.2,89.2,21.89,14.4,3.23,29.19,5.25,43.92,6.35,39.66,2.97,76.89-6.59,111.63-25.14,28.79-15.38,57.29-31.42,85.03-48.59,69.41-42.96,138.43-86.55,207.38-130.24,53.76-34.06,107.19-68.65,160.76-103.02,4.29-2.76,8.5-5.64,13.02-8.65Zm-1288.47,119.32c0,64.98-.06,129.96.08,194.93.02,7.79.83,15.62,1.81,23.37,1.13,8.92,5.63,13.02,14.44,13.17,15.66.28,31.32.28,46.98.28,15.83,0,31.66,0,47.48-.31,7.95-.16,12.65-4.46,13.6-12.36,1.13-9.4,2.45-18.87,2.46-28.31.19-120.29.22-240.58.09-360.88-.02-14.95-1.07-29.92-1.95-44.86-.62-10.46-5.64-15.41-16.1-15.48-30.32-.2-60.64.15-90.96-.2-10.75-.13-15.6,6.27-16.43,15.29-.67,7.29-1.42,14.6-1.43,21.91-.11,64.48-.06,128.96-.06,193.43Z"/>
  <path class="cls-1" d="m965.83,896.89c-18.71.17-31.56-.66-43.49-5.95-12.03-5.33-20.34-14.38-23.22-27.55-1.69-7.71,2.06-14.77,9.85-16.61,10.79-2.55,21.84-4.21,32.86-5.53,12.47-1.5,25.4-.73,37.46-3.68,11.16-2.73,22.02-9.05,25.66-21.31,3.58-12.04,6.11-24.5,7.89-36.95,2.66-18.61,4.28-37.36,6.28-56.06.6-5.62,4.05-9.17,8.16-12.58,19.59-16.28,39.24-32.52,58.46-49.23,4.65-4.05,8.39-9.51,11.47-14.93,6.98-12.28,4.24-24.84-1.74-36.35-10.91-20.97-22.3-41.72-34.35-62.06-5.62-9.48-6.82-18.19-3.82-28.83,6.36-22.59,11.87-45.43,16.98-68.34,1.45-6.49,1.09-13.66.19-20.33-1.78-13.14-11.11-21.23-21.99-26.66-22.34-11.16-45.06-21.58-67.88-31.75-7.54-3.36-12.38-7.93-15.22-15.82-7.15-19.87-14.67-39.62-22.77-59.11-3.42-8.23-7.65-16.56-13.37-23.26-6.23-7.3-14.84-11.85-25.29-12.18-18.09-.57-35.31,4.24-52.76,7.64-12.09,2.36-24.18,4.77-36.18,7.58-5.84,1.37-10.68.2-15.58-2.96-17.91-11.57-35.81-23.17-53.98-34.34-6.91-4.24-14.3-7.92-21.87-10.81-12.64-4.82-25.08-3.97-35.33,5.66-12.18,11.43-23.8,23.45-35.57,35.31-3.5,3.53-6.67,7.39-10.08,11.02-6.24,6.65-12.41,13.37-18.91,19.76-1.47,1.45-4.14,2.17-6.32,2.32-21.92,1.48-43.87,2.56-65.78,4.2-9.24.69-18.73,1.36-27.5,4.03-9.81,2.99-18.26,9.69-21.3,19.85-3.82,12.76-6.66,25.93-8.5,39.12-2.47,17.76-3.62,35.7-5.24,53.57-.44,4.79-2.58,8.36-6.26,11.44-20.31,16.99-40.68,33.9-60.62,51.31-4.64,4.05-8.21,9.63-11.34,15.04-6.92,11.98-4.02,24.23,1.76,35.38,11.26,21.73,23.19,43.13,35.47,64.3,4.67,8.05,5.96,15.36,3.45,24.52-6.55,23.92-12.73,47.98-17.8,72.25-3.43,16.46.75,30.86,15.28,41.86,8.52,6.45,18.5,9.37,27.42,14.66,8.65,5.12,18.27,8.6,26.88,13.77,4.78,2.87,8.41,7.67,12.44,11.73.73.73,1.37,2.21,1.15,3.13-1.52,6.22-2.48,12.69-8.12,17.06-12.15,9.42-25.54,12.71-40.64,9.13-21.54-5.12-41.4-14.34-60.92-24.44-3.83-1.98-7.95-3.48-11.59-5.75-9.87-6.14-20.34-12.51-24.81-23.5-3.75-9.23-5.61-19.68-3.14-29.95,6.96-28.97,14.12-57.9,21.2-86.85.16-.65.32-1.3.55-1.92,3.84-10.37,2.47-19.58-3.39-29.36-14.13-23.56-27.36-47.67-40.53-71.8-5.52-10.11-9.37-20.92-9.39-32.79-.01-8.21,3.07-15.32,7.44-21.84,8.55-12.76,20.41-22.31,32.14-31.93,17.12-14.06,34.11-28.29,51.5-42.01,6.91-5.45,7.79-12.74,8.69-20.37,3-25.42,5.85-50.86,9.09-76.24,1-7.81,2.74-15.57,4.75-23.19,4.96-18.74,18.22-28.53,36.59-31.32,13.86-2.11,27.92-2.99,41.91-4.02,12.44-.91,24.93-1.21,37.39-1.88,8.49-.45,17.01-.76,25.44-1.77,2.54-.3,5.19-2.36,7.15-4.27,5.22-5.1,10.2-10.46,15.08-15.89,10.21-11.37,19.81-23.35,30.58-34.17,11.76-11.81,22.36-25.13,37.19-33.45,6.09-3.42,12.6-5.6,20.21-5.34,21.68.76,38.24,12.86,55.46,23.59,17.25,10.75,34.38,21.7,51.31,32.95,6.72,4.47,13.31,5.74,21.22,4,23.09-5.07,46.23-10,69.49-14.22,11.62-2.11,23.55-3.56,35.33-3.5,13.77.07,25.44,5.47,33.84,17.5,11.04,15.79,16.85,33.85,23.95,51.37,6.69,16.52,13.11,33.15,19.51,49.79,2.03,5.29,5.41,8.9,10.61,11.26,12.7,5.77,25.25,11.87,37.9,17.75,16,7.43,32.16,14.52,48.01,22.26,10.16,4.97,19.16,11.98,24.46,22.12,2.82,5.4,4.2,11.98,4.59,18.13,1.07,16.54-3.83,32.29-7.87,48.09-5.28,20.66-10.64,41.29-16.15,61.89-1.53,5.72-.65,10.79,2.22,15.81,13.14,23,26.59,45.83,39.13,69.16,5.32,9.89,9.45,20.6,12.69,31.36,3.38,11.24.33,21.97-6.27,31.71-11.16,16.44-27.27,27.69-42.12,40.22-13.11,11.06-26.22,22.17-39.96,32.42-8.91,6.64-9.41,15.76-10.52,25.2-3.28,27.73-6.47,55.47-10.17,83.14-1.51,11.32-5.05,22.36-13.18,30.74-4.26,4.39-9.86,8.42-15.61,10.21-10.25,3.19-20.99,5.3-31.67,6.5-13.71,1.53-27.57,1.72-35.58,2.17Z"/>
  <path class="cls-1" d="m646.59,716.23c3.85-6.08,7.36-11.68,10.92-17.25,22.9-35.78,45.8-71.55,68.71-107.32,8.06-12.58,16.14-25.14,24.18-37.73,11.06-17.31,22.07-34.65,33.13-51.96,6.52-10.21,13.1-20.38,19.64-30.57,11.74-18.3,23.44-36.62,35.27-54.86.98-1.51,2.85-3.45,4.33-3.47,15.47-.25,30.94-.16,47.78-.16-2.99,4.75-5.39,8.61-7.84,12.44-11.17,17.43-22.33,34.87-33.55,52.27-7.83,12.13-15.84,24.15-23.62,36.32-7.97,12.46-15.67,25.09-23.67,37.53-2.03,3.16-4.95,5.75-7.12,8.84-1.38,1.97-1.88,4.53-3.17,6.57-5.41,8.57-11,17.02-16.46,25.55-8.77,13.7-17.39,27.5-26.27,41.12-5.57,8.55-11.8,16.68-17.23,25.32-8.91,14.2-18.19,28.27-25.84,43.14-6.19,12.04-14.15,17.22-27.82,15.36-9.49-1.29-19.29-.3-28.96-.35-.46,0-.92-.29-2.43-.79Z"/>
  <path class="cls-1" d="m834.91,717.1c-39.25,0-71.02-31.61-70.88-70.86.14-38.42,30.74-71.07,71.1-70.86,40.48.21,70.47,32.68,70.78,70.77.32,38.8-32.06,70.95-71,70.95Zm24.24-70.5c.1-13.94-10.28-24.58-24.02-24.62-13.69-.04-24.31,10.59-24.34,24.37-.03,13.29,10.68,24.3,23.83,24.5,13.4.21,24.43-10.7,24.53-24.26Z"/>
  <path class="cls-1" d="m772.51,484.05c-.15,38.45-32.77,71.25-71.11,71.02-39.25-.23-70.3-31.69-70.62-71.14-.29-35.31,28.17-70.58,71.15-70.7,38.12-.11,70.07,32.73,70.59,70.81Zm-70.48-24.15c-13.54-.06-24.87,10.87-24.93,24.06-.07,13.24,11.26,24.75,24.4,24.79,13.47.04,24.42-10.91,24.46-24.5.05-13.34-10.72-24.29-23.93-24.35Z"/>
</svg>