<?xml version="1.0" encoding="UTF-8"?>
<svg id="Layer_1" data-name="Layer 1" xmlns="http://www.w3.org/2000/svg" viewBox="0 0 1115 1080">
  <defs>
    <style>
      .cls-1 {
        fill: #3c3c3c;
      }
    </style>
  </defs>
  <path class="cls-1" d="m26.93,539.85c15.33-16.85,30.3-33.62,45.62-50.06,56.32-60.45,112.5-121.04,169.29-181.04,24.85-26.26,51.92-50.34,80.7-72.26,27.23-20.74,56.73-38.13,88.45-50.9,25.78-10.38,52.42-18.49,80.16-22.95,15.23-2.45,30.37-4.15,45.73-4.66,9.66-.32,19.35-1.36,28.98-1,15.15.57,30.46.87,45.35,3.39,24.2,4.11,48.26,9.02,71.53,17.6,16.98,6.27,33.23,13.78,49.64,21.28,20.81,9.51,39.46,22.28,57.51,35.68,20.08,14.9,38.99,31.58,57.21,48.76,57.74,54.44,110.45,113.73,164.22,171.99,25.64,27.78,50.98,55.84,76.84,84.2-3.15,3.53-6.18,6.98-9.26,10.38-11.53,12.7-23.06,25.4-34.63,38.08-16.46,18.03-32.94,36.04-49.43,54.05-4.36,4.77-8.75,9.52-13.14,14.26-8.11,8.74-16.23,17.48-24.37,26.2-9.52,10.2-19.03,20.41-28.59,30.57-8.74,9.28-17.37,18.69-26.38,27.71-23.26,23.28-46.49,46.59-70.18,69.42-8.99,8.66-18.94,16.38-28.91,23.94-12.96,9.82-26.12,19.43-39.65,28.44-26.92,17.91-56.22,30.81-86.81,41.25-20.16,6.88-40.87,10.85-61.65,14.73-9.2,1.72-18.64,2.28-28,3.02-11.2.88-22.43,1.99-33.64,1.88-10.65-.1-21.3-2.57-31.92-2.37-17.53.33-33.83-6.43-51.05-7.62-4.73-.33-9.37-2.3-14-3.7-11.04-3.36-22.08-6.72-33.04-10.31-4.47-1.47-8.83-3.35-13.08-5.38-11.23-5.36-22.63-10.44-33.47-16.51-12.95-7.24-25.86-14.74-37.94-23.32-16.04-11.39-32.11-23.01-46.65-36.2-24.6-22.32-48.36-45.61-71.83-69.15-19.87-19.93-39.05-40.56-58.13-61.26-43.7-47.41-87.15-95.04-130.69-142.59-1.52-1.66-2.95-3.41-4.79-5.55Zm507.8-295.33c-.06-.44-.13-.88-.19-1.32-13.03,1.92-26.26,3.01-39.06,5.93-24.7,5.65-48.81,13.22-71.18,25.6-5.18,2.87-11.27,4.15-16.31,7.22-8.89,5.41-17.55,11.29-25.81,17.61-8.73,6.68-17.25,13.72-25.18,21.3-9.46,9.04-18.41,18.63-27.17,28.35-5.85,6.49-11.36,13.37-16.33,20.56-5.65,8.18-10.72,16.78-15.7,25.4-6.43,11.11-12.54,22.41-18.74,33.65-.43.79-.58,1.77-.7,2.68-.36,2.61-.29,5.33-1.03,7.81-2.51,8.52-5.68,16.86-7.88,25.46-2.81,11.02-4.92,22.22-7.34,33.34-.61,2.82-1.73,5.62-1.78,8.45-.1,5.92.55,11.84.51,17.76-.04,5.44-1.14,10.93-.75,16.32.37,5.13-1.22,10.05-.23,15.31,1.69,9.02,1.82,18.33,3.42,27.38,5.12,29.07,12.11,57.64,25.87,84.04,5.97,11.45,12.21,22.78,18.86,33.84,11.7,19.46,26.35,36.67,42.66,52.33,15.46,14.84,32.09,28.34,50.57,39.43,3.58,2.15,6.28,5.9,9.97,7.72,7.78,3.82,15.97,6.78,23.94,10.22,19.34,8.33,38.98,15.73,59.81,19.51,9.38,1.7,18.64,4.63,28.08,5.35,14.77,1.13,29.66,1.51,44.46,1.01,13.34-.45,26.69-2.06,39.92-3.97,24.4-3.52,47.67-11.15,70.26-20.9,22.27-9.61,43.05-21.96,62.04-36.86,28.88-22.66,53.22-49.67,72.2-81.25,11.75-19.55,21.23-40.16,28.01-61.98,1.34-4.3,3.68-8.31,4.79-12.66,1.37-5.38,2.02-10.96,2.84-16.47,2.17-14.64,5.12-29.24,6.08-43.97.65-10.08,2.82-20.21.56-30.58-1.49-6.84-.33-14.22-1.36-21.22-1.91-12.94-3.96-25.93-7.08-38.62-3.04-12.34-6.77-24.63-11.49-36.42-8.27-20.66-18.16-40.5-30.96-58.92-12.6-18.13-26.71-34.82-42.78-49.88-17.58-16.48-36.6-31.1-57.82-42.53-17.96-9.67-36.51-18.07-56.13-24.09-18.46-5.66-37.15-9.79-56.38-11.47-6.9-.6-13.78-1.4-20.68-1.9-6.06-.44-12.15-.98-18.21-.74-5.55.22-11.07,1.41-16.61,2.17Z"/>
  <path class="cls-1" d="m384.02,539.51c1.4-51.83,20.45-95.54,59.62-130.22,25.7-22.75,55.69-35.94,89.25-41.06,23.22-3.54,46.61-2.09,69.15,4.1,42.12,11.57,75.78,35.51,100.21,72.12,14.98,22.45,23.71,47.25,27.39,73.68,3.16,22.67,1.75,45.5-4.84,67.48-3.84,12.81-9.19,25.33-15.24,37.28-10.26,20.25-24.59,37.67-42.62,51.45-11.39,8.71-23.21,16.97-36.51,23.01-16.9,7.68-34.53,12.72-52.69,15.36-10.34,1.5-21.06.41-31.61.32-16.26-.13-31.89-4.13-46.95-9.55-36.72-13.21-65.78-36.51-87.27-69.16-15.22-23.13-23.85-48.58-26.94-76-.35-3.1-.76-6.2-.91-9.31-.16-3.16-.03-6.33-.03-9.49Z"/>
</svg>