<svg xmlns="http://www.w3.org/2000/svg" viewBox="0 0 88 88"><title>Artboard-30</title><g id="Hand"><path d="M85.2324,40.7676a5.9535,5.9535,0,0,0-8.414,0L76,41.5859V10a1,1,0,0,0-1-1H25a1,1,0,0,0-1,1V45.0165a21.9449,21.9449,0,0,0-4.3291,1.8771L19,47.2769V44a1,1,0,0,0-1-1H10a1,1,0,0,0-1,1v2H2a1,1,0,0,0,0,2H9V74H2a1,1,0,0,0,0,2H9v2a1,1,0,0,0,1,1h8a1,1,0,0,0,1-1V74H60a.9993.9993,0,0,0,.707-.293L85.2324,49.1816A5.957,5.957,0,0,0,85.2324,40.7676ZM74,19H57V11H74ZM55,23.8652l-4.3594-3.6338a1.0024,1.0024,0,0,0-1.2812,0L45,23.8652V11H55ZM26,11H43v8H26Zm0,10H43v5a1.0008,1.0008,0,0,0,1.6406.7686L50,22.3018l5.3594,4.4668A1.0008,1.0008,0,0,0,57,26V21H74V43.5859l-9.1394,9.1394A6.008,6.008,0,0,0,59,48H43.2832l-1.2061-.7422A21.8476,21.8476,0,0,0,26,44.49ZM17,77H11V45h6ZM83.8184,47.7676,59.5859,72H19V49.58l1.6631-.95a19.9622,19.9622,0,0,1,20.3652.331l1.4473.8907A1.0051,1.0051,0,0,0,43,50H59a4,4,0,0,1,0,8H40a1,1,0,0,0,0,2H59a6.0066,6.0066,0,0,0,5.7639-4.35L78.2324,42.1816a3.95,3.95,0,0,1,5.586,5.586Z" style="fill:#1d1b1e"/></g></svg>