<?xml version="1.0" encoding="UTF-8"?>
<svg id="Layer_1" data-name="Layer 1" xmlns="http://www.w3.org/2000/svg" viewBox="0 0 1115 1080">
  <defs>
    <style>
      .cls-1 {
        fill: #c43b5a;
      }

      .cls-2 {
        fill: #cfb52d;
      }
    </style>
  </defs>
  <path class="cls-1" d="m739.34,245.62c3.77-1.27,7.53-3.6,11.32-3.65,23.33-.29,46.66-.14,69.99.03,10.45.08,20.92.29,31.35.92,22.3,1.36,44.87,1.26,66.55,7.24,13.06,3.6,24.94,9.85,34.73,20.15,10.15,10.69,15.94,23.53,19.47,37.06,4.52,17.32,6.85,35.22,10.07,52.88.27,1.46.25,2.99.24,4.48-.05,7.93.57,9.37,8.08,9.95,9.03.69,16.54,5.35,24.77,7.78,9.67,2.85,15.9,9.56,22.25,15.77,4.94,4.84,7.09,12.54,10.47,18.97.53,1.01.7,2.54,1.52,3.01,4.68,2.72,4.59,7.7,5.8,11.96,6.94,24.38,10.78,49.23,11.04,74.61.06,5.54-.71,11.2.14,16.6,3.97,25.13,2.63,50.42,2.86,75.67.46,50.95.88,101.9,1.03,152.85.06,21.28-.44,42.56-.99,63.83-.41,15.9-.92,31.81-2.11,47.66-1.12,14.98-3.06,29.9-4.91,44.81-.94,7.56-2.39,15.05-3.79,22.54-2.67,14.24-8.28,27.33-16.01,39.52-6.02,9.49-14.71,16.38-24.25,21.66-16.85,9.32-35.75,12.29-54.51,14.91-10.46,1.46-21.11,1.81-31.69,2.02-218.24,4.37-436.51,1-654.77,2.02-18.47.09-36.95.37-55.42.06-16.15-.27-32.36-.53-48.41-2.13-17.62-1.77-35.3-4.13-52.54-8.05-10.97-2.49-21.53-7.2-30.85-14.53-14.78-11.64-23.86-26.78-28.78-44.37-4.19-14.98-7.39-30.29-10.09-45.62-2.32-13.2-3.66-26.61-4.8-39.98-.9-10.61-.52-21.32-1.26-31.95-3.51-50.28-1.71-100.62-2.06-150.93-.32-46.17-.32-92.34.04-138.5.21-26.56,1.23-53.13,2.22-79.68.62-16.54,1.43-33.11,2.98-49.58,1.51-16.11,4.51-32.07,6.05-48.18,1.57-16.45,6.06-32.24,10.8-47.83,5.56-18.29,13.8-35.74,29.48-47.76,9.79-7.51,21.28-12.41,33.8-13.84,13.61-1.55,27.24-3.19,40.9-4.02,14.25-.86,28.55-.87,42.83-1.13,23.28-.42,46.56-.79,69.84-1.04,3.41-.04,6.83.73,10.25,1.12-.17.8-.21,1.67-.54,2.4-8.03,18.1-11.72,37.38-15.3,56.68-29.15.07-58.31-.09-87.45.32-14.78.21-29.53,1.49-43.65,6.62-1.99.72-4.27.63-6.42.91-9.24,7.62-18.68,15.16-23.29,27.27-3.02,7.92-8.85,31.58-7.17,35.13,4.61-.48,9.19-1.2,13.79-1.38,6.23-.24,12.49.18,18.71-.15,6.94-.36,13.85-1.59,20.79-1.83,19.69-.66,39.38.24,59.08-.09,15.15-.25,30.32-.03,45.48-.08,1.8,0,3.6-.35,5.4-.54,18.5.02,36.99.04,55.49.06,1.97.17,3.94.49,5.9.49,111.94.03,223.89.05,335.83.02,11.14,0,22.27-.31,33.41-.47,18.72-.02,37.45-.03,56.17-.05.97.17,1.95.49,2.92.5,52.46.4,104.93.78,157.39,1.08,1.8.01,3.6-.8,5.52-1.26-.46-1.99-.94-3.24-1.02-4.51-.81-13.33-4.57-25.61-11.5-37.16-5.03-8.38-12.7-13.45-20.96-16.76-8.61-3.45-18.16-5.04-27.46-6.21-14.51-1.83-29.09-2.95-43.83-2.03-13.53.85-27.13-.13-40.7.1-8.37.15-16.75.05-25.13.07-.41-.9-1-1.76-1.2-2.71-2.55-12.33-4.76-24.73-7.68-36.97-1.38-5.76-4.09-11.21-6.19-16.8ZM105.2,627.28c-.3,1.94-.87,3.88-.87,5.82-.05,35.83-.04,71.67.01,107.5,0,1.77.51,3.54.79,5.31.03,20.22.05,40.44.08,60.65-.08,12.5,0,25.01-.27,37.5-.27,12.81,1.54,25.34,3.96,37.86,1.12,5.82.63,12.05,2.36,17.63,1.71,5.54,5.59,10.38,7.93,15.77,1.35,3.12,1.62,6.52,4.6,9,8.91,7.4,16.54,15.74,28.79,19.14,13.94,3.88,27.88,5.99,42.05,6.17,38.32.5,76.66.49,114.99.29,212.24-1.14,424.5,2.7,636.72-2.2,10.98-.25,21.96-4.16,31.98-9.92,13.41-7.7,20.91-19.76,24.87-33.82,5.15-18.32,6.79-37.26,6.86-56.33.02-5.69,1.38-11.38,1.49-17.07.1-5.73-.89-11.48-.9-17.23-.08-59.84.14-119.67-.12-179.51-.18-40.65-.97-81.31-1.55-121.96-.04-2.78-.78-5.55-.96-8.34-1.02-15.74-4.32-30.67-12.14-44.75-5.33-9.6-13.41-15.72-22.49-19.89-11.91-5.46-25.07-7.46-38.25-8.01-13.28-.55-26.56-1.19-39.84-1.2-99.32-.1-198.65-.09-297.97-.06-133.32.05-266.64.08-399.97.31-16.09.03-32.06,1.64-47.74,6.09-19.01,5.39-31.25,18.18-36.88,35.96-4.5,14.21-6.23,29.5-7.56,44.45-1.3,14.73-.57,29.64-.67,44.47-.01,1.96.4,3.93.61,5.89.03,20.15.06,40.3.09,60.44Z"/>
  <path class="cls-2" d="m739.34,245.62c2.11,5.59,4.82,11.03,6.19,16.8,2.92,12.24,5.13,24.64,7.68,36.97.2.95.79,1.81,1.2,2.71-.12,1.65-.47,3.31-.34,4.94,1.66,20.42,3.39,40.83,5.1,61.24-18.72.02-37.45.03-56.17.05-.74-16.22-.81-32.5-2.37-48.64-2.63-27.32-10.48-53.18-23.86-77.31-13.22-23.85-31.02-43.73-52.88-59.72-23.52-17.2-50.2-27.71-78.85-32.62-17.58-3.01-35.56-2.99-53.17-.83-20.85,2.55-40.97,8.94-59.69,18.56-26.13,13.42-48.31,31.99-65.38,55.93-7.66,10.75-13.69,22.78-19.59,34.65-11.48,23.12-14.92,48.43-18.09,73.62-1.51,11.97-.92,24.2-1.28,36.32-18.5-.02-36.99-.04-55.49-.05.18-4.93.22-9.87.58-14.79.82-11.24,1.81-22.47,2.73-33.7.48-5.9.97-11.81,1.45-17.71,3.58-19.3,7.27-38.57,15.3-56.68.33-.74.37-1.6.54-2.4.96-1.24,2.23-2.34,2.83-3.73,5.32-12.43,10.53-24.88,18.83-35.77,2.38-3.12,3.54-7.17,5.93-10.27,5.7-7.38,11.3-14.96,17.88-21.51,9.99-9.93,20.36-19.58,31.36-28.35,9-7.18,18.94-13.28,28.84-19.22,24.2-14.51,50.79-23.11,78.34-27.56,18.85-3.04,38.02-4.29,57.52-2.2,15.31,1.64,30.3,4,45.09,7.88,22.35,5.86,43.11,15.34,62.85,27.46,24.02,14.75,44.3,33.44,61.65,55.44,12.62,16,23.33,33.18,31.03,52.14,1.17,2.89,2.8,5.59,4.22,8.37Z"/>
</svg>