<?xml version="1.0" encoding="UTF-8"?>
<svg id="Layer_1" data-name="Layer 1" xmlns="http://www.w3.org/2000/svg" viewBox="0 0 1115 1080">
  <defs>
    <style>
      .cls-1 {
        fill: #fff;
      }
    </style>
  </defs>
  <path class="cls-1" d="m637.39,711.78c-161.56,121.01-382.59,96.19-513.03-48.54C-16.13,507.33-.57,281.88,129.27,145.13,276.61-10.04,507.2-8.99,652.62,114.15c82.63,69.98,128.8,159.67,135.83,267.63,6.99,107.28-26.91,201.63-97.98,282.52,12.8,11.84,25.56,23.65,38.9,36,2.11-2.25,4.36-4.39,6.29-6.78,2.54-3.16,5.21-3.07,8.13-.79,4.17,3.26,8.45,6.4,12.39,9.92,17.46,15.63,34.8,31.4,52.21,47.09,27.13,24.45,54.26,48.89,81.42,73.31,25.93,23.32,51.95,46.55,77.83,69.94,21.16,19.12,42.22,38.35,63.2,57.66,5.03,4.63,10.1,9.65,8.12,17.52-2.52,9.99-6.46,19.38-13,27.51-12.28,15.26-27.52,26.14-46.51,31.43-7.54,2.1-14.55,1.71-20.84-3.96-13.94-12.56-28.12-24.85-42.16-37.3-18.01-15.96-36-31.92-53.94-47.95-7.69-6.87-15.2-13.94-22.85-20.85-18.75-16.94-37.54-33.83-56.29-50.77-19.49-17.61-38.91-35.3-58.42-52.89-15.16-13.66-30.34-27.3-45.63-40.82-10.72-9.48-10.81-10.48.52-21.63-14.11-13.02-28.19-26.02-42.43-39.17ZM94.7,411.07c1.71,84.41,33.04,160.75,97.47,222.4,57.68,55.18,127.33,84.33,206.88,86.09,90.32,2,168.72-29.29,231.9-94.37,70.32-72.43,98.76-160.2,86.39-259.95-8.71-70.26-39.48-131.05-90.27-180.73-62.4-61.03-137.96-91.64-225.05-90.12-79.97,1.39-150.58,29.33-208.65,85.03-64.35,61.73-97.61,137.57-98.68,231.65Z"/>
</svg>