<?xml version="1.0" encoding="UTF-8"?>
<svg id="Layer_1" data-name="Layer 1" xmlns="http://www.w3.org/2000/svg" viewBox="0 0 1115 1080">
  <defs>
    <style>
      .cls-1 {
        fill: #6d6d6d;
      }
    </style>
  </defs>
  <path class="cls-1" d="m687.55,664.39c13.4,12.32,26.32,24.29,39.44,36.06.9.8,3.31.21,4.91-.18.8-.19,1.34-1.4,2.04-2.12,6.32-6.44,6.4-6.51,13.44-.34,11.9,10.42,23.77,20.86,35.52,31.44,4.84,4.35,9.23,9.19,14.04,13.58,4,3.64,8.46,6.78,12.45,10.43,9.36,8.56,18.54,17.31,27.84,25.94,3.32,3.08,6.71,6.09,10.13,9.05,5.93,5.13,12.03,10.07,17.86,15.31,31.44,28.25,62.88,56.51,94.21,84.89,23.92,21.66,47.59,43.6,71.56,65.2,6.37,5.74,7.41,11.86,4.41,19.62-11.29,29.16-32.37,46.75-62.77,53.02-3.15.65-7.7-1.09-10.37-3.24-11.37-9.2-22.43-18.81-33.34-28.58-39.3-35.19-78.49-70.5-117.72-105.78-20.16-18.13-40.34-36.26-60.47-54.43-22.88-20.66-45.76-41.33-68.52-62.12-3.39-3.09-8.39-6.83-8.5-10.4-.11-3.45,5.14-7.06,8.46-11.12-6.53-6.09-13.15-12.32-19.83-18.49-7.34-6.78-14.77-13.46-22.06-20.29-1.86-1.75-3.09-2.13-5.45-.43-8.51,6.11-17.19,11.98-25.97,17.7-3.26,2.12-7.22,3.19-10.4,5.41-15.04,10.46-31.7,17.69-48.49,24.66-25.99,10.8-53.02,17.95-80.7,22.81-27.42,4.81-55.13,6.31-82.8,4.7-18.74-1.09-37.48-4.15-55.93-7.8-45.07-8.9-87.25-25.64-125.73-50.8-15.91-10.4-31.01-22.22-45.5-34.55-13.31-11.33-26.02-23.56-37.64-36.6-10.13-11.37-18.43-24.37-27.42-36.73-4.74-6.52-9.84-12.89-13.69-19.92-6.77-12.37-12.53-25.29-19.01-37.82-11.72-22.65-18.84-46.85-24.62-71.51-7.95-33.89-10.64-68.28-8.96-103,1.97-40.87,10.77-80.18,25.51-118.43,14.4-37.37,34.24-71.36,59.33-102.36,28.78-35.55,63.08-64.78,102.51-87.96,40.24-23.67,83.53-39.08,129.45-47.05,10.28-1.78,20.78-2.38,31.2-3.19,11.35-.88,22.75-2.1,34.1-1.93,59.12.9,115.51,13.62,168.26,40.73,13.86,7.12,27.38,15.07,40.38,23.67,53.2,35.16,94.37,81.39,124.46,137.5,18.1,33.74,30.57,69.55,37.64,107.16,5.63,29.93,8,60.19,6.17,90.62-1.2,20.09-4.15,39.93-8.21,59.74-3.86,18.8-9.41,36.97-15.94,54.84-5.11,14-11.39,27.67-18.32,40.88-7.08,13.5-14.95,26.7-23.63,39.23-9.17,13.23-19.7,25.51-29.64,38.21-1.11,1.42-2.21,2.86-3.7,4.8Zm-272.47,57.62c10.14-1.03,26.88-2.13,43.42-4.56,23.81-3.5,46.81-10.34,69.06-19.58,10.52-4.37,21.21-8.43,31.41-13.47,5.93-2.93,10.89-7.78,16.56-11.34,21.37-13.42,40.79-29.22,58.28-47.38,25.66-26.66,46.32-56.74,61.09-90.71,5.13-11.79,10.45-23.64,13.91-35.96,4.25-15.16,7.01-30.78,9.72-46.32,1.78-10.22,3.38-20.67,3.24-30.99-.29-20.37-.48-40.91-3.17-61.05-4.84-36.27-16.57-70.54-34.11-102.82-24.67-45.4-58.05-82.85-100.92-111.65-43.65-29.32-91.74-46.66-144.07-52.23-29.44-3.13-58.78-1.98-87.79,3.32-50.51,9.22-96.36,29.38-136.98,61.01-41.07,31.98-72.59,71.55-93.82,119.11-3.07,6.89-8.32,12.95-8.79,20.95-.04.62-.37,1.26-.68,1.83-1.39,2.51-3.33,4.85-4.13,7.53-1.23,4.08-1.68,8.39-2.46,12.6-1.57,8.4-5.06,16.29-6.03,24.91-1.53,13.62-4.96,27.11-5.54,40.74-1.05,24.81-.71,49.65,3.88,74.28,10.22,54.82,31.78,104.43,67.91,147.16,10.76,12.72,22.42,24.89,34.94,35.88,59.55,52.29,129.49,77.56,215.09,78.75Z"/>
</svg>