<?xml version="1.0" encoding="utf-8"?>
<!-- Generator: Adobe Illustrator 27.3.1, SVG Export Plug-In . SVG Version: 6.00 Build 0)  -->
<svg version="1.1" id="Layer_1" xmlns="http://www.w3.org/2000/svg" xmlns:xlink="http://www.w3.org/1999/xlink" x="0px" y="0px"
	 viewBox="0 0 1115 1080" style="enable-background:new 0 0 1115 1080;" xml:space="preserve">
<style type="text/css">
	.st0{display:none;fill:#D1D1D1;}
	.st1{fill:#3C3C3C;}
</style>
<g>
	<path class="st0" d="M1115,1080c-371.67,0-743.33,0-1115,0C0,720,0,360,0,0c371.67,0,743.33,0,1115,0C1115,360,1115,720,1115,1080z
		 M556.91,1048.69c0-0.22,0-0.45,0-0.67c147.56,0,295.12-0.06,442.67,0.12c11.57,0.01,22.31-2.89,33.15-6.01
		c1.22-0.35,2.49-1.39,3.23-2.46c7.05-10.18,5.79-21.63,4.75-32.99c-0.79-8.65-1.75-17.28-2.62-25.92
		c-0.81-8.03-1.53-16.07-2.42-24.1c-1.16-10.47-2.51-20.91-3.64-31.38c-1.12-10.34-2.03-20.71-3.1-31.05
		c-0.89-8.52-1.92-17.02-2.83-25.54c-0.8-7.53-1.45-15.08-2.27-22.61c-1.23-11.25-2.61-22.49-3.8-33.74
		c-0.86-8.18-1.41-16.39-2.27-24.57c-0.79-7.48-2.03-14.92-2.71-22.4c-1.18-12.83-1.98-25.69-3.14-38.52
		c-1.17-12.94-2.75-25.85-3.86-38.79c-0.91-10.53-1.3-21.1-2.11-31.63c-1.23-16.1-2.72-32.18-3.9-48.29
		c-0.85-11.54-1.46-23.1-2.01-34.65c-0.75-15.7-1.57-31.41-1.95-47.12c-0.47-19.43-0.75-38.87-0.72-58.3
		c0.08-47.6,0.33-95.2,0.65-142.8c0.11-16.27,0.62-32.55,0.99-48.82c0.27-11.95,0.57-23.91,0.9-35.86c0.36-13.1,0.82-26.2,1.13-39.3
		c0.39-16.61,0.5-33.22,1.03-49.83c0.45-13.89,1.43-27.76,2-41.65c0.23-5.65-0.12-11.33,0-16.99c0.22-10.77,1.61-21.65,0.48-32.27
		c-0.58-5.44-4.37-12.08-8.81-15.17c-4.79-3.33-11.99-4-18.21-4.33c-16.57-0.88-33.18-1.32-49.77-1.3
		c-259.74,0.35-519.48,0.77-779.21,1.34c-8.05,0.02-16.11,1.7-24.15,2.65c-4.07,0.48-7.75,1.38-9.41,5.95
		c-1.39,3.83-4.66,7.47-4.71,11.22c-0.22,17.6,0.27,35.21,0.74,52.81c0.56,21.05,1.37,42.09,2.07,63.13
		c0.3,8.93,0.67,17.87,0.92,26.8c0.37,12.94,0.64,25.88,1,38.82c0.29,10.27,0.48,20.55,1.03,30.81c0.32,6.01,2.4,12.14,1.61,17.93
		c-1.27,9.35-1.34,18.51-0.81,27.89c0.8,14.1,1,28.26,0.87,42.38c-0.43,48.91-1.09,97.81-1.72,146.72
		c-0.2,15.09-0.33,30.19-0.98,45.26c-0.71,16.49-2.03,32.95-2.98,49.43c-0.72,12.54-1.23,25.08-1.91,37.62
		c-0.37,6.78-0.81,13.55-1.35,20.32c-0.8,10-1.69,19.98-2.61,29.97c-0.6,6.56-1.37,13.1-1.96,19.65c-0.72,8.02-1.02,16.1-2.08,24.08
		c-1.13,8.49-0.69,17.05-2.01,25.57c-1.88,12.16-2.74,24.48-3.98,36.74c-1.14,11.36-2.15,22.73-3.32,34.08
		c-1.15,11.12-2.45,22.22-3.65,33.34c-0.77,7.19-1.42,14.39-2.23,21.57c-0.9,7.97-2.02,15.92-2.87,23.89
		c-1.14,10.66-2,21.35-3.19,32c-1.16,10.43-2.79,20.81-3.8,31.26c-1.29,13.32-1.67,26.74-3.4,39.99
		c-0.96,7.35-0.51,14.06,2.35,20.78c2.38,5.58,5.33,10.44,12.14,11.11c14.31,1.39,28.6,3.02,42.93,4.04
		c7.1,0.51,14.28-0.19,21.42-0.19C287.31,1048.68,422.11,1048.69,556.91,1048.69z"/>
	<path class="st1" d="M556.91,1048.69c-134.8,0-269.61,0-404.41,0.01c-7.14,0-14.32,0.7-21.42,0.19
		c-14.33-1.02-28.63-2.64-42.93-4.04c-6.81-0.66-9.76-5.52-12.14-11.11c-2.86-6.72-3.31-13.43-2.35-20.78
		c1.74-13.25,2.12-26.68,3.4-39.99c1.01-10.44,2.64-20.83,3.8-31.26c1.18-10.65,2.05-21.34,3.19-32c0.85-7.97,1.97-15.92,2.87-23.89
		c0.81-7.18,1.46-14.38,2.23-21.57c1.2-11.12,2.5-22.22,3.65-33.34c1.17-11.35,2.17-22.72,3.32-34.08
		c1.23-12.26,2.09-24.58,3.98-36.74c1.32-8.51,0.89-17.07,2.01-25.57c1.06-7.98,1.36-16.05,2.08-24.08
		c0.59-6.56,1.36-13.1,1.96-19.65c0.92-9.99,1.81-19.97,2.61-29.97c0.54-6.77,0.99-13.54,1.35-20.32
		c0.68-12.54,1.19-25.09,1.91-37.62c0.95-16.48,2.27-32.94,2.98-49.43c0.65-15.07,0.78-30.17,0.98-45.26
		c0.63-48.91,1.29-97.81,1.72-146.72c0.12-14.13-0.07-28.28-0.87-42.38c-0.53-9.38-0.47-18.54,0.81-27.89
		c0.79-5.79-1.29-11.93-1.61-17.93c-0.54-10.26-0.74-20.54-1.03-30.81c-0.36-12.94-0.63-25.88-1-38.82
		c-0.25-8.94-0.62-17.87-0.92-26.8c-0.71-21.04-1.51-42.08-2.07-63.13c-0.47-17.6-0.96-35.21-0.74-52.81
		c0.05-3.75,3.32-7.39,4.71-11.22c1.65-4.58,5.34-5.48,9.41-5.95c8.05-0.94,16.1-2.63,24.15-2.65
		c259.74-0.56,519.48-0.99,779.21-1.34c16.59-0.02,33.2,0.42,49.77,1.3c6.23,0.33,13.42,1,18.21,4.33
		c4.44,3.08,8.24,9.72,8.81,15.17c1.12,10.62-0.26,21.5-0.48,32.27c-0.12,5.66,0.23,11.33,0,16.99c-0.57,13.89-1.55,27.76-2,41.65
		c-0.54,16.6-0.65,33.22-1.03,49.83c-0.31,13.1-0.77,26.2-1.13,39.3c-0.33,11.95-0.63,23.91-0.9,35.86
		c-0.36,16.27-0.88,32.54-0.99,48.82c-0.32,47.6-0.57,95.2-0.65,142.8c-0.03,19.43,0.25,38.87,0.72,58.3
		c0.38,15.71,1.2,31.42,1.95,47.12c0.55,11.56,1.17,23.12,2.01,34.65c1.18,16.1,2.67,32.19,3.9,48.29
		c0.8,10.54,1.2,21.11,2.11,31.63c1.12,12.94,2.69,25.85,3.86,38.79c1.16,12.83,1.96,25.69,3.14,38.52
		c0.69,7.49,1.92,14.92,2.71,22.4c0.87,8.18,1.41,16.39,2.27,24.57c1.18,11.26,2.57,22.49,3.8,33.74
		c0.82,7.53,1.47,15.08,2.27,22.61c0.91,8.52,1.94,17.02,2.83,25.54c1.08,10.35,1.99,20.71,3.1,31.05
		c1.13,10.47,2.48,20.92,3.64,31.38c0.89,8.02,1.61,16.06,2.42,24.1c0.87,8.64,1.83,17.27,2.62,25.92
		c1.03,11.36,2.29,22.81-4.75,32.99c-0.74,1.07-2,2.11-3.23,2.46c-10.84,3.13-21.58,6.03-33.15,6.01
		c-147.56-0.19-295.12-0.12-442.67-0.12C556.91,1048.24,556.91,1048.46,556.91,1048.69z M282.99,136.92c0,0.37,0,0.74,0,1.11
		c-17.81,0-35.65-0.61-53.42,0.27c-8.05,0.4-17.74-0.07-22.01,9.83c-0.86,1.99-1.5,4.27-1.47,6.41c0.09,5.94,0.59,11.87,0.92,17.81
		c0.66,11.72,1.36,23.43,1.97,35.15c0.7,13.39,1.39,26.78,1.95,40.17c0.76,18.2,1.42,36.4,2.08,54.6
		c0.35,9.78,0.68,19.56,0.89,29.34c0.37,16.96,0.92,33.92,0.88,50.89c-0.09,37.61-0.44,75.23-0.81,112.84
		c-0.11,11.45-0.52,22.9-0.99,34.34c-0.22,5.43-1.22,10.84-1.32,16.27c-0.15,7.66,0.52,15.34,0.26,22.99
		c-0.36,10.87-1.34,21.71-1.88,32.57c-0.49,9.76-0.68,19.53-1.12,29.29c-0.25,5.45-0.67,10.89-1.13,16.33
		c-0.88,10.34-1.89,20.66-2.76,31c-0.75,9.03-1.22,18.09-2.1,27.1c-1.16,11.76-2.68,23.49-3.9,35.25
		c-1.32,12.7-2.38,25.43-3.72,38.13c-1.34,12.73-2.28,25.55-4.55,38.12c-1.82,10.09,0.18,20.9-5.48,30.31
		c-0.28,0.47,0.47,1.48,0.51,2.25c0.12,2.65,0.48,5.36,0.13,7.96c-1.16,8.79-2.84,17.51-3.83,26.31
		c-1.58,13.96-2.01,28.09-4.45,41.88c-1.26,7.14,2.69,11.53,4.76,17.02c0.31,0.82,1.74,1.44,2.78,1.74
		c11.84,3.41,23.82,5.86,36.26,4.77c1.65-0.14,3.3-0.44,4.95-0.44c48.77,0.06,97.54,0.18,146.31,0.22
		c50.4,0.04,100.8,0.01,151.2,0.01c45.76,0,91.51,0,137.27,0c61.99-0.01,123.99-0.03,185.98-0.02c15.48,0,30.97-0.07,46.44,0.31
		c12.06,0.3,23.74-1.62,35.32-4.56c1.35-0.34,3.25-1.05,3.66-2.08c1.73-4.4,3.56-8.89,4.26-13.52c0.55-3.65-0.41-7.55-0.84-11.32
		c-2.34-20.63-4.67-41.26-7.12-61.88c-0.75-6.34-1.77-12.66-2.87-18.95c-1.07-6.1-0.56-12.26-1.71-18.47
		c-2.44-13.27-3.2-26.84-4.66-40.29c-0.66-6.08-1.39-12.15-2.07-18.22c-1.53-13.73-3.09-27.46-4.57-41.2
		c-1.04-9.64-2.05-19.28-2.94-28.93c-0.77-8.33-1.45-16.68-2.02-25.03c-0.48-6.93-0.81-13.88-1.08-20.82
		c-0.15-4.02,0.25-8.07-0.12-12.06c-0.74-7.83-2.3-15.6-2.73-23.44c-0.96-17.74-1.48-35.51-2.07-53.26
		c-0.07-2.24,0.91-4.52,0.8-6.75c-0.47-8.87-1.7-17.73-1.73-26.6c-0.18-59.26-0.2-118.52-0.1-177.78
		c0.03-14.94,0.59-29.88,1.07-44.82c0.54-16.71,1.22-33.41,1.94-50.11c0.62-14.56,1.43-29.12,2.05-43.68
		c0.17-3.99-0.15-8,0.01-11.99c0.58-14.05,1.75-28.11,1.6-42.15c-0.04-3.44-3.53-8.51-6.71-9.89c-5.37-2.32-11.74-2.95-17.73-3.13
		c-19.14-0.57-38.29-0.8-57.44-0.83c-112.27-0.19-224.54-0.31-336.81-0.39c-21.63-0.02-43.26,0.25-64.89,0.35
		c-9.29,0.04-18.58-0.08-27.87,0.03c-8.72,0.11-17.43,0.68-26.15,0.6c-12.46-0.12-24.91-0.82-37.37-0.95
		C316.14,136.79,299.56,136.92,282.99,136.92z"/>
	<path class="st0" d="M282.99,136.92c16.57,0,33.14-0.13,49.71,0.04c12.46,0.13,24.91,0.83,37.37,0.95
		c8.71,0.08,17.43-0.49,26.15-0.6c9.29-0.11,18.58,0.01,27.87-0.03c21.63-0.1,43.26-0.36,64.89-0.35
		c112.27,0.08,224.54,0.2,336.81,0.39c19.15,0.03,38.3,0.26,57.44,0.83c5.99,0.18,12.36,0.81,17.73,3.13
		c3.18,1.37,6.67,6.44,6.71,9.89c0.15,14.04-1.01,28.1-1.6,42.15c-0.17,3.99,0.16,8-0.01,11.99c-0.63,14.56-1.43,29.12-2.05,43.68
		c-0.72,16.7-1.4,33.4-1.94,50.11c-0.48,14.94-1.05,29.88-1.07,44.82c-0.1,59.26-0.08,118.52,0.1,177.78
		c0.03,8.87,1.26,17.73,1.73,26.6c0.12,2.23-0.87,4.51-0.8,6.75c0.58,17.76,1.11,35.52,2.07,53.26c0.43,7.84,1.99,15.61,2.73,23.44
		c0.38,3.99-0.03,8.04,0.12,12.06c0.27,6.94,0.6,13.89,1.08,20.82c0.57,8.35,1.25,16.7,2.02,25.03c0.9,9.65,1.9,19.29,2.94,28.93
		c1.48,13.74,3.04,27.47,4.57,41.2c0.68,6.07,1.4,12.14,2.07,18.22c1.47,13.45,2.23,27.02,4.66,40.29
		c1.14,6.21,0.64,12.37,1.71,18.47c1.1,6.29,2.12,12.61,2.87,18.95c2.45,20.62,4.78,41.25,7.12,61.88
		c0.43,3.77,1.39,7.67,0.84,11.32c-0.7,4.62-2.53,9.12-4.26,13.52c-0.4,1.03-2.31,1.74-3.66,2.08c-11.58,2.94-23.27,4.86-35.32,4.56
		c-15.47-0.38-30.96-0.3-46.44-0.31c-61.99-0.02-123.99,0.01-185.98,0.02c-45.76,0-91.51,0-137.27,0c-50.4,0-100.8,0.03-151.2-0.01
		c-48.77-0.04-97.54-0.16-146.31-0.22c-1.65,0-3.3,0.29-4.95,0.44c-12.44,1.09-24.42-1.36-36.26-4.77c-1.03-0.3-2.47-0.92-2.78-1.74
		c-2.07-5.49-6.02-9.88-4.76-17.02c2.44-13.79,2.87-27.93,4.45-41.88c1-8.8,2.68-17.52,3.83-26.31c0.34-2.6-0.01-5.31-0.13-7.96
		c-0.04-0.77-0.79-1.78-0.51-2.25c5.66-9.4,3.66-20.22,5.48-30.31c2.27-12.57,3.21-25.39,4.55-38.12c1.34-12.7,2.4-25.43,3.72-38.13
		c1.22-11.76,2.75-23.49,3.9-35.25c0.89-9.02,1.35-18.07,2.1-27.1c0.86-10.34,1.88-20.66,2.76-31c0.46-5.44,0.89-10.88,1.13-16.33
		c0.44-9.76,0.63-19.53,1.12-29.29c0.54-10.86,1.52-21.71,1.88-32.57c0.25-7.65-0.41-15.33-0.26-22.99
		c0.11-5.43,1.1-10.84,1.32-16.27c0.47-11.44,0.88-22.89,0.99-34.34c0.37-37.61,0.72-75.23,0.81-112.84
		c0.04-16.96-0.52-33.92-0.88-50.89c-0.21-9.78-0.53-19.57-0.89-29.34c-0.66-18.2-1.31-36.41-2.08-54.6
		c-0.56-13.39-1.26-26.78-1.95-40.17c-0.61-11.72-1.31-23.43-1.97-35.15c-0.33-5.94-0.83-11.87-0.92-17.81
		c-0.03-2.14,0.61-4.42,1.47-6.41c4.27-9.9,13.96-9.43,22.01-9.83c17.77-0.88,35.61-0.27,53.42-0.27
		C282.99,137.66,282.99,137.29,282.99,136.92z M425.3,275.78c-0.32-4.31-0.25-8.68-1.01-12.91c-4.88-27.23-19.75-47.53-44.01-60.46
		c-16.77-8.94-35.13-11.52-53.79-8.07c-16.06,2.97-30.43,10.03-42.39,21.57c-14.38,13.87-23.34,30.79-25.85,50.35
		c-2.1,16.32,0.52,32.33,8.1,47.51c6.53,13.09,15.96,23.3,27.52,31.71c2.96,2.15,3.87,4.21,4.1,7.66
		c1.19,17.4,1.86,34.91,4.34,52.14c3.09,21.41,6.03,43.12,12.29,63.71c5.76,18.96,11.62,38.23,21.48,55.87
		c9.27,16.57,17.49,33.65,28.56,49.27c17.44,24.59,36.85,47.12,60.17,66.33c20.58,16.95,42.7,31.16,67.88,40.15
		c10.5,3.75,21.24,6.94,32.05,9.69c5.71,1.45,11.8,1.39,17.72,2.01c5.55,0.58,11.14,1.8,16.65,1.55c7.69-0.35,15.31-2.27,23-2.68
		c18.48-0.99,35.52-7.81,51.84-15.06c17.79-7.91,34.57-18.24,50.16-30.55c19.25-15.2,36.36-32.42,51.56-51.34
		c16.82-20.94,31-43.83,42.51-68.25c10.03-21.29,18.88-43,23.84-66.09c3.12-14.54,6.72-29.02,8.82-43.72
		c2.71-18.92,4.59-37.99,5.88-57.06c0.48-7.06,1.65-12.02,7.87-16.53c5.75-4.17,9.86-10.65,14.48-16.29
		c3.34-4.08,6.93-8.14,9.37-12.76c6.54-12.35,8.92-25.87,8.42-39.67c-0.55-15.08-4.67-29.22-12.97-42.16
		c-19.16-29.87-53.14-42.93-85.52-37.33c-18.21,3.15-33.74,11.74-46.45,25.3c-14.37,15.33-21.09,33.88-22.84,54.44
		c-0.33,3.87,0.53,7.86,0.92,11.79c2.1,21.27,11.28,39.28,27.44,52.81c7.42,6.21,9.66,12.59,8.5,21.27
		c-0.24,1.78-0.74,3.54-0.93,5.32c-1.36,12.4-2.41,24.85-4.05,37.21c-3.37,25.43-9.74,50.03-19.87,73.72
		c-9.53,22.29-21.42,42.96-36.58,61.95c-14.4,18.04-30.89,33.35-50.72,45.2c-17.53,10.47-36.43,16.43-56.72,16.39
		c-11.63-0.02-23.09-2.05-34.45-6.2c-15.52-5.66-28.84-14.38-41.68-24.18c-14.04-10.72-25.75-23.86-36.07-38.03
		c-7.95-10.91-14.77-22.71-21.44-34.48c-4.5-7.93-7.77-16.55-11.79-24.76c-1.09-2.22-3.6-3.91-4.22-6.17
		c-1.34-4.89-1.58-10.08-2.82-15.01c-1.85-7.4-4.52-14.61-6.22-22.04c-4.48-19.57-7.35-39.38-8.54-59.44
		c-0.32-5.44-1.5-10.83-1.71-16.27c-0.1-2.62-1.41-5.48,1.92-7.96C413.21,327.93,425.21,304.9,425.3,275.78z"/>
	<path class="st1" d="M425.3,275.78c-0.09,29.12-12.09,52.15-35.23,69.43c-3.33,2.48-2.02,5.35-1.92,7.96
		c0.21,5.44,1.38,10.83,1.71,16.27c1.2,20.06,4.07,39.88,8.54,59.44c1.7,7.43,4.37,14.64,6.22,22.04
		c1.23,4.93,1.48,10.12,2.82,15.01c0.62,2.27,3.13,3.95,4.22,6.17c4.02,8.21,7.29,16.83,11.79,24.76
		c6.67,11.77,13.49,23.56,21.44,34.48c10.32,14.17,22.03,27.31,36.07,38.03c12.84,9.8,26.16,18.52,41.68,24.18
		c11.36,4.14,22.82,6.17,34.45,6.2c20.29,0.04,39.19-5.92,56.72-16.39c19.84-11.84,36.32-27.16,50.72-45.2
		c15.16-19,27.05-39.66,36.58-61.95c10.13-23.69,16.5-48.29,19.87-73.72c1.64-12.37,2.69-24.81,4.05-37.21
		c0.2-1.79,0.69-3.54,0.93-5.32c1.17-8.68-1.08-15.05-8.5-21.27c-16.16-13.53-25.35-31.54-27.44-52.81
		c-0.39-3.93-1.25-7.91-0.92-11.79c1.75-20.56,8.47-39.11,22.84-54.44c12.71-13.56,28.23-22.15,46.45-25.3
		c32.38-5.6,66.37,7.46,85.52,37.33c8.3,12.94,12.42,27.08,12.97,42.16c0.5,13.8-1.88,27.32-8.42,39.67
		c-2.44,4.62-6.03,8.67-9.37,12.76c-4.62,5.64-8.73,12.12-14.48,16.29c-6.21,4.51-7.39,9.48-7.87,16.53
		c-1.29,19.07-3.17,38.14-5.88,57.06c-2.1,14.69-5.7,29.18-8.82,43.72c-4.96,23.1-13.81,44.8-23.84,66.09
		c-11.5,24.42-25.68,47.3-42.51,68.25c-15.2,18.92-32.31,36.15-51.56,51.34c-15.59,12.31-32.37,22.64-50.16,30.55
		c-16.31,7.25-33.35,14.07-51.84,15.06c-7.69,0.41-15.31,2.34-23,2.68c-5.52,0.25-11.1-0.97-16.65-1.55
		c-5.92-0.61-12.01-0.56-17.72-2.01c-10.81-2.74-21.54-5.94-32.05-9.69c-25.18-8.98-47.3-23.19-67.88-40.15
		c-23.33-19.21-42.74-41.75-60.17-66.33c-11.08-15.62-19.3-32.69-28.56-49.27c-9.86-17.64-15.72-36.91-21.48-55.87
		c-6.26-20.59-9.2-42.3-12.29-63.71c-2.49-17.23-3.15-34.74-4.34-52.14c-0.24-3.46-1.14-5.51-4.1-7.66
		c-11.56-8.41-20.99-18.62-27.52-31.71c-7.57-15.18-10.2-31.2-8.1-47.51c2.51-19.55,11.47-36.48,25.85-50.35
		c11.96-11.54,26.33-18.6,42.39-21.57c18.66-3.44,37.02-0.86,53.79,8.07c24.26,12.92,39.13,33.22,44.01,60.46
		C425.05,267.1,424.99,271.47,425.3,275.78z"/>
</g>
</svg>
