<?xml version="1.0" encoding="UTF-8"?>
<svg id="Layer_1" data-name="Layer 1" xmlns="http://www.w3.org/2000/svg" viewBox="0 0 1115 1080">
  <defs>
    <style>
      .cls-1 {
        fill: #fff;
      }
    </style>
  </defs>
  <path class="cls-1" d="m197.52,1049.85c-26.83,0-53.66-.02-80.5.01-12.32.02-24.15-2.8-35.9-6.07-1.38-.39-2.78-1.76-3.58-3.05-6.6-10.5-6.43-22.15-5.35-33.88.82-8.87,1.82-17.72,2.8-26.57,1.19-10.64,2.47-21.28,3.67-31.92.8-7.05,1.53-14.1,2.31-21.15,1.58-14.26,3.25-28.52,4.75-42.79,1.18-11.16,2.09-22.35,3.27-33.52,1.49-14.11,3.19-28.19,4.69-42.3.87-8.22,1.47-16.46,2.31-24.68,1.22-11.98,2.61-23.94,3.79-35.92.84-8.56,1.47-17.14,2.2-25.7.77-9.06,1.55-18.11,2.31-27.17.91-10.92,1.82-21.84,2.69-32.77,1.25-15.65,2.5-31.3,3.67-46.95.55-7.34.97-14.7,1.3-22.05.42-9.46.72-18.92,1.03-28.38.68-20.92,1.56-41.83,1.95-62.76.54-28.34.84-56.69,1.01-85.04.16-27.96.15-55.93-.01-83.9-.11-18.46-.59-36.92-.99-55.38-.27-12.45-.63-24.9-1.02-37.35-.62-19.73-1.3-39.46-1.94-59.18-.4-12.59-.72-25.19-1.15-37.78-.62-18.1-1.38-36.19-1.91-54.29-.24-8.18.63-16.45-.27-24.53-.71-6.36,2.14-10.87,4.61-16,2.15-4.47,5.69-5.79,10-6.95,14.48-3.89,29.27-3.96,44.06-3.96,258.86-.03,517.72-.08,776.58.11,16.21.01,32.56-.03,48.57,3.86,6.56,1.59,14.18,10.56,14.36,19.13.23,10.63-.2,21.28-.47,31.93-.33,13.16-.8,26.31-1.19,39.46-.69,23.12-1.38,46.23-2.04,69.35-.68,23.79-1.32,47.59-2.01,71.38-.53,18.13-1.48,36.26-1.59,54.4-.29,48.43-.63,96.86-.17,145.29.32,34.46,1.48,68.93,3.06,103.36,1.24,26.88,3.7,53.69,5.62,80.54,1.05,14.75,1.92,29.51,3.2,44.24,1.35,15.54,3.13,31.04,4.64,46.56,1.16,11.9,2.12,23.81,3.3,35.71,1.44,14.53,3.04,29.05,4.53,43.57,1.19,11.55,2.27,23.1,3.48,34.65,1.41,13.52,2.9,27.02,4.37,40.53,1.53,14.12,3.06,28.23,4.62,42.34,1.74,15.65,3.7,31.29,5.22,46.96,1.07,11.07,2.45,22.23,1.95,33.28-.27,6.08-3.47,12.39-6.7,17.79-1.35,2.26-6.17,2.51-9.45,3.55-11.32,3.59-23.03,4.04-34.75,4.11-18,.11-36,.03-54,.03-116.75,0-233.5,0-350.25,0h-252.24c-14.41,0-28.81,0-43.22,0-31.74,0-63.48,0-95.22,0,0-.05,0-.11,0-.16Zm726.94-65.94c12.29-.27,24.46-.86,36.23-4.94,1.28-.44,2.87-1.03,3.53-2.06,4.27-6.69,4.79-14.01,3.52-21.71-1.71-10.4-3.06-20.85-4.65-31.27-2.16-14.14-4.43-28.26-6.6-42.4-1.84-12.03-3.63-24.06-5.39-36.1-1.81-12.37-3.54-24.76-5.33-37.14-1.55-10.75-3.26-21.48-4.64-32.25-1.84-14.37-3.41-28.78-5.11-43.17-1.3-10.97-2.7-21.92-3.9-32.9-1.13-10.32-2.14-20.66-3.09-31-1.36-14.74-2.76-29.49-3.88-44.25-.63-8.32-.59-16.68-1.14-25.01-.84-12.7-2.13-25.37-2.85-38.07-.89-15.56-1.51-31.14-2.01-46.73-.46-14.29-.9-28.59-.85-42.88.14-45.5.52-90.99.81-136.49.04-6.24-.06-12.48.22-18.7.83-18.46,1.82-36.92,2.74-55.37.67-13.31,1.32-26.62,2.01-39.93,1-19.32,2-38.65,3.04-57.97.3-5.62.74-11.24,1.12-16.85.61-9.06,2.16-18.2,1.44-27.16-.35-4.36-4.16-11-7.73-12.03-8.95-2.59-18.66-3.45-28.06-3.46-222.35-.17-444.7-.13-667.05-.09-2.95,0-5.89.69-8.84.89-6.67.45-13.42.33-20.01,1.31-8.85,1.32-13.12,7.46-12.51,16.8,1.16,17.73,2.42,35.46,3.56,53.19,1.35,21.07,2.91,42.13,3.86,63.22,1.24,27.56,2.09,55.14,2.9,82.72.56,18.96.97,37.93,1.1,56.89.2,29.49.5,59,.03,88.48-.51,31.43-1.72,62.85-2.94,94.26-.68,17.61-1.85,35.21-3.06,52.79-1.11,16.23-2.51,32.44-3.91,48.65-.7,8.07-1.67,16.11-2.57,24.16-1.44,12.8-2.94,25.59-4.38,38.38-1.4,12.45-2.55,24.94-4.19,37.36-2.42,18.28-5.2,36.51-7.79,54.76-2.1,14.79-4,29.6-6.23,44.37-2.46,16.26-5.26,32.46-7.78,48.71-2.2,14.17-3.99,28.41-6.39,42.55-1.3,7.64-1.85,14.98,2.41,21.86.82,1.32,1.87,3.11,3.13,3.44,6.18,1.62,12.44,3.73,18.74,3.99,19.39.79,38.82.92,58.23,1.1,17.1.16,34.21.09,51.31,0,5.13-.03,10.26-.78,15.39-.74,12.91.12,25.81.63,38.72.72,6.07.04,12.14-.81,18.21-.77,17.89.13,35.77.68,53.65.73,12.4.03,24.8-.7,37.2-.71,10.9,0,21.8.76,32.7.73,12.58-.03,25.16-.78,37.74-.81,10.43-.02,20.86.81,31.29.79,14.63-.03,29.26-.67,43.89-.74,9.57-.05,19.15.65,28.72.66,9.3,0,18.6-.69,27.89-.64,17.07.1,34.13.55,51.2.79,6.59.09,13.19,0,19.78,0,12.36,0,24.72,0,37.08,0,11.36,0,22.73.1,34.09-.01,23.47-.23,46.93-.71,70.4-.82,10.36-.05,20.72.66,31.09.8,11.3.15,22.6.03,33.91.03Z"/>
  <path class="cls-1" d="m738.73,342.77c-11.17-6.29-20.86-14.07-28.23-24.68-7.56-10.89-12.73-22.49-14.59-35.78-2.8-19.9.28-38.58,10.72-55.68,13.19-21.59,32.27-34.99,57.57-38.73,28.42-4.2,53.21,3.53,73.28,24.14,15.87,16.29,23.5,36.24,22.85,59.12-.85,29.9-14.19,52.71-39.15,68.99-1.08.71-1.89,2.57-1.99,3.95-.78,11.62-.95,23.29-2.09,34.87-2.29,23.11-5.55,46.05-10.28,68.86-4.83,23.31-12.49,45.61-21.77,67.24-7.5,17.47-17.21,34.09-26.97,50.47-13.93,23.37-31.58,43.97-50.91,63.03-5.88,5.79-13.13,10.17-19.19,15.8-14.99,13.92-33.33,22.58-50.84,32.41-7.63,4.28-16.7,5.93-24.93,9.22-14.37,5.75-29.61,6.1-44.62,8.17-12.76,1.76-24.98-1.18-37.45-1.98-17.31-1.11-33.23-7.42-48.53-14.15-18.92-8.33-37.34-18.27-52.83-32.67-7.64-7.1-16.39-13.01-23.82-20.3-9.24-9.07-18.48-18.36-26.2-28.69-14.31-19.17-27.77-38.92-38.83-60.35-10.65-20.66-18.48-42.31-25.76-64.18-3.76-11.29-6.05-23.16-8.03-34.93-3.42-20.26-6.29-40.63-8.94-61.01-.84-6.46-.11-13.12-.3-19.68-.13-4.63-.51-9.26-1.02-13.87-.1-.88-1.22-1.86-2.11-2.39-15.09-8.96-25.96-21.86-32.55-37.81-3.44-8.33-5.06-17.66-6.05-26.7-1.89-17.32,2.2-33.64,11.1-48.65,11.53-19.46,28.61-32.01,50.22-37.66,20.6-5.38,40.98-3.16,59.83,7.03,26.41,14.27,41.61,36.69,43.63,66.69,2.2,32.51-10.15,58.6-37.98,76.54-3.64,2.35-5.83,4.01-5.21,9.4,1.77,15.32,2.05,30.81,3.48,46.18.71,7.56,2.69,14.99,4.06,22.49,3.78,20.74,10.37,40.67,18.88,59.82,12.58,28.32,28.9,54.34,49.42,77.81,16.25,18.58,34.43,34.69,56.14,46.2,11.48,6.09,23.86,10.28,37.28,12.08,11.8,1.58,22.92-.69,34.21-1.83,6.46-.65,12.73-4.29,18.85-7.09,13.06-5.97,24.64-14.11,35.98-23.04,25.47-20.05,44.71-45.22,61-72.58,15.05-25.27,26.32-52.48,32.73-81.37,4.17-18.78,7.52-37.73,8.32-57.03.38-9.18,1.07-18.34,1.63-27.66Z"/>
</svg>