<?xml version="1.0" encoding="UTF-8"?>
<svg id="Layer_1" data-name="Layer 1" xmlns="http://www.w3.org/2000/svg" viewBox="0 0 1115 1080">
  <defs>
    <style>
      .cls-1 {
        fill: #d4d4d4;
      }

      .cls-2 {
        fill: #f7b718;
      }
    </style>
  </defs>
  <path class="cls-2" d="m558.37,918.25c-6.05,2.98-12.11,5.95-18.16,8.92-10.25,5.03-20.62,9.83-30.72,15.14-7.48,3.94-14.46,8.83-21.93,12.79-17.87,9.48-35.75,18.97-53.92,27.87-19.3,9.45-38.61,19.01-58.52,27.06-16.55,6.69-33.74,12.09-51.05,16.48-12.48,3.17-25.58,4.6-38.47,5.21-10.93.52-22.15-1.59-31.76-7.04-11.48-6.52-19.54-16.63-24.59-29.02-4.9-12.01-8.57-24.32-9.17-37.32-.85-18.41-2.06-36.83-1.82-55.24.17-13.26,2.33-26.51,3.81-39.74,1.52-13.49,3.05-26.99,5.03-40.41,1.61-10.94,3.96-21.78,5.87-32.68,3.08-17.63,6.36-35.24,8.97-52.95,1.35-9.19,1.73-18.55,2.03-27.85.4-12.63-5.07-23.26-13.54-32-14.95-15.42-30.32-30.44-45.79-45.33-32.07-30.85-63.78-62.06-90.52-97.78-9.46-12.64-18.44-25.85-25.91-39.73-6.65-12.37-11.59-25.67-13.36-40.08-1.95-15.92,3.12-29.11,13.22-40.64,14.16-16.17,33.05-25.14,52.5-33.04,23.05-9.35,47.09-15.45,71.34-20.6,18.26-3.88,36.69-6.97,55.12-9.97,11.48-1.87,23.11-2.78,34.64-4.4,14.73-2.07,29.46-4.19,44.1-6.76,8.57-1.5,17.14-3.45,25.43-6.06,10.89-3.43,19.46-10.53,24.68-20.62,15.35-29.65,30.36-59.49,45.28-89.36,18.9-37.83,38.98-74.98,64.32-108.98,13.77-18.47,28.52-36.23,49.27-47.43,5.25-2.83,11.43-3.92,17.19-5.8-.29,11.41-.77,22.82-.82,34.23-.1,22.13-.05,44.26.19,66.39.05,4.43,1.03,8.89,2.05,13.22.3,1.27,2.24,2.15,3.43,3.21.42,2.23,1.2,4.46,1.2,6.7.08,23.31.03,46.61.03,69.92,0,88.73.03,177.47.03,266.2,0,74.58-.01,149.17.04,223.75,0,1.9.68,3.81,1.04,5.71-.68,3.04-1.96,6.09-1.94,9.13.14,20.91.58,41.82.86,62.73.41,30.65.78,61.29,1.11,91.94.02,1.41-.52,2.82-.79,4.23Z"/>
  <path class="cls-1" d="m556.79,177.95c-1.19-1.06-3.13-1.94-3.43-3.21-1.03-4.33-2.01-8.8-2.05-13.22-.24-22.13-.28-44.26-.19-66.39.05-11.41.53-22.82.82-34.23,6.74.22,13.71-.6,20.18.85,19.3,4.32,32.82,17.64,45.19,31.86,21.61,24.84,38.52,52.8,52.88,82.38,5.71,11.76,12.27,23.1,17.97,34.86,3.25,6.71,5.27,14,8.37,20.79,2.48,5.43,5.95,10.39,8.62,15.75,6.73,13.53,13.28,27.16,19.86,40.76,6.33,13.08,12.54,26.21,19,39.22.9,1.8,2.68,3.94,4.44,4.4,6.77,1.76,13.7,2.89,20.56,4.26,5.52,1.1,11.02,2.41,16.58,3.25,11.34,1.7,22.72,3.1,34.07,4.7,10.99,1.55,21.96,3.23,32.95,4.79,10.05,1.42,20.15,2.52,30.15,4.21,10.01,1.69,19.84,4.56,29.89,5.76,12.21,1.45,23.88,4.88,35.64,8.02,12.14,3.23,24.09,7.16,36.08,10.93,17.6,5.53,34.23,13.11,49.14,24.09,9.02,6.64,17.26,14.26,21.74,24.69,2.27,5.29,3.16,11.33,3.81,17.13,2.06,18.46-4.1,35.07-12.45,51.05-15.08,28.85-35.03,54.28-57.47,77.51-31.21,32.3-63.67,63.39-95.38,95.21-5.98,6-11.65,12.59-16.1,19.75-3.58,5.77-6.22,12.64-7.25,19.34-1.06,6.88-.32,14.24.76,21.21,2.87,18.56,6.44,37.02,9.53,55.55,2.62,15.7,4.95,31.44,7.4,47.16,1.63,10.45,3.55,20.86,4.78,31.36,1.13,9.63,1.7,19.35,2.17,29.04.79,16.38,2.39,32.81,1.68,49.14-.9,20.65-2.8,41.37-11.67,60.68-9.57,20.84-26.07,30.55-48.46,32.56-17.58,1.58-34.24-2.27-50.93-6.41-20.21-5.02-39.52-12.67-58.59-20.94-41.96-18.19-81.77-40.6-121.95-62.3-10.3-5.56-20.99-10.41-31.35-15.87-5.31-2.8-10.3-6.22-15.44-9.37.28-1.41.81-2.82.79-4.23-.33-30.65-.7-61.29-1.11-91.94-.28-20.91-.72-41.82-.86-62.73-.02-3.04,1.26-6.08,1.94-9.13,1.71,1.3,3.43,2.58,5.13,3.91,29.52,23.09,58.84,46.45,88.63,69.2,21.44,16.37,43.62,31.76,68.06,43.5,9.13,4.39,18.44,8.41,28.89,8.15,7.69-.19,12.52-4.73,14.47-11.98,3.35-12.48,1.7-24.94-.68-37.05-3.41-17.38-7.75-34.63-12.84-51.6-5.73-19.09-12.67-37.82-19.19-56.67-6.15-17.77-12.48-35.49-18.65-53.25-4.46-12.81-1.6-23.7,8.94-32.38,3.47-2.86,6.97-5.69,10.65-8.27,34.74-24.33,71.37-46,103.45-74.05,8.11-7.09,16.96-13.47,24.35-21.23,7.16-7.52,13.74-15.89,19.03-24.81,6.15-10.38,1.85-19.4-7.95-24.15-4.72-2.29-9.71-4.21-14.77-5.54-19.37-5.12-39.34-6.4-59.18-6.79-29.74-.59-59.51.41-89.27.73-.5,0-1,.01-1.5.02-13.61.3-27.22.78-40.84.87-13.09.08-20.26-7.47-23.67-19.39-4.64-16.2-9.27-32.41-13.89-48.62-7.39-25.92-14.87-51.82-22.13-77.78-7.08-25.34-13.86-50.76-20.92-76.1-5.29-19-10.69-37.96-16.27-56.88-2.38-8.08-5.33-15.99-8.02-23.97-.44.01-.88.03-1.32.04-.96,3.94-1.91,7.88-2.87,11.83Z"/>
</svg>