<?xml version="1.0" encoding="UTF-8"?>
<svg id="Layer_1" data-name="Layer 1" xmlns="http://www.w3.org/2000/svg" viewBox="0 0 1115 1080">
  <defs>
    <style>
      .cls-1 {
        fill: #d4d5d4;
      }
    </style>
  </defs>
  <path class="cls-1" d="m556.67,69.59c19.67-.75,34.46,9.44,48.11,21.6,23.65,21.08,41.1,47.1,57.11,74.09,7.56,12.75,14.16,26.07,21.17,39.15,4.03,7.51,8.1,15.01,11.99,22.6,5.36,10.44,10.74,20.88,15.8,31.47,5.04,10.57,9.1,21.66,14.69,31.92,5.64,10.35,12.05,20.41,19.19,29.79,6.78,8.89,16.74,13.26,27.62,16.07,18.25,4.71,36.95,6.15,55.49,8.78,15.05,2.13,30.04,4.66,45.06,6.94,13.63,2.07,27.35,3.64,40.89,6.19,10.75,2.02,21.28,5.2,31.92,7.84,23.69,5.88,46.95,13.1,68.77,24.2,14.8,7.53,28.48,16.66,37.79,31,3.93,6.05,6.11,12.57,6.83,19.88,2.44,24.83-7.4,45.92-19.71,66.2-20.02,32.97-45.58,61.52-72.59,88.75-23.35,23.53-47.55,46.21-71.2,69.44-9.63,9.46-19.04,19.23-23.38,32.52-1.05,3.21-1.97,6.59-2.13,9.93-.64,13.2,1.12,26.18,3.69,39.13,2.74,13.81,4.79,27.75,7.27,41.62,1.81,10.12,4.01,20.17,5.66,30.31,1.39,8.55,2.17,17.2,3.33,25.8,1.18,8.75,2.56,17.46,3.69,26.21.59,4.57,1,9.18,1.2,13.78.69,15.41,2.28,30.88,1.57,46.23-.78,16.68-2.54,33.52-6.09,49.81-3.7,16.99-11.17,32.7-27.15,42.27-8.37,5.01-17.61,7.09-27.27,8.15-21.05,2.32-40.91-3.23-60.8-8.63-24.64-6.68-48.18-16.45-70.95-27.75-34.48-17.11-68.46-35.24-102.6-53.02-11.24-5.85-22.52-11.38-35.16-13.84-12.29-2.39-23.86-.81-34.77,4.92-20.53,10.8-40.75,22.21-61.38,32.8-20.35,10.44-40.96,20.37-61.62,30.18-24.48,11.62-49.64,21.65-75.83,28.64-12.01,3.21-24.58,4.31-36.84,6.62-10.25,1.93-20.17.36-30.05-2.13-18.5-4.67-29.88-17.1-36.96-34.18-4.83-11.63-7.94-23.74-8.83-36.25-1.06-14.81-1.97-29.68-1.81-44.52.17-15.43,1-30.92,2.78-46.24,2.29-19.75,5.64-39.38,8.83-59.02,3.5-21.57,7.45-43.06,10.97-64.63,1.63-9.96,3.54-20,3.79-30.03.35-14.3-4.65-27.14-14.87-37.42-14.92-14.99-29.97-29.85-45.19-44.53-33.11-31.93-65.79-64.27-93.28-101.35-13.35-18-25.15-36.91-32.57-58.28-3.69-10.64-5.15-21.65-3.63-32.57,1.59-11.37,7.6-21.06,15.86-29.22,12.8-12.64,28.28-20.98,44.69-27.72,25.85-10.62,52.61-18.14,80.11-23.11,17.28-3.12,34.46-6.81,51.77-9.75,12.61-2.14,25.36-3.5,38.05-5.16,20.32-2.66,40.79-4.39,60.63-9.98,14.53-4.09,25.12-12.93,31.97-26.32,9.15-17.89,18.16-35.86,27.42-53.7,15.8-30.44,30.8-61.34,47.92-91.03,14.87-25.78,31.98-50.34,54.13-70.74,10.95-10.09,22.7-19.13,37.72-22.43,3.65-.8,7.47-.87,11.2-1.28Zm130.42,398.47c0,.32,0,.64,0,.96-5,0-10.01.19-14.99-.04-12.85-.58-23.59-4.92-28.33-18.04-3.64-10.06-6.86-20.28-9.93-30.53-5.07-16.92-9.33-34.1-14.99-50.82-2.87-8.49-3.94-17.41-7.71-25.72-5.36-11.82-10.02-24.03-14.01-36.39-4.04-12.52-10.25-23.88-17.33-34.69-4.39-6.7-8.56-14.57-17.62-16.5-3.03-.65-6.44-1.01-9.39-.3-8.01,1.94-12.31,8.59-16.53,14.87-12.06,17.95-20.08,37.89-27.16,58.13-6.9,19.73-12.91,39.77-18.99,59.78-4.1,13.51-7.41,27.26-11.52,40.76-2.56,8.4-5.6,16.7-9.06,24.77-3.13,7.33-9.23,11.77-16.98,13.42-4.17.89-8.53,1.36-12.79,1.26-22.53-.51-45.04-1.37-67.57-1.89-12.98-.3-25.97-.33-38.96-.18-8.94.11-17.89.54-26.81,1.18-11.84.85-23.72,1.58-35.46,3.22-10.6,1.48-21.22,3.78-30.22,10.09-7.67,5.38-9.87,9.72-6.72,18.14,2.15,5.75,5.02,11.78,9.2,16.12,12.18,12.64,24.29,25.62,38.06,36.39,22.99,17.98,47.2,34.39,70.98,51.35,13.24,9.44,26.63,18.68,39.99,27.94,10.87,7.53,11.85,18.47,10.62,30.21-.4,3.78-.18,7.83-1.51,11.26-3.04,7.87-7.33,15.26-10.26,23.17-5.97,16.08-11.65,32.27-16.95,48.58-6.02,18.5-12.01,37.04-17.04,55.82-3.37,12.59-5.08,25.62-7.47,38.46-1.8,9.67-.93,19.15,4.08,27.63,1.88,3.18,5.67,7.02,8.87,7.29,10.59.9,21.35-1.53,30.32-6.73,21.63-12.54,42.75-26.02,63.61-39.83,13.71-9.07,26.73-19.21,39.82-29.17,14.61-11.12,28.76-22.86,43.5-33.79,11.58-8.59,23.71-8.33,35.55.07,2.31,1.64,4.76,3.09,7,4.81,23.04,17.72,45.73,35.9,69.16,53.09,16.75,12.29,34.23,23.64,51.86,34.65,11.34,7.08,23.32,13.53,36.75,15.74,12.53,2.06,21.62,1.22,24.09-15.53,1.78-12.02.54-23.8-1.83-35.34-3.41-16.59-7.6-33.07-12.53-49.27-5.87-19.32-12.83-38.32-19.41-57.42-5.81-16.84-11.77-33.63-17.63-50.45-4.47-12.82-1.59-23.67,8.89-32.4,1.66-1.39,3.26-2.87,5.04-4.09,15.51-10.64,31.05-21.23,46.59-31.83,29.8-20.34,59.6-40.73,85.37-66.18,7.83-7.74,14.24-17.05,20.53-26.18,3.28-4.76,4.45-11,.58-16.19-2.57-3.44-6.02-6.78-9.83-8.62-9.95-4.81-20.63-7.34-31.75-8.13-15.57-1.11-31.08-3.47-46.66-3.8-20.9-.45-41.84.62-62.76.86-13.92.16-27.84.03-41.76.03Z"/>
</svg>