<?xml version="1.0" encoding="UTF-8"?>
<svg id="Layer_1" data-name="Layer 1" xmlns="http://www.w3.org/2000/svg" viewBox="0 0 1115 1080">
  <defs>
    <style>
      .cls-1 {
        fill: #c0bfbf;
      }
    </style>
  </defs>
  <path class="cls-1" d="m556.02,70.02c20.77-1.14,35.77,9.49,49.62,22.04,25.25,22.88,44.14,50.83,60.3,80.4,18.25,33.39,34.79,67.71,52.1,101.61,5.44,10.65,10.99,21.25,16.41,31.91,9.3,18.31,24.53,28.52,44.38,31.97,13.52,2.35,27.16,4.01,40.74,6.02,15.4,2.29,30.79,4.65,46.19,6.94,5.16.77,10.37,1.25,15.51,2.17,12.07,2.15,24.1,4.57,36.18,6.7,5.35.95,10.86,1.11,16.15,2.31,6.5,1.49,12.89,3.56,19.25,5.62,13.68,4.41,27.38,8.76,40.92,13.56,5.64,2,10.99,4.88,16.3,7.69,7.88,4.16,16.26,7.75,23.24,13.13,11.77,9.06,21.99,19.73,24.94,35.32,1.95,10.29.92,20.42-1.51,30.42-4.23,17.4-13.13,32.53-22.81,47.41-32.37,49.8-75.66,89.64-117.93,130.45-10.3,9.95-20.55,19.99-30.37,30.41-7.43,7.87-13.62,16.88-14.99,27.92-.89,7.19-.87,14.63-.15,21.85,1.01,10.09,2.96,20.09,4.66,30.11,1.57,9.2,3.41,18.35,5.02,27.54,2.03,11.6,4,23.21,5.89,34.83,2.05,12.56,4.35,25.1,5.85,37.74,1.5,12.59,2.51,25.26,3.07,37.92.71,16.26,1.6,32.58.87,48.81-.97,21.72-3.96,43.24-15.32,62.56-8.41,14.29-21.27,21.56-37.22,24.88-14.39,2.99-28.35,1.08-42.41-1.5-34.15-6.25-66.06-19.17-96.98-34.24-33.88-16.52-66.94-34.73-100.56-51.78-11.04-5.6-22.4-11.11-34.23-14.45-12.21-3.46-25.04-1.92-36.59,4.06-27.03,13.98-53.72,28.64-80.88,42.36-21.62,10.91-43.55,21.27-65.71,31.05-21.26,9.38-43.17,17.22-66.07,21.66-10.94,2.12-22.14,4.76-33.13,4.4-27.92-.89-47.72-8.95-59.7-42.54-4.92-13.82-7.51-28.06-7.94-42.71-.35-12.1-1.23-24.21-.92-36.3.3-11.66,1.71-23.3,2.85-34.93,1.2-12.26,2.37-24.53,4.1-36.73,1.57-11.08,3.93-22.04,5.83-33.07,1.8-10.42,3.42-20.88,5.2-31.3.83-4.83,2.41-9.59,2.67-14.43.57-10.34,3.74-20.17,5.21-30.33,2.93-20.38.1-39.09-15.26-54.22-17.76-17.5-35.56-34.95-53.47-52.29-27.19-26.33-53.69-53.33-77.06-83.17-16.3-20.82-31.22-42.54-39.51-68.1-4.05-12.49-5.17-24.97-1.87-37.76,3.03-11.74,10.54-20.49,19.64-27.72,7.06-5.62,14.8-10.55,22.72-14.88,7.39-4.04,15.36-7.07,23.2-10.22,7.19-2.89,14.43-5.73,21.85-7.94,11.38-3.39,22.85-6.51,34.4-9.23,13.76-3.24,27.58-6.32,41.5-8.74,14.44-2.51,29.04-4.06,43.55-6.19,12.5-1.84,24.98-3.86,37.46-5.88,13.64-2.21,27.31-4.22,40.87-6.83,16.17-3.11,28.47-12.19,36.18-26.63,9.31-17.42,17.79-35.28,26.8-52.86,14.27-27.83,27.97-55.98,43.3-83.22,10.33-18.36,22.21-36.01,34.94-52.8,12.15-16.03,25.6-31.28,43.31-41.8,9.26-5.5,18.83-10.08,29.44-8.95Zm-251.48,398.01c-.03-.23-.05-.47-.08-.7-9.92,1.24-19.81,2.78-29.77,3.64-10.52.91-20.49,3.41-30,8-11.98,5.78-15.6,16.02-8.58,27.33,4.5,7.25,9.69,14.34,15.75,20.3,9.6,9.42,19.65,18.56,30.48,26.5,27.79,20.38,56.15,39.98,84.2,60,9.86,7.04,19.69,14.13,29.13,21.7,5.39,4.32,7.57,10.3,7.56,17.64-.02,9.16-2.54,17.6-5.44,25.93-7.8,22.42-16.22,44.63-24.11,67.02-8.11,23.01-15.68,46.22-20.11,70.27-2.54,13.8-6.74,27.55-3.54,41.87,1.62,7.27,4.48,13.93,12.54,15.57,4.12.84,8.72.28,12.93-.54,17.25-3.35,31.47-13.52,46.32-21.92,11.86-6.7,22.83-15.06,33.8-23.22,20-14.86,39.63-30.21,59.57-45.16,9.4-7.05,18.98-13.89,28.81-20.32,8.63-5.65,17.88-5.08,26.66-.19,5.5,3.06,10.76,6.67,15.8,10.47,27.9,21.07,55.32,42.8,83.65,63.27,22.04,15.93,44.85,30.93,71.73,38.05,6.1,1.62,17.99-.37,20.68-9.1,1.34-4.35,2.2-8.98,2.43-13.52.79-15.17-1.52-30.11-5.62-44.61-6.44-22.73-13.41-45.32-20.64-67.81-4.66-14.5-10.32-28.68-15.3-43.09-4.27-12.34-8.65-24.68-12.04-37.28-1.1-4.1-.41-9.59,1.54-13.4,2.71-5.31,6.64-10.55,11.32-14.19,10.89-8.47,22.45-16.1,33.9-23.83,31.62-21.35,63.38-42.54,91.89-68.05,11.29-10.11,22.32-20.49,29.41-34.38,5.1-9.99,2.81-19.71-7.72-24.47-7.24-3.27-14.93-6.45-22.71-7.47-19.05-2.49-38.25-4.9-57.42-5.15-28.7-.37-57.43,1.23-86.14,1.8-11.49.23-22.98,0-34.47-.09-9.81-.07-18.27-3.27-23.7-11.81-2.64-4.15-4.68-8.82-6.2-13.51-4.77-14.66-9.28-29.4-13.67-44.18-4.51-15.2-8.34-30.61-13.25-45.68-5.2-15.99-10.89-31.85-17.14-47.45-6.8-16.98-14.22-33.75-28.39-46.32-5.92-5.25-12.55-6.72-19.19-2.66-3.99,2.44-7.67,5.96-10.42,9.77-16.54,22.97-25.6,49.47-34.8,75.83-4.54,13.02-8.34,26.31-12.26,39.55-4.41,14.9-8.35,29.94-12.92,44.79-2.9,9.43-5.98,18.9-10.05,27.86-4.39,9.69-13.44,13.69-23.48,13.64-22.04-.1-44.08-1.18-66.12-1.59-16.83-.32-33.68-.37-50.51-.26-8.1.05-16.2.74-24.31,1.14Z"/>
</svg>