<?xml version="1.0" encoding="UTF-8"?>
<svg id="Layer_1" data-name="Layer 1" xmlns="http://www.w3.org/2000/svg" viewBox="0 0 1115 1080">
  <defs>
    <style>
      .cls-1 {
        fill: #fff;
      }
    </style>
  </defs>
  <path class="cls-1" d="m123.92,967.57c-17.39-19.11-34.28-36.97-50.31-55.59-8.05-9.35-15.36-19.58-21.5-30.28-8.62-15.02-7.26-31.26-2.82-47.47,6.61-24.17,16.17-47.11,29.43-68.31,10.1-16.15,20.61-32.16,32.31-47.17,10.67-13.69,22.87-26.25,34.95-38.78,20.15-20.9,42.44-39.41,66.35-55.82,21.96-15.07,45.38-27.27,70.98-35.38,28.44-9.02,53.17-1.86,75.55,15.8,22.91,18.09,45.24,36.9,67.82,55.4.77.63,1.58,1.21,2.37,1.82,12.46,9.61,9.89,9.88,23.36.8,21.49-14.47,43.2-28.89,63.02-45.48,20.43-17.1,39.07-36.42,57.84-55.43,16.29-16.51,32.42-33.3,47.21-51.13,13.51-16.29,25.36-33.98,37.49-51.37,6.15-8.82,11.21-18.4,16.92-27.54,3.32-5.31,3.16-9.86-1.33-14.56-8.26-8.66-16.41-17.44-24.25-26.48-17.67-20.38-36.62-39.81-50.21-63.38-7.7-13.35-10.69-27.69-8.48-43.32,3.77-26.55,14.93-50.12,28.2-72.84,21.56-36.91,48.75-69.37,79.43-99.03,20.43-19.76,42.6-37.41,66.57-52.46,19.51-12.25,40.24-22.63,62.69-28.81,8.36-2.3,16.87-5.36,25.35-5.49,8.47-.13,18.08,1.03,25.27,5.05,14.09,7.87,27.6,17.22,40,27.58,22.04,18.4,43.61,37.44,64.38,57.26,16.32,15.57,31.23,32.63,46.6,49.18,11.21,12.06,20.43,25.56,28.07,40.16,7.61,14.56,11.28,30.29,13.79,46.33,3.18,20.33,3.31,40.86.8,61.17-1.99,16.08-5.3,32.11-9.43,47.79-11.18,42.48-28.78,82.45-51.31,120.02-18.02,30.06-37.2,59.47-56.97,88.42-21.39,31.32-43.8,61.95-66.21,92.56-30.28,41.35-63.09,80.6-99.72,116.52-18.48,18.12-36.72,36.54-56.07,53.71-18.7,16.6-38.5,31.99-58.15,47.5-23.19,18.31-46.51,36.48-70.2,54.14-20.82,15.52-42,30.59-63.42,45.27-40.54,27.77-83.22,51.62-129.27,69.16-23.76,9.05-48.09,15.63-73.33,19.08-19.83,2.71-39.63,2.87-59.44.81-23.96-2.5-46.72-9.49-66.65-23.12-14.19-9.71-27.19-21.17-40.45-32.18-3.07-2.55-4.37-2.99-7.42.12-15.13,15.37-30.52,30.5-46.06,45.47-2.91,2.81-6.73,4.84-10.42,6.63-11.92,5.77-25.36-1.11-32.48-10.1-10.08-12.71-10.27-24.9.72-37.47,10.03-11.48,21.17-22.01,31.93-32.85,5.48-5.52,11.2-10.79,16.51-15.88Zm190.55,36.85c7.28-.48,14.62-.52,21.83-1.54,13-1.84,26.08-3.58,38.84-6.58,41.24-9.7,77.37-30.49,112.08-53.77,22.36-14.99,44.05-30.99,65.77-46.91,19.04-13.96,37.86-28.23,56.46-42.76,20.18-15.75,40.15-31.79,59.93-48.04,12.79-10.5,25.74-20.94,37.47-32.57,26.24-26.03,52.41-52.19,77.37-79.43,17.97-19.6,34.38-40.69,50.69-61.74,16.47-21.26,32.18-43.12,47.82-65.01,15.15-21.18,30.16-42.47,44.56-64.16,14.29-21.51,28.38-43.21,41.38-65.5,13.88-23.8,24.66-49.02,31.91-75.84,5.65-20.89,8.65-42.06,8.81-63.43.12-16.47.22-33.35-6.35-49.16-3.89-9.36-6.82-19.22-11.64-28.05-8.97-16.41-21.84-30.03-34.64-43.48-11.41-11.99-23.27-23.6-35.54-34.71-14.49-13.12-29.08-26.25-44.63-38.06-18.88-14.34-38.98-17.33-60.56-3.89-20.75,12.92-40.21,27.44-58.57,43.41-21.12,18.36-40.48,38.53-57.83,60.53-13.65,17.31-27.24,34.69-36.92,54.69-7.84,16.18-8.47,32.25.09,48.43,10.8,20.4,27.84,35.35,44.14,50.96,11.26,10.79,23.66,20.5,31.99,34.02,4.54,7.37,7.02,15.27,5.83,24.1-2.02,14.98-7.82,28.64-15.16,41.58-7.17,12.63-15.13,24.82-22.93,37.08-19.09,30.05-40.75,58.15-65.71,83.53-26.72,27.17-53.78,54.02-81.34,80.32-10.75,10.26-23.09,18.9-35.07,27.79-9.37,6.96-19.35,13.09-28.95,19.74-14.82,10.27-29.83,20.14-46.96,26.27-14.87,5.32-29.61,6.5-42.98-3.35-7.83-5.77-14.67-12.88-21.88-19.48-16.04-14.67-31.66-29.83-48.19-43.93-8.8-7.51-19.65-12.12-31.4-13.46-12.31-1.41-23.71,1.97-34.05,8.38-9.97,6.18-20.1,12.37-29.09,19.85-17.75,14.76-35.62,29.55-51.82,45.93-15.13,15.3-28.49,32.41-42.02,49.21-12.57,15.61-23.64,32.34-31.8,50.74-4.54,10.24-5.58,20.57-.92,31.52,6.51,15.33,16.28,28.2,27.62,40.03,27.12,28.3,54.62,56.24,85.84,80.14,13,9.95,27.46,17,43.3,21.43,14.18,3.97,28.6,4.86,43.2,5.15Z"/>
</svg>