<?xml version="1.0" encoding="UTF-8"?>
<svg id="Layer_1" data-name="Layer 1" xmlns="http://www.w3.org/2000/svg" viewBox="0 0 1115 1080">
  <defs>
    <style>
      .cls-1 {
        fill: #3d3c3c;
      }
    </style>
  </defs>
  <path class="cls-1" d="m1002.74,746.94c-.87,7.75-.65,15.83-2.84,23.18-3.77,12.62-8.23,25.18-13.91,37.04-5.8,12.11-12.69,23.86-20.36,34.88-58.23,83.71-133.69,146.24-228.44,184.98-28.6,11.69-58.16,20.02-88.19,26.88-7.07,1.62-14.22,3.07-21.42,3.87-15.41,1.7-30.84,3.27-46.31,4.21-13.59.82-27.25,1.17-40.86.87-10.67-.23-21.36-1.43-31.96-2.82-15.6-2.06-31.2-4.26-46.65-7.19-11.24-2.14-22.46-4.89-33.28-8.55-23.25-7.87-46.9-15.03-69.2-25.13-50.09-22.67-95.08-53.35-134.85-91.49-33.58-32.21-63.03-67.67-86.09-108.29-9.88-17.4-17.28-35.74-21.08-55.25-2.59-13.29-1.26-26.63,1.89-40.13,2.72-11.68,8.97-21.31,15.41-30.22,7.64-10.57,18.52-18.9,28.44-27.7,6.12-5.43,12.7-10.56,19.75-14.65,7.36-4.26,15.58-7,23.34-10.6,50.55-23.45,103.36-40.09,157.76-51.66,18.63-3.96,37.57-6.56,56.47-9.1,18.58-2.49,37.25-4.36,55.92-6.03,12.68-1.13,25.43-1.57,38.16-2.07,16.92-.67,33.85-1.48,50.77-1.51,14.6-.02,29.21.88,43.81,1.53,11.89.53,23.79,1.06,35.64,2.04,13.43,1.11,26.84,2.45,40.2,4.2,14.18,1.85,28.36,3.86,42.39,6.6,16.35,3.19,32.56,7.12,48.78,10.97,12,2.85,24.01,5.75,35.84,9.22,14.42,4.22,28.81,8.64,42.95,13.72,33.12,11.9,65.86,24.76,95.39,44.35,17.3,11.47,31.73,25.92,41.94,44.1,6.86,12.22,11.45,25.25,10.6,39.75Zm-417.89,226.05c.01-.25.03-.51.04-.76,9.81-1.11,19.76-1.52,29.4-3.48,17.71-3.61,35.53-7.18,52.77-12.51,20.17-6.23,40.22-13.29,59.47-21.92,17.99-8.06,35.14-18.17,52.14-28.24,13.35-7.91,26.33-16.6,38.73-25.94,11.11-8.37,21.63-17.65,31.63-27.32,10.97-10.61,21.52-21.73,31.4-33.36,8.99-10.59,16-22.65,20.49-35.95,5.37-15.92,4.75-31.2-6.09-44.79-3.87-4.85-8.48-9.29-13.38-13.11-14.54-11.34-31.31-18.62-48.64-24.3-16.34-5.35-32.97-9.85-49.63-14.14-12.28-3.16-24.73-5.86-37.25-7.88-16.7-2.7-33.31-6-50.22-7.51-16.33-1.45-32.55-4.19-48.89-5.64-14.17-1.26-28.44-1.47-42.65-2.23-8.74-.47-17.47-1.1-26.2-1.65-4.94-.31-9.9-.97-14.83-.83-8.74.25-17.45,1.11-26.18,1.51-16.38.75-32.79.92-49.13,2.13-20.84,1.54-41.66,3.64-62.43,5.96-15.39,1.72-30.86,3.35-46,6.47-27.41,5.65-54.79,11.64-81.81,18.89-22.86,6.13-44.89,14.82-64.18,29.23-9.35,6.98-17.77,15.64-20.98,26.28-4.05,13.4-1.15,27.33,5.16,40.37,6.12,12.64,13.93,24.06,22.95,34.65,34.06,39.95,75.94,69.94,121.78,94.78,23.28,12.61,47.58,22.9,72.76,31.06,22.58,7.32,45.53,13.19,69.13,16.22,11.43,1.47,22.86,3.35,34.35,3.84,15.41.66,30.87.16,46.31.16Z"/>
  <path class="cls-1" d="m556.82,17.45c22.18-.11,43.94,2.74,65.32,8.38,19.44,5.13,38.09,12.36,55.85,21.84,22.86,12.2,43.72,27.19,61.37,46.15,10.26,11.02,19.94,22.72,28.66,34.99,16.34,23,28.27,48.33,35.2,75.73,3.14,12.44,5.42,25.21,6.74,37.98,1.51,14.62,2.66,29.44,1.94,44.08-1.12,22.87-5.1,45.37-12.7,67.2-22.43,64.4-63.62,112.67-123.7,144.73-21.64,11.55-44.83,19.1-68.75,24.35-2.07.45-4.38-.12-6.58-.26-.46-.03-1.19-.49-1.32-.34-4.11,4.84-10.11,2.18-15.1,3.6-5.13,1.46-10.85.79-16.31,1.12-4.6.28-9.21,1.07-13.79.87-8.54-.37-17.08-1.07-25.58-2.02-22.54-2.52-44.55-7.72-65.23-16.9-16.17-7.18-32.25-15.11-47.04-24.75-40.19-26.19-69.66-61.96-90.06-105.33-9.14-19.43-15.56-39.79-19.41-60.78-2.6-14.21-2.66-28.87-4.43-43.26-1.09-8.84.63-17.41,1.33-26.05.72-8.9,3.11-17.65,4.18-26.54,2.97-24.5,12.88-46.61,24.31-67.89,38.72-72.07,98.65-116.05,178.76-132.46,7.56-1.55,15.32-2.21,23.03-2.93,7.75-.73,15.53-1.03,23.3-1.52Zm-.45,83.25c-49.81,1.17-92.39,19.12-125.93,56.32-33.24,36.87-48.48,80.52-44.3,130.15,6.89,81.94,74.02,157.27,172.06,157.33,92.45.05,174.64-74.74,170.88-179.71-3.11-86.89-74.87-165.01-172.71-164.08Z"/>
</svg>