<?xml version="1.0" encoding="UTF-8"?>
<svg id="Layer_1" data-name="Layer 1" xmlns="http://www.w3.org/2000/svg" viewBox="0 0 1364 1080">
  <defs>
    <style>
      .cls-1 {
        fill: #4093a4;
      }
    </style>
  </defs>
  <path class="cls-1" d="m319.11,741.88c0-12.82-.59-25.67.13-38.45,1.24-22.11,2.85-44.27,7.79-65.93,5.83-25.57,15.3-49.48,33.79-68.98,19.22-20.27,42.4-34.18,68.12-44.67,28.96-11.81,59.15-16.77,89.93-14.48,24.13,1.79,48,7.21,71.95,11.21,11.66,1.95,23.45,3.58,34.79,6.74,10.93,3.05,21.99,2.87,33.02,3.75,11.1.88,22.34,2.5,33.35,1.62,18.35-1.46,36.65-4.17,54.82-7.22,20.19-3.39,40.14-8.17,60.33-11.59,25.17-4.27,50.66-7.28,76.04-3.5,16.59,2.47,33.04,6.32,48.99,12.44,23.93,9.17,45.88,21.43,64.54,38.79,14.89,13.85,25.78,30.86,32.66,50.19,9.53,26.77,13.4,54.6,14.58,82.8.99,23.62,1.73,47.28,1.48,70.91-.16,15.77-1.29,31.66-3.71,47.23-2.96,18.99-15.71,30.55-36.79,31.74-3.63.2-7.17,1.65-10.8,2.07-5.76.66-11.57,1.32-17.36,1.32-197.82.06-395.64.06-593.47,0-13.36,0-26.42-1.79-39.14-6.46-13.9-5.11-20.71-15.47-22.03-29.27-2.23-23.34-3.49-46.77-5.16-70.17.71-.03,1.43-.06,2.14-.09Zm360.19,42.06v.06c84.14,0,168.28.07,252.42-.09,9.94-.02,19.89-1.19,29.82-2.06,5.06-.44,10.73-6.02,11.34-11.11.88-7.42,1.98-14.88,2.01-22.32.06-17.14-.34-34.29-.79-51.43-.48-18.21-2.93-36.14-8.38-53.58-4.24-13.56-11.69-25.22-22.89-33.78-26.09-19.93-56.15-30.43-88.55-33.55-22.64-2.18-45.18.55-67.46,5.32-26.02,5.57-52.04,11.21-78.22,16-21.97,4.02-44.13,2.26-65.95-1.55-17.69-3.09-35.22-7.27-52.69-11.5-25.71-6.22-51.64-10.24-78.13-8.4-7.16.5-14.42.26-21.54,2.86-9.5,3.47-19.63,5.18-29.15,8.61-15.32,5.52-29.97,12.75-42.32,23.51-17.1,14.9-23.51,35.27-26.62,56.83-1.47,10.18-1.96,20.52-2.45,30.81-1.13,23.77-2.35,47.57,1.09,71.27,1.04,7.18,5.76,12.17,12.73,12.95,5.74.65,11.54,1.08,17.31,1.09,86.14.07,172.28.05,258.41.05Z"/>
  <path class="cls-1" d="m879.02,273.79c1.25,106.49-85.82,196.81-196.17,197.07-109.3.26-198.19-85.55-198.42-197.3-.23-107.42,82.88-196.97,197.36-197.88,106.25-.85,197.64,84.2,197.23,198.11Zm-68.02-.22c-.51-72.53-57.41-129.37-129.03-129.29-72.62.08-128.96,57.76-128.9,129.06.05,72.1,57.28,129.08,129.06,128.95,73.08-.14,128.47-58.47,128.88-128.71Z"/>
  <path class="cls-1" d="m280.81,449.07c-82.88-1.25-148.83-66.56-148.64-149.59.19-83.72,66.32-149.41,149.55-149.11,84.58.31,149.22,66.97,148.94,149.71-.28,83.97-66.94,148.34-149.85,148.98Zm88.35-149.14c.22-48.52-38.54-87.65-87.25-88.08-47.96-.43-87.69,37.35-88.4,87.39-.34,23.98,8.49,44.99,25.41,62.11,17.09,17.29,38.07,26.44,62.42,26.23,49.01-.41,87.67-39.15,87.82-87.66Z"/>
  <path class="cls-1" d="m1080.53,449.06c-82.64-1.18-148.47-66.24-148.25-149.74.22-83.7,65.92-148.87,149.05-148.92,84.25-.05,141.3,65.28,147.94,131.3,4.82,47.92-8.6,89.46-42.3,123.53-28.78,29.09-64.65,43.13-106.43,43.83Zm88.66-149.82c-.28-48.66-39.42-87.33-87.9-87.46-48.26-.13-88.31,41.04-87.69,88.19.63,48.11,39.05,88,88.49,87.55,49.96-.45,87.4-40.5,87.11-88.28Z"/>
  <path class="cls-1" d="m1143.37,563.82c-21.76.32-41.92,6.86-62.16,12.99-3.82,1.16-7.7,2.14-11.55,3.2-5.03,1.39-8.71-.43-11.5-4.68-7.97-12.1-12.2-25.46-12.97-39.84-.3-5.61.27-11.29.63-16.92.34-5.34,3.44-8.7,8.51-9.78,13.83-2.95,27.62-6.25,41.59-8.28,14.63-2.13,29.43-3.83,44.19-4.12,16.97-.33,33.9,1.65,50.43,6,23.01,6.05,44.91,14.82,64.92,27.78,9.03,5.85,18.29,11.78,26,19.17,13.54,12.99,26.1,27.17,33.07,45,4.95,12.64,9.52,25.53,12.87,38.67,6.26,24.62,9.8,49.66,8.64,75.23-.67,14.8-5.15,21.35-19.18,26.32-11.01,3.9-22.33,5.19-33.93,4.42-9.35-.62-14.35-5.48-14.8-14.89-.54-11.31-.38-22.65-1.14-33.94-1.45-21.74-5.6-42.87-15.2-62.7-7.18-14.82-18.37-26.06-31.3-35.71-13.99-10.45-29.28-18.74-46.23-23.06-10.05-2.57-20.58-3.3-30.89-4.86Z"/>
  <path class="cls-1" d="m25.9,696.52c1.7-15.36,2.7-30.84,5.27-46.05,3.35-19.8,8.61-39.2,17.29-57.44,13.37-28.1,34.58-48.72,61.17-64.39,27.92-16.46,57.67-27.56,89.93-31.09,22.78-2.49,45.55-.86,68.11,2.98,12.3,2.09,24.59,4.4,36.76,7.14,10.87,2.45,13.54,5.33,13.28,16.54-.22,9.52-1.45,19.19-3.71,28.43-1.82,7.42-5.41,14.54-9.03,21.35-3.13,5.88-7.54,7.48-13.78,5.74-14.88-4.14-29.61-8.83-44.52-12.82-5.22-1.39-10.82-1.56-16.26-1.91-4.48-.29-9,.11-13.49-.01-23.61-.66-44.65,7.35-64.38,19.37-13.96,8.51-26.45,18.87-35.69,32.57-11.01,16.33-16.66,34.72-18.7,54.09-1.67,15.81-2.14,31.75-3.13,47.63-.12,1.99-.03,4.01-.3,5.98-1.39,10.01-5.64,13.84-15.84,14.41-13.18.73-25.87-1.15-38.01-6.58-9.1-4.07-13.28-11.24-13.74-20.83-.24-4.99-.04-9.99-.04-14.99-.39-.04-.78-.08-1.17-.11Z"/>
</svg>