<?xml version="1.0" encoding="UTF-8"?>
<svg id="Layer_1" data-name="Layer 1" xmlns="http://www.w3.org/2000/svg" viewBox="0 0 1115 1080">
  <defs>
    <style>
      .cls-1 {
        fill: #fff;
      }
    </style>
  </defs>
  <path class="cls-1" d="m556.33,569.98c18.28,0,36.6-.64,54.84.18,18.46.83,36.88,2.81,55.26,4.81,17.21,1.87,34.47,3.71,51.47,6.86,24.73,4.57,49.54,9.25,73.78,15.83,27.11,7.36,53.96,16,80.31,25.75,25.74,9.52,51,20.51,74.33,35.32,22.98,14.59,42.44,32.67,55.16,57.11,7.13,13.7,9.54,28.31,7.95,43.82-3.01,29.33-16.75,54.08-32.62,77.86-22.82,34.2-50.19,64.49-81.27,91.33-15.88,13.72-32.1,27.17-49.15,39.36-14.68,10.49-30.36,19.78-46.34,28.18-19.15,10.07-38.71,19.6-58.8,27.59-19.2,7.63-39.04,14-59.08,19.06-20.53,5.19-41.61,8.28-62.5,11.97-29.24,5.16-58.81,4.94-88.27,3.62-24.33-1.09-48.46-4.63-72.45-9.35-26.21-5.16-51.84-12.32-76.75-21.62-33.9-12.65-66.3-28.61-96.62-48.54-25.79-16.95-49.77-36.13-72.39-57.15-23.83-22.15-45.29-46.32-64.19-72.72-15.78-22.04-29.79-45.26-36.7-71.78-6.45-24.75-4.26-48.55,10.04-70.7,15.58-24.12,36.51-42.18,61.33-56.07,27.47-15.38,56.66-26.88,86.28-37.16,19.77-6.87,39.89-12.99,60.22-17.94,23.68-5.76,47.68-10.4,71.71-14.53,20.01-3.44,40.25-5.69,60.44-7.96,11.35-1.27,22.81-1.61,34.22-2.18,19.91-.98,39.83-1.81,59.75-2.71,0,.58.02,1.17.03,1.75Zm.66,420.01c.04-.29.09-.58.13-.87,5.13-.37,10.27-.6,15.38-1.13,16.12-1.66,32.39-2.54,48.31-5.38,26.16-4.66,51.53-12.52,76.23-22.35,37.99-15.11,73.5-34.89,107.05-58.15,26.32-18.25,51.26-38.25,73.44-61.45,15.69-16.42,30.27-33.78,39.88-54.62,4.54-9.85,8.1-20.06,7.13-31.33-1.35-15.8-10.45-26.71-22.34-35.69-19.59-14.8-42.26-23.35-65.55-29.92-25.57-7.22-51.49-13.22-77.31-19.51-11.65-2.84-23.38-5.47-35.19-7.53-18.33-3.2-36.73-6-55.15-8.67-12.08-1.75-24.22-3.18-36.38-4.37-10.51-1.03-21.07-1.72-31.62-2.18-17.55-.77-35.12-1.86-52.66-1.65-18.19.21-36.38,1.56-54.54,2.85-13.68.97-27.36,2.27-40.95,4.11-16.02,2.17-31.98,4.87-47.89,7.74-19.91,3.59-39.82,7.21-59.58,11.52-16.84,3.67-33.52,8.15-50.17,12.63-24.42,6.57-48.49,14.17-70.53,26.96-9.8,5.69-18.8,12.35-25.7,21.56-6.55,8.74-9.83,18.7-8.68,29.35,1.66,15.41,8.46,29.11,17.03,41.83,12.34,18.32,26.66,34.97,43.27,49.56,13.05,11.46,25.62,23.63,39.62,33.81,19.41,14.11,39.46,27.49,60.15,39.63,18.96,11.12,38.69,21.19,58.87,29.9,28.7,12.39,58.48,22.01,89.61,26.4,19.32,2.73,38.75,4.65,58.13,6.94Z"/>
  <path class="cls-1" d="m558.64,528.95c-143.77-.09-257.23-114.9-257.6-255.88-.37-142.18,113.94-257.47,257.32-257.09,141.34.37,255.86,114.78,255.55,256.75-.31,142.7-114.82,255.14-255.27,256.23Zm-.56-71.02c102.48-.31,183.41-83.03,184.84-181.84.81-56.01-19.75-103.4-60.82-141.03-38.06-34.87-83.89-50.81-135.45-48.02-93.68,5.07-173.44,82.24-174.66,183.3-1.26,104.03,82.77,188.03,186.08,187.59Z"/>
</svg>