<?xml version="1.0" encoding="UTF-8"?>
<svg id="Layer_1" data-name="Layer 1" xmlns="http://www.w3.org/2000/svg" viewBox="0 0 1920 681">
  <defs>
    <style>
      .cls-1 {
        fill: #2899a9;
      }
    </style>
  </defs>
  <path class="cls-1" d="m1457.09,146.16c4.27-2.28,8.35-4.4,12.39-6.6,52.62-28.76,105.14-57.72,157.91-86.2,26.52-14.31,53.42-27.94,80.37-41.44,5.36-2.68,11.67-3.62,17.64-4.87,4.2-.87,7.02,1.85,8.6,5.4,11.33,25.46,14.66,51.59,4.38,78.08-6.74,17.36-18.57,31.49-34.19,41.35-23.35,14.75-47.39,28.42-71.38,42.13-19.23,10.99-38.83,21.33-58.26,31.98-1.57.86-3.07,1.83-5.22,3.13,1.67,1.85,2.9,3.32,4.24,4.7,36.65,37.8,73.33,75.56,109.94,113.4,9.59,9.91,18.89,20.11,28.42,30.08,9.07,9.5,18.52,18.66,27.26,28.45,2.85,3.19,4,7.89,5.93,11.9-3.91,1.44-7.72,3.56-11.76,4.17-6.22.93-12.59,1.07-18.9,1.1-26.83.1-53.66.08-80.48-.03-5.28-.02-10.82.27-15.76-1.2-4.89-1.44-9.85-4.18-13.6-7.64-15.54-14.34-30.71-29.08-45.87-43.83-28.66-27.88-57.26-55.83-85.76-83.87-2.48-2.44-4.21-2.42-7.31-1.12-7.04,2.94-9.42,7.29-9.29,15.21.54,32.82.22,65.65.16,98.48,0,3.82-.27,7.65-.62,11.46-.77,8.42-2.96,10.71-11.41,11.54-5.46.54-10.96.94-16.44.97-22.33.12-44.66.2-66.99.03-12.6-.1-13.85-1.45-13.87-14.1-.18-104.78.06-209.56.42-314.34.06-18.26.43-36.59,4.29-54.6,1.73-8.07,5.17-10.78,13.28-10.02,20.98,1.98,40.55,7.95,56.97,21.7,13.48,11.3,23,25.6,27.47,42.57,2.6,9.86,3.32,20.27,4.32,30.49,1.32,13.52,2.07,27.09,3.13,41.55Z"/>
  <path class="cls-1" d="m149.17,123.83c.92,5.17,2.17,9.29,2.3,13.45.41,13.66-.19,27.37.72,40.98,1.02,15.29,2.04,30.75,5.24,45.68,5.54,25.82,18.34,47.31,42.61,60.27,24.66,13.16,50.15,15.85,76.55,5.83,11.91-4.52,23.35-10.23,32.05-19.7,9.71-10.58,18.24-22.31,21.09-36.75,2.71-13.7,5.02-27.57,6.15-41.48,1.64-20.17,2.15-40.44,2.88-60.67.07-1.83-1.41-4.01-2.72-5.55-10.04-11.74-16.05-25.07-17.4-40.6-2.01-23.11,5.41-42.66,21.91-58.66,24.03-23.3,61.95-26.95,90.55-6.84,17.59,12.36,27.85,29.55,30.1,51.31,2.04,19.75-3.35,37.15-15.41,52.74-.77.99-.72,2.88-.55,4.29.36,3.12,1.44,6.19,1.5,9.3.67,31.35-.69,62.62-5.69,93.61-5.22,32.35-16.69,62.44-35.72,89.18-12.08,16.97-27.04,31.52-43.65,44.11-5.57,4.22-13.25,5.78-18.49,10.27-9.31,7.98-20.58,11.41-31.47,15.63-15.4,5.96-31.54,9.16-48.03,10.91-16.38,1.74-32.79,1.38-48.77-1.45-14.97-2.64-29.68-7.42-44.07-12.49-24.74-8.7-45.88-23.62-64.57-41.7-15.9-15.38-28.68-33.42-38.27-53.34-9.77-20.3-16.29-41.83-19.5-64.17-4.51-31.37-6.32-62.92-4.97-94.63.08-1.8-1.22-4.05-2.54-5.47-13-13.93-20.03-30.58-19.55-49.4.74-29.4,14.31-51.76,41.12-64.63,27.65-13.27,58.48-7.72,81,13.41,23.36,21.92,28.3,61.04,11.11,88.23-2.03,3.22-4.19,6.36-5.5,8.35Z"/>
  <path class="cls-1" d="m894.14,104.49c0,13.97.65,30.65-.13,47.25-1.76,37.33-1.87,74.97-13.24,111.09-5.81,18.46-13.99,36.02-25.1,52-10.27,14.77-22.16,27.94-35.89,39.81-10.16,8.79-21.1,16.01-32.51,22.65-17.25,10.03-35.98,16.39-55.49,20.54-20.37,4.33-40.86,5.11-61.55,2.99-23.98-2.46-46.76-9.36-68.1-20.12-23.05-11.63-43.11-27.41-60.09-47.18-17.53-20.42-30.38-43.4-38.69-68.74-5.59-17.05-9.17-34.77-10.32-52.8-.82-12.77-1.62-25.56-1.82-38.35-.52-32.95-1.19-65.91-.84-98.86.19-17.75,1.89-35.53,3.82-53.2,1.07-9.79,5.63-12.84,14.77-11.76,32.18,3.79,58.86,16.52,75.5,45.68,7.98,13.98,11.77,29.42,12.45,45.36,1.14,26.77,1.55,53.58,2.16,80.37.21,9.37-.12,18.75.26,28.11.1,2.54,2.36,4.93,2.88,7.54,2.48,12.48,5.96,24.5,12.43,35.63,11.54,19.87,28.57,32.81,50.23,39.36,27,8.16,52.74,4.41,76.61-10.67,15.55-9.82,26.45-23.61,33.21-40.7,6.59-16.66,8.77-34.14,9.25-51.84.65-23.98.4-47.99,1.32-71.95.74-19.31,2.43-38.68,11.48-56.32,6.72-13.1,15.46-24,28.16-32.67,11.53-7.86,23.61-12.56,36.7-15.73,4.72-1.14,9.63-1.64,14.49-2.12,7.65-.76,11.37,1.78,12.8,9.32,1.37,7.17,2.58,14.44,2.94,21.71,1,20.29,1.52,40.61,2.33,63.61Z"/>
  <path class="cls-1" d="m918,294.1c0-20.5-.69-41.03.15-61.49,1.59-38.76,6.26-77.13,23.96-112.39,11.96-23.83,28.01-44.71,48.43-62.27,19.9-17.11,42.39-29.49,67-37.8,14.61-4.94,29.84-7.87,45.39-9.22,26.11-2.27,51.59.9,76.41,8.52,18.34,5.63,35.59,14.11,51.51,25.03,21.1,14.48,38.96,32.23,52.91,53.7,5.37,8.26,10.38,16.85,14.53,25.77,4.36,9.36,8.32,19.07,10.97,29.02,3.39,12.72,5.9,25.75,7.68,38.8,1.79,13.16,2.89,26.5,3.12,39.78.62,36.14,1.04,72.3.66,108.45-.18,17.06-1.94,34.15-3.81,51.13-1.11,10.01-5.61,12.51-15.55,11.24-19.48-2.49-37.82-7.93-53.4-20.49-15.16-12.23-24.98-27.98-29.8-46.76-4.67-18.18-5.59-36.83-5.87-55.5-.27-17.83.11-35.68-.47-53.49-.59-18.16-2.41-36.23-9.07-53.41-8.6-22.18-23.79-38.1-45.34-48.17-12.16-5.68-25.04-8.35-38.21-8.19-22.11.26-42.14,7.06-59.03,21.92-3.1,2.73-6.79,4.89-9.51,7.93-2.54,2.85-4.13,6.55-6.19,9.84-10.69,17.12-15.44,36.1-16.31,55.97-.98,22.29-.95,44.62-1.49,66.93-.47,19.65-1.12,39.33-6.53,58.4-4.93,17.41-14.24,32.14-28.25,43.77-16.7,13.88-36.62,19.2-57.6,21.63-6.03.7-10.72-2.76-11.92-9.57-1.56-8.82-2.93-17.77-3.25-26.7-.88-24.11-1.15-48.25-1.67-72.38.19,0,.38,0,.56,0Z"/>
  <path class="cls-1" d="m248.3,676.47c-31.28-2.22-56.46-10.13-77.6-28.93-20.34-18.09-33.15-40.44-37.24-67.19-4.32-28.28.73-55.06,16.96-79.11,4.82-7.14,9.45-14.88,15.87-20.35,9.01-7.67,19.26-14.09,29.61-19.9,15.39-8.64,32.69-11.81,49.97-11.51,12.25.22,24.81,3.03,36.58,6.74,21.34,6.71,38.87,19.67,52.19,37.73,9.19,12.45,17.41,25.78,19.52,41.36.63,4.66,5.55,9.4,1.39,14.65-.23.29,1.21,1.6,1.3,2.49.23,2.36.22,4.75.13,7.12-.03.94-.89,1.92-.75,2.78,3.74,22.38-4.71,41.59-15.66,60.11-6.93,11.73-15.98,21.72-26.78,29.92-10.08,7.65-21.13,14.03-33.38,17.37-11.64,3.17-23.65,5-32.1,6.72Z"/>
  <path class="cls-1" d="m1780,289.83c0-33.66-.35-67.32.18-100.97.19-12.23,2.19-24.47,3.93-36.62,1.17-8.18,4.85-10.97,13.12-10.28,21.73,1.82,41.97,8.23,58.54,22.85,13.36,11.79,22.41,26.64,26.88,44.12,4.92,19.2,5.68,38.85,5.91,58.47.4,33.65.19,67.32.13,100.97-.01,7.98-.36,15.96-.69,23.93-.25,6.19-2.5,8.79-8.57,9.75-4.59.73-9.24,1.52-13.87,1.55-24.99.17-49.99.22-74.98.06-8.61-.06-10.56-2.26-10.58-10.85-.06-34.32-.03-68.65-.03-102.98,0,0,.01,0,.02,0Z"/>
  <path class="cls-1" d="m1781.8,59.61c0-29.8,23.89-53.74,53.58-53.67,29.57.06,53.62,24.26,53.59,53.93-.02,29.26-24.21,53.32-53.6,53.31-30.01-.01-53.56-23.56-53.56-53.57Z"/>
</svg>