<?xml version="1.0" encoding="UTF-8"?>
<svg id="Layer_1" data-name="Layer 1" xmlns="http://www.w3.org/2000/svg" viewBox="0 0 1920 1080">
  <defs>
    <style>
      .cls-1 {
        fill: #fff;
      }
    </style>
  </defs>
  <path class="cls-1" d="m1571.35,422.52c12.39,12.81,24.44,25.3,36.51,37.76,24.24,25.02,48.51,50.01,72.75,75.03,17.19,17.74,34.43,35.42,51.47,53.3,4.89,5.14,9.35,10.73,13.64,16.39,3.11,4.1,1.76,8.07-3.23,9.49-4.39,1.25-8.99,2.31-13.53,2.43-13.43.35-26.87.1-40.3.25-12.23.13-24.47.78-36.69.61-11.83-.17-23.74-.43-35.43-2-4.81-.64-9.94-3.99-13.58-7.5-33.17-31.99-66.03-64.3-99.01-96.5-11.41-11.14-22.88-22.2-34.36-33.33-3.3,1.61-6.74,2.88-9.66,4.92-1.22.85-1.83,3.32-1.84,5.06-.12,23.16-.07,46.33-.08,69.49,0,13.33.02,26.66-.11,40-.03,3.47-.4,6.98-.99,10.4-.68,3.97-3.29,6.98-7.17,7.36-9.17.89-18.4,1.34-27.62,1.56-11.65.28-23.31.25-34.96.19-11.44-.05-22.88-.09-34.3-.6-3.4-.15-5.95-2.24-5.98-6.59-.16-19.46-.83-38.91-.85-58.36-.1-80.83-.09-161.65,0-242.48.02-15.52.22-31.05,1.09-46.54.59-10.52,2.22-21.01,3.91-31.43,1.31-8.09,6.36-11.58,14.62-10.38,20.95,3.04,41.14,8.44,57.69,22.53,10.55,8.98,18.85,19.86,24.17,32.85,5.12,12.49,7.78,25.48,8.52,38.92.76,13.76,1.58,27.52,2.4,41.76,4.53-2.48,8.84-4.81,13.11-7.2,14.99-8.37,29.91-16.85,44.96-25.1,16.18-8.87,32.52-17.46,48.73-26.28,29.47-16.04,58.76-32.42,88.4-48.13,18.79-9.96,37.99-19.16,57.21-28.27,4.85-2.3,10.07-4.18,16.01-3.33,4.2.6,6.77,2.49,8.41,5.9,8.2,17.02,12.04,35.04,10.65,53.86-1.51,20.47-9.8,38.51-23.67,53.33-7.33,7.82-16.29,14.57-25.56,20.02-28.9,16.99-58.28,33.15-87.51,49.59-12.49,7.02-25.04,13.93-37.82,21.03Z"/>
  <path class="cls-1" d="m42.28,366.98c0-7.15.23-14.32-.12-21.46-.13-2.59-1.11-5.48-2.61-7.6-8.19-11.55-13.41-23.99-14.72-38.31-2.48-27.24,8.23-48.69,28.76-65.29,9.73-7.87,21.72-11.91,34.51-13.48,16.9-2.08,32.49,1.11,46.86,9.93,23.68,14.55,35.54,35.82,35.2,63.71-.21,16.98-5.72,32-16.66,45.04-.77.92-1.42,2.32-1.4,3.48.26,13.1.55,26.21,1.04,39.3.88,23.5,2.3,47.02,10.12,69.41,4.02,11.5,10.46,21.8,19.34,30.67,13.29,13.27,29.49,20.58,47.37,24.13,11.31,2.24,22.9,1.36,34.33-1.1,16.9-3.63,31.71-11.36,43.85-23.4,10.44-10.36,16.85-23.36,20.89-37.6,4.54-16,6.62-32.28,7-48.84.33-14.28-.48-28.71,1.37-42.79,1.28-9.79-3.4-15.96-7.65-23.22-11.96-20.43-12.87-41.89-4.67-63.81,6.11-16.35,17.43-28.44,32.53-36.76,15.99-8.81,33.09-11.31,51.05-7.03,26.74,6.37,44.26,23.32,53.6,48.44,4.63,12.43,4.13,25.85,1.49,38.98-2.26,11.27-7.84,20.87-14.61,29.96-1.05,1.41-1.07,3.67-1.32,5.57-.17,1.29.18,2.65.16,3.97-.32,18.95-.24,37.91-1.13,56.83-.62,13.16-1.64,26.42-4.1,39.33-4.09,21.45-9.95,42.61-19.84,62.15-7.54,14.88-15.88,29.55-28.06,41.39-10.45,10.16-20.36,21.12-31.97,29.74-11.1,8.23-23.86,14.38-36.32,20.58-14.46,7.19-29.99,11.55-45.87,14.42-6.63,1.2-13.36,2.49-20.05,2.55-14,.13-28.15.6-41.98-1.16-16.88-2.15-33.29-6.83-49.37-13.02-14.62-5.63-27.35-14.24-40.63-21.99-5.91-3.45-11.04-8.53-15.86-13.51-10.12-10.45-20.83-20.57-29.39-32.22-10.4-14.16-18.63-29.8-24.54-46.6-6.35-18.08-11.13-36.46-12.9-55.53-2-21.57-3.53-43.17-5.26-64.76.52-.03,1.04-.07,1.56-.1Z"/>
  <path class="cls-1" d="m601.09,359.89c0,15.16-.54,30.34.13,45.46.98,21.92,4.44,43.4,16.43,62.49,6.69,10.64,15.36,19.33,26.13,25.95,12.56,7.72,25.99,12.25,40.8,13.29,29.27,2.04,53.88-7.56,73.66-29.03,11.51-12.49,17.62-27.87,20.66-44.38,5.34-29,3.58-58.36,4.22-87.62.44-20.49.65-41.25,7.1-60.93,10.16-31.02,31.73-50.8,63.04-59.69,7.71-2.19,15.77-3.22,23.73-4.37,6.31-.91,11.63,2.69,12.94,9.64,1.89,10.03,3.24,20.22,3.95,30.41.78,11.29.7,22.65.78,33.98.18,27.56.6,55.12.19,82.67-.23,16.06-1.15,32.19-3.07,48.13-1.81,14.97-4.52,29.94-8.3,44.53-7.48,28.87-20.75,55.07-40.97,77.15-10.4,11.35-21.35,22.64-33.76,31.58-12.82,9.23-27.02,16.73-41.9,22.89-14.74,6.1-30,10.11-45.46,12.59-16.79,2.69-33.85,2.89-51.04.84-15.67-1.87-30.82-5.38-45.52-10.54-21.41-7.52-40.96-18.5-58.8-32.88-13.84-11.15-25.85-23.94-36.16-38.01-9.9-13.52-18.57-28.23-23.72-44.46-3.76-11.84-7.98-23.71-9.97-35.9-3.06-18.69-5.02-37.63-6.26-56.54-1.16-17.75-.95-35.6-1.04-53.41-.12-22.74-.39-45.49.27-68.22.4-13.91,1.87-27.86,3.9-41.65,1.7-11.57,5.22-13.2,16.9-12.01,14.96,1.52,29.12,5.41,42.34,12.63,17.4,9.5,29.57,23.66,37.6,41.63,6.24,13.97,8.21,28.83,9.16,43.85.83,13.29,1.08,26.61,1.58,39.91.15,0,.31,0,.46.01Z"/>
  <path class="cls-1" d="m1029.05,471.06c-1.35,22.04-1.13,44.32-4.41,66.06-5.24,34.7-23.89,60.17-57.78,72.95-11.06,4.17-22.39,6.78-34.21,6.95-6.72.1-10.22-3.14-11.72-9.67-3.85-16.78-3.82-33.83-4.02-50.88-.22-17.95-.78-35.89-.86-53.84-.06-11.76.52-23.53.71-35.3.18-10.87-.23-21.76.46-32.59.69-10.83,2.06-21.66,3.8-32.37,2.08-12.82,3.72-25.89,7.65-38.18,4.39-13.73,10.6-26.97,17-39.94,9.04-18.31,22.09-33.82,36.79-47.87,15.34-14.66,32.62-26.59,51.91-35.57,16.72-7.79,34.21-13.48,52.28-16.52,12.49-2.1,25.41-2.2,38.13-2.2,19.39,0,38.53,3.53,56.79,9.45,17.17,5.57,33.52,13.69,48.7,23.91,17.36,11.7,32.54,25.64,45.48,42.05,13.51,17.13,24.56,35.78,31.06,56.59,4.77,15.28,8.63,31.02,10.94,46.85,2.58,17.65,3.2,35.6,4.22,53.45.56,9.79.13,19.64.26,29.46.17,12.19.72,24.37.65,36.56-.1,16.81-.38,33.62-1.09,50.41-.45,10.7-1.45,21.41-2.89,32.02-1.66,12.2-7.93,16.37-20.08,14.09-12.26-2.3-24.31-5.03-35.65-10.75-19.31-9.75-33.07-24.15-41.73-44.06-6.1-14.04-8.52-28.74-9.3-43.63-1.09-20.8-.69-41.68-1.25-62.52-.52-19.57-.84-39.2-5.92-58.3-8.17-30.69-27.13-51.86-57.16-62.22-17.69-6.1-35.73-6.17-53.95-.57-18.59,5.7-33.74,15.84-45.26,31.36-8.71,11.74-14.69,24.97-16.38,39.4-2.54,21.68-3.78,43.5-5.58,65.27.8.06,1.6.12,2.39.18Z"/>
  <path class="cls-1" d="m343.29,761.51c.22,54.48-44.72,98.22-98.88,97.64-54.23-.58-98.54-44.3-97.66-100.13.86-54.62,45.23-97.37,99.44-96.81,53.83.56,97.99,43.84,97.1,99.31Z"/>
  <path class="cls-1" d="m1890.02,533.52c0,21.32.15,42.65-.05,63.97-.16,17.57-1.71,19.96-20.6,20.39-26.31.59-52.64-.03-78.96.24-9.17.09-12.6-4.86-12.4-12.7.33-12.86.22-25.73.28-38.59.1-20.79.26-41.59.26-62.38,0-7.29-.49-14.59-.53-21.88-.08-16.27-.24-32.55.05-48.82.25-14.09.91-28.18,1.68-42.25.43-7.84,1.23-15.69,2.26-23.48,1.58-11.95,5.15-14.84,17.15-14.04,13.53.91,26.55,4.33,38.57,10.43,26.98,13.68,43.39,35.76,48.09,65.61,2.49,15.84,3.45,31.99,4.04,48.04.67,18.47.16,36.98.16,55.47Z"/>
  <path class="cls-1" d="m1779.98,271.99c1.81-33.31,25.07-55.28,56.16-54.5,31.62.8,54.59,22.42,54.36,55.92-.23,32.37-24.56,53.97-54.7,54.29-31,.33-55.47-22.68-55.81-55.72Z"/>
</svg>