<?xml version="1.0" encoding="UTF-8"?>
<svg id="Layer_1" data-name="Layer 1" xmlns="http://www.w3.org/2000/svg" viewBox="0 0 1920 1080">
  <path d="m1469.65,476.25c-3.88,2.07-7.88,3.81-11.36,6.27-1.35.95-2.16,3.53-2.17,5.37-.12,31.5-.03,62.99-.12,94.49-.02,7.81-.45,15.63-.84,23.44-.25,4.98-2.76,8.19-7.98,8.43-13.96.64-27.92,1.47-41.88,1.61-16.65.17-33.3-.35-49.95-.46-4.56-.03-6.74-2.26-6.98-6.61-.22-3.99-.43-7.98-.43-11.98.02-101.99-.11-203.99.3-305.98.08-18.75,1.98-37.52,3.83-56.21,1-10.05,5.97-12.79,15.97-11.28,14.22,2.15,28.05,5.49,40.71,12.6,21.47,12.06,34.97,30.35,41.28,53.93,5.61,20.95,5.63,42.49,6,63.97.03,1.8,0,3.6,0,6.43,7.39-3.98,14.05-7.55,20.69-11.16,63.98-34.88,127.83-69.99,192-104.52,16.06-8.64,32.95-15.8,49.76-22.93,8.87-3.76,13.18-1.32,16.8,7.55,7.76,19.01,11.56,38.7,7.48,59.06-3.59,17.87-12.3,33.32-25.74,45.79-20.61,19.13-45.57,31.61-69.89,45.01-25.2,13.88-50.5,27.57-75.75,41.36-.71.39-1.34.93-2.56,1.8,2.73,2.88,5.27,5.62,7.86,8.31,47.02,48.58,94.1,97.1,141.03,145.77,8.88,9.21,17.39,18.8,25.59,28.62,4.02,4.82,3,7.52-3.26,8.55-8.34,1.38-16.85,2.29-25.29,2.31-30.15.07-60.3-.44-90.44-.44-8.1,0-14.48-3.13-20.05-8.53-28.11-27.24-56.2-54.49-84.28-81.77-16.01-15.55-31.96-31.16-47.95-46.73-.7-.68-1.48-1.29-2.39-2.07Z"/>
  <path d="m148.37,337.3c1.01,4.37,2.34,7.76,2.49,11.19.89,21.13.9,42.32,2.39,63.4,1.4,19.83,5.32,39.33,15.92,56.63,11.76,19.2,29.16,31.22,50.56,37.39,22.69,6.55,44.86,4.34,66.02-5.91,20.86-10.11,35.32-26.3,42.95-48.28,8.64-24.91,9.41-50.91,10.18-76.88.3-10.15.44-20.31.43-30.46,0-1.42-1.03-3.07-2.04-4.22-16.94-19.32-22.59-41.55-16.34-66.4,5.34-21.22,18.27-36.89,37.97-46.24,23.7-11.24,47.32-9.99,69.42,4.2,22.07,14.17,32.99,34.96,32.97,61.3-.01,16.45-5.75,30.84-15.68,43.79-.84,1.09-.81,3.07-.7,4.61.22,2.97,1.09,5.9,1.15,8.86.6,31.01.06,62.01-5.13,92.66-4.81,28.38-13.82,55.27-29.25,79.98-19.31,30.93-45.27,54.56-77.48,70.85-23.69,11.98-49.12,18.78-75.97,20.64-36.2,2.5-70.32-4.75-102.41-20.66-23.7-11.75-44.16-28.12-61.39-48.64-17.1-20.36-29.61-43.16-37.31-68.27-4.94-16.1-7.5-33.03-10.03-49.76-4.01-26.6-3.48-53.48-3.24-80.31.02-1.86-1.13-4.11-2.43-5.54-14.39-15.69-20.71-34.06-19.57-55.31,1.53-28.3,24.93-56.37,52.47-63.06,25.59-6.21,48.33-.94,67.56,16.82,16.41,15.15,23.77,34.34,22.45,56.88-.93,15.91-7.01,29.55-15.96,40.73Z"/>
  <path d="m1321.77,495.67c-1.14,38.25-1.83,65.9-2.89,93.53-.23,5.93-1.51,11.88-2.82,17.7-1.56,6.93-5.22,9.17-12.35,8.5-17.46-1.63-34.12-6.01-48.86-15.73-20.79-13.71-33.57-33.22-37.59-57.65-2.58-15.71-3.56-31.74-4.26-47.67-.88-20.14-.41-40.33-1.17-60.47-.6-15.81-2.62-31.49-8.19-46.49-9.08-24.45-25.49-42.07-49.84-51.34-36.79-14.01-70.16-7.26-98.72,19.63-14.46,13.62-22.59,31.49-24.78,51.13-2.35,21.13-3.03,42.46-4.18,63.72-1.15,21.44-.96,43-3.21,64.32-2.9,27.49-15.97,49.91-39.43,65.21-15.35,10.01-32.81,14.3-50.96,15.62-4.81.35-8.67-2.89-9.68-8.92-1.72-10.31-3.51-20.74-3.7-31.14-.7-38.32-1.24-76.65-.89-114.97.3-32.65,2.56-65.27,12.15-96.76,5.48-18.01,13.43-35.03,23.87-50.85,17.66-26.75,40.19-48.22,68.2-63.82,24.69-13.75,51.02-21.88,79.3-24.56,26.48-2.51,52.19.57,77.32,8.32,16.19,4.99,31.53,12.23,45.99,21.4,28.02,17.77,49.88,41.15,66.26,69.87,14.49,25.4,23.04,52.83,25.41,81.76,2.74,33.33,3.78,66.8,5,89.69Z"/>
  <path d="m893.83,334.33c-.93,27.63-1.32,55.3-2.95,82.9-1.8,30.27-8.31,59.65-21.73,87.03-7.84,16-17.77,30.75-29.7,44.18-21.65,24.39-47.61,42.29-78.12,53.67-18,6.71-36.52,10.63-55.72,12.25-25.31,2.14-49.89-1.38-73.85-8.66-17.5-5.32-33.99-13.39-49.29-23.69-22.81-15.35-41.64-34.47-56.63-57.58-16.7-25.75-26.2-54.06-30.75-84.13-4.07-26.91-4.65-54.08-4.57-81.24.1-31,.15-62,.84-92.99.25-11.25,2.03-22.5,3.66-33.68.98-6.74,4.97-9.94,11.26-9.33,19.29,1.87,37.65,6.69,53.58,18.41,18.55,13.65,29.39,32.1,34.14,54.47,4.4,20.7,3.88,41.69,4.41,62.66.55,21.64.92,43.32,2.75,64.86,1.76,20.73,8.63,39.99,22.79,55.85,16.01,17.94,36.24,27.64,60.16,29.74,21.53,1.89,41.23-3.44,59.13-15.38,14.69-9.8,25.05-23.19,31.6-39.53,8.59-21.46,9.41-44.12,9.99-66.76.54-21.15.29-42.33,1.17-63.47.72-17.3,3.12-34.41,10.92-50.31,9.49-19.32,23.75-33.88,43.82-41.58,10.91-4.19,22.65-6.45,34.18-8.76,8.01-1.61,12.46,1.74,13.8,9.86,1.54,9.33,2.96,18.79,3.13,28.21.43,24.32.14,48.65.14,72.98.61,0,1.23.02,1.84.03Z"/>
  <path d="m245.22,664.01c55.28,1.29,96.8,44.02,96.4,97.32-.41,54.78-42.96,96.46-96.86,96.21-56.2-.27-96.77-44.35-96.4-97.11.38-55.18,43.9-95.6,96.86-96.41Z"/>
  <path d="m1780.97,498.56c0-34.31-.22-68.63.14-102.94.1-9.76,1.56-19.56,3.07-29.23,1.49-9.6,5.83-12.26,15.37-10.93,14.75,2.06,29.03,5.57,42.11,13.01,15.37,8.73,26.68,21.2,34.46,37.01,9.92,20.15,11.35,41.98,11.63,63.75.56,44.14.3,88.3.25,132.45-.01,10.44-1.72,12.78-12.1,13.75-10.75,1.01-21.61.93-32.42.99-17.32.11-34.65.05-51.97-.14-10.11-.11-11.13-.98-11.29-11.28-.3-20.15-.21-40.31-.25-60.47-.03-15.33,0-30.65,0-45.98.33,0,.67,0,1,0Z"/>
  <path d="m1888.53,272.51c.49,28.64-23.26,53.09-52.07,53.61-29.54.53-53.99-22.83-54.54-52.12-.57-29.81,23.02-54.7,53.07-54.64,30.21.07,53.15,23.48,53.54,53.15Z"/>
</svg>